<svg height="550.0" viewBox="-275.0 -275.0 550.0 550.0" width="550.0" xmlns="http://www.w3.org/2000/svg"><g><rect fill="rgb(152,150,113)" height="550.0" transform="rotate(0 0.0 0.0)" width="550.0" x="-275.0" y="-275.0"></rect><polygon fill="none" points="-49.44272,-152.16904 -129.44272,-94.04564 -70.71068,-70.71068" stroke-width="1.5" stroke="rgb(89,60,62)"></polygon><polygon fill="none" points="-200.0,0.0 -173.20508,100.0 -160.0,0.0" stroke-width="1.5" stroke="rgb(89,60,62)"></polygon><polygon fill="none" points="70.71068,70.71068 100.0,0.0 60.0,0.0" stroke-width="1.5" stroke="rgb(89,60,62)"></polygon><polygon fill="none" points="-70.71068,70.71068 -30.0,51.96152 -60.0,0.0" stroke-width="1.5" stroke="rgb(89,60,62)"></polygon><polygon fill="none" points="-173.20508,100.0 -100.0,173.20508 -129.44272,94.04564" stroke-width="1.5" stroke="rgb(89,60,62)"></polygon><polygon fill="none" points="173.20508,-100.0 100.0,-173.20508 129.44272,-94.04564" stroke-width="1.5" stroke="rgb(89,60,62)"></polygon><polygon fill="none" points="49.44272,-152.16904 -49.44272,-152.16904 0.0,-100.0" stroke-width="1.5" stroke="rgb(89,60,62)"></polygon><polygon fill="none" points="-173.20508,100.0 -129.44272,94.04564 -160.0,0.0" stroke-width="1.5" stroke="rgb(89,60,62)"></polygon><polygon fill="none" points="160.0,0.0 129.44272,-94.04564 100.0,0.0" stroke-width="1.5" stroke="rgb(89,60,62)"></polygon><polygon fill="none" points="70.71068,70.71068 60.0,0.0 30.0,51.96152" stroke-width="1.5" stroke="rgb(89,60,62)"></polygon><polygon fill="none" points="0.0,100.0 30.0,51.96152 -30.0,51.96152" stroke-width="1.5" stroke="rgb(89,60,62)"></polygon><polygon fill="none" points="129.44272,94.04564 100.0,0.0 70.71068,70.71068" stroke-width="1.5" stroke="rgb(89,60,62)"></polygon><polygon fill="none" points="100.0,-173.20508 0.0,-200.0 49.44272,-152.16904" stroke-width="1.5" stroke="rgb(89,60,62)"></polygon><polygon fill="none" points="100.0,173.20508 173.20508,100.0 129.44272,94.04564" stroke-width="1.5" stroke="rgb(89,60,62)"></polygon><polygon fill="none" points="-100.0,-173.20508 -173.20508,-100.0 -129.44272,-94.04564" stroke-width="1.5" stroke="rgb(89,60,62)"></polygon><polygon fill="none" points="-129.44272,94.04564 -70.71068,70.71068 -100.0,0.0" stroke-width="1.5" stroke="rgb(89,60,62)"></polygon><polygon fill="none" points="-160.0,0.0 -129.44272,94.04564 -100.0,0.0" stroke-width="1.5" stroke="rgb(89,60,62)"></polygon><polygon fill="none" points="-100.0,-173.20508 -129.44272,-94.04564 -49.44272,-152.16904" stroke-width="1.5" stroke="rgb(89,60,62)"></polygon><polygon fill="none" points="49.44272,-152.16904 0.0,-100.0 70.71068,-70.71068" stroke-width="1.5" stroke="rgb(89,60,62)"></polygon><polygon fill="none" points="49.44272,152.16904 70.71068,70.71068 0.0,100.0" stroke-width="1.5" stroke="rgb(89,60,62)"></polygon><polygon fill="none" points="0.0,100.0 70.71068,70.71068 30.0,51.96152" stroke-width="1.5" stroke="rgb(89,60,62)"></polygon><polygon fill="none" points="-100.0,173.20508 0.0,200.0 -49.44272,152.16904" stroke-width="1.5" stroke="rgb(89,60,62)"></polygon><polygon fill="none" points="173.20508,100.0 160.0,0.0 129.44272,94.04564" stroke-width="1.5" stroke="rgb(89,60,62)"></polygon><polygon fill="none" points="30.0,51.96152 60.0,0.0 30.0,-51.96152" stroke-width="1.5" stroke="rgb(89,60,62)"></polygon><polygon fill="none" points="-100.0,0.0 -70.71068,70.71068 -60.0,0.0" stroke-width="1.5" stroke="rgb(89,60,62)"></polygon><polygon fill="none" points="-70.71068,-70.71068 -100.0,0.0 -60.0,0.0" stroke-width="1.5" stroke="rgb(89,60,62)"></polygon><polygon fill="none" points="100.0,0.0 129.44272,-94.04564 70.71068,-70.71068" stroke-width="1.5" stroke="rgb(89,60,62)"></polygon><polygon fill="none" points="-49.44272,152.16904 0.0,100.0 -70.71068,70.71068" stroke-width="1.5" stroke="rgb(89,60,62)"></polygon><polygon fill="none" points="-30.0,-51.96152 30.0,51.96152 30.0,-51.96152" stroke-width="1.5" stroke="rgb(89,60,62)"></polygon><polygon fill="none" points="0.0,-100.0 -30.0,-51.96152 30.0,-51.96152" stroke-width="1.5" stroke="rgb(89,60,62)"></polygon><polygon fill="none" points="0.0,-100.0 -70.71068,-70.71068 -30.0,-51.96152" stroke-width="1.5" stroke="rgb(89,60,62)"></polygon><polygon fill="none" points="160.0,0.0 173.20508,-100.0 129.44272,-94.04564" stroke-width="1.5" stroke="rgb(89,60,62)"></polygon><polygon fill="none" points="-129.44272,-94.04564 -100.0,0.0 -70.71068,-70.71068" stroke-width="1.5" stroke="rgb(89,60,62)"></polygon><polygon fill="none" points="60.0,0.0 70.71068,-70.71068 30.0,-51.96152" stroke-width="1.5" stroke="rgb(89,60,62)"></polygon><polygon fill="none" points="-49.44272,-152.16904 -70.71068,-70.71068 0.0,-100.0" stroke-width="1.5" stroke="rgb(89,60,62)"></polygon><polygon fill="none" points="-30.0,51.96152 30.0,51.96152 -30.0,-51.96152" stroke-width="1.5" stroke="rgb(89,60,62)"></polygon><polygon fill="none" points="129.44272,94.04564 160.0,0.0 100.0,0.0" stroke-width="1.5" stroke="rgb(89,60,62)"></polygon><polygon fill="none" points="129.44272,-94.04564 49.44272,-152.16904 70.71068,-70.71068" stroke-width="1.5" stroke="rgb(89,60,62)"></polygon><polygon fill="none" points="-70.71068,-70.71068 -60.0,0.0 -30.0,-51.96152" stroke-width="1.5" stroke="rgb(89,60,62)"></polygon><polygon fill="none" points="0.0,-200.0 -49.44272,-152.16904 49.44272,-152.16904" stroke-width="1.5" stroke="rgb(89,60,62)"></polygon><polygon fill="none" points="0.0,200.0 49.44272,152.16904 -49.44272,152.16904" stroke-width="1.5" stroke="rgb(89,60,62)"></polygon><polygon fill="none" points="70.71068,-70.71068 0.0,-100.0 30.0,-51.96152" stroke-width="1.5" stroke="rgb(89,60,62)"></polygon><polygon fill="none" points="0.0,200.0 100.0,173.20508 49.44272,152.16904" stroke-width="1.5" stroke="rgb(89,60,62)"></polygon><polygon fill="none" points="0.0,-200.0 -100.0,-173.20508 -49.44272,-152.16904" stroke-width="1.5" stroke="rgb(89,60,62)"></polygon><polygon fill="none" points="-60.0,0.0 -30.0,51.96152 -30.0,-51.96152" stroke-width="1.5" stroke="rgb(89,60,62)"></polygon><polygon fill="none" points="-49.44272,152.16904 49.44272,152.16904 0.0,100.0" stroke-width="1.5" stroke="rgb(89,60,62)"></polygon><polygon fill="none" points="-70.71068,70.71068 0.0,100.0 -30.0,51.96152" stroke-width="1.5" stroke="rgb(89,60,62)"></polygon><polygon fill="none" points="100.0,-173.20508 49.44272,-152.16904 129.44272,-94.04564" stroke-width="1.5" stroke="rgb(89,60,62)"></polygon><polygon fill="none" points="-173.20508,-100.0 -200.0,0.0 -160.0,0.0" stroke-width="1.5" stroke="rgb(89,60,62)"></polygon><polygon fill="none" points="100.0,0.0 70.71068,-70.71068 60.0,0.0" stroke-width="1.5" stroke="rgb(89,60,62)"></polygon><line fill="none" stroke-width="1.5" stroke="rgb(89,60,62)" x1="-114.88138992930126" x2="-54.90985613070285" y1="-88.26024436786132" y2="-131.22936674424017"></line><line fill="none" stroke-width="1.5" stroke="rgb(89,60,62)" x1="-100.62980296199828" x2="-59.83594300417847" y1="-82.59791384291094" y2="-112.36197375065474"></line><line fill="none" stroke-width="1.5" stroke="rgb(89,60,62)" x1="-85.43531030850235" x2="-65.58090626737356" y1="-76.56095530907082" y2="-90.35820434820079"></line><line fill="none" stroke-width="1.5" stroke="rgb(89,60,62)" x1="-180.00026837289843" x2="-190.05321057544234" y1="74.64000723869088" y2="0.0"></line><line fill="none" stroke-width="1.5" stroke="rgb(89,60,62)" x1="-186.50666659931525" x2="-179.89775739210415" y1="50.35780086850782" y2="0.0"></line><line fill="none" stroke-width="1.5" stroke="rgb(89,60,62)" x1="-193.1015959280252" x2="-170.24545612071293" y1="25.745191958970054" y2="0.0"></line><line fill="none" stroke-width="1.5" stroke="rgb(89,60,62)" x1="74.5475496684104" x2="65.6980243157813" y1="61.44765073254184" y2="0.0"></line><line fill="none" stroke-width="1.5" stroke="rgb(89,60,62)" x1="79.11664252747381" x2="71.64359168671758" y1="50.41688479407256" y2="0.0"></line><line fill="none" stroke-width="1.5" stroke="rgb(89,60,62)" x1="83.37797352956912" x2="77.43318391710733" y1="40.12912170402859" y2="0.0"></line><line fill="none" stroke-width="1.5" stroke="rgb(89,60,62)" x1="87.20428242252481" x2="82.84630563078338" y1="30.891594888885358" y2="0.0"></line><line fill="none" stroke-width="1.5" stroke="rgb(89,60,62)" x1="91.39559680974418" x2="89.07028781576166" y1="20.77286685991885" y2="0.0"></line><line fill="none" stroke-width="1.5" stroke="rgb(89,60,62)" x1="95.8028753425798" x2="94.24435101505014" y1="10.132755262074191" y2="0.0"></line><line fill="none" stroke-width="1.5" stroke="rgb(89,60,62)" x1="65.22550635851971" x2="61.632154355935846" y1="0.0" y2="10.775297342446963"></line><line fill="none" stroke-width="1.5" stroke="rgb(89,60,62)" x1="71.03012846010361" x2="63.12256652775307" y1="0.0" y2="20.614828913543104"></line><line fill="none" stroke-width="1.5" stroke="rgb(89,60,62)" x1="76.8384747062264" x2="64.48728416484089" y1="0.0" y2="29.62453946856665"></line><line fill="none" stroke-width="1.5" stroke="rgb(89,60,62)" x1="82.64994862571933" x2="66.14808107617156" y1="0.0" y2="40.588931702623874"></line><line fill="none" stroke-width="1.5" stroke="rgb(89,60,62)" x1="88.16813479906216" x2="67.59420779300781" y1="0.0" y2="50.13609573897658"></line><line fill="none" stroke-width="1.5" stroke="rgb(89,60,62)" x1="94.61853092409568" x2="69.24595515466066" y1="0.0" y2="61.040743875767944"></line><line fill="none" stroke-width="1.5" stroke="rgb(89,60,62)" x1="-65.91061051374447" x2="-56.749543446289266" y1="68.50002416986342" y2="5.629955565283716"></line><line fill="none" stroke-width="1.5" stroke="rgb(89,60,62)" x1="-61.72855371835783" x2="-53.673703453642744" y1="66.5739928951018" y2="10.957466392879141"></line><line fill="none" stroke-width="1.5" stroke="rgb(89,60,62)" x1="-56.964898063415056" x2="-50.31467637889108" y1="64.3801083491683" y2="16.775471605669225"></line><line fill="none" stroke-width="1.5" stroke="rgb(89,60,62)" x1="-52.74968941758464" x2="-46.9738792087818" y1="62.43880910845236" y2="22.5619016992722"></line><line fill="none" stroke-width="1.5" stroke="rgb(89,60,62)" x1="-47.80887249729321" x2="-43.43107870117133" y1="60.16333357644851" y2="28.69821181599758"></line><line fill="none" stroke-width="1.5" stroke="rgb(89,60,62)" x1="-43.54445643811553" x2="-40.065256958186545" y1="58.19937203780264" y2="34.5279857386908"></line><line fill="none" stroke-width="1.5" stroke="rgb(89,60,62)" x1="-39.09243356141906" x2="-36.66275051123949" y1="56.149008851455974" y2="40.42129942874298"></line><line fill="none" stroke-width="1.5" stroke="rgb(89,60,62)" x1="-34.83543499068674" x2="-33.40919975947736" y1="54.18846341054022" y2="46.05661430194286"></line><line fill="none" stroke-width="1.5" stroke="rgb(89,60,62)" x1="-56.84764371066612" x2="-61.1374655161528" y1="5.460040933213399" y2="7.5094179105987"></line><line fill="none" stroke-width="1.5" stroke="rgb(89,60,62)" x1="-52.96281093965004" x2="-62.473705647189774" y1="12.18876827288819" y2="16.331123211000893"></line><line fill="none" stroke-width="1.5" stroke="rgb(89,60,62)" x1="-49.82153975006398" x2="-63.55522777333029" y1="17.629609251268874" y2="23.47120922628307"></line><line fill="none" stroke-width="1.5" stroke="rgb(89,60,62)" x1="-46.32427089077966" x2="-64.63052665494565" y1="23.687056244413135" y2="30.57021008932507"></line><line fill="none" stroke-width="1.5" stroke="rgb(89,60,62)" x1="-43.16592069076313" x2="-65.99158737036366" y1="29.15747893484986" y2="39.55577806358905"></line><line fill="none" stroke-width="1.5" stroke="rgb(89,60,62)" x1="-39.97941086586026" x2="-67.04903822823803" y1="34.67667552342227" y2="46.53694830473861"></line><line fill="none" stroke-width="1.5" stroke="rgb(89,60,62)" x1="-36.30842409835627" x2="-68.2293621892839" y1="41.0350107419619" y2="54.32931279185332"></line><line fill="none" stroke-width="1.5" stroke="rgb(89,60,62)" x1="-33.432353918757784" x2="-69.52422004949398" y1="46.01651012403855" y2="62.877817048957205"></line><line fill="none" stroke-width="1.5" stroke="rgb(89,60,62)" x1="-104.64666456505879" x2="-137.2032033674252" y1="160.7120958441046" y2="95.10154023965237"></line><line fill="none" stroke-width="1.5" stroke="rgb(89,60,62)" x1="-109.56580217943711" x2="-144.4180278209414" y1="147.486544872375" y2="96.08319820889702"></line><line fill="none" stroke-width="1.5" stroke="rgb(89,60,62)" x1="-114.958739945764" x2="-151.58306676127367" y1="132.9871388977496" y2="97.05808229943058"></line><line fill="none" stroke-width="1.5" stroke="rgb(89,60,62)" x1="-119.48225650563117" x2="-158.88624570401493" y1="120.82525128169294" y2="98.05176189013326"></line><line fill="none" stroke-width="1.5" stroke="rgb(89,60,62)" x1="-124.32339156327785" x2="-165.9816668923877" y1="107.80941731136708" y2="99.01717370293474"></line><line fill="none" stroke-width="1.5" stroke="rgb(89,60,62)" x1="108.64511687697468" x2="167.24732662155878" y1="-164.55996124802533" y2="-99.18938093645757"></line><line fill="none" stroke-width="1.5" stroke="rgb(89,60,62)" x1="117.94029626327321" x2="161.86038633100563" y1="-155.2647818617268" y2="-98.45642715495711"></line><line fill="none" stroke-width="1.5" stroke="rgb(89,60,62)" x1="127.28867277101395" x2="156.9300002098299" y1="-145.91640535398605" y2="-97.78559270035765"></line><line fill="none" stroke-width="1.5" stroke="rgb(89,60,62)" x1="136.94461007451062" x2="150.87553199484282" y1="-136.26046805048938" y2="-96.96181424101012"></line><line fill="none" stroke-width="1.5" stroke="rgb(89,60,62)" x1="145.76001480201506" x2="145.83599027896724" y1="-127.44506332298494" y2="-96.2761279407261"></line><line fill="none" stroke-width="1.5" stroke="rgb(89,60,62)" x1="154.27681694329073" x2="140.04053442593448" y1="-118.92826118170929" y2="-95.48759102479843"></line><line fill="none" stroke-width="1.5" stroke="rgb(89,60,62)" x1="164.5853297986028" x2="135.36223950786342" y1="-108.61974832639719" y2="-94.85105641215613"></line><polygon fill="none" points="43.51084003361612,-149.47006555332482 -42.493202328565246,-148.91671668284584 -0.09413381974526182,-103.96882567700453" stroke-width="1.5" stroke="rgb(89,60,62)"></polygon><polygon fill="none" points="35.3136701347397,-145.74039939454568 -35.46859299423642,-145.62925347985666 -0.1884060948008795,-107.94348884145349" stroke-width="1.5" stroke="rgb(89,60,62)"></polygon><polygon fill="none" points="28.055804996005186,-142.43811161390187 -27.539331253514447,-141.91841990052794 -0.2961901672279133,-112.48783002911745" stroke-width="1.5" stroke="rgb(89,60,62)"></polygon><polygon fill="none" points="21.666347016106435,-139.53094420191056 -21.470157733230653,-139.0780933185237 -0.4035924584732517,-117.0160747387992" stroke-width="1.5" stroke="rgb(89,60,62)"></polygon><polygon fill="none" points="13.803624578473901,-135.95344975525634 -14.545663609271557,-135.8374832648679 -0.5048996727318675,-121.28734168943872" stroke-width="1.5" stroke="rgb(89,60,62)"></polygon><polygon fill="none" points="6.822798112234487,-132.77721301103423 -7.999940922492662,-132.77413533395935 -0.6042801863426042,-125.47737599676367" stroke-width="1.5" stroke="rgb(89,60,62)"></polygon><polygon fill="none" points="-171.00726916802367,95.87832004157066 -132.95029539654738,90.6453826026798 -159.3784204206644,11.138234942776503" stroke-width="1.5" stroke="rgb(89,60,62)"></polygon><polygon fill="none" points="-168.29815554513874,90.79776047377518 -137.2701829646615,86.45766955704222 -158.95648070604094,18.69907482459476" stroke-width="1.5" stroke="rgb(89,60,62)"></polygon><polygon fill="none" points="-165.8087762352609,86.12928154257266 -140.64259570348688,83.18844168965616 -158.44948679561648,27.784021429340854" stroke-width="1.5" stroke="rgb(89,60,62)"></polygon><polygon fill="none" points="-163.3196552893444,81.46128713645052 -144.82206393609155,79.13685160414215 -157.82432288869055,38.986484805837414" stroke-width="1.5" stroke="rgb(89,60,62)"></polygon><polygon fill="none" points="-161.26976011745597,77.61699856895031 -148.83013633785382,75.25141319398298 -157.19710540264714,50.225746763632664" stroke-width="1.5" stroke="rgb(89,60,62)"></polygon><polygon fill="none" points="-158.6900316124003,72.77908249634265 -152.66563150697684,71.53327171391936 -156.79824652335066,57.3729955702386" stroke-width="1.5" stroke="rgb(89,60,62)"></polygon><polygon fill="none" points="160.0,0.0 129.44272,-94.04564 100.0,0.0" stroke-width="1.5" stroke="rgb(89,60,62)"></polygon><polygon fill="none" points="70.71068,70.71068 60.0,0.0 30.0,51.96152" stroke-width="1.5" stroke="rgb(89,60,62)"></polygon><line fill="none" stroke-width="1.5" stroke="rgb(89,60,62)" x1="21.883097654338556" x2="-3.9524229008653258" y1="51.96152114868164" y2="93.67105386884383"></line><line fill="none" stroke-width="1.5" stroke="rgb(89,60,62)" x1="15.444679954456834" x2="-7.166804784523592" y1="51.96152114868164" y2="88.5239199975712"></line><line fill="none" stroke-width="1.5" stroke="rgb(89,60,62)" x1="6.9613153141509905" x2="-11.239001317028592" y1="51.96152114868164" y2="82.00318243073276"></line><line fill="none" stroke-width="1.5" stroke="rgb(89,60,62)" x1="-0.5187113820795588" x2="-15.044113999627687" y1="51.96152114868164" y2="75.91012159306877"></line><line fill="none" stroke-width="1.5" stroke="rgb(89,60,62)" x1="-8.1818151014824" x2="-18.586642227113067" y1="51.96152114868164" y2="70.23753268186027"></line><line fill="none" stroke-width="1.5" stroke="rgb(89,60,62)" x1="-15.605368658263117" x2="-22.414049195604235" y1="51.96152114868164" y2="64.10877239148522"></line><line fill="none" stroke-width="1.5" stroke="rgb(89,60,62)" x1="-22.502699019690276" x2="-26.09432576408227" y1="51.96152114868164" y2="58.215609454757406"></line><line fill="none" stroke-width="1.5" stroke="rgb(89,60,62)" x1="123.38623915066567" x2="76.26263877388035" y1="74.70009283226213" y2="57.307059357050335"></line><line fill="none" stroke-width="1.5" stroke="rgb(89,60,62)" x1="117.51386485182846" x2="82.0652619651698" y1="55.94261316899425" y2="43.29828776352053"></line><line fill="none" stroke-width="1.5" stroke="rgb(89,60,62)" x1="111.79862962580299" x2="88.42516064337764" y1="37.68706557145911" y2="27.94413413266801"></line><line fill="none" stroke-width="1.5" stroke="rgb(89,60,62)" x1="105.80939684324666" x2="94.33457569892374" y1="18.55631770008746" y2="13.677544172323595"></line><line fill="none" stroke-width="1.5" stroke="rgb(89,60,62)" x1="76.22530219125962" x2="81.72425311802773" y1="57.397197841107364" y2="75.08650671203588"></line><line fill="none" stroke-width="1.5" stroke="rgb(89,60,62)" x1="82.50276612314862" x2="93.70675619325618" y1="42.24205929265492" y2="79.84730234018886"></line><line fill="none" stroke-width="1.5" stroke="rgb(89,60,62)" x1="87.92106846988679" x2="105.81141095519934" y1="29.161120293533997" y2="84.65663033361075"></line><line fill="none" stroke-width="1.5" stroke="rgb(89,60,62)" x1="93.96062173513442" x2="118.31748502988918" y1="14.580348902619276" y2="89.62544714979217"></line><line fill="none" stroke-width="1.5" stroke="rgb(89,60,62)" x1="78.93603579598938" x2="39.62840586895459" y1="-178.8491508772426" y2="-161.66341824463257"></line><line fill="none" stroke-width="1.5" stroke="rgb(89,60,62)" x1="61.039444398887625" x2="29.230363417754955" y1="-183.644528560384" y2="-171.7225007584332"></line><line fill="none" stroke-width="1.5" stroke="rgb(89,60,62)" x1="38.85030036840283" x2="19.74443548005135" y1="-189.59009236808362" y2="-180.8992022667367"></line><line fill="none" stroke-width="1.5" stroke="rgb(89,60,62)" x1="21.13588002430592" x2="9.530160075147377" y1="-194.3366574598935" y2="-190.78050825282253"></line><line fill="none" stroke-width="1.5" stroke="rgb(89,60,62)" x1="39.845345009918255" x2="59.720714141810795" y1="-161.4535509807059" y2="-156.44553935658416"></line><line fill="none" stroke-width="1.5" stroke="rgb(89,60,62)" x1="29.345009406823273" x2="69.84833252638984" y1="-171.6115920494789" y2="-160.6594723827469"></line><line fill="none" stroke-width="1.5" stroke="rgb(89,60,62)" x1="19.56019557411018" x2="79.28080966340787" y1="-181.0774362396114" y2="-164.58416873452967"></line><line fill="none" stroke-width="1.5" stroke="rgb(89,60,62)" x1="10.197813170057731" x2="90.34435892279154" y1="-190.13461960562597" y2="-169.18752698129018"></line><line fill="none" stroke-width="1.5" stroke="rgb(89,60,62)" x1="124.88870194495843" x2="161.64142759158756" y1="106.28952869391698" y2="111.56365053341244"></line><line fill="none" stroke-width="1.5" stroke="rgb(89,60,62)" x1="119.30689801283677" x2="147.93588959695504" y1="121.29671861328359" y2="125.26918852804496"></line><line fill="none" stroke-width="1.5" stroke="rgb(89,60,62)" x1="114.85320198461345" x2="137.49598330813308" y1="133.270887350033" y2="135.70909481686692"></line><line fill="none" stroke-width="1.5" stroke="rgb(89,60,62)" x1="109.67798243418815" x2="124.91468004827671" y1="147.18493800679457" y2="148.2903980767233"></line><line fill="none" stroke-width="1.5" stroke="rgb(89,60,62)" x1="104.9900001582939" x2="112.66046070908206" y1="159.78900672875486" y2="160.54461741591794"></line><line fill="none" stroke-width="1.5" stroke="rgb(89,60,62)" x1="-108.02585392955585" x2="-168.32704575256716" y1="-165.17922419544414" y2="-99.33628886142914"></line><line fill="none" stroke-width="1.5" stroke="rgb(89,60,62)" x1="-116.84775204005268" x2="-163.86957318065924" y1="-156.35732608494732" y2="-98.72979961126168"></line><line fill="none" stroke-width="1.5" stroke="rgb(89,60,62)" x1="-124.44962231897208" x2="-158.59932755247794" y1="-148.75545580602792" y2="-98.01272345034975"></line><line fill="none" stroke-width="1.5" stroke="rgb(89,60,62)" x1="-132.00605873467683" x2="-153.66142208983086" y1="-141.19901939032317" y2="-97.34086590481768"></line><line fill="none" stroke-width="1.5" stroke="rgb(89,60,62)" x1="-141.5236312796452" x2="-148.4672950672379" y1="-131.6814468453548" y2="-96.63414653585056"></line><line fill="none" stroke-width="1.5" stroke="rgb(89,60,62)" x1="-148.80797959914244" x2="-143.9294331343228" y1="-124.39709852585756" y2="-96.01671940945569"></line><line fill="none" stroke-width="1.5" stroke="rgb(89,60,62)" x1="-156.63010435713932" x2="-139.36620313936686" y1="-116.57497376786068" y2="-95.39584067305599"></line><line fill="none" stroke-width="1.5" stroke="rgb(89,60,62)" x1="-165.34697272232805" x2="-133.80515016989656" y1="-107.85810540267195" y2="-94.63919690437612"></line><line fill="none" stroke-width="1.5" stroke="rgb(89,60,62)" x1="-82.36433241712145" x2="-123.66244452809087" y1="75.34081807833934" y2="75.58234530567212"></line><line fill="none" stroke-width="1.5" stroke="rgb(89,60,62)" x1="-94.33238137286145" x2="-117.75763035468114" y1="80.09587090730942" y2="56.72124651722461"></line><line fill="none" stroke-width="1.5" stroke="rgb(89,60,62)" x1="-106.55232963181201" x2="-111.710865403725" y1="84.95100642300451" y2="37.4067299649368"></line><line fill="none" stroke-width="1.5" stroke="rgb(89,60,62)" x1="-117.32286186447347" x2="-105.666680350469" y1="89.23027115126811" y2="18.10045409626032"></line><line fill="none" stroke-width="1.5" stroke="rgb(89,60,62)" x1="-109.37597232941197" x2="-134.40117154898635" y1="0.0" y2="78.78509024971825"></line><line fill="none" stroke-width="1.5" stroke="rgb(89,60,62)" x1="-120.26548296519817" x2="-139.8082202666852" y1="0.0" y2="62.14390598522276"></line><line fill="none" stroke-width="1.5" stroke="rgb(89,60,62)" x1="-130.5404993010228" x2="-144.57376179226242" y1="0.0" y2="47.47707777861737"></line><line fill="none" stroke-width="1.5" stroke="rgb(89,60,62)" x1="-140.4194490804858" x2="-149.86923688427746" y1="0.0" y2="31.17928181354381"></line><line fill="none" stroke-width="1.5" stroke="rgb(89,60,62)" x1="-149.59722164502503" x2="-155.20566957169206" y1="0.0" y2="14.755431335618637"></line><polygon fill="none" points="-100.0,-173.20508 -129.44272,-94.04564 -49.44272,-152.16904" stroke-width="1.5" stroke="rgb(89,60,62)"></polygon><polygon fill="none" points="49.44272,-152.16904 0.0,-100.0 70.71068,-70.71068" stroke-width="1.5" stroke="rgb(89,60,62)"></polygon><line fill="none" stroke-width="1.5" stroke="rgb(89,60,62)" x1="52.33055333110909" x2="49.44272" y1="78.32397506485505" y2="152.16904"></line><line fill="none" stroke-width="1.5" stroke="rgb(89,60,62)" x1="35.94193155796278" x2="49.44272" y1="85.1123644778177" y2="152.16904"></line><line fill="none" stroke-width="1.5" stroke="rgb(89,60,62)" x1="16.975516441813838" x2="49.44272" y1="92.9685108553787" y2="152.16904"></line><polygon fill="none" points="0.0,100.0 70.71068,70.71068 30.0,51.96152" stroke-width="1.5" stroke="rgb(89,60,62)"></polygon><polygon fill="none" points="-100.0,173.20508 0.0,200.0 -49.44272,152.16904" stroke-width="1.5" stroke="rgb(89,60,62)"></polygon><line fill="none" stroke-width="1.5" stroke="rgb(89,60,62)" x1="133.22819912877154" x2="173.20508" y1="82.39512803577935" y2="100.0"></line><line fill="none" stroke-width="1.5" stroke="rgb(89,60,62)" x1="137.17212460576695" x2="173.20508" y1="70.25697393088147" y2="100.0"></line><line fill="none" stroke-width="1.5" stroke="rgb(89,60,62)" x1="140.73722342940692" x2="173.20508" y1="59.284728341317496" y2="100.0"></line><line fill="none" stroke-width="1.5" stroke="rgb(89,60,62)" x1="145.09945247232184" x2="173.20508" y1="45.85916828126773" y2="100.0"></line><line fill="none" stroke-width="1.5" stroke="rgb(89,60,62)" x1="148.6776963155847" x2="173.20508" y1="34.84646648257271" y2="100.0"></line><line fill="none" stroke-width="1.5" stroke="rgb(89,60,62)" x1="152.29842322238227" x2="173.20508" y1="23.70301526301766" y2="100.0"></line><line fill="none" stroke-width="1.5" stroke="rgb(89,60,62)" x1="156.2792357910502" x2="173.20508" y1="11.451334367156292" y2="100.0"></line><line fill="none" stroke-width="1.5" stroke="rgb(89,60,62)" x1="34.849771821583936" x2="35.31618116819755" y1="43.561470446231176" y2="-42.75362580863097"></line><line fill="none" stroke-width="1.5" stroke="rgb(89,60,62)" x1="39.939531216871245" x2="40.23142057403571" y1="34.745749097567085" y2="-34.24018193072121"></line><line fill="none" stroke-width="1.5" stroke="rgb(89,60,62)" x1="44.90810034595836" x2="45.152116718365704" y1="26.139935434908864" y2="-25.717286705059905"></line><line fill="none" stroke-width="1.5" stroke="rgb(89,60,62)" x1="49.923184730231554" x2="50.084577286203455" y1="17.45355499171437" y2="-17.17401490136858"></line><line fill="none" stroke-width="1.5" stroke="rgb(89,60,62)" x1="54.687232235124654" x2="54.644207055386225" y1="9.201983152420148" y2="-9.27650494531695"></line><line fill="none" stroke-width="1.5" stroke="rgb(89,60,62)" x1="34.91437246040373" x2="30.0" y1="-43.44957886422273" y2="-34.08158877688821"></line><line fill="none" stroke-width="1.5" stroke="rgb(89,60,62)" x1="39.98597410288147" x2="30.0" y1="-34.66530766411289" y2="-18.40551738465311"></line><line fill="none" stroke-width="1.5" stroke="rgb(89,60,62)" x1="45.101707252627406" x2="30.0" y1="-25.804598455728385" y2="-1.2001475831197226"></line><line fill="none" stroke-width="1.5" stroke="rgb(89,60,62)" x1="50.18173604554694" x2="30.0" y1="-17.00573100375505" y2="17.846825528863462"></line><line fill="none" stroke-width="1.5" stroke="rgb(89,60,62)" x1="54.96920524831151" x2="30.0" y1="-8.713591596151266" y2="35.30251716737028"></line><line fill="none" stroke-width="1.5" stroke="rgb(89,60,62)" x1="-67.95049590133311" x2="-89.74692803642589" y1="52.4882692897323" y2="0.0"></line><line fill="none" stroke-width="1.5" stroke="rgb(89,60,62)" x1="-65.3607329881215" x2="-80.3574296592411" y1="35.39094921408522" y2="0.0"></line><line fill="none" stroke-width="1.5" stroke="rgb(89,60,62)" x1="-62.63325032477363" x2="-69.91335408969152" y1="17.38441901854425" y2="0.0"></line><line fill="none" stroke-width="1.5" stroke="rgb(89,60,62)" x1="-76.29355317360874" x2="-67.77105782208551" y1="-57.23242539401855" y2="0.0"></line><line fill="none" stroke-width="1.5" stroke="rgb(89,60,62)" x1="-82.6982932084299" x2="-76.0489416089896" y1="-41.77001515196939" y2="0.0"></line><line fill="none" stroke-width="1.5" stroke="rgb(89,60,62)" x1="-88.47283831381147" x2="-84.31567340062696" y1="-27.82903005418474" y2="0.0"></line><line fill="none" stroke-width="1.5" stroke="rgb(89,60,62)" x1="-94.1891757026027" x2="-92.0003504551028" y1="-14.028570815104594" y2="0.0"></line><line fill="none" stroke-width="1.5" stroke="rgb(89,60,62)" x1="-68.23411558729643" x2="-62.04299623358063" y1="0.0" y2="-13.487628670823986"></line><line fill="none" stroke-width="1.5" stroke="rgb(89,60,62)" x1="-76.09190261342492" x2="-64.22723828538686" y1="0.0" y2="-27.907746161852373"></line><line fill="none" stroke-width="1.5" stroke="rgb(89,60,62)" x1="-84.27593836790021" x2="-66.3110224391973" y1="0.0" y2="-41.66465204096113"></line><line fill="none" stroke-width="1.5" stroke="rgb(89,60,62)" x1="-92.01405241943341" x2="-68.46244348974584" y1="0.0" y2="-55.86808901623901"></line><line fill="none" stroke-width="1.5" stroke="rgb(89,60,62)" x1="92.67369851073468" x2="129.44272" y1="-17.687256401987494" y2="-94.04564"></line><line fill="none" stroke-width="1.5" stroke="rgb(89,60,62)" x1="85.01373495817606" x2="129.44272" y1="-36.18004428172426" y2="-94.04564"></line><line fill="none" stroke-width="1.5" stroke="rgb(89,60,62)" x1="78.25116709151936" x2="129.44272" y1="-52.506327327631645" y2="-94.04564"></line><line fill="none" stroke-width="1.5" stroke="rgb(89,60,62)" x1="-6.4672544352884245" x2="-52.193916539722935" y1="106.82386497440324" y2="141.63168016785653"></line><line fill="none" stroke-width="1.5" stroke="rgb(89,60,62)" x1="-12.464221149036504" x2="-54.74050015935756" y1="113.15151011656974" y2="131.87801662583018"></line><line fill="none" stroke-width="1.5" stroke="rgb(89,60,62)" x1="-18.797231380073356" x2="-57.47629961924883" y1="119.8337285340646" y2="121.3996379680481"></line><line fill="none" stroke-width="1.5" stroke="rgb(89,60,62)" x1="-25.12842370996112" x2="-60.14458521909167" y1="126.51402880961805" y2="111.17984397650616"></line><line fill="none" stroke-width="1.5" stroke="rgb(89,60,62)" x1="-30.989676092920934" x2="-62.82160620620183" y1="132.6984762041689" y2="100.92659260007497"></line><line fill="none" stroke-width="1.5" stroke="rgb(89,60,62)" x1="-37.112878088359466" x2="-65.28709210289175" y1="139.15931736110193" y2="91.48354124353838"></line><line fill="none" stroke-width="1.5" stroke="rgb(89,60,62)" x1="-43.26478785545051" x2="-67.78937197766282" y1="145.6504492634251" y2="81.89956536372704"></line><line fill="none" stroke-width="1.5" stroke="rgb(89,60,62)" x1="21.387701514811326" x2="21.318599964013742" y1="-51.96152114868164" y2="36.92489609634612"></line><line fill="none" stroke-width="1.5" stroke="rgb(89,60,62)" x1="12.44382491661353" x2="12.210312104061472" y1="-51.96152114868164" y2="21.148879687573128"></line><line fill="none" stroke-width="1.5" stroke="rgb(89,60,62)" x1="4.935650873512351" x2="3.810640438643752" y1="-51.96152114868164" y2="6.600222458086961"></line><line fill="none" stroke-width="1.5" stroke="rgb(89,60,62)" x1="-4.602598520231339" x2="-4.9428148169921755" y1="-51.96152114868164" y2="-8.561205888238526"></line><line fill="none" stroke-width="1.5" stroke="rgb(89,60,62)" x1="-12.48742189336572" x2="-13.280178017640466" y1="-51.96152114868164" y2="-23.001941697396067"></line><line fill="none" stroke-width="1.5" stroke="rgb(89,60,62)" x1="-22.14958147503797" x2="-21.083340590417713" y1="-51.96152114868164" y2="-36.5174149324616"></line><line fill="none" stroke-width="1.5" stroke="rgb(89,60,62)" x1="24.136896775425033" x2="-24.22595391376528" y1="-61.35000649057634" y2="-61.20740084201911"></line><line fill="none" stroke-width="1.5" stroke="rgb(89,60,62)" x1="18.061311139669513" x2="-18.19102318133894" y1="-71.07873622633018" y2="-70.87103058731357"></line><line fill="none" stroke-width="1.5" stroke="rgb(89,60,62)" x1="12.150849330642764" x2="-12.230493645773004" y1="-80.54305604681205" y2="-80.415522988545"></line><line fill="none" stroke-width="1.5" stroke="rgb(89,60,62)" x1="5.803703424926969" x2="-5.8677871776686485" y1="-90.70663052541073" y2="-90.60401432538426"></line><line fill="none" stroke-width="1.5" stroke="rgb(89,60,62)" x1="-10.256852077991967" x2="-36.16852246564198" y1="-95.75147275833449" y2="-54.80241207130188"></line><line fill="none" stroke-width="1.5" stroke="rgb(89,60,62)" x1="-19.446368757304235" x2="-42.04191580605375" y1="-91.9450503147887" y2="-57.50738233260698"></line><line fill="none" stroke-width="1.5" stroke="rgb(89,60,62)" x1="-31.0500481367081" x2="-47.92319562953277" y1="-87.1386489382173" y2="-60.21598468543512"></line><line fill="none" stroke-width="1.5" stroke="rgb(89,60,62)" x1="-41.173699370172066" x2="-53.25730304055112" y1="-82.94529529292296" y2="-62.67258874396736"></line><line fill="none" stroke-width="1.5" stroke="rgb(89,60,62)" x1="-49.96374647588047" x2="-59.241283993285684" y1="-79.30433856466367" y2="-65.42848973394402"></line><line fill="none" stroke-width="1.5" stroke="rgb(89,60,62)" x1="-61.363827551818396" x2="-64.84780253330482" y1="-74.58227036673759" y2="-68.0105517620159"></line><line fill="none" stroke-width="1.5" stroke="rgb(89,60,62)" x1="-36.01072145383591" x2="-25.630122291693382" y1="-54.72973738064182" y2="-58.95893041112614"></line><line fill="none" stroke-width="1.5" stroke="rgb(89,60,62)" x1="-41.385802584096" x2="-21.15656478679519" y1="-57.20521173878117" y2="-66.12236033076641"></line><line fill="none" stroke-width="1.5" stroke="rgb(89,60,62)" x1="-47.16845444167078" x2="-17.433079704346966" y1="-59.86839133524999" y2="-72.0847123103127"></line><line fill="none" stroke-width="1.5" stroke="rgb(89,60,62)" x1="-53.690514147099194" x2="-13.0562323836817" y1="-62.872102567095276" y2="-79.09328189195362"></line><line fill="none" stroke-width="1.5" stroke="rgb(89,60,62)" x1="-59.457492404416875" x2="-8.44970806455244" y1="-65.52806374311687" y2="-86.46962926137277"></line><line fill="none" stroke-width="1.5" stroke="rgb(89,60,62)" x1="-64.56602667465506" x2="-4.275118174606721" y1="-67.88078089978588" y2="-93.15432753274227"></line><polygon fill="none" points="160.0,0.0 173.20508,-100.0 129.44272,-94.04564" stroke-width="1.5" stroke="rgb(89,60,62)"></polygon><polygon fill="none" points="-129.44272,-94.04564 -100.0,0.0 -70.71068,-70.71068" stroke-width="1.5" stroke="rgb(89,60,62)"></polygon><line fill="none" stroke-width="1.5" stroke="rgb(89,60,62)" x1="61.058188677465324" x2="34.76134981847494" y1="-6.986041242135924" y2="-54.1543437498906"></line><line fill="none" stroke-width="1.5" stroke="rgb(89,60,62)" x1="62.443646365949725" x2="39.113715984804415" y1="-16.13267525656335" y2="-56.15881039530113"></line><line fill="none" stroke-width="1.5" stroke="rgb(89,60,62)" x1="63.61288056382141" x2="43.72949301986235" y1="-23.851826389055976" y2="-58.2845899726266"></line><line fill="none" stroke-width="1.5" stroke="rgb(89,60,62)" x1="64.75037815178862" x2="47.792724490699925" y1="-31.36145603412407" y2="-60.15589666986273"></line><line fill="none" stroke-width="1.5" stroke="rgb(89,60,62)" x1="65.8516137067353" x2="52.93831145690119" y1="-38.631687863282956" y2="-62.52567831291505"></line><line fill="none" stroke-width="1.5" stroke="rgb(89,60,62)" x1="67.0273499651079" x2="56.944346653605045" y1="-46.39376485936265" y2="-64.37064347100639"></line><line fill="none" stroke-width="1.5" stroke="rgb(89,60,62)" x1="68.2890388427923" x2="61.533429882788646" y1="-54.72329126797998" y2="-66.48412931166786"></line><line fill="none" stroke-width="1.5" stroke="rgb(89,60,62)" x1="69.63054370893991" x2="65.99501922649415" y1="-63.579753750532326" y2="-68.53889830012335"></line><line fill="none" stroke-width="1.5" stroke="rgb(89,60,62)" x1="34.337166148691" x2="33.317142885276816" y1="-53.95898748042332" y2="-46.21606147579797"></line><line fill="none" stroke-width="1.5" stroke="rgb(89,60,62)" x1="38.90793642301806" x2="36.6256823666513" y1="-56.064039355332355" y2="-40.48550333470836"></line><line fill="none" stroke-width="1.5" stroke="rgb(89,60,62)" x1="43.789092943379586" x2="40.03142992499592" y1="-58.31203850388381" y2="-34.586575875375196"></line><line fill="none" stroke-width="1.5" stroke="rgb(89,60,62)" x1="48.03603032398205" x2="43.247680152229854" y1="-60.26795029972979" y2="-29.015867401979587"></line><line fill="none" stroke-width="1.5" stroke="rgb(89,60,62)" x1="52.61944863314923" x2="46.60228356994956" y1="-62.37882718177246" y2="-23.20552418747017"></line><line fill="none" stroke-width="1.5" stroke="rgb(89,60,62)" x1="57.043536651077694" x2="50.088285216739635" y1="-64.41632506899104" y2="-17.167592577669467"></line><line fill="none" stroke-width="1.5" stroke="rgb(89,60,62)" x1="61.41501342229503" x2="53.35661765233377" y1="-66.42959303501831" y2="-11.506675078567916"></line><line fill="none" stroke-width="1.5" stroke="rgb(89,60,62)" x1="65.95518558363509" x2="56.811683089210014" y1="-68.52055305860992" y2="-5.522326552957104"></line><polygon fill="none" points="-47.942974249801246,-146.12905559747884 -65.19740747426803,-79.86913411371552 -7.445459268685236,-103.51451001168404" stroke-width="1.5" stroke="rgb(89,60,62)"></polygon><polygon fill="none" points="-46.64255820838001,-140.8918369858753 -60.21314545894933,-88.14881917167459 -14.165595806409124,-106.68664302449213" stroke-width="1.5" stroke="rgb(89,60,62)"></polygon><polygon fill="none" points="-45.1941107629186,-135.05844545756918 -56.71873053269349,-93.95362135950249 -21.12819673726507,-109.97322747761947" stroke-width="1.5" stroke="rgb(89,60,62)"></polygon><polygon fill="none" points="-44.212894929840594,-131.1067548760074 -50.59087664938358,-104.13300199379952 -26.808680716925977,-112.65460912209316" stroke-width="1.5" stroke="rgb(89,60,62)"></polygon><polygon fill="none" points="-42.504641749077855,-124.22703710365215 -46.452361140349474,-111.00776197169978 -34.77180743179303,-116.41347577541258" stroke-width="1.5" stroke="rgb(89,60,62)"></polygon><line fill="none" stroke-width="1.5" stroke="rgb(89,60,62)" x1="22.76378438261844" x2="-30.0" y1="39.4280287873819" y2="-38.99063578002375"></line><line fill="none" stroke-width="1.5" stroke="rgb(89,60,62)" x1="15.617119804243966" x2="-30.0" y1="27.049643366323924" y2="-24.729123235137944"></line><line fill="none" stroke-width="1.5" stroke="rgb(89,60,62)" x1="6.959731372943757" x2="-30.0" y1="12.054607630812008" y2="-12.290838312560858"></line><line fill="none" stroke-width="1.5" stroke="rgb(89,60,62)" x1="-0.3264892065327274" x2="-30.0" y1="-0.5654958603355524" y2="-0.013508861298532793"></line><line fill="none" stroke-width="1.5" stroke="rgb(89,60,62)" x1="-8.09210333061398" x2="-30.0" y1="-14.015933278367186" y2="12.105893155594856"></line><line fill="none" stroke-width="1.5" stroke="rgb(89,60,62)" x1="-14.814141384232606" x2="-30.0" y1="-25.658844027878757" y2="26.792032200517184"></line><line fill="none" stroke-width="1.5" stroke="rgb(89,60,62)" x1="-21.829833819117944" x2="-30.0" y1="-37.81037905547676" y2="39.5528089151976"></line><line fill="none" stroke-width="1.5" stroke="rgb(89,60,62)" x1="132.52610810628383" x2="106.51774196409754" y1="84.55594194474637" y2="0.0"></line><line fill="none" stroke-width="1.5" stroke="rgb(89,60,62)" x1="136.0451150618949" x2="114.00283773808232" y1="73.72555253385019" y2="0.0"></line><line fill="none" stroke-width="1.5" stroke="rgb(89,60,62)" x1="139.71652294482226" x2="119.521547800284" y1="62.42612131364899" y2="0.0"></line><line fill="none" stroke-width="1.5" stroke="rgb(89,60,62)" x1="143.09652014311098" x2="126.23324461640473" y1="52.02355993000771" y2="0.0"></line><line fill="none" stroke-width="1.5" stroke="rgb(89,60,62)" x1="146.15519372431973" x2="133.48408713157144" y1="42.6099309195591" y2="0.0"></line><line fill="none" stroke-width="1.5" stroke="rgb(89,60,62)" x1="150.10947400044145" x2="139.42405950194592" y1="30.43990802092938" y2="0.0"></line><line fill="none" stroke-width="1.5" stroke="rgb(89,60,62)" x1="153.57114983625178" x2="145.93193755099443" y1="19.785965647688215" y2="0.0"></line><line fill="none" stroke-width="1.5" stroke="rgb(89,60,62)" x1="156.50469569994002" x2="153.62559814574482" y1="10.757440140568221" y2="0.0"></line><line fill="none" stroke-width="1.5" stroke="rgb(89,60,62)" x1="106.38841250564155" x2="103.11341179458833" y1="0.0" y2="9.944829033110606"></line><line fill="none" stroke-width="1.5" stroke="rgb(89,60,62)" x1="113.2664813984222" x2="106.2554172609379" y1="0.0" y2="19.980991688580065"></line><line fill="none" stroke-width="1.5" stroke="rgb(89,60,62)" x1="119.84789922452126" x2="110.00630041080458" y1="0.0" y2="31.962025393609682"></line><line fill="none" stroke-width="1.5" stroke="rgb(89,60,62)" x1="127.1901145578388" x2="113.014209317278" y1="0.0" y2="41.56985814931621"></line><line fill="none" stroke-width="1.5" stroke="rgb(89,60,62)" x1="133.04074766472706" x2="116.51809656453275" y1="0.0" y2="52.76193999528757"></line><line fill="none" stroke-width="1.5" stroke="rgb(89,60,62)" x1="139.61496336814605" x2="119.59439638947273" y1="0.0" y2="62.58822634352865"></line><line fill="none" stroke-width="1.5" stroke="rgb(89,60,62)" x1="146.50165161231598" x2="123.16473710627582" y1="0.0" y2="73.99257320194197"></line><line fill="none" stroke-width="1.5" stroke="rgb(89,60,62)" x1="153.94667888992348" x2="126.0716736107111" y1="0.0" y2="83.27788091387588"></line><polygon fill="none" points="123.70121295514863,-96.03180838899658 53.621903497146164,-147.03611821825496 72.60793118543182,-76.30787304767236" stroke-width="1.5" stroke="rgb(89,60,62)"></polygon><polygon fill="none" points="118.90488293623494,-97.69101146670496 58.65024572915187,-140.86025578099319 74.26177758835532,-81.1869800069067" stroke-width="1.5" stroke="rgb(89,60,62)"></polygon><polygon fill="none" points="113.49810617318889,-99.56138748552611 62.5602319143068,-136.05796991878393 75.89868377987142,-86.01611067860753" stroke-width="1.5" stroke="rgb(89,60,62)"></polygon><polygon fill="none" points="107.11413707627722,-101.76980540752517 66.75979845471586,-130.90001844034043 77.24453882047547,-89.98659468675011" stroke-width="1.5" stroke="rgb(89,60,62)"></polygon><polygon fill="none" points="100.40555701693927,-104.09051658411505 70.77214301475775,-125.97201495322892 78.77762748449615,-94.50944732682845" stroke-width="1.5" stroke="rgb(89,60,62)"></polygon><polygon fill="none" points="95.23770824705967,-105.87823981214633 75.83192135299298,-119.75754236202795 80.94807105640112,-100.91259717048227" stroke-width="1.5" stroke="rgb(89,60,62)"></polygon><polygon fill="none" points="89.81002504570412,-107.75584803280728 80.4721930667607,-114.05831218764993 82.04812360816521,-104.15792518362065" stroke-width="1.5" stroke="rgb(89,60,62)"></polygon><line fill="none" stroke-width="1.5" stroke="rgb(89,60,62)" x1="-61.29223599429697" x2="-30.0" y1="-8.531194996675799" y2="-51.96152"></line><line fill="none" stroke-width="1.5" stroke="rgb(89,60,62)" x1="-62.36720977956341" x2="-30.0" y1="-15.628049610613356" y2="-51.96152"></line><line fill="none" stroke-width="1.5" stroke="rgb(89,60,62)" x1="-63.69060080524426" x2="-30.0" y1="-24.36492657949581" y2="-51.96152"></line><line fill="none" stroke-width="1.5" stroke="rgb(89,60,62)" x1="-64.7705277207202" x2="-30.0" y1="-31.494481195482333" y2="-51.96152"></line><line fill="none" stroke-width="1.5" stroke="rgb(89,60,62)" x1="-65.87965974343696" x2="-30.0" y1="-38.816844606355986" y2="-51.96152"></line><line fill="none" stroke-width="1.5" stroke="rgb(89,60,62)" x1="-67.24605963117673" x2="-30.0" y1="-47.837661188768074" y2="-51.96152"></line><line fill="none" stroke-width="1.5" stroke="rgb(89,60,62)" x1="-68.41680840202116" x2="-30.0" y1="-55.566811359690405" y2="-51.96152"></line><line fill="none" stroke-width="1.5" stroke="rgb(89,60,62)" x1="-69.62024566678413" x2="-30.0" y1="-63.51176724798738" y2="-51.96152"></line><line fill="none" stroke-width="1.5" stroke="rgb(89,60,62)" x1="-37.59988255307109" x2="6.34768531366835" y1="-152.16903686523438" y2="-193.85923930956218"></line><line fill="none" stroke-width="1.5" stroke="rgb(89,60,62)" x1="-25.94894058487393" x2="12.739611920855296" y1="-152.16903686523438" y2="-187.67567952264926"></line><line fill="none" stroke-width="1.5" stroke="rgb(89,60,62)" x1="-13.217186296314196" x2="18.705204367970374" y1="-152.16903686523438" y2="-181.90455606831935"></line><line fill="none" stroke-width="1.5" stroke="rgb(89,60,62)" x1="0.9630219017193014" x2="24.239921938242063" y1="-152.16903686523438" y2="-176.55026164307185"></line><line fill="none" stroke-width="1.5" stroke="rgb(89,60,62)" x1="12.22555080819378" x2="31.09258790529811" y1="-152.16903686523438" y2="-169.92098187953542"></line><line fill="none" stroke-width="1.5" stroke="rgb(89,60,62)" x1="24.0635922071218" x2="37.44885182201118" y1="-152.16903686523438" y2="-163.77192223510843"></line><line fill="none" stroke-width="1.5" stroke="rgb(89,60,62)" x1="37.35932991028723" x2="43.879760015743514" y1="-152.16903686523438" y2="-157.5506516004644"></line><polygon fill="none" points="-0.6345632706435389,196.13546121751367 41.97100768915074,153.04971876646147 -45.5379528304359,152.77522492788532" stroke-width="1.5" stroke="rgb(89,60,62)"></polygon><polygon fill="none" points="-1.5979411215487676,190.2684165282805 36.982636549018196,153.6376922958831 -39.193080793765844,153.76022275038846" stroke-width="1.5" stroke="rgb(89,60,62)"></polygon><polygon fill="none" points="-2.1780552796120487,186.7354769999158 31.859554693064005,154.24154402137472 -35.80792550908431,154.28574486730042" stroke-width="1.5" stroke="rgb(89,60,62)"></polygon><polygon fill="none" points="-2.923033103292807,182.19850515660875 24.835651453291174,155.06944336209935 -30.54861542731143,155.10221664931197" stroke-width="1.5" stroke="rgb(89,60,62)"></polygon><polygon fill="none" points="-3.652144496820294,177.75816108472117 18.975549735282858,155.7601667652132 -24.87113373790912,155.98360670241976" stroke-width="1.5" stroke="rgb(89,60,62)"></polygon><polygon fill="none" points="-4.449591748711811,172.9016464162996 12.469553027796287,156.52702106274748 -20.342964562344772,156.6865738784446" stroke-width="1.5" stroke="rgb(89,60,62)"></polygon><polygon fill="none" points="-5.119427949819245,168.822292793346 5.171613586879879,157.38722073314875 -16.412662683924523,157.29672626129008" stroke-width="1.5" stroke="rgb(89,60,62)"></polygon><polygon fill="none" points="-5.941520086929752,163.8156888917072 -1.5274646243384566,158.17683332392664 -11.380948131819181,158.07786539989473" stroke-width="1.5" stroke="rgb(89,60,62)"></polygon><line fill="none" stroke-width="1.5" stroke="rgb(89,60,62)" x1="59.35037467320221" x2="25.31367078783915" y1="-75.41626985698717" y2="-59.46565870697179"></line><line fill="none" stroke-width="1.5" stroke="rgb(89,60,62)" x1="47.90570499359794" x2="19.638440983270222" y1="-80.15680725929523" y2="-68.55330560507699"></line><line fill="none" stroke-width="1.5" stroke="rgb(89,60,62)" x1="34.819217917472976" x2="15.34811842407225" y1="-85.57740769477557" y2="-75.42332458925586"></line><line fill="none" stroke-width="1.5" stroke="rgb(89,60,62)" x1="23.55078537231652" x2="10.294843860198634" y1="-90.2449452857379" y2="-83.51504536480743"></line><line fill="none" stroke-width="1.5" stroke="rgb(89,60,62)" x1="12.077372957670775" x2="4.698803691008276" y1="-94.99738831873023" y2="-92.47588727543341"></line><line fill="none" stroke-width="1.5" stroke="rgb(89,60,62)" x1="25.286229391722138" x2="36.71575704638419" y1="-59.50960013787238" y2="-55.054438996977126"></line><line fill="none" stroke-width="1.5" stroke="rgb(89,60,62)" x1="19.649160379180284" x2="43.91225806351707" y1="-68.53614082261952" y2="-58.368761758720105"></line><line fill="none" stroke-width="1.5" stroke="rgb(89,60,62)" x1="14.745177227489366" x2="49.87300463601524" y1="-76.38880385327704" y2="-61.11396223811681"></line><line fill="none" stroke-width="1.5" stroke="rgb(89,60,62)" x1="10.096712228704055" x2="57.43841217754007" y1="-83.83231010445176" y2="-64.59818357804895"></line><line fill="none" stroke-width="1.5" stroke="rgb(89,60,62)" x1="4.644565572771064" x2="63.990483219509976" y1="-92.56273783196252" y2="-67.61571642342184"></line><polygon fill="none" points="5.036534082772901,197.03026415107806 94.54869439532582,172.8001048162065 49.675695289300876,154.09905422454693" stroke-width="1.5" stroke="rgb(89,60,62)"></polygon><polygon fill="none" points="11.835280496864781,193.02145956009588 89.67034548475637,172.43769602040013 49.91279392814097,156.06321770071438" stroke-width="1.5" stroke="rgb(89,60,62)"></polygon><polygon fill="none" points="18.15212003315266,189.29680595614897 83.23980618877556,171.95997619236718 50.17969738743449,158.2742891306125" stroke-width="1.5" stroke="rgb(89,60,62)"></polygon><polygon fill="none" points="22.90141654254087,186.49643652167373 77.30599581024575,171.51915797430837 50.35263089607458,159.70689828913842" stroke-width="1.5" stroke="rgb(89,60,62)"></polygon><polygon fill="none" points="27.657590865875637,183.69201166132353 73.4230829277539,171.2306993569028 50.60048710210202,161.76017919198182" stroke-width="1.5" stroke="rgb(89,60,62)"></polygon><polygon fill="none" points="34.304347715113735,179.77282601304884 67.32977991570097,170.77803255353064 50.83083661358877,163.66843180544546" stroke-width="1.5" stroke="rgb(89,60,62)"></polygon><polygon fill="none" points="41.071698136453115,175.78253371716033 62.889872141616934,170.44819521319383 51.107829747840455,165.96308773475772" stroke-width="1.5" stroke="rgb(89,60,62)"></polygon><polygon fill="none" points="46.918840987475164,172.33483149712737 56.896075325363775,170.00292064872386 51.34441461655571,167.9229950561058" stroke-width="1.5" stroke="rgb(89,60,62)"></polygon><line fill="none" stroke-width="1.5" stroke="rgb(89,60,62)" x1="-75.23986108291926" x2="-49.44272" y1="-179.83953800397325" y2="-152.16904"></line><line fill="none" stroke-width="1.5" stroke="rgb(89,60,62)" x1="-50.64362617158801" x2="-49.44272" y1="-186.43007993265593" y2="-152.16904"></line><line fill="none" stroke-width="1.5" stroke="rgb(89,60,62)" x1="-25.809400649691597" x2="-49.44272" y1="-193.0843912595094" y2="-152.16904"></line><line fill="none" stroke-width="1.5" stroke="rgb(89,60,62)" x1="-55.81080881229277" x2="-30.0" y1="7.255891549864001" y2="-36.42653830881338"></line><line fill="none" stroke-width="1.5" stroke="rgb(89,60,62)" x1="-51.25150919714387" x2="-30.0" y1="15.152829662388529" y2="-22.694090142155602"></line><line fill="none" stroke-width="1.5" stroke="rgb(89,60,62)" x1="-47.020821959711796" x2="-30.0" y1="22.480594474431335" y2="-6.8442181424862625"></line><line fill="none" stroke-width="1.5" stroke="rgb(89,60,62)" x1="-42.53667307862054" x2="-30.0" y1="30.247367705053342" y2="6.382100019989899"></line><line fill="none" stroke-width="1.5" stroke="rgb(89,60,62)" x1="-38.52233053056895" x2="-30.0" y1="37.20041254534118" y2="22.075562669631825"></line><line fill="none" stroke-width="1.5" stroke="rgb(89,60,62)" x1="-34.09153853017922" x2="-30.0" y1="44.874768953129866" y2="37.7181324045947"></line><line fill="none" stroke-width="1.5" stroke="rgb(89,60,62)" x1="-30.0" x2="-34.35996614609453" y1="-38.19978440431785" y2="-44.40983871175408"></line><line fill="none" stroke-width="1.5" stroke="rgb(89,60,62)" x1="-30.0" x2="-38.2883965261284" y1="-22.944242757022437" y2="-37.60559810264563"></line><line fill="none" stroke-width="1.5" stroke="rgb(89,60,62)" x1="-30.0" x2="-42.991324467965896" y1="-6.360231939885374" y2="-29.459888445628476"></line><line fill="none" stroke-width="1.5" stroke="rgb(89,60,62)" x1="-30.0" x2="-47.41793669900888" y1="7.739019866439108" y2="-21.792771610283385"></line><line fill="none" stroke-width="1.5" stroke="rgb(89,60,62)" x1="-30.0" x2="-51.09218559057011" y1="21.339746551231976" y2="-15.428786227470738"></line><line fill="none" stroke-width="1.5" stroke="rgb(89,60,62)" x1="-30.0" x2="-56.0692554916769" y1="37.134584766927986" y2="-6.808248796643163"></line><line fill="none" stroke-width="1.5" stroke="rgb(89,60,62)" x1="-42.413707580471616" x2="6.895480010588881" y1="144.75243961544456" y2="107.27570331379063"></line><line fill="none" stroke-width="1.5" stroke="rgb(89,60,62)" x1="-35.58409580468119" x2="14.128313848340175" y1="137.54623657334795" y2="114.90736246451158"></line><line fill="none" stroke-width="1.5" stroke="rgb(89,60,62)" x1="-28.320510247861034" x2="20.66754116813437" y1="129.88213002462274" y2="121.80716897648689"></line><line fill="none" stroke-width="1.5" stroke="rgb(89,60,62)" x1="-20.586943241456726" x2="28.616589002194463" y1="121.72212680374291" y2="130.19453484208847"></line><line fill="none" stroke-width="1.5" stroke="rgb(89,60,62)" x1="-13.622085449777657" x2="34.91061111813103" y1="114.37322015225772" y2="136.83561530286417"></line><line fill="none" stroke-width="1.5" stroke="rgb(89,60,62)" x1="-7.3271722730814375" x2="42.20048343855622" y1="107.73119949678755" y2="144.52745809225374"></line><polygon fill="none" points="-70.71068,70.71068 0.0,100.0 -30.0,51.96152" stroke-width="1.5" stroke="rgb(89,60,62)"></polygon><line fill="none" stroke-width="1.5" stroke="rgb(89,60,62)" x1="125.20649088472416" x2="56.28772416473252" y1="-105.4351240907933" y2="-155.01712950803346"></line><line fill="none" stroke-width="1.5" stroke="rgb(89,60,62)" x1="121.01146691110824" x2="64.31048845253456" y1="-116.71382937208405" y2="-158.35526786492153"></line><line fill="none" stroke-width="1.5" stroke="rgb(89,60,62)" x1="116.84909213462339" x2="71.34744441932378" y1="-127.90475430350602" y2="-161.2832278280712"></line><line fill="none" stroke-width="1.5" stroke="rgb(89,60,62)" x1="112.30089881430438" x2="77.7396395363235" y1="-140.13298764492293" y2="-163.94291355973505"></line><line fill="none" stroke-width="1.5" stroke="rgb(89,60,62)" x1="108.57512110519185" x2="85.15964694793118" y1="-150.15008146583426" y2="-167.03025483769588"></line><line fill="none" stroke-width="1.5" stroke="rgb(89,60,62)" x1="103.91385749943126" x2="92.52319964593245" y1="-162.68231460167135" y2="-170.09410625129624"></line><polygon fill="none" points="-173.20508,-100.0 -200.0,0.0 -160.0,0.0" stroke-width="1.5" stroke="rgb(89,60,62)"></polygon><polygon fill="none" points="93.96733737283681,-3.350434417270918 71.9096797554463,-57.169072887942605 64.31577644746264,-3.678684425211285" stroke-width="1.5" stroke="rgb(89,60,62)"></polygon><polygon fill="none" points="88.18490134445949,-6.5618973951455875 73.1819438122091,-42.80003718805084 68.07429193385101,-6.882370378366084" stroke-width="1.5" stroke="rgb(89,60,62)"></polygon><polygon fill="none" points="81.75851970943661,-10.13099640485157 74.44504959799828,-28.53443561558712 71.92760383514158,-10.166858963286375" stroke-width="1.5" stroke="rgb(89,60,62)"></polygon><polygon fill="none" points="100.0,173.20508 129.44272,94.04564 70.71068,70.71068 49.44272,152.16904" stroke-width="1.5" stroke="rgb(89,60,62)"></polygon><polygon fill="none" points="-173.20508,-100.0 -160.0,0.0 -100.0,0.0 -129.44272,-94.04564" stroke-width="1.5" stroke="rgb(89,60,62)"></polygon><polygon fill="none" points="-70.71068,70.71068 -129.44272,94.04564 -100.0,173.20508 -49.44272,152.16904" stroke-width="1.5" stroke="rgb(89,60,62)"></polygon><polygon fill="none" points="173.20508,-100.0 200.0,0.0 173.20508,100.0 160.0,0.0" stroke-width="1.5" stroke="rgb(89,60,62)"></polygon><polygon fill="none" points="98.0183758021527,161.1263839562084 119.74942461350292,101.80645766127725 75.96217665436917,83.91117882359619 60.52556008677992,144.84158371846172" stroke-width="1.5" stroke="rgb(89,60,62)"></polygon><polygon fill="none" points="96.08515186879958,149.3427063668212 110.09478057652746,109.5363317447945 81.39805154332375,97.57513962772589 70.48268735947426,138.2583998811394" stroke-width="1.5" stroke="rgb(89,60,62)"></polygon><polygon fill="none" points="93.88969575011524,135.96063167909887 101.61343715289263,116.3268168701583 86.99303535984961,111.63904675040297 81.75493180460356,130.80572247638014" stroke-width="1.5" stroke="rgb(89,60,62)"></polygon><line fill="none" stroke-width="1.5" stroke="rgb(89,60,62)" x1="-171.64454288460206" x2="-126.14566449793895" y1="-88.18230967188673" y2="-83.51422187101113"></line><line fill="none" stroke-width="1.5" stroke="rgb(89,60,62)" x1="-170.19370801377337" x2="-122.64225062575045" y1="-77.19536315710648" y2="-72.32365207497506"></line><line fill="none" stroke-width="1.5" stroke="rgb(89,60,62)" x1="-168.9594894208494" x2="-119.49463989809685" y1="-67.84881797773835" y2="-62.2695851495175"></line><line fill="none" stroke-width="1.5" stroke="rgb(89,60,62)" x1="-167.26843061946371" x2="-116.60404748399475" y1="-55.042693050812375" y2="-53.03648356860283"></line><line fill="none" stroke-width="1.5" stroke="rgb(89,60,62)" x1="-165.8979010987427" x2="-113.45156274601024" y1="-44.66388644514504" y2="-42.96684812775302"></line><line fill="none" stroke-width="1.5" stroke="rgb(89,60,62)" x1="-164.43414174890404" x2="-110.04509512195754" y1="-33.57906486376085" y2="-32.08594307468088"></line><line fill="none" stroke-width="1.5" stroke="rgb(89,60,62)" x1="-163.04985888218764" x2="-106.52168707366353" y1="-23.096106310901774" y2="-20.831508079902733"></line><line fill="none" stroke-width="1.5" stroke="rgb(89,60,62)" x1="-161.50252868527355" x2="-103.4014090969647" y1="-11.378415720456317" y2="-10.864747156086928"></line><line fill="none" stroke-width="1.5" stroke="rgb(89,60,62)" x1="-106.9251759319995" x2="-134.37250268938755" y1="0.0" y2="-94.71639159230203"></line><line fill="none" stroke-width="1.5" stroke="rgb(89,60,62)" x1="-113.07704758530738" x2="-139.68913539222677" y1="0.0" y2="-95.43977923616151"></line><line fill="none" stroke-width="1.5" stroke="rgb(89,60,62)" x1="-119.4736525711827" x2="-144.4352544700857" y1="0.0" y2="-96.08554208815906"></line><line fill="none" stroke-width="1.5" stroke="rgb(89,60,62)" x1="-126.23584694342183" x2="-149.1374390641321" y1="0.0" y2="-96.72532715976332"></line><line fill="none" stroke-width="1.5" stroke="rgb(89,60,62)" x1="-133.07409136794715" x2="-153.22292248788057" y1="0.0" y2="-97.28120310476778"></line><line fill="none" stroke-width="1.5" stroke="rgb(89,60,62)" x1="-139.7719935021704" x2="-158.2765967498766" y1="0.0" y2="-97.96881229681642"></line><line fill="none" stroke-width="1.5" stroke="rgb(89,60,62)" x1="-147.0122134182163" x2="-163.16924793367318" y1="0.0" y2="-98.6345124890044"></line><line fill="none" stroke-width="1.5" stroke="rgb(89,60,62)" x1="-153.18558299881957" x2="-168.36184658323188" y1="0.0" y2="-99.34102390563964"></line><line fill="none" stroke-width="1.5" stroke="rgb(89,60,62)" x1="-53.46219143356589" x2="-105.5477592500986" y1="136.77406367414866" y2="158.2894204441494"></line><line fill="none" stroke-width="1.5" stroke="rgb(89,60,62)" x1="-58.17960234261094" x2="-112.12388973943897" y1="118.70591996916725" y2="140.60889271723653"></line><line fill="none" stroke-width="1.5" stroke="rgb(89,60,62)" x1="-62.43028524384888" x2="-117.7898295279315" y1="102.42539003767111" y2="125.3754958599443"></line><line fill="none" stroke-width="1.5" stroke="rgb(89,60,62)" x1="-66.55670374177717" x2="-123.90862812057766" y1="86.6208048859921" y2="108.92454672685807"></line><polygon fill="none" points="173.20508,-100.0 200.0,0.0 173.20508,100.0 160.0,0.0" stroke-width="1.5" stroke="rgb(89,60,62)"></polygon></g></svg>