<svg height="550.0" viewBox="-275.0 -275.0 550.0 550.0" width="550.0" xmlns="http://www.w3.org/2000/svg"><g><rect fill="rgb(129,179,221)" height="550.0" transform="rotate(0 0.0 0.0)" width="550.0" x="-275.0" y="-275.0"></rect><polygon fill="none" points="49.44272,152.16904 129.44272,94.04564 70.71068,70.71068" stroke-width="1.5" stroke="rgb(81,82,189)"></polygon><polygon fill="none" points="-49.44272,-152.16904 -129.44272,-94.04564 -70.71068,-70.71068" stroke-width="1.5" stroke="rgb(81,82,189)"></polygon><polygon fill="none" points="-200.0,0.0 -173.20508,100.0 -160.0,0.0" stroke-width="1.5" stroke="rgb(81,82,189)"></polygon><polygon fill="none" points="70.71068,70.71068 100.0,0.0 60.0,0.0" stroke-width="1.5" stroke="rgb(81,82,189)"></polygon><polygon fill="none" points="-70.71068,70.71068 -30.0,51.96152 -60.0,0.0" stroke-width="1.5" stroke="rgb(81,82,189)"></polygon><polygon fill="none" points="-173.20508,100.0 -100.0,173.20508 -129.44272,94.04564" stroke-width="1.5" stroke="rgb(81,82,189)"></polygon><polygon fill="none" points="173.20508,-100.0 100.0,-173.20508 129.44272,-94.04564" stroke-width="1.5" stroke="rgb(81,82,189)"></polygon><polygon fill="none" points="-173.20508,100.0 -129.44272,94.04564 -160.0,0.0" stroke-width="1.5" stroke="rgb(81,82,189)"></polygon><polygon fill="none" points="160.0,0.0 129.44272,-94.04564 100.0,0.0" stroke-width="1.5" stroke="rgb(81,82,189)"></polygon><polygon fill="none" points="70.71068,70.71068 60.0,0.0 30.0,51.96152" stroke-width="1.5" stroke="rgb(81,82,189)"></polygon><polygon fill="none" points="0.0,100.0 30.0,51.96152 -30.0,51.96152" stroke-width="1.5" stroke="rgb(81,82,189)"></polygon><polygon fill="none" points="129.44272,94.04564 100.0,0.0 70.71068,70.71068" stroke-width="1.5" stroke="rgb(81,82,189)"></polygon><polygon fill="none" points="100.0,173.20508 173.20508,100.0 129.44272,94.04564" stroke-width="1.5" stroke="rgb(81,82,189)"></polygon><polygon fill="none" points="-100.0,-173.20508 -173.20508,-100.0 -129.44272,-94.04564" stroke-width="1.5" stroke="rgb(81,82,189)"></polygon><polygon fill="none" points="-129.44272,94.04564 -70.71068,70.71068 -100.0,0.0" stroke-width="1.5" stroke="rgb(81,82,189)"></polygon><polygon fill="none" points="173.20508,100.0 200.0,0.0 160.0,0.0" stroke-width="1.5" stroke="rgb(81,82,189)"></polygon><polygon fill="none" points="-160.0,0.0 -129.44272,94.04564 -100.0,0.0" stroke-width="1.5" stroke="rgb(81,82,189)"></polygon><polygon fill="none" points="100.0,173.20508 129.44272,94.04564 49.44272,152.16904" stroke-width="1.5" stroke="rgb(81,82,189)"></polygon><polygon fill="none" points="-100.0,-173.20508 -129.44272,-94.04564 -49.44272,-152.16904" stroke-width="1.5" stroke="rgb(81,82,189)"></polygon><polygon fill="none" points="49.44272,-152.16904 0.0,-100.0 70.71068,-70.71068" stroke-width="1.5" stroke="rgb(81,82,189)"></polygon><polygon fill="none" points="49.44272,152.16904 70.71068,70.71068 0.0,100.0" stroke-width="1.5" stroke="rgb(81,82,189)"></polygon><polygon fill="none" points="0.0,100.0 70.71068,70.71068 30.0,51.96152" stroke-width="1.5" stroke="rgb(81,82,189)"></polygon><polygon fill="none" points="-100.0,173.20508 0.0,200.0 -49.44272,152.16904" stroke-width="1.5" stroke="rgb(81,82,189)"></polygon><polygon fill="none" points="173.20508,100.0 160.0,0.0 129.44272,94.04564" stroke-width="1.5" stroke="rgb(81,82,189)"></polygon><polygon fill="none" points="30.0,51.96152 60.0,0.0 30.0,-51.96152" stroke-width="1.5" stroke="rgb(81,82,189)"></polygon><polygon fill="none" points="-100.0,0.0 -70.71068,70.71068 -60.0,0.0" stroke-width="1.5" stroke="rgb(81,82,189)"></polygon><polygon fill="none" points="-173.20508,-100.0 -160.0,0.0 -129.44272,-94.04564" stroke-width="1.5" stroke="rgb(81,82,189)"></polygon><polygon fill="none" points="200.0,0.0 173.20508,-100.0 160.0,0.0" stroke-width="1.5" stroke="rgb(81,82,189)"></polygon><polygon fill="none" points="100.0,0.0 129.44272,-94.04564 70.71068,-70.71068" stroke-width="1.5" stroke="rgb(81,82,189)"></polygon><polygon fill="none" points="-49.44272,152.16904 0.0,100.0 -70.71068,70.71068" stroke-width="1.5" stroke="rgb(81,82,189)"></polygon><polygon fill="none" points="0.0,-100.0 -30.0,-51.96152 30.0,-51.96152" stroke-width="1.5" stroke="rgb(81,82,189)"></polygon><polygon fill="none" points="0.0,-100.0 -70.71068,-70.71068 -30.0,-51.96152" stroke-width="1.5" stroke="rgb(81,82,189)"></polygon><polygon fill="none" points="160.0,0.0 173.20508,-100.0 129.44272,-94.04564" stroke-width="1.5" stroke="rgb(81,82,189)"></polygon><polygon fill="none" points="60.0,0.0 70.71068,-70.71068 30.0,-51.96152" stroke-width="1.5" stroke="rgb(81,82,189)"></polygon><polygon fill="none" points="129.44272,94.04564 160.0,0.0 100.0,0.0" stroke-width="1.5" stroke="rgb(81,82,189)"></polygon><polygon fill="none" points="-129.44272,94.04564 -49.44272,152.16904 -70.71068,70.71068" stroke-width="1.5" stroke="rgb(81,82,189)"></polygon><polygon fill="none" points="129.44272,-94.04564 49.44272,-152.16904 70.71068,-70.71068" stroke-width="1.5" stroke="rgb(81,82,189)"></polygon><polygon fill="none" points="-70.71068,-70.71068 -60.0,0.0 -30.0,-51.96152" stroke-width="1.5" stroke="rgb(81,82,189)"></polygon><polygon fill="none" points="0.0,-200.0 -49.44272,-152.16904 49.44272,-152.16904" stroke-width="1.5" stroke="rgb(81,82,189)"></polygon><polygon fill="none" points="0.0,200.0 49.44272,152.16904 -49.44272,152.16904" stroke-width="1.5" stroke="rgb(81,82,189)"></polygon><polygon fill="none" points="70.71068,-70.71068 0.0,-100.0 30.0,-51.96152" stroke-width="1.5" stroke="rgb(81,82,189)"></polygon><polygon fill="none" points="0.0,200.0 100.0,173.20508 49.44272,152.16904" stroke-width="1.5" stroke="rgb(81,82,189)"></polygon><polygon fill="none" points="0.0,-200.0 -100.0,-173.20508 -49.44272,-152.16904" stroke-width="1.5" stroke="rgb(81,82,189)"></polygon><polygon fill="none" points="-60.0,0.0 -30.0,51.96152 -30.0,-51.96152" stroke-width="1.5" stroke="rgb(81,82,189)"></polygon><polygon fill="none" points="-49.44272,152.16904 49.44272,152.16904 0.0,100.0" stroke-width="1.5" stroke="rgb(81,82,189)"></polygon><polygon fill="none" points="-70.71068,70.71068 0.0,100.0 -30.0,51.96152" stroke-width="1.5" stroke="rgb(81,82,189)"></polygon><polygon fill="none" points="-100.0,173.20508 -49.44272,152.16904 -129.44272,94.04564" stroke-width="1.5" stroke="rgb(81,82,189)"></polygon><polygon fill="none" points="-173.20508,-100.0 -200.0,0.0 -160.0,0.0" stroke-width="1.5" stroke="rgb(81,82,189)"></polygon><polygon fill="none" points="-129.44272,-94.04564 -160.0,0.0 -100.0,0.0" stroke-width="1.5" stroke="rgb(81,82,189)"></polygon><polygon fill="none" points="100.0,0.0 70.71068,-70.71068 60.0,0.0" stroke-width="1.5" stroke="rgb(81,82,189)"></polygon><line fill="none" stroke-width="1.5" stroke="rgb(81,82,189)" x1="58.2603735314545" x2="77.32696291399586" y1="145.76263597829413" y2="73.33940931113031"></line><line fill="none" stroke-width="1.5" stroke="rgb(81,82,189)" x1="67.69568176697805" x2="83.67463083505874" y1="138.9074838008553" y2="75.86141573147808"></line><line fill="none" stroke-width="1.5" stroke="rgb(81,82,189)" x1="76.71038802131642" x2="91.00442511338942" y1="132.3579168269079" y2="78.7736330150002"></line><line fill="none" stroke-width="1.5" stroke="rgb(81,82,189)" x1="84.5739475473367" x2="96.4551347151668" y1="126.64470684355366" y2="80.93926687960729"></line><line fill="none" stroke-width="1.5" stroke="rgb(81,82,189)" x1="94.45925395173528" x2="103.70611456940422" y1="119.46261188372719" y2="83.82017022452219"></line><line fill="none" stroke-width="1.5" stroke="rgb(81,82,189)" x1="102.30671153466966" x2="109.96109830764206" y1="113.7611006459201" y2="86.30535208078496"></line><line fill="none" stroke-width="1.5" stroke="rgb(81,82,189)" x1="110.95305982361319" x2="115.81790444675555" y1="107.47916137904075" y2="88.63233308692165"></line><line fill="none" stroke-width="1.5" stroke="rgb(81,82,189)" x1="121.21290336034559" x2="122.44770226727967" y1="100.0249492849183" y2="91.26643318114486"></line><line fill="none" stroke-width="1.5" stroke="rgb(81,82,189)" x1="77.15707106774217" x2="68.51780189245905" y1="73.27190919418265" y2="79.10960777188143"></line><line fill="none" stroke-width="1.5" stroke="rgb(81,82,189)" x1="83.9678322088838" x2="65.97090255169013" y1="75.97790823808634" y2="88.86448055663331"></line><line fill="none" stroke-width="1.5" stroke="rgb(81,82,189)" x1="89.87165490741577" x2="63.866726846629135" y1="78.3235695006874" y2="96.92367865334285"></line><line fill="none" stroke-width="1.5" stroke="rgb(81,82,189)" x1="97.40868459685271" x2="61.172242480614756" y1="81.31812395808706" y2="107.24381647356694"></line><line fill="none" stroke-width="1.5" stroke="rgb(81,82,189)" x1="103.6399203875571" x2="59.03770059361946" y1="83.79387046314775" y2="115.41932000763165"></line><line fill="none" stroke-width="1.5" stroke="rgb(81,82,189)" x1="109.15035655839661" x2="56.321491730987084" y1="85.98323442714144" y2="125.82266476792954"></line><line fill="none" stroke-width="1.5" stroke="rgb(81,82,189)" x1="116.5271980471072" x2="53.98214870993725" y1="88.91414414513133" y2="134.78257661248202"></line><line fill="none" stroke-width="1.5" stroke="rgb(81,82,189)" x1="122.72488347891816" x2="51.87109009475826" y1="91.37656068057382" y2="142.86813692599185"></line><polygon fill="none" points="-56.95080688766184,-144.5587554615207 -125.10769626593586,-95.04173758407632 -75.49566398327875,-75.59877154877256" stroke-width="1.5" stroke="rgb(81,82,189)"></polygon><polygon fill="none" points="-66.60637606048897,-134.7717637824754 -119.08057078862426,-96.42664649392255 -79.79098979335244,-79.98665365851713" stroke-width="1.5" stroke="rgb(81,82,189)"></polygon><polygon fill="none" points="-74.05635937119652,-127.22037832131441 -114.7051779436783,-97.43202137086074 -85.87520322665026,-86.20197059983596" stroke-width="1.5" stroke="rgb(81,82,189)"></polygon><polygon fill="none" points="-83.26200859417854,-117.88943047837591 -110.2258613796798,-98.46127577129681 -90.01054342636745,-90.42641970623221" stroke-width="1.5" stroke="rgb(81,82,189)"></polygon><polygon fill="none" points="-91.37504920223165,-109.66596280893727 -104.6637508651566,-99.739333850245 -94.65911809067482,-95.17516252743772" stroke-width="1.5" stroke="rgb(81,82,189)"></polygon><line fill="none" stroke-width="1.5" stroke="rgb(81,82,189)" x1="-161.30388623982844" x2="-200.0" y1="9.874127418904973" y2="0.0"></line><line fill="none" stroke-width="1.5" stroke="rgb(81,82,189)" x1="-162.88303813448363" x2="-200.0" y1="21.832798770235495" y2="0.0"></line><line fill="none" stroke-width="1.5" stroke="rgb(81,82,189)" x1="-164.35165633001975" x2="-200.0" y1="32.95441563334003" y2="0.0"></line><line fill="none" stroke-width="1.5" stroke="rgb(81,82,189)" x1="-165.9456658674072" x2="-200.0" y1="45.02560159906066" y2="0.0"></line><line fill="none" stroke-width="1.5" stroke="rgb(81,82,189)" x1="-167.40684403471104" x2="-200.0" y1="56.09087628711802" y2="0.0"></line><line fill="none" stroke-width="1.5" stroke="rgb(81,82,189)" x1="-168.88016151845935" x2="-200.0" y1="67.2480801279571" y2="0.0"></line><line fill="none" stroke-width="1.5" stroke="rgb(81,82,189)" x1="-170.33608162186798" x2="-200.0" y1="78.27353631705958" y2="0.0"></line><line fill="none" stroke-width="1.5" stroke="rgb(81,82,189)" x1="-171.8818510136701" x2="-200.0" y1="89.97940717348148" y2="0.0"></line><line fill="none" stroke-width="1.5" stroke="rgb(81,82,189)" x1="68.8494558967198" x2="100.0" y1="58.42310089069461" y2="0.0"></line><line fill="none" stroke-width="1.5" stroke="rgb(81,82,189)" x1="67.14204976020068" x2="100.0" y1="47.150999855395625" y2="0.0"></line><line fill="none" stroke-width="1.5" stroke="rgb(81,82,189)" x1="65.25192806530514" x2="100.0" y1="34.67263149407022" y2="0.0"></line><line fill="none" stroke-width="1.5" stroke="rgb(81,82,189)" x1="63.56177962443449" x2="100.0" y1="23.514463801767647" y2="0.0"></line><line fill="none" stroke-width="1.5" stroke="rgb(81,82,189)" x1="61.73776973238143" x2="100.0" y1="11.472558040246064" y2="0.0"></line><line fill="none" stroke-width="1.5" stroke="rgb(81,82,189)" x1="-63.88802052257376" x2="-55.085059190271195" y1="67.56852759542379" y2="8.51292669430805"></line><line fill="none" stroke-width="1.5" stroke="rgb(81,82,189)" x1="-57.43095565725305" x2="-50.31511361012222" y1="64.594749504344" y2="16.774714299007115"></line><line fill="none" stroke-width="1.5" stroke="rgb(81,82,189)" x1="-50.439532306456" x2="-44.94562326849665" y1="61.37487452713461" y2="26.074943830474417"></line><line fill="none" stroke-width="1.5" stroke="rgb(81,82,189)" x1="-43.216106633460925" x2="-39.86419999280836" y1="58.04815171159275" y2="34.876226597310406"></line><line fill="none" stroke-width="1.5" stroke="rgb(81,82,189)" x1="-37.285575068324434" x2="-34.69212473822425" y1="55.31686664559022" y2="43.83452318809858"></line><line fill="none" stroke-width="1.5" stroke="rgb(81,82,189)" x1="-54.81759035363362" x2="-61.86525990596552" y1="8.97619628135994" y2="12.314233659719624"></line><line fill="none" stroke-width="1.5" stroke="rgb(81,82,189)" x1="-49.65051250946972" x2="-63.505168967191736" y1="17.925837103906844" y2="23.140726684120885"></line><line fill="none" stroke-width="1.5" stroke="rgb(81,82,189)" x1="-45.25312873234453" x2="-65.3368412067221" y1="25.542328775038847" y2="35.23321839182379"></line><line fill="none" stroke-width="1.5" stroke="rgb(81,82,189)" x1="-39.72205375317173" x2="-67.01196955011996" y1="35.12243109187989" y2="46.29222510967989"></line><line fill="none" stroke-width="1.5" stroke="rgb(81,82,189)" x1="-34.65735362375723" x2="-69.02668734811427" y1="43.894748521423296" y2="59.59316276643791"></line><polygon fill="none" points="-173.20508,100.0 -100.0,173.20508 -129.44272,94.04564" stroke-width="1.5" stroke="rgb(81,82,189)"></polygon><polygon fill="none" points="173.20508,-100.0 100.0,-173.20508 129.44272,-94.04564" stroke-width="1.5" stroke="rgb(81,82,189)"></polygon><line fill="none" stroke-width="1.5" stroke="rgb(81,82,189)" x1="-162.25644758716118" x2="-152.6841838180581" y1="98.51031574100922" y2="22.515766268273026"></line><line fill="none" stroke-width="1.5" stroke="rgb(81,82,189)" x1="-150.79145739129433" x2="-145.09203022163095" y1="96.95037494610887" y2="45.882011619261014"></line><line fill="none" stroke-width="1.5" stroke="rgb(81,82,189)" x1="-139.97807693680284" x2="-137.2801211172234" y1="95.47909298131309" y2="69.92459485665815"></line><line fill="none" stroke-width="1.5" stroke="rgb(81,82,189)" x1="-152.18687649385174" x2="-163.27829243238864" y1="24.046320781516457" y2="24.825998008918624"></line><line fill="none" stroke-width="1.5" stroke="rgb(81,82,189)" x1="-145.01013175089753" x2="-166.69256306626193" y1="46.134069185895115" y2="50.68173775959344"></line><line fill="none" stroke-width="1.5" stroke="rgb(81,82,189)" x1="-137.26857556307" x2="-169.7787903895194" y1="69.96012841741071" y2="74.05325661047074"></line><line fill="none" stroke-width="1.5" stroke="rgb(81,82,189)" x1="154.58608833656444" x2="105.18586439486899" y1="-16.662306238896768" y2="-16.564636546154915"></line><line fill="none" stroke-width="1.5" stroke="rgb(81,82,189)" x1="149.71559857974464" x2="109.56858373233463" y1="-31.652131878209676" y2="-30.56387512646831"></line><line fill="none" stroke-width="1.5" stroke="rgb(81,82,189)" x1="144.91979983960593" x2="114.65633988764552" y1="-46.412082212825524" y2="-46.81513530819866"></line><line fill="none" stroke-width="1.5" stroke="rgb(81,82,189)" x1="139.60648146175157" x2="119.85944873687745" y1="-62.76479416313218" y2="-63.43485391921472"></line><line fill="none" stroke-width="1.5" stroke="rgb(81,82,189)" x1="134.8739836635166" x2="124.17504433567792" y1="-77.32992423750365" y2="-77.21968652012998"></line><line fill="none" stroke-width="1.5" stroke="rgb(81,82,189)" x1="105.21386950751804" x2="110.32953238499508" y1="-16.654090198842923" y2="0.0"></line><line fill="none" stroke-width="1.5" stroke="rgb(81,82,189)" x1="109.47040337366799" x2="120.34118047188264" y1="-30.25026839990347" y2="0.0"></line><line fill="none" stroke-width="1.5" stroke="rgb(81,82,189)" x1="114.62754494162883" x2="130.22278222491684" y1="-46.72315877761204" y2="0.0"></line><line fill="none" stroke-width="1.5" stroke="rgb(81,82,189)" x1="119.74395154942312" x2="140.44661446773142" y1="-63.065933950120005" y2="0.0"></line><line fill="none" stroke-width="1.5" stroke="rgb(81,82,189)" x1="124.70042455124731" x2="150.4704680222708" y1="-78.89785078683505" y2="0.0"></line><line fill="none" stroke-width="1.5" stroke="rgb(81,82,189)" x1="62.04112227087236" x2="62.50526161463423" y1="13.4752569822537" y2="66.93170293415074"></line><line fill="none" stroke-width="1.5" stroke="rgb(81,82,189)" x1="64.30056367052127" x2="54.760240572453526" y1="28.391832011146683" y2="63.36476123996271"></line><line fill="none" stroke-width="1.5" stroke="rgb(81,82,189)" x1="66.45249944200395" x2="46.04547335376611" y1="42.598667115464174" y2="59.35120641833155"></line><line fill="none" stroke-width="1.5" stroke="rgb(81,82,189)" x1="68.49689474773204" x2="38.23105315159564" y1="56.095532301411566" y2="55.75230318963497"></line><polygon fill="none" points="0.0,100.0 30.0,51.96152 -30.0,51.96152" stroke-width="1.5" stroke="rgb(81,82,189)"></polygon><line fill="none" stroke-width="1.5" stroke="rgb(81,82,189)" x1="96.7941869222214" x2="76.68685748909154" y1="7.739517404053884" y2="73.08508756472145"></line><line fill="none" stroke-width="1.5" stroke="rgb(81,82,189)" x1="93.15012511523217" x2="83.14889535505547" y1="16.537060832937758" y2="75.6525345687485"></line><line fill="none" stroke-width="1.5" stroke="rgb(81,82,189)" x1="90.37605296049657" x2="90.52738942881888" y1="23.234263446059096" y2="78.58410087907517"></line><line fill="none" stroke-width="1.5" stroke="rgb(81,82,189)" x1="86.74971127245216" x2="96.48517951732698" y1="31.989026723496835" y2="80.95120404848385"></line><line fill="none" stroke-width="1.5" stroke="rgb(81,82,189)" x1="83.91635928529139" x2="102.67481419441614" y1="38.82934351190936" y2="83.41042192020454"></line><line fill="none" stroke-width="1.5" stroke="rgb(81,82,189)" x1="80.64092079147437" x2="109.99702354125726" y1="46.73695153950241" y2="86.31962561729581"></line><line fill="none" stroke-width="1.5" stroke="rgb(81,82,189)" x1="76.91811351143477" x2="116.63298262292824" y1="55.72460335723411" y2="88.95617365623873"></line><line fill="none" stroke-width="1.5" stroke="rgb(81,82,189)" x1="74.01920602194309" x2="123.02406610332002" y1="62.72318512832403" y2="91.49542961149163"></line><line fill="none" stroke-width="1.5" stroke="rgb(81,82,189)" x1="135.19094695616522" x2="100.0" y1="94.82775013498609" y2="173.20508"></line><line fill="none" stroke-width="1.5" stroke="rgb(81,82,189)" x1="140.31974941051328" x2="100.0" y1="95.52558136212545" y2="173.20508"></line><line fill="none" stroke-width="1.5" stroke="rgb(81,82,189)" x1="146.27873922262754" x2="100.0" y1="96.33636891148277" y2="173.20508"></line><line fill="none" stroke-width="1.5" stroke="rgb(81,82,189)" x1="151.61029261410653" x2="100.0" y1="97.06178668275619" y2="173.20508"></line><line fill="none" stroke-width="1.5" stroke="rgb(81,82,189)" x1="157.1874793941493" x2="100.0" y1="97.82062563772574" y2="173.20508"></line><line fill="none" stroke-width="1.5" stroke="rgb(81,82,189)" x1="161.90495811167273" x2="100.0" y1="98.46249164675136" y2="173.20508"></line><line fill="none" stroke-width="1.5" stroke="rgb(81,82,189)" x1="167.93371564990213" x2="100.0" y1="99.2827718795105" y2="173.20508"></line><line fill="none" stroke-width="1.5" stroke="rgb(81,82,189)" x1="-109.08771499677081" x2="-135.19263214127994" y1="-164.1173631282292" y2="-94.82797942336423"></line><line fill="none" stroke-width="1.5" stroke="rgb(81,82,189)" x1="-118.23584543467547" x2="-140.59829750631005" y1="-154.96923269032453" y2="-95.56348096173713"></line><line fill="none" stroke-width="1.5" stroke="rgb(81,82,189)" x1="-128.1623860206674" x2="-146.20324237103026" y1="-145.0426921043326" y2="-96.3260967161576"></line><line fill="none" stroke-width="1.5" stroke="rgb(81,82,189)" x1="-137.32090406750626" x2="-151.3104640392801" y1="-135.88417405749374" y2="-97.02099163475718"></line><line fill="none" stroke-width="1.5" stroke="rgb(81,82,189)" x1="-146.350880054737" x2="-156.44796928587385" y1="-126.85419807026301" y2="-97.72000697461027"></line><line fill="none" stroke-width="1.5" stroke="rgb(81,82,189)" x1="-154.12086182447752" x2="-162.26224212167125" y1="-119.08421630052248" y2="-98.51110415256608"></line><line fill="none" stroke-width="1.5" stroke="rgb(81,82,189)" x1="-163.41393342341348" x2="-167.94093268604252" y1="-109.79114470158652" y2="-99.2837538384046"></line><line fill="none" stroke-width="1.5" stroke="rgb(81,82,189)" x1="-134.81261402887293" x2="-126.04742137918068" y1="-94.77627368736121" y2="-103.17420561483765"></line><line fill="none" stroke-width="1.5" stroke="rgb(81,82,189)" x1="-140.37778128459078" x2="-121.96982271904349" y1="-95.53347725093403" y2="-114.13720221088143"></line><line fill="none" stroke-width="1.5" stroke="rgb(81,82,189)" x1="-146.37151636436548" x2="-118.54334247982099" y1="-96.34899228453052" y2="-123.34960743512286"></line><line fill="none" stroke-width="1.5" stroke="rgb(81,82,189)" x1="-150.91796807756344" x2="-114.38085699618077" y1="-96.96758814709122" y2="-134.5408300128481"></line><line fill="none" stroke-width="1.5" stroke="rgb(81,82,189)" x1="-156.82146064357883" x2="-111.38868205105702" y1="-97.77082467226838" y2="-142.58556576843998"></line><line fill="none" stroke-width="1.5" stroke="rgb(81,82,189)" x1="-162.5210262363289" x2="-107.5281827847215" y1="-98.5463146403755" y2="-152.9648708063816"></line><line fill="none" stroke-width="1.5" stroke="rgb(81,82,189)" x1="-168.25671085569874" x2="-103.41647114975184" y1="-99.32671900807073" y2="-164.01958325239985"></line><polygon fill="none" points="-129.44272,94.04564 -70.71068,70.71068 -100.0,0.0" stroke-width="1.5" stroke="rgb(81,82,189)"></polygon><line fill="none" stroke-width="1.5" stroke="rgb(81,82,189)" x1="176.47837050700252" x2="164.83971939988945" y1="87.78390772224438" y2="0.0"></line><line fill="none" stroke-width="1.5" stroke="rgb(81,82,189)" x1="179.32120439686818" x2="169.37850913090048" y1="77.17430824989786" y2="0.0"></line><line fill="none" stroke-width="1.5" stroke="rgb(81,82,189)" x1="182.33982750650367" x2="173.15166453581438" y1="65.90865454238741" y2="0.0"></line><line fill="none" stroke-width="1.5" stroke="rgb(81,82,189)" x1="184.9288704855033" x2="178.2315674576417" y1="56.24621555085878" y2="0.0"></line><line fill="none" stroke-width="1.5" stroke="rgb(81,82,189)" x1="187.78017447177027" x2="181.85418752458247" y1="45.60500525150245" y2="0.0"></line><line fill="none" stroke-width="1.5" stroke="rgb(81,82,189)" x1="191.01673996691144" x2="186.29685075515022" y1="33.52597956805411" y2="0.0"></line><line fill="none" stroke-width="1.5" stroke="rgb(81,82,189)" x1="194.24275588275862" x2="191.17846679404897" y1="21.486325446662164" y2="0.0"></line><line fill="none" stroke-width="1.5" stroke="rgb(81,82,189)" x1="196.6983728224606" x2="195.59780821303488" y1="12.321839163934428" y2="0.0"></line><line fill="none" stroke-width="1.5" stroke="rgb(81,82,189)" x1="-124.92250711510587" x2="-151.02857201822505" y1="79.60722470667669" y2="0.0"></line><line fill="none" stroke-width="1.5" stroke="rgb(81,82,189)" x1="-121.00748453151823" x2="-143.53071277363563" y1="67.10189845262292" y2="0.0"></line><line fill="none" stroke-width="1.5" stroke="rgb(81,82,189)" x1="-117.07529491373231" x2="-134.478215826882" y1="54.54173742842911" y2="0.0"></line><line fill="none" stroke-width="1.5" stroke="rgb(81,82,189)" x1="-112.82387012973717" x2="-125.49362654375801" y1="40.96187860684617" y2="0.0"></line><line fill="none" stroke-width="1.5" stroke="rgb(81,82,189)" x1="-108.46994195770712" x2="-117.8779410214894" y1="27.05460448122477" y2="0.0"></line><line fill="none" stroke-width="1.5" stroke="rgb(81,82,189)" x1="-104.56842223667877" x2="-109.05097751246213" y1="14.592408936652859" y2="0.0"></line><line fill="none" stroke-width="1.5" stroke="rgb(81,82,189)" x1="55.85257640150892" x2="125.5546133102265" y1="154.83607178438336" y2="104.49916513948732"></line><line fill="none" stroke-width="1.5" stroke="rgb(81,82,189)" x1="62.04627671320676" x2="122.0622924528889" y1="157.41316713953213" y2="113.88858888184178"></line><line fill="none" stroke-width="1.5" stroke="rgb(81,82,189)" x1="67.90038155396931" x2="118.09971554165584" y1="159.84896248552096" y2="124.5423389956277"></line><line fill="none" stroke-width="1.5" stroke="rgb(81,82,189)" x1="74.28863563079635" x2="114.4303357231854" y1="162.50700841612692" y2="134.4078019340842"></line><line fill="none" stroke-width="1.5" stroke="rgb(81,82,189)" x1="80.46453862501384" x2="111.19512535443721" y1="165.076698604428" y2="143.1059606339104"></line><line fill="none" stroke-width="1.5" stroke="rgb(81,82,189)" x1="87.53132057219426" x2="107.21580109445033" y1="168.01706866035917" y2="153.80473752514152"></line><line fill="none" stroke-width="1.5" stroke="rgb(81,82,189)" x1="93.19850351575923" x2="103.44476581030973" y1="170.37508892379617" y2="163.94351047201204"></line><line fill="none" stroke-width="1.5" stroke="rgb(81,82,189)" x1="-103.77829125704393" x2="-58.76913330450108" y1="-163.04679683195067" y2="-145.39300039470368"></line><line fill="none" stroke-width="1.5" stroke="rgb(81,82,189)" x1="-107.32947763183257" x2="-68.45178839581985" y1="-153.4991077669814" y2="-138.35814022100635"></line><line fill="none" stroke-width="1.5" stroke="rgb(81,82,189)" x1="-110.87174800310311" x2="-79.8245952696663" y1="-143.97539019218726" y2="-130.09531299175754"></line><line fill="none" stroke-width="1.5" stroke="rgb(81,82,189)" x1="-114.75886518535091" x2="-89.53823890255075" y1="-133.52452045505322" y2="-123.0379383264414"></line><line fill="none" stroke-width="1.5" stroke="rgb(81,82,189)" x1="-118.66850410431456" x2="-99.85233802946114" y1="-123.01309897079247" y2="-115.5443072416657"></line><line fill="none" stroke-width="1.5" stroke="rgb(81,82,189)" x1="-122.38556793891674" x2="-109.0913378569782" y1="-113.01943319774895" y2="-108.83178146041908"></line><line fill="none" stroke-width="1.5" stroke="rgb(81,82,189)" x1="-125.43314175760511" x2="-119.82594983224007" y1="-104.82575250840206" y2="-101.03262993094135"></line><line fill="none" stroke-width="1.5" stroke="rgb(81,82,189)" x1="-60.27026631414515" x2="-55.62031711929061" y1="-144.3023635058161" y2="-154.73943257239816"></line><line fill="none" stroke-width="1.5" stroke="rgb(81,82,189)" x1="-68.49032582718611" x2="-62.63337935336473" y1="-138.33014114032463" y2="-157.65745075204228"></line><line fill="none" stroke-width="1.5" stroke="rgb(81,82,189)" x1="-79.56399938562187" x2="-68.32105388376236" y1="-130.28464696976295" y2="-160.02399722284943"></line><line fill="none" stroke-width="1.5" stroke="rgb(81,82,189)" x1="-89.21387782555173" x2="-74.60478104330485" y1="-123.27360042541711" y2="-162.63855124724978"></line><line fill="none" stroke-width="1.5" stroke="rgb(81,82,189)" x1="-99.54743168973293" x2="-81.00058642119214" y1="-115.76583464771622" y2="-165.29973914823017"></line><line fill="none" stroke-width="1.5" stroke="rgb(81,82,189)" x1="-110.26192030202775" x2="-86.96923802489454" y1="-107.98130359613043" y2="-167.78319549101636"></line><line fill="none" stroke-width="1.5" stroke="rgb(81,82,189)" x1="-120.11018714639944" x2="-93.28720533300026" y1="-100.82611944983879" y2="-170.41199626992227"></line><line fill="none" stroke-width="1.5" stroke="rgb(81,82,189)" x1="17.973122785379726" x2="54.93468663674032" y1="-92.55528877760376" y2="-131.13426348526986"></line><line fill="none" stroke-width="1.5" stroke="rgb(81,82,189)" x1="36.212756948576555" x2="59.869613157083045" y1="-85.00018492789262" y2="-112.2330137823632"></line><line fill="none" stroke-width="1.5" stroke="rgb(81,82,189)" x1="52.64637431126573" x2="65.64539513787552" y1="-78.19315773147807" y2="-90.11120568684456"></line><line fill="none" stroke-width="1.5" stroke="rgb(81,82,189)" x1="68.20064016482614" x2="0.0" y1="80.3243681103552" y2="100.0"></line><line fill="none" stroke-width="1.5" stroke="rgb(81,82,189)" x1="65.56897817773559" x2="0.0" y1="90.40389009444169" y2="100.0"></line><line fill="none" stroke-width="1.5" stroke="rgb(81,82,189)" x1="62.49963811534044" x2="0.0" y1="102.1597617783096" y2="100.0"></line><line fill="none" stroke-width="1.5" stroke="rgb(81,82,189)" x1="59.95127945265191" x2="0.0" y1="111.92022390829001" y2="100.0"></line><line fill="none" stroke-width="1.5" stroke="rgb(81,82,189)" x1="57.43313254794828" x2="0.0" y1="121.56497205969697" y2="100.0"></line><line fill="none" stroke-width="1.5" stroke="rgb(81,82,189)" x1="54.950926720291065" x2="0.0" y1="131.07206238194573" y2="100.0"></line><line fill="none" stroke-width="1.5" stroke="rgb(81,82,189)" x1="52.069066585978334" x2="0.0" y1="142.1098676629277" y2="100.0"></line><line fill="none" stroke-width="1.5" stroke="rgb(81,82,189)" x1="65.86560116607312" x2="0.0" y1="68.47929527604083" y2="100.0"></line><line fill="none" stroke-width="1.5" stroke="rgb(81,82,189)" x1="61.03095305002848" x2="0.0" y1="66.25271540647965" y2="100.0"></line><line fill="none" stroke-width="1.5" stroke="rgb(81,82,189)" x1="55.902635717523445" x2="0.0" y1="63.89088723135712" y2="100.0"></line><line fill="none" stroke-width="1.5" stroke="rgb(81,82,189)" x1="49.9361772470174" x2="0.0" y1="61.14305615779594" y2="100.0"></line><line fill="none" stroke-width="1.5" stroke="rgb(81,82,189)" x1="45.6806092639938" x2="0.0" y1="59.18316956892431" y2="100.0"></line><line fill="none" stroke-width="1.5" stroke="rgb(81,82,189)" x1="40.33506925623984" x2="0.0" y1="56.72130026892314" y2="100.0"></line><line fill="none" stroke-width="1.5" stroke="rgb(81,82,189)" x1="35.251525044374596" x2="0.0" y1="54.38009219411009" y2="100.0"></line><polygon fill="none" points="-93.99330477504972,173.5096677992674 -9.95728510168234,196.3273792384106 -52.731779294125126,156.12132567648686" stroke-width="1.5" stroke="rgb(81,82,189)"></polygon><polygon fill="none" points="-89.42488221645355,173.74132502290323 -22.79005639609967,191.59417115977053 -55.91999867333805,159.95243874841208" stroke-width="1.5" stroke="rgb(81,82,189)"></polygon><polygon fill="none" points="-83.52966727997696,174.04026171437692 -34.10294445817641,187.42155310715495 -58.73897083024019,163.3398471401041" stroke-width="1.5" stroke="rgb(81,82,189)"></polygon><polygon fill="none" points="-78.2034105330407,174.31034746816633 -46.13220263433242,182.98471084813346 -61.804242274497014,167.02322024035496" stroke-width="1.5" stroke="rgb(81,82,189)"></polygon><polygon fill="none" points="-73.51675131102446,174.54800027930057 -57.85757251943968,178.65995400551938 -65.41756658388769,171.3651592189171" stroke-width="1.5" stroke="rgb(81,82,189)"></polygon><polygon fill="none" points="168.41760998321286,95.44745169606863 157.52199814441903,13.002902383844328 132.26425993048187,90.61200816730512" stroke-width="1.5" stroke="rgb(81,82,189)"></polygon><polygon fill="none" points="164.45009250370194,91.67461928502665 155.45403836859003,23.854177187476985 134.57259420340932,87.80291674286659" stroke-width="1.5" stroke="rgb(81,82,189)"></polygon><polygon fill="none" points="159.93579633996498,87.38183848001586 152.96448800895143,36.91767842462822 137.93251828718064,83.71410948423818" stroke-width="1.5" stroke="rgb(81,82,189)"></polygon><polygon fill="none" points="155.300690718268,82.97417630626357 150.3499814080225,50.636866744535695 140.72066135034174,80.3211222290168" stroke-width="1.5" stroke="rgb(81,82,189)"></polygon><polygon fill="none" points="150.3807106571943,78.2956184090499 148.1617903425095,62.11903523362861 143.45076980002244,76.99875929236154" stroke-width="1.5" stroke="rgb(81,82,189)"></polygon><polygon fill="none" points="31.070987092798592,43.28568232895119 57.43613988651011,-1.8796959650732523 31.089826890721042,-47.2614642973417" stroke-width="1.5" stroke="rgb(81,82,189)"></polygon><polygon fill="none" points="31.87505876804322,36.77206857875733 54.74692951358814,-3.851292566860516 31.974573269978936,-43.445850719686234" stroke-width="1.5" stroke="rgb(81,82,189)"></polygon><polygon fill="none" points="32.67225681100322,30.314136662834418 52.25101048427954,-5.68117747511116 32.64279759593753,-40.56402393765869" stroke-width="1.5" stroke="rgb(81,82,189)"></polygon><polygon fill="none" points="33.693491058525424,22.04133506861619 50.8559162399145,-6.703991866673415 33.638210326222335,-36.271143607103895" stroke-width="1.5" stroke="rgb(81,82,189)"></polygon><polygon fill="none" points="34.70190374583349,13.872398208700787 47.89559387068223,-8.874354431886724 34.45065690200791,-32.76733476610323" stroke-width="1.5" stroke="rgb(81,82,189)"></polygon><polygon fill="none" points="35.679159435981916,5.955857560916662 45.90735908798718,-10.332030253974786 35.52579885442779,-28.13060911484793" stroke-width="1.5" stroke="rgb(81,82,189)"></polygon><polygon fill="none" points="36.32158623708003,0.7516945814750855 43.46204619916266,-12.12481323237546 36.38058245956417,-24.444214904959935" stroke-width="1.5" stroke="rgb(81,82,189)"></polygon><polygon fill="none" points="37.48815280640868,-8.698413263927876 40.23473867735868,-14.49091616243277 37.32351468460187,-20.377665343400224" stroke-width="1.5" stroke="rgb(81,82,189)"></polygon><polygon fill="none" points="-96.45974667054531,2.8934741628442673 -71.77970073099809,63.49804769509938 -62.72537533079138,2.56315421135444" stroke-width="1.5" stroke="rgb(81,82,189)"></polygon><polygon fill="none" points="-93.76084273445217,5.099307497456812 -73.12794439733506,54.40153001139268 -65.19299363204688,4.883893732777254" stroke-width="1.5" stroke="rgb(81,82,189)"></polygon><polygon fill="none" points="-90.5018100834376,7.762938004663758 -74.18632266909829,47.26071644369225 -67.71416626251508,7.254999896514217" stroke-width="1.5" stroke="rgb(81,82,189)"></polygon><polygon fill="none" points="-87.76362156106677,10.000878910349478 -75.04456810231429,41.47018691617684 -71.06969203367649,10.410796426441458" stroke-width="1.5" stroke="rgb(81,82,189)"></polygon><polygon fill="none" points="-84.88060665901318,12.357187443635146 -76.2337097911461,33.44712055883208 -73.73876234669471,12.920997034747117" stroke-width="1.5" stroke="rgb(81,82,189)"></polygon><polygon fill="none" points="-82.04003930002308,14.678803298826676 -77.35793985660139,25.862008960456627 -76.17880263946452,15.215800059353414" stroke-width="1.5" stroke="rgb(81,82,189)"></polygon><line fill="none" stroke-width="1.5" stroke="rgb(81,82,189)" x1="-134.0419614992077" x2="-161.30384913978773" y1="-94.67141774774153" y2="-9.873846466074752"></line><line fill="none" stroke-width="1.5" stroke="rgb(81,82,189)" x1="-138.81793548163733" x2="-162.7764971101959" y1="-95.32124269510699" y2="-21.025980186663105"></line><line fill="none" stroke-width="1.5" stroke="rgb(81,82,189)" x1="-143.53418418217706" x2="-164.27904107596862" y1="-95.96294134649527" y2="-32.404511623959905"></line><line fill="none" stroke-width="1.5" stroke="rgb(81,82,189)" x1="-149.2939669230439" x2="-165.78729996107396" y1="-96.74662453450884" y2="-43.82632125528572"></line><line fill="none" stroke-width="1.5" stroke="rgb(81,82,189)" x1="-153.32737334219658" x2="-167.18096562760596" y1="-97.29541481763681" y2="-54.38033428981296"></line><line fill="none" stroke-width="1.5" stroke="rgb(81,82,189)" x1="-158.2917265107982" x2="-168.73932879377907" y1="-97.9708708708645" y2="-66.18157583811401"></line><line fill="none" stroke-width="1.5" stroke="rgb(81,82,189)" x1="-162.95850144441357" x2="-170.24356465579788" y1="-98.60583806012467" y2="-77.57291974217588"></line><line fill="none" stroke-width="1.5" stroke="rgb(81,82,189)" x1="-168.2677442488075" x2="-171.75113369088336" y1="-99.32822022523031" y2="-88.9895052467428"></line><line fill="none" stroke-width="1.5" stroke="rgb(81,82,189)" x1="195.47838933773068" x2="162.0590038764162" y1="-16.874879066126468" y2="-15.59251567408802"></line><line fill="none" stroke-width="1.5" stroke="rgb(81,82,189)" x1="191.03701466445273" x2="164.55795817370347" y1="-33.45031337415417" y2="-34.51670736483035"></line><line fill="none" stroke-width="1.5" stroke="rgb(81,82,189)" x1="186.51167460773812" x2="166.697868839727" y1="-50.33911072846481" y2="-50.721917555690254"></line><line fill="none" stroke-width="1.5" stroke="rgb(81,82,189)" x1="182.03637119033883" x2="168.85151292110723" y1="-67.0411688209528" y2="-67.03112876211952"></line><line fill="none" stroke-width="1.5" stroke="rgb(81,82,189)" x1="177.56919709684462" x2="171.08564209350766" y1="-83.71288786657595" y2="-83.9498410275982"></line><line fill="none" stroke-width="1.5" stroke="rgb(81,82,189)" x1="162.05135830318162" x2="167.06413060804326" y1="-15.534616938751554" y2="0.0"></line><line fill="none" stroke-width="1.5" stroke="rgb(81,82,189)" x1="164.28696307677407" x2="173.28831527727797" y1="-32.46450370223826" y2="0.0"></line><line fill="none" stroke-width="1.5" stroke="rgb(81,82,189)" x1="166.58622267286708" x2="180.06762594196235" y1="-49.876438522525454" y2="0.0"></line><line fill="none" stroke-width="1.5" stroke="rgb(81,82,189)" x1="168.8668974379643" x2="186.69142565436465" y1="-67.14763331219811" y2="0.0"></line><line fill="none" stroke-width="1.5" stroke="rgb(81,82,189)" x1="171.01113186451093" x2="193.79906367127597" y1="-83.38558666809037" y2="0.0"></line><line fill="none" stroke-width="1.5" stroke="rgb(81,82,189)" x1="82.44489085469264" x2="123.64508493450805" y1="-75.37282493491946" y2="-75.52689546425843"></line><line fill="none" stroke-width="1.5" stroke="rgb(81,82,189)" x1="93.66736640173313" x2="117.42332784695728" y1="-79.8316522922732" y2="-55.65342076721212"></line><line fill="none" stroke-width="1.5" stroke="rgb(81,82,189)" x1="106.61881792025363" x2="112.10082422190902" y1="-84.97742303654084" y2="-38.65233254906489"></line><line fill="none" stroke-width="1.5" stroke="rgb(81,82,189)" x1="117.21961467095873" x2="105.97454901080319" y1="-89.18924977331244" y2="-19.083845113471128"></line><line fill="none" stroke-width="1.5" stroke="rgb(81,82,189)" x1="-11.367101510879252" x2="-52.92700451475304" y1="95.29159238521432" y2="138.82388175117822"></line><line fill="none" stroke-width="1.5" stroke="rgb(81,82,189)" x1="-23.307319739462933" x2="-56.29192127697759" y1="90.34579205292559" y2="125.93592248975331"></line><line fill="none" stroke-width="1.5" stroke="rgb(81,82,189)" x1="-36.11361737272366" x2="-60.15230385795152" y1="85.04124988481463" y2="111.15028083714527"></line><line fill="none" stroke-width="1.5" stroke="rgb(81,82,189)" x1="-47.20778752471162" x2="-63.51765052996603" y1="80.44589414057727" y2="98.2606749793108"></line><line fill="none" stroke-width="1.5" stroke="rgb(81,82,189)" x1="-59.33270149348816" x2="-67.04168186213295" y1="75.42359032772139" y2="84.76329140215319"></line><polygon fill="none" points="-0.1522775734467006,-96.08147597612876 -26.103336948861706,-54.041086614414574 25.781011670612635,-54.03007447123522" stroke-width="1.5" stroke="rgb(81,82,189)"></polygon><polygon fill="none" points="-0.34912880221405673,-91.01594825859229 -22.7128900705101,-55.85049536982708 22.785392258567214,-55.49881484312251" stroke-width="1.5" stroke="rgb(81,82,189)"></polygon><polygon fill="none" points="-0.5024291441016251,-87.07110556798841 -19.735747112985067,-57.43933269031608 18.080687769347872,-57.80551288137486" stroke-width="1.5" stroke="rgb(81,82,189)"></polygon><polygon fill="none" points="-0.6419262785355897,-83.48145766273063 -15.41445552783099,-59.74551329405692 13.692126221221486,-59.95720728365018" stroke-width="1.5" stroke="rgb(81,82,189)"></polygon><polygon fill="none" points="-0.8192885368590553,-78.91743517118616 -11.453562375738024,-61.85935698658364 10.817851085666653,-61.366453035806224" stroke-width="1.5" stroke="rgb(81,82,189)"></polygon><polygon fill="none" points="-0.9760363416487736,-74.88387970497315 -7.7385599008882195,-63.84197410036083 6.477047404948479,-63.494731944225535" stroke-width="1.5" stroke="rgb(81,82,189)"></polygon><polygon fill="none" points="-1.0891567552650863,-71.97297793321015 -4.675518446459147,-65.47665360565661 3.0712380903678422,-65.16458680601481" stroke-width="1.5" stroke="rgb(81,82,189)"></polygon><line fill="none" stroke-width="1.5" stroke="rgb(81,82,189)" x1="-65.37263418508456" x2="0.0" y1="-68.25226109901669" y2="-100.0"></line><line fill="none" stroke-width="1.5" stroke="rgb(81,82,189)" x1="-58.768135889833275" x2="0.0" y1="-65.2105830699674" y2="-100.0"></line><line fill="none" stroke-width="1.5" stroke="rgb(81,82,189)" x1="-53.638372625081544" x2="0.0" y1="-62.84808897592874" y2="-100.0"></line><line fill="none" stroke-width="1.5" stroke="rgb(81,82,189)" x1="-47.875407982019425" x2="0.0" y1="-60.193976255573645" y2="-100.0"></line><line fill="none" stroke-width="1.5" stroke="rgb(81,82,189)" x1="-41.665746851711745" x2="0.0" y1="-57.334139068322216" y2="-100.0"></line><line fill="none" stroke-width="1.5" stroke="rgb(81,82,189)" x1="-35.422244790469904" x2="0.0" y1="-54.45871656156528" y2="-100.0"></line><line fill="none" stroke-width="1.5" stroke="rgb(81,82,189)" x1="162.64900926027408" x2="138.2420849054769" y1="-20.06053455495234" y2="-95.24289175104397"></line><line fill="none" stroke-width="1.5" stroke="rgb(81,82,189)" x1="165.33225042271505" x2="146.80658686739963" y1="-40.38030197352619" y2="-96.40818851712612"></line><line fill="none" stroke-width="1.5" stroke="rgb(81,82,189)" x1="168.0004513228433" x2="156.21827831182384" y1="-60.586171828069304" y2="-97.68875493561855"></line><line fill="none" stroke-width="1.5" stroke="rgb(81,82,189)" x1="170.69413031748945" x2="164.28907972717454" y1="-80.98498332428048" y2="-98.78687819261738"></line><line fill="none" stroke-width="1.5" stroke="rgb(81,82,189)" x1="137.70788658755947" x2="135.58406736698146" y1="-95.17020806493083" y2="-75.14451138670121"></line><line fill="none" stroke-width="1.5" stroke="rgb(81,82,189)" x1="147.30180939115033" x2="141.71820063529336" y1="-96.47556910831325" y2="-56.265591045773874"></line><line fill="none" stroke-width="1.5" stroke="rgb(81,82,189)" x1="156.21896592695128" x2="147.41596301369827" y1="-97.68884849338616" y2="-38.729682163728704"></line><line fill="none" stroke-width="1.5" stroke="rgb(81,82,189)" x1="164.32403519935946" x2="153.70657363916126" y1="-98.79163427754503" y2="-19.36917405292435"></line><polygon fill="none" points="58.4735712779187,-7.551401332099764 68.0009769992025,-67.6522025668105 32.866647633231395,-51.365658869837254" stroke-width="1.5" stroke="rgb(81,82,189)"></polygon><polygon fill="none" points="57.17540727748221,-13.973553392245549 65.24352855245623,-64.53983397172271 35.626501170360264,-50.791994845404425" stroke-width="1.5" stroke="rgb(81,82,189)"></polygon><polygon fill="none" points="55.84393405355859,-20.56048963849397 62.467235804501165,-61.40619556419372 39.00058242198912,-50.090657255009546" stroke-width="1.5" stroke="rgb(81,82,189)"></polygon><polygon fill="none" points="54.51946344600392,-27.1127832146906 59.44830630187982,-57.998689836995176 41.20312485633737,-49.63283609172174" stroke-width="1.5" stroke="rgb(81,82,189)"></polygon><polygon fill="none" points="52.91626102176602,-35.04399202050265 56.481465004025324,-54.64997675663003 44.65853669484821,-48.914593099952285" stroke-width="1.5" stroke="rgb(81,82,189)"></polygon><polygon fill="none" points="51.58468651630469,-41.6314293170312 53.008416894238614,-50.72990134093768 47.863453538331015,-48.24841807665103" stroke-width="1.5" stroke="rgb(81,82,189)"></polygon><polygon fill="none" points="129.3953855993873,86.35774173252159 155.44649306804519,5.576683543017151 103.51738205608754,4.57520123249427" stroke-width="1.5" stroke="rgb(81,82,189)"></polygon><polygon fill="none" points="129.35695514129645,80.11579638773784 151.82189907615094,10.015726673239827 107.04965827400632,9.169775904234157" stroke-width="1.5" stroke="rgb(81,82,189)"></polygon><polygon fill="none" points="129.31985475592938,74.08988388927007 148.41018814440102,14.19405175123713 110.60592734730572,13.795559054256513" stroke-width="1.5" stroke="rgb(81,82,189)"></polygon><polygon fill="none" points="129.27675600427102,67.08970575858392 145.0398716720025,18.32168100210898 115.12840453060839,19.678128207403578" stroke-width="1.5" stroke="rgb(81,82,189)"></polygon><polygon fill="none" points="129.22342701750327,58.42791411639493 141.4519731404625,22.715783172996595 118.13244707261384,23.585607952704958" stroke-width="1.5" stroke="rgb(81,82,189)"></polygon><polygon fill="none" points="129.1838466749161,51.99920242701608 136.76319342915204,28.458135395939713 122.25478856021526,28.947704407991722" stroke-width="1.5" stroke="rgb(81,82,189)"></polygon><polygon fill="none" points="129.13929138551984,44.76245077094803 133.3081456761751,32.6895351131887 125.70600759694784,33.43684472277179" stroke-width="1.5" stroke="rgb(81,82,189)"></polygon><line fill="none" stroke-width="1.5" stroke="rgb(81,82,189)" x1="-109.62750309599828" x2="-65.64611063844185" y1="108.44223464181093" y2="90.10846524991787"></line><line fill="none" stroke-width="1.5" stroke="rgb(81,82,189)" x1="-88.73209626059706" x2="-60.30773405590771" y1="123.6236351949877" y2="110.55496802532693"></line><line fill="none" stroke-width="1.5" stroke="rgb(81,82,189)" x1="-69.43794022145846" x2="-54.91037895102643" y1="137.64165903501183" y2="131.22736429142856"></line><line fill="none" stroke-width="1.5" stroke="rgb(81,82,189)" x1="-65.1286068751418" x2="-84.85406055007286" y1="92.09055511731655" y2="76.33001764175513"></line><line fill="none" stroke-width="1.5" stroke="rgb(81,82,189)" x1="-59.943246729666555" x2="-100.0911329127938" y1="111.95099002047314" y2="82.38389361698908"></line><line fill="none" stroke-width="1.5" stroke="rgb(81,82,189)" x1="-54.62769430267568" x2="-114.10808851019223" y1="132.3100740549135" y2="87.95300221718333"></line><polygon fill="none" points="122.18891115662603,-96.04932787579567 59.15659208074371,-141.71670118370602 74.96010618816327,-76.60726450750207" stroke-width="1.5" stroke="rgb(81,82,189)"></polygon><polygon fill="none" points="115.365198300433,-97.93421351218295 67.9892517168804,-132.21257054355755 79.6679120933926,-83.13990460284279" stroke-width="1.5" stroke="rgb(81,82,189)"></polygon><polygon fill="none" points="109.22355357641946,-99.6306943237371 77.58139247594431,-121.8912219749048 85.35923678393004,-91.03729387874932" stroke-width="1.5" stroke="rgb(81,82,189)"></polygon><polygon fill="none" points="101.19422840257107,-101.84860120361614 84.48874702369025,-114.45876077929657 89.33871081027795,-96.55928694860188" stroke-width="1.5" stroke="rgb(81,82,189)"></polygon><line fill="none" stroke-width="1.5" stroke="rgb(81,82,189)" x1="-66.15881581733906" x2="-33.24604775574146" y1="-68.61433423323038" y2="-46.339201845028626"></line><line fill="none" stroke-width="1.5" stroke="rgb(81,82,189)" x1="-61.20932615057303" x2="-36.9426250624123" y1="-66.33486449890805" y2="-39.93654251508485"></line><line fill="none" stroke-width="1.5" stroke="rgb(81,82,189)" x1="-56.96723851514625" x2="-40.14777474086149" y1="-64.38118623582835" y2="-34.38506075503725"></line><line fill="none" stroke-width="1.5" stroke="rgb(81,82,189)" x1="-53.02194911066543" x2="-43.49346190175061" y1="-62.56419733472157" y2="-28.590160949456845"></line><line fill="none" stroke-width="1.5" stroke="rgb(81,82,189)" x1="-48.255894529193256" x2="-46.61775104245868" y1="-60.36920797176919" y2="-23.178733740806866"></line><line fill="none" stroke-width="1.5" stroke="rgb(81,82,189)" x1="-43.312647934543776" x2="-50.15257477948268" y1="-58.092613461944126" y2="-17.056239795199062"></line><line fill="none" stroke-width="1.5" stroke="rgb(81,82,189)" x1="-39.20292141442995" x2="-53.10776045885518" y1="-56.19989363633384" y2="-11.937708355965867"></line><line fill="none" stroke-width="1.5" stroke="rgb(81,82,189)" x1="-34.715345041550734" x2="-56.47443409251152" y1="-54.13315641469177" y2="-6.106458915434452"></line><line fill="none" stroke-width="1.5" stroke="rgb(81,82,189)" x1="37.17360204032235" x2="0.0" y1="-152.16903686523438" y2="-200.0"></line><line fill="none" stroke-width="1.5" stroke="rgb(81,82,189)" x1="24.08559032349364" x2="0.0" y1="-152.16903686523438" y2="-200.0"></line><line fill="none" stroke-width="1.5" stroke="rgb(81,82,189)" x1="13.070217367974074" x2="0.0" y1="-152.16903686523438" y2="-200.0"></line><line fill="none" stroke-width="1.5" stroke="rgb(81,82,189)" x1="0.03532043417289543" x2="0.0" y1="-152.16903686523438" y2="-200.0"></line><line fill="none" stroke-width="1.5" stroke="rgb(81,82,189)" x1="-12.168494916900478" x2="0.0" y1="-152.16903686523438" y2="-200.0"></line><line fill="none" stroke-width="1.5" stroke="rgb(81,82,189)" x1="-24.848789043120973" x2="0.0" y1="-152.16903686523438" y2="-200.0"></line><line fill="none" stroke-width="1.5" stroke="rgb(81,82,189)" x1="-35.94806715065022" x2="0.0" y1="-152.16903686523438" y2="-200.0"></line><line fill="none" stroke-width="1.5" stroke="rgb(81,82,189)" x1="-12.042104157500656" x2="49.44272" y1="188.35044962274551" y2="152.16904"></line><line fill="none" stroke-width="1.5" stroke="rgb(81,82,189)" x1="-25.167911423806164" x2="49.44272" y1="175.65252316479203" y2="152.16904"></line><line fill="none" stroke-width="1.5" stroke="rgb(81,82,189)" x1="-37.23163540486953" x2="49.44272" y1="163.9820577364429" y2="152.16904"></line><polygon fill="none" points="66.66365576524115,-71.08396206786894 10.567615335233015,-94.14205713386121 33.85453301046716,-56.107509419594685" stroke-width="1.5" stroke="rgb(81,82,189)"></polygon><polygon fill="none" points="62.25986641403888,-71.49015304579822 20.50854335659441,-88.63150564819352 37.62976177743667,-60.168196964717595" stroke-width="1.5" stroke="rgb(81,82,189)"></polygon><polygon fill="none" points="57.65146296636251,-71.91521695186206 30.623708229257623,-83.02436950385652 41.693394520868324,-64.5390957599322" stroke-width="1.5" stroke="rgb(81,82,189)"></polygon><polygon fill="none" points="53.360363235174574,-72.31101381161139 38.20694532984765,-78.82075608053913 45.636320645808325,-68.78016087020262" stroke-width="1.5" stroke="rgb(81,82,189)"></polygon><line fill="none" stroke-width="1.5" stroke="rgb(81,82,189)" x1="13.098977695641945" x2="57.19364331210012" y1="196.49013916002906" y2="155.39406734960323"></line><line fill="none" stroke-width="1.5" stroke="rgb(81,82,189)" x1="27.968309661890046" x2="64.31080946894747" y1="192.50591327633848" y2="158.35540143449464"></line><line fill="none" stroke-width="1.5" stroke="rgb(81,82,189)" x1="41.824669009776784" x2="71.39704487444119" y1="188.79311261435296" y2="161.30386574984067"></line><line fill="none" stroke-width="1.5" stroke="rgb(81,82,189)" x1="58.11451326682351" x2="77.81296602814386" y1="184.42826157211812" y2="163.97342348949752"></line><line fill="none" stroke-width="1.5" stroke="rgb(81,82,189)" x1="71.36772632423049" x2="86.02059195105257" y1="180.87707348745863" y2="167.38847968825772"></line><line fill="none" stroke-width="1.5" stroke="rgb(81,82,189)" x1="85.65915278893794" x2="92.15867013913004" y1="177.0476969314172" y2="169.94243160584708"></line><line fill="none" stroke-width="1.5" stroke="rgb(81,82,189)" x1="56.135070757634985" x2="42.85484443614736" y1="154.9536129724278" y2="158.54215653355382"></line><line fill="none" stroke-width="1.5" stroke="rgb(81,82,189)" x1="63.445932735109494" x2="35.30672591441922" y1="157.99554065638426" y2="165.8442181850958"></line><line fill="none" stroke-width="1.5" stroke="rgb(81,82,189)" x1="71.29811987138791" x2="28.296504117177307" y1="161.26270470667635" y2="172.62591770492844"></line><line fill="none" stroke-width="1.5" stroke="rgb(81,82,189)" x1="78.44162893498488" x2="20.711145991925132" y1="164.23499963552356" y2="179.9640050071049"></line><line fill="none" stroke-width="1.5" stroke="rgb(81,82,189)" x1="85.17201018618019" x2="14.359154392483156" y1="167.03539897484538" y2="186.10893160512853"></line><line fill="none" stroke-width="1.5" stroke="rgb(81,82,189)" x1="92.81509070930015" x2="7.605412090255285" y1="170.21555725243584" y2="192.64251246074605"></line><polygon fill="none" points="-7.385832841135366,-194.6256141560319 -92.80805331121094,-171.86239580765616 -49.49362033633268,-154.28680036924686" stroke-width="1.5" stroke="rgb(81,82,189)"></polygon><polygon fill="none" points="-16.0866386115882,-188.29437320194478 -83.48914373996212,-170.12262552852624 -49.538955737524404,-156.17297336520465" stroke-width="1.5" stroke="rgb(81,82,189)"></polygon><polygon fill="none" points="-25.36170747311474,-181.5452631336001 -75.17362758642355,-168.5701812485446 -49.582496226868955,-157.98446930598598" stroke-width="1.5" stroke="rgb(81,82,189)"></polygon><polygon fill="none" points="-33.71070456541095,-175.47001979282743 -66.92948777011657,-167.0310623935174 -49.62738942291853,-159.8522444191446" stroke-width="1.5" stroke="rgb(81,82,189)"></polygon><polygon fill="none" points="-40.84679733930189,-170.27736016862897 -59.001671532892246,-165.5509987699278 -49.68005453902716,-162.0433691742339" stroke-width="1.5" stroke="rgb(81,82,189)"></polygon><line fill="none" stroke-width="1.5" stroke="rgb(81,82,189)" x1="-54.33248806945457" x2="-30.0" y1="9.816418034648061" y2="-30.81145753032004"></line><line fill="none" stroke-width="1.5" stroke="rgb(81,82,189)" x1="-47.69109516147595" x2="-30.0" y1="21.319647302802572" y2="-10.222161964919216"></line><line fill="none" stroke-width="1.5" stroke="rgb(81,82,189)" x1="-42.04092248053994" x2="-30.0" y1="31.106032877941228" y2="10.508970988355038"></line><line fill="none" stroke-width="1.5" stroke="rgb(81,82,189)" x1="-36.113284632246604" x2="-30.0" y1="41.37300219180189" y2="30.174437766428174"></line><line fill="none" stroke-width="1.5" stroke="rgb(81,82,189)" x1="-30.0" x2="-36.07574804918701" y1="-32.05873314124918" y2="-41.438017456951904"></line><line fill="none" stroke-width="1.5" stroke="rgb(81,82,189)" x1="-30.0" x2="-42.20128157322888" y1="-11.041711616663342" y2="-30.82828279840324"></line><line fill="none" stroke-width="1.5" stroke="rgb(81,82,189)" x1="-30.0" x2="-48.23912565918946" y1="11.072236393969327" y2="-20.370430692900463"></line><line fill="none" stroke-width="1.5" stroke="rgb(81,82,189)" x1="-30.0" x2="-53.98490327720337" y1="31.52270368228598" y2="-10.41845251909875"></line><line fill="none" stroke-width="1.5" stroke="rgb(81,82,189)" x1="-33.98771676203854" x2="8.835401834870623" y1="152.16903686523438" y2="109.32259426608795"></line><line fill="none" stroke-width="1.5" stroke="rgb(81,82,189)" x1="-17.488284556399414" x2="16.182016520780444" y1="152.16903686523438" y2="117.07430824877443"></line><line fill="none" stroke-width="1.5" stroke="rgb(81,82,189)" x1="0.5893406776746133" x2="24.13356676059084" y1="152.16903686523438" y2="125.46431450515112"></line><line fill="none" stroke-width="1.5" stroke="rgb(81,82,189)" x1="16.13595899179856" x2="32.76622470848833" y1="152.16903686523438" y2="134.57298539418105"></line><line fill="none" stroke-width="1.5" stroke="rgb(81,82,189)" x1="32.979503865232346" x2="41.316740012856485" y1="152.16903686523438" y2="143.59498421646404"></line><line fill="none" stroke-width="1.5" stroke="rgb(81,82,189)" x1="8.589773458844924" x2="-7.6458406763224644" y1="109.06342170860583" y2="108.06743957781174"></line><line fill="none" stroke-width="1.5" stroke="rgb(81,82,189)" x1="16.109353689576245" x2="-16.017593591128644" y1="116.99763872018904" y2="116.90081888294439"></line><line fill="none" stroke-width="1.5" stroke="rgb(81,82,189)" x1="24.184214109396486" x2="-24.980694207538768" y1="125.51775459677259" y2="126.35815336241664"></line><line fill="none" stroke-width="1.5" stroke="rgb(81,82,189)" x1="32.65265069081563" x2="-32.69615279426956" y1="134.4531487975304" y2="134.49904964819927"></line><line fill="none" stroke-width="1.5" stroke="rgb(81,82,189)" x1="41.61470091854119" x2="-41.06497545320714" y1="143.90937496889043" y2="143.3293371203775"></line><line fill="none" stroke-width="1.5" stroke="rgb(81,82,189)" x1="-63.34459272389637" x2="-30.0" y1="73.76181056787081" y2="51.96152"></line><line fill="none" stroke-width="1.5" stroke="rgb(81,82,189)" x1="-55.39546449771402" x2="-30.0" y1="77.05444729107096" y2="51.96152"></line><line fill="none" stroke-width="1.5" stroke="rgb(81,82,189)" x1="-47.58698505255968" x2="-30.0" y1="80.28882538158722" y2="51.96152"></line><line fill="none" stroke-width="1.5" stroke="rgb(81,82,189)" x1="-38.96438459153582" x2="-30.0" y1="83.86042343858381" y2="51.96152"></line><line fill="none" stroke-width="1.5" stroke="rgb(81,82,189)" x1="-31.95038371311658" x2="-30.0" y1="86.76571773145656" y2="51.96152"></line><line fill="none" stroke-width="1.5" stroke="rgb(81,82,189)" x1="-23.390725320531224" x2="-30.0" y1="90.31124433003936" y2="51.96152"></line><line fill="none" stroke-width="1.5" stroke="rgb(81,82,189)" x1="-16.292416161841302" x2="-30.0" y1="93.25146025605103" y2="51.96152"></line><line fill="none" stroke-width="1.5" stroke="rgb(81,82,189)" x1="-6.990354763402841" x2="-30.0" y1="97.10450024867302" y2="51.96152"></line><line fill="none" stroke-width="1.5" stroke="rgb(81,82,189)" x1="-57.25386563715851" x2="-129.44272" y1="155.4191248542247" y2="94.04564"></line><line fill="none" stroke-width="1.5" stroke="rgb(81,82,189)" x1="-63.44996935400779" x2="-129.44272" y1="157.99722022615512" y2="94.04564"></line><line fill="none" stroke-width="1.5" stroke="rgb(81,82,189)" x1="-70.69510543248026" x2="-129.44272" y1="161.01180046020167" y2="94.04564"></line><line fill="none" stroke-width="1.5" stroke="rgb(81,82,189)" x1="-78.77176481692064" x2="-129.44272" y1="164.37236366753814" y2="94.04564"></line><line fill="none" stroke-width="1.5" stroke="rgb(81,82,189)" x1="-85.78906895679287" x2="-129.44272" y1="167.2921468334068" y2="94.04564"></line><line fill="none" stroke-width="1.5" stroke="rgb(81,82,189)" x1="-92.17669899309008" x2="-129.44272" y1="169.94993311116068" y2="94.04564"></line><polygon fill="none" points="-175.0533951709668,-84.8066154976429 -196.5673161975046,-5.749069470900666 -164.82630468345198,-6.866961702840575" stroke-width="1.5" stroke="rgb(81,82,189)"></polygon><polygon fill="none" points="-176.52598052232358,-72.70178991886914 -192.88858516831675,-11.9102195996088 -168.17139328391747,-11.626419884327682" stroke-width="1.5" stroke="rgb(81,82,189)"></polygon><polygon fill="none" points="-178.40810533433157,-57.2305015851589 -188.65194411917807,-19.005759158790337 -172.6360427667357,-17.978811419043563" stroke-width="1.5" stroke="rgb(81,82,189)"></polygon><polygon fill="none" points="-179.74059979185716,-46.27723970586016 -185.1713356165654,-24.835093065974352 -176.97433294582294,-24.15141643872784" stroke-width="1.5" stroke="rgb(81,82,189)"></polygon><line fill="none" stroke-width="1.5" stroke="rgb(81,82,189)" x1="-152.11666333865415" x2="-125.95825087491994" y1="0.0" y2="-82.91558713768111"></line><line fill="none" stroke-width="1.5" stroke="rgb(81,82,189)" x1="-145.61548799359736" x2="-121.72044091705607" y1="0.0" y2="-69.37921665850959"></line><line fill="none" stroke-width="1.5" stroke="rgb(81,82,189)" x1="-137.55955069805248" x2="-118.46024308359566" y1="0.0" y2="-58.965525117854106"></line><line fill="none" stroke-width="1.5" stroke="rgb(81,82,189)" x1="-130.6531012774159" x2="-114.55992980415532" y1="0.0" y2="-46.50718317702075"></line><line fill="none" stroke-width="1.5" stroke="rgb(81,82,189)" x1="-123.06398163345123" x2="-111.22354635177044" y1="0.0" y2="-35.85014028904189"></line><line fill="none" stroke-width="1.5" stroke="rgb(81,82,189)" x1="-115.14054388497021" x2="-107.58871429508521" y1="0.0" y2="-24.239795833279324"></line><line fill="none" stroke-width="1.5" stroke="rgb(81,82,189)" x1="-107.15668929086652" x2="-103.65412344302077" y1="0.0" y2="-11.67196481040119"></line><line fill="none" stroke-width="1.5" stroke="rgb(81,82,189)" x1="65.3692645464296" x2="74.97585150977463" y1="0.0" y2="-60.41363861923304"></line><line fill="none" stroke-width="1.5" stroke="rgb(81,82,189)" x1="71.77638053853806" x2="78.75985495436254" y1="0.0" y2="-51.278246191212475"></line><line fill="none" stroke-width="1.5" stroke="rgb(81,82,189)" x1="77.00261567428556" x2="83.27799153520907" y1="0.0" y2="-40.37049959059514"></line><line fill="none" stroke-width="1.5" stroke="rgb(81,82,189)" x1="83.16860394518369" x2="87.65660815607056" y1="0.0" y2="-29.79958396930156"></line><line fill="none" stroke-width="1.5" stroke="rgb(81,82,189)" x1="88.97488873144854" x2="91.92039001665871" y1="0.0" y2="-19.505903983449876"></line><line fill="none" stroke-width="1.5" stroke="rgb(81,82,189)" x1="94.62545584419951" x2="95.86947259047844" y1="0.0" y2="-9.97197528312081"></line><polygon fill="none" points="-30.0,51.96152 30.0,51.96152 30.0,-51.96152 -30.0,-51.96152" stroke-width="1.5" stroke="rgb(81,82,189)"></polygon><polygon fill="none" points="-60.0,0.0 -70.71068,-70.71068 -129.44272,-94.04564 -100.0,0.0" stroke-width="1.5" stroke="rgb(81,82,189)"></polygon><polygon fill="none" points="49.44272,-152.16904 -49.44272,-152.16904 -70.71068,-70.71068 0.0,-100.0" stroke-width="1.5" stroke="rgb(81,82,189)"></polygon><polygon fill="none" points="129.44272,-94.04564 100.0,-173.20508 0.0,-200.0 49.44272,-152.16904" stroke-width="1.5" stroke="rgb(81,82,189)"></polygon><line fill="none" stroke-width="1.5" stroke="rgb(81,82,189)" x1="-20.743721627945426" x2="-20.577770254963617" y1="51.96152114868164" y2="-51.96152114868164"></line><line fill="none" stroke-width="1.5" stroke="rgb(81,82,189)" x1="-9.270060751940331" x2="-10.328711372831279" y1="51.96152114868164" y2="-51.96152114868164"></line><line fill="none" stroke-width="1.5" stroke="rgb(81,82,189)" x1="-0.2800933367574956" x2="-0.48288666918129053" y1="51.96152114868164" y2="-51.96152114868164"></line><line fill="none" stroke-width="1.5" stroke="rgb(81,82,189)" x1="10.594388289385307" x2="10.695005230548084" y1="51.96152114868164" y2="-51.96152114868164"></line><line fill="none" stroke-width="1.5" stroke="rgb(81,82,189)" x1="20.478601008635792" x2="19.954515925502633" y1="51.96152114868164" y2="-51.96152114868164"></line><line fill="none" stroke-width="1.5" stroke="rgb(81,82,189)" x1="30.0" x2="-30.0" y1="-35.81242746604987" y2="-35.66425377842418"></line><line fill="none" stroke-width="1.5" stroke="rgb(81,82,189)" x1="30.0" x2="-30.0" y1="-18.392571400398168" y2="-16.893616793701455"></line><line fill="none" stroke-width="1.5" stroke="rgb(81,82,189)" x1="30.0" x2="-30.0" y1="-0.288571258252567" y2="-0.10085387109980815"></line><line fill="none" stroke-width="1.5" stroke="rgb(81,82,189)" x1="30.0" x2="-30.0" y1="17.896640373424944" y2="18.17810388563224"></line><line fill="none" stroke-width="1.5" stroke="rgb(81,82,189)" x1="30.0" x2="-30.0" y1="35.84660138801051" y2="34.948341184865114"></line><line fill="none" stroke-width="1.5" stroke="rgb(81,82,189)" x1="-62.627094775173425" x2="-107.44367940086576" y1="-17.34378078049575" y2="-23.77652681459226"></line><line fill="none" stroke-width="1.5" stroke="rgb(81,82,189)" x1="-65.35309487235614" x2="-114.90923818869271" y1="-35.3405232429088" y2="-47.62294054971862"></line><line fill="none" stroke-width="1.5" stroke="rgb(81,82,189)" x1="-68.04541905967614" x2="-122.04866417098812" y1="-53.11494118023735" y2="-70.42762411643696"></line><line fill="none" stroke-width="1.5" stroke="rgb(81,82,189)" x1="29.52084430480909" x2="-13.44079663158955" y1="-152.16903686523438" y2="-94.43263974123981"></line><line fill="none" stroke-width="1.5" stroke="rgb(81,82,189)" x1="9.555566641228843" x2="-27.68963837604003" y1="-152.16903686523438" y2="-88.53057623743132"></line><line fill="none" stroke-width="1.5" stroke="rgb(81,82,189)" x1="-9.912710457635988" x2="-42.49996990742385" y1="-152.16903686523438" y2="-82.39593604853815"></line><line fill="none" stroke-width="1.5" stroke="rgb(81,82,189)" x1="-29.957089021451893" x2="-57.078977084345354" y1="-152.16903686523438" y2="-76.35711354465407"></line><line fill="none" stroke-width="1.5" stroke="rgb(81,82,189)" x1="-66.22157180602213" x2="9.754887445375742" y1="-87.9043928735767" y2="-110.29278118462904"></line><line fill="none" stroke-width="1.5" stroke="rgb(81,82,189)" x1="-62.09251908461041" x2="20.00270882494648" y1="-103.71906735802048" y2="-121.10567714777892"></line><line fill="none" stroke-width="1.5" stroke="rgb(81,82,189)" x1="-58.14757282850674" x2="30.185821089664525" y1="-118.82859613089951" y2="-131.85029587415295"></line><line fill="none" stroke-width="1.5" stroke="rgb(81,82,189)" x1="-53.80225974800595" x2="39.96621437128141" y1="-135.47156887492892" y2="-142.16998931100744"></line><polygon fill="none" points="129.44272,-94.04564 100.0,-173.20508 0.0,-200.0 49.44272,-152.16904" stroke-width="1.5" stroke="rgb(81,82,189)"></polygon></g></svg>