<svg height="550.0" viewBox="-275.0 -275.0 550.0 550.0" width="550.0" xmlns="http://www.w3.org/2000/svg"><g><rect fill="rgb(139,148,230)" height="550.0" transform="rotate(0 0.0 0.0)" width="550.0" x="-275.0" y="-275.0"></rect><polygon fill="none" points="49.44272,152.16904 129.44272,94.04564 70.71068,70.71068" stroke-width="1.5" stroke="rgb(104,228,194)"></polygon><polygon fill="none" points="-200.0,0.0 -173.20508,100.0 -160.0,0.0" stroke-width="1.5" stroke="rgb(104,228,194)"></polygon><polygon fill="none" points="70.71068,70.71068 100.0,0.0 60.0,0.0" stroke-width="1.5" stroke="rgb(104,228,194)"></polygon><polygon fill="none" points="-70.71068,70.71068 -30.0,51.96152 -60.0,0.0" stroke-width="1.5" stroke="rgb(104,228,194)"></polygon><polygon fill="none" points="-173.20508,100.0 -100.0,173.20508 -129.44272,94.04564" stroke-width="1.5" stroke="rgb(104,228,194)"></polygon><polygon fill="none" points="173.20508,-100.0 100.0,-173.20508 129.44272,-94.04564" stroke-width="1.5" stroke="rgb(104,228,194)"></polygon><polygon fill="none" points="49.44272,-152.16904 -49.44272,-152.16904 0.0,-100.0" stroke-width="1.5" stroke="rgb(104,228,194)"></polygon><polygon fill="none" points="-173.20508,100.0 -129.44272,94.04564 -160.0,0.0" stroke-width="1.5" stroke="rgb(104,228,194)"></polygon><polygon fill="none" points="160.0,0.0 129.44272,-94.04564 100.0,0.0" stroke-width="1.5" stroke="rgb(104,228,194)"></polygon><polygon fill="none" points="70.71068,70.71068 60.0,0.0 30.0,51.96152" stroke-width="1.5" stroke="rgb(104,228,194)"></polygon><polygon fill="none" points="0.0,100.0 30.0,51.96152 -30.0,51.96152" stroke-width="1.5" stroke="rgb(104,228,194)"></polygon><polygon fill="none" points="100.0,-173.20508 0.0,-200.0 49.44272,-152.16904" stroke-width="1.5" stroke="rgb(104,228,194)"></polygon><polygon fill="none" points="100.0,173.20508 173.20508,100.0 129.44272,94.04564" stroke-width="1.5" stroke="rgb(104,228,194)"></polygon><polygon fill="none" points="-100.0,-173.20508 -173.20508,-100.0 -129.44272,-94.04564" stroke-width="1.5" stroke="rgb(104,228,194)"></polygon><polygon fill="none" points="-129.44272,94.04564 -70.71068,70.71068 -100.0,0.0" stroke-width="1.5" stroke="rgb(104,228,194)"></polygon><polygon fill="none" points="173.20508,100.0 200.0,0.0 160.0,0.0" stroke-width="1.5" stroke="rgb(104,228,194)"></polygon><polygon fill="none" points="-160.0,0.0 -129.44272,94.04564 -100.0,0.0" stroke-width="1.5" stroke="rgb(104,228,194)"></polygon><polygon fill="none" points="100.0,173.20508 129.44272,94.04564 49.44272,152.16904" stroke-width="1.5" stroke="rgb(104,228,194)"></polygon><polygon fill="none" points="-100.0,-173.20508 -129.44272,-94.04564 -49.44272,-152.16904" stroke-width="1.5" stroke="rgb(104,228,194)"></polygon><polygon fill="none" points="49.44272,-152.16904 0.0,-100.0 70.71068,-70.71068" stroke-width="1.5" stroke="rgb(104,228,194)"></polygon><polygon fill="none" points="49.44272,152.16904 70.71068,70.71068 0.0,100.0" stroke-width="1.5" stroke="rgb(104,228,194)"></polygon><polygon fill="none" points="0.0,100.0 70.71068,70.71068 30.0,51.96152" stroke-width="1.5" stroke="rgb(104,228,194)"></polygon><polygon fill="none" points="-100.0,173.20508 0.0,200.0 -49.44272,152.16904" stroke-width="1.5" stroke="rgb(104,228,194)"></polygon><polygon fill="none" points="173.20508,100.0 160.0,0.0 129.44272,94.04564" stroke-width="1.5" stroke="rgb(104,228,194)"></polygon><polygon fill="none" points="30.0,51.96152 60.0,0.0 30.0,-51.96152" stroke-width="1.5" stroke="rgb(104,228,194)"></polygon><polygon fill="none" points="-100.0,0.0 -70.71068,70.71068 -60.0,0.0" stroke-width="1.5" stroke="rgb(104,228,194)"></polygon><polygon fill="none" points="-70.71068,-70.71068 -100.0,0.0 -60.0,0.0" stroke-width="1.5" stroke="rgb(104,228,194)"></polygon><polygon fill="none" points="-173.20508,-100.0 -160.0,0.0 -129.44272,-94.04564" stroke-width="1.5" stroke="rgb(104,228,194)"></polygon><polygon fill="none" points="200.0,0.0 173.20508,-100.0 160.0,0.0" stroke-width="1.5" stroke="rgb(104,228,194)"></polygon><polygon fill="none" points="100.0,0.0 129.44272,-94.04564 70.71068,-70.71068" stroke-width="1.5" stroke="rgb(104,228,194)"></polygon><polygon fill="none" points="-49.44272,152.16904 0.0,100.0 -70.71068,70.71068" stroke-width="1.5" stroke="rgb(104,228,194)"></polygon><polygon fill="none" points="-30.0,-51.96152 30.0,51.96152 30.0,-51.96152" stroke-width="1.5" stroke="rgb(104,228,194)"></polygon><polygon fill="none" points="0.0,-100.0 -30.0,-51.96152 30.0,-51.96152" stroke-width="1.5" stroke="rgb(104,228,194)"></polygon><polygon fill="none" points="160.0,0.0 173.20508,-100.0 129.44272,-94.04564" stroke-width="1.5" stroke="rgb(104,228,194)"></polygon><polygon fill="none" points="-129.44272,-94.04564 -100.0,0.0 -70.71068,-70.71068" stroke-width="1.5" stroke="rgb(104,228,194)"></polygon><polygon fill="none" points="60.0,0.0 70.71068,-70.71068 30.0,-51.96152" stroke-width="1.5" stroke="rgb(104,228,194)"></polygon><polygon fill="none" points="-30.0,51.96152 30.0,51.96152 -30.0,-51.96152" stroke-width="1.5" stroke="rgb(104,228,194)"></polygon><polygon fill="none" points="-129.44272,94.04564 -49.44272,152.16904 -70.71068,70.71068" stroke-width="1.5" stroke="rgb(104,228,194)"></polygon><polygon fill="none" points="129.44272,-94.04564 49.44272,-152.16904 70.71068,-70.71068" stroke-width="1.5" stroke="rgb(104,228,194)"></polygon><polygon fill="none" points="0.0,-200.0 -49.44272,-152.16904 49.44272,-152.16904" stroke-width="1.5" stroke="rgb(104,228,194)"></polygon><polygon fill="none" points="70.71068,-70.71068 0.0,-100.0 30.0,-51.96152" stroke-width="1.5" stroke="rgb(104,228,194)"></polygon><polygon fill="none" points="0.0,200.0 100.0,173.20508 49.44272,152.16904" stroke-width="1.5" stroke="rgb(104,228,194)"></polygon><polygon fill="none" points="0.0,-200.0 -100.0,-173.20508 -49.44272,-152.16904" stroke-width="1.5" stroke="rgb(104,228,194)"></polygon><polygon fill="none" points="-60.0,0.0 -30.0,51.96152 -30.0,-51.96152" stroke-width="1.5" stroke="rgb(104,228,194)"></polygon><polygon fill="none" points="-70.71068,70.71068 0.0,100.0 -30.0,51.96152" stroke-width="1.5" stroke="rgb(104,228,194)"></polygon><polygon fill="none" points="-100.0,173.20508 -49.44272,152.16904 -129.44272,94.04564" stroke-width="1.5" stroke="rgb(104,228,194)"></polygon><polygon fill="none" points="100.0,-173.20508 49.44272,-152.16904 129.44272,-94.04564" stroke-width="1.5" stroke="rgb(104,228,194)"></polygon><polygon fill="none" points="-173.20508,-100.0 -200.0,0.0 -160.0,0.0" stroke-width="1.5" stroke="rgb(104,228,194)"></polygon><polygon fill="none" points="-129.44272,-94.04564 -160.0,0.0 -100.0,0.0" stroke-width="1.5" stroke="rgb(104,228,194)"></polygon><polygon fill="none" points="100.0,0.0 70.71068,-70.71068 60.0,0.0" stroke-width="1.5" stroke="rgb(104,228,194)"></polygon><polygon fill="none" points="49.44272,152.16904 129.44272,94.04564 70.71068,70.71068" stroke-width="1.5" stroke="rgb(104,228,194)"></polygon><polygon fill="none" points="-196.38495899285184,8.56279312965233 -174.33522517066226,91.02894624992715 -163.64791690408003,8.846472973280193" stroke-width="1.5" stroke="rgb(104,228,194)"></polygon><polygon fill="none" points="-193.06003270496055,16.438403923073377 -175.333513911585,83.1045774810272 -166.45383824658637,15.65104335531649" stroke-width="1.5" stroke="rgb(104,228,194)"></polygon><polygon fill="none" points="-189.99370597445457,23.701480997255402 -176.47083284762888,74.07659360460457 -169.98594727875505,24.216673525458557" stroke-width="1.5" stroke="rgb(104,228,194)"></polygon><polygon fill="none" points="-186.5530122385055,31.851305197082272 -177.69513483337374,64.35814239722006 -172.9516189195007,31.408650400846348" stroke-width="1.5" stroke="rgb(104,228,194)"></polygon><polygon fill="none" points="-182.81697892058529,40.70068764214507 -178.8229280566831,55.40577317756034 -176.55568181082126,40.14877409346925" stroke-width="1.5" stroke="rgb(104,228,194)"></polygon><polygon fill="none" points="72.17959718125819,59.65890587349317 94.46114364260497,5.593203639410379 63.8628329378619,5.263747827989038" stroke-width="1.5" stroke="rgb(104,228,194)"></polygon><polygon fill="none" points="73.81796139801317,47.332271692726295 88.61283823801261,11.498892641378555 68.74431835299735,11.915577887588167" stroke-width="1.5" stroke="rgb(104,228,194)"></polygon><polygon fill="none" points="75.48685224868557,34.7759629101694 83.11021012100028,17.055512568758317 73.15987810850939,17.932507287930566" stroke-width="1.5" stroke="rgb(104,228,194)"></polygon><line fill="none" stroke-width="1.5" stroke="rgb(104,228,194)" x1="-61.8143670473307" x2="-37.24917275281048" y1="11.97824479788006" y2="55.300101689592736"></line><line fill="none" stroke-width="1.5" stroke="rgb(104,228,194)" x1="-63.467361728823974" x2="-43.38033507741848" y1="22.891127598331067" y2="58.1237865331037"></line><line fill="none" stroke-width="1.5" stroke="rgb(104,228,194)" x1="-65.22484364980745" x2="-50.83036814062039" y1="34.493823264767386" y2="61.55487257037701"></line><line fill="none" stroke-width="1.5" stroke="rgb(104,228,194)" x1="-67.26596143381452" x2="-56.660821684298334" y1="47.96905062524694" y2="64.24006706212955"></line><line fill="none" stroke-width="1.5" stroke="rgb(104,228,194)" x1="-68.84308963595609" x2="-64.34269352195982" y1="58.381071561520606" y2="67.77792561641033"></line><line fill="none" stroke-width="1.5" stroke="rgb(104,228,194)" x1="-104.22549406514332" x2="-166.966061120355" y1="161.84445121837575" y2="99.15111160329371"></line><line fill="none" stroke-width="1.5" stroke="rgb(104,228,194)" x1="-108.2386161497338" x2="-161.03382221875444" y1="151.05480578735794" y2="98.34396381602063"></line><line fill="none" stroke-width="1.5" stroke="rgb(104,228,194)" x1="-112.25331211714561" x2="-154.1899170703898" y1="140.26092882855843" y2="97.41277358777157"></line><line fill="none" stroke-width="1.5" stroke="rgb(104,228,194)" x1="-117.06032929526665" x2="-148.4522105117446" y1="127.33682389492282" y2="96.63209411250917"></line><line fill="none" stroke-width="1.5" stroke="rgb(104,228,194)" x1="-121.09643674481791" x2="-141.49379103262567" y1="116.4853802098769" y2="95.68532292229742"></line><line fill="none" stroke-width="1.5" stroke="rgb(104,228,194)" x1="-125.37671074863869" x2="-135.49668419268107" y1="104.9774724324981" y2="94.86934912282761"></line><line fill="none" stroke-width="1.5" stroke="rgb(104,228,194)" x1="134.58089480287376" x2="107.30237103790698" y1="-94.74474568189207" y2="-165.902707087093"></line><line fill="none" stroke-width="1.5" stroke="rgb(104,228,194)" x1="138.9897392643132" x2="116.85948574035743" y1="-95.34461853099832" y2="-156.34559238464257"></line><line fill="none" stroke-width="1.5" stroke="rgb(104,228,194)" x1="144.30863885505178" x2="124.36733472055622" y1="-96.06831461043876" y2="-148.83774340444378"></line><line fill="none" stroke-width="1.5" stroke="rgb(104,228,194)" x1="149.20723345437486" x2="132.85984455375976" y1="-96.73482347111946" y2="-140.34523357124024"></line><line fill="none" stroke-width="1.5" stroke="rgb(104,228,194)" x1="153.6284651808186" x2="141.51509426226792" y1="-97.33638174687565" y2="-131.68998386273208"></line><line fill="none" stroke-width="1.5" stroke="rgb(104,228,194)" x1="159.14258677114174" x2="149.40731017246048" y1="-98.08663997386364" y2="-123.79776795253952"></line><line fill="none" stroke-width="1.5" stroke="rgb(104,228,194)" x1="163.53523158138108" x2="156.7926429393035" y1="-98.68430867832271" y2="-116.41243518569648"></line><line fill="none" stroke-width="1.5" stroke="rgb(104,228,194)" x1="168.84148779816798" x2="165.06520453924162" y1="-99.40628448461197" y2="-108.1398735857584"></line><polygon fill="none" points="49.44272,-152.16904 -49.44272,-152.16904 0.0,-100.0" stroke-width="1.5" stroke="rgb(104,228,194)"></polygon><line fill="none" stroke-width="1.5" stroke="rgb(104,228,194)" x1="-134.20417271225313" x2="-170.87227653713012" y1="79.3913903060203" y2="82.33405690002398"></line><line fill="none" stroke-width="1.5" stroke="rgb(104,228,194)" x1="-139.52242134853998" x2="-168.7506088685508" y1="63.02350458101128" y2="66.26699808753173"></line><line fill="none" stroke-width="1.5" stroke="rgb(104,228,194)" x1="-144.81638794566865" x2="-166.57015575017903" y1="46.73035128565957" y2="49.75476621937091"></line><line fill="none" stroke-width="1.5" stroke="rgb(104,228,194)" x1="-149.67191996234789" x2="-164.3814449023892" y1="31.786560835385224" y2="33.17999985243717"></line><line fill="none" stroke-width="1.5" stroke="rgb(104,228,194)" x1="-155.0651250258224" x2="-162.05002908248676" y1="15.187982956159985" y2="15.524550957450401"></line><polygon fill="none" points="154.60830537390316,-2.9575296026778912 128.4128758762232,-84.22581346684592 103.18408951533631,-3.0652588557568707" stroke-width="1.5" stroke="rgb(104,228,194)"></polygon><polygon fill="none" points="149.77762659243112,-5.607322754552671 127.50009393512484,-75.5221929444262 104.98277945499183,-4.796821438948743" stroke-width="1.5" stroke="rgb(104,228,194)"></polygon><polygon fill="none" points="146.48124018136946,-7.415503868036398 126.60349916056047,-66.97292139463815 107.71910768161369,-7.4310295190014966" stroke-width="1.5" stroke="rgb(104,228,194)"></polygon><polygon fill="none" points="141.3781423863058,-10.214728201182062 125.79180237523363,-59.23317493312118 111.17677984201342,-10.759660877799776" stroke-width="1.5" stroke="rgb(104,228,194)"></polygon><polygon fill="none" points="137.0267338583874,-12.601625165333793 124.73323516504792,-49.13945278536899 113.505378173381,-13.001355598487066" stroke-width="1.5" stroke="rgb(104,228,194)"></polygon><polygon fill="none" points="130.47820319855668,-16.1937190474225 123.71567934078257,-39.43678519739462 116.59796805568374,-15.978529600126684" stroke-width="1.5" stroke="rgb(104,228,194)"></polygon><polygon fill="none" points="125.8411279604452,-18.737314009232747 122.70690686150601,-29.817869158676203 119.59750328237645,-18.86612175872949" stroke-width="1.5" stroke="rgb(104,228,194)"></polygon><polygon fill="none" points="68.91850144846678,66.40274347338222 59.35934714262433,4.302016262524241 32.7223537786026,49.914570692792346" stroke-width="1.5" stroke="rgb(104,228,194)"></polygon><polygon fill="none" points="66.9744021617729,61.72962566104624 58.94963610165709,7.053246575297525 35.452365254634365,47.86186237862361" stroke-width="1.5" stroke="rgb(104,228,194)"></polygon><polygon fill="none" points="65.82880007685773,58.9758910418795 58.40463674644897,10.712944744403977 38.67753232907475,45.43684426920889" stroke-width="1.5" stroke="rgb(104,228,194)"></polygon><polygon fill="none" points="63.67229631510755,53.7922071578418 57.85453001007739,14.406939235724781 41.26734916301143,43.48954895786343" stroke-width="1.5" stroke="rgb(104,228,194)"></polygon><polygon fill="none" points="61.96341141891729,49.68448462418497 57.17193836970248,18.990576542182637 44.15534742460788,41.3180496455232" stroke-width="1.5" stroke="rgb(104,228,194)"></polygon><polygon fill="none" points="60.2816630184012,45.64199129058357 56.70513933238663,22.125155630910346 46.105807185593136,39.851489888182684" stroke-width="1.5" stroke="rgb(104,228,194)"></polygon><polygon fill="none" points="58.43119699318094,41.19394390804217 56.08588872476033,26.28345470648008 49.269156685811964,37.47295270006826" stroke-width="1.5" stroke="rgb(104,228,194)"></polygon><polygon fill="none" points="56.62434277956328,36.85072817428704 55.70758711957379,28.823769073168688 51.74002663467704,35.61509410430974" stroke-width="1.5" stroke="rgb(104,228,194)"></polygon><line fill="none" stroke-width="1.5" stroke="rgb(104,228,194)" x1="-25.523475537142332" x2="25.587003550553412" y1="59.12970200656155" y2="59.02797570227107"></line><line fill="none" stroke-width="1.5" stroke="rgb(104,228,194)" x1="-21.17506996946709" x2="21.51945243950323" y1="66.09272830321896" y2="65.54127463643243"></line><line fill="none" stroke-width="1.5" stroke="rgb(104,228,194)" x1="-17.279126419643735" x2="17.020552101849116" y1="72.3312350306896" y2="72.74528559391864"></line><line fill="none" stroke-width="1.5" stroke="rgb(104,228,194)" x1="-12.936955310878552" x2="12.658241516501809" y1="79.284278196597" y2="79.73057775382159"></line><line fill="none" stroke-width="1.5" stroke="rgb(104,228,194)" x1="-8.932364596648682" x2="8.887669224607883" y1="85.69675974105425" y2="85.76832966387204"></line><line fill="none" stroke-width="1.5" stroke="rgb(104,228,194)" x1="-4.426474255653471" x2="4.454135246449676" y1="92.91196366946285" y2="92.86767060541719"></line><line fill="none" stroke-width="1.5" stroke="rgb(104,228,194)" x1="43.94962617459242" x2="100.0" y1="-157.48306296923099" y2="-173.20508"></line><line fill="none" stroke-width="1.5" stroke="rgb(104,228,194)" x1="38.18159057752296" x2="100.0" y1="-163.0630696181524" y2="-173.20508"></line><line fill="none" stroke-width="1.5" stroke="rgb(104,228,194)" x1="32.65603399207741" x2="100.0" y1="-168.40850169236546" y2="-173.20508"></line><line fill="none" stroke-width="1.5" stroke="rgb(104,228,194)" x1="27.09624195039081" x2="100.0" y1="-173.78705320043758" y2="-173.20508"></line><line fill="none" stroke-width="1.5" stroke="rgb(104,228,194)" x1="21.525599917400367" x2="100.0" y1="-179.17610100704968" y2="-173.20508"></line><line fill="none" stroke-width="1.5" stroke="rgb(104,228,194)" x1="15.919280556850616" x2="100.0" y1="-184.59966311608702" y2="-173.20508"></line><line fill="none" stroke-width="1.5" stroke="rgb(104,228,194)" x1="11.019911614324052" x2="100.0" y1="-189.339320286148" y2="-173.20508"></line><line fill="none" stroke-width="1.5" stroke="rgb(104,228,194)" x1="5.0993790241148105" x2="100.0" y1="-195.06685276450307" y2="-173.20508"></line><line fill="none" stroke-width="1.5" stroke="rgb(104,228,194)" x1="164.74003357047496" x2="103.97180889414794" y1="108.46504455452505" y2="162.52650698155762"></line><line fill="none" stroke-width="1.5" stroke="rgb(104,228,194)" x1="155.47926215696464" x2="107.39708381560914" y1="117.72581596803536" y2="153.31734236425564"></line><line fill="none" stroke-width="1.5" stroke="rgb(104,228,194)" x1="145.94581089138495" x2="111.32873684834433" y1="127.25926723361503" y2="142.74673392353895"></line><line fill="none" stroke-width="1.5" stroke="rgb(104,228,194)" x1="137.2309900861731" x2="114.84691805226383" y1="135.9740880388269" y2="133.28778227636113"></line><line fill="none" stroke-width="1.5" stroke="rgb(104,228,194)" x1="126.82558434279812" x2="118.57973986416492" y1="146.37949378220188" y2="123.25174974143458"></line><line fill="none" stroke-width="1.5" stroke="rgb(104,228,194)" x1="118.23077986378706" x2="122.41586149610723" y1="154.97429826121294" y2="112.93798620111141"></line><line fill="none" stroke-width="1.5" stroke="rgb(104,228,194)" x1="109.56045275906735" x2="125.80698223056399" y1="163.64462536593265" y2="103.82064823647409"></line><line fill="none" stroke-width="1.5" stroke="rgb(104,228,194)" x1="-117.56721666784112" x2="-129.44272" y1="-155.63786145715886" y2="-94.04564"></line><line fill="none" stroke-width="1.5" stroke="rgb(104,228,194)" x1="-137.36848287759614" x2="-129.44272" y1="-135.83659524740386" y2="-94.04564"></line><line fill="none" stroke-width="1.5" stroke="rgb(104,228,194)" x1="-155.21510530534923" x2="-129.44272" y1="-117.98997281965077" y2="-94.04564"></line><line fill="none" stroke-width="1.5" stroke="rgb(104,228,194)" x1="-122.14341252339071" x2="-100.0" y1="91.14553512893463" y2="0.0"></line><line fill="none" stroke-width="1.5" stroke="rgb(104,228,194)" x1="-114.03939459695175" x2="-100.0" y1="87.92570928182727" y2="0.0"></line><line fill="none" stroke-width="1.5" stroke="rgb(104,228,194)" x1="-106.8466650097436" x2="-100.0" y1="85.06794948337095" y2="0.0"></line><line fill="none" stroke-width="1.5" stroke="rgb(104,228,194)" x1="-100.36025324025954" x2="-100.0" y1="82.49081842814098" y2="0.0"></line><line fill="none" stroke-width="1.5" stroke="rgb(104,228,194)" x1="-92.26726628870233" x2="-100.0" y1="79.27537532282486" y2="0.0"></line><line fill="none" stroke-width="1.5" stroke="rgb(104,228,194)" x1="-85.79521243046906" x2="-100.0" y1="76.70394884206345" y2="0.0"></line><line fill="none" stroke-width="1.5" stroke="rgb(104,228,194)" x1="-77.86390760725092" x2="-100.0" y1="73.55274403194446" y2="0.0"></line><line fill="none" stroke-width="1.5" stroke="rgb(104,228,194)" x1="178.42465354606756" x2="168.47767189032132" y1="80.52028124800208" y2="0.0"></line><line fill="none" stroke-width="1.5" stroke="rgb(104,228,194)" x1="184.18742340438655" x2="175.5727463851086" y1="59.013333456914395" y2="0.0"></line><line fill="none" stroke-width="1.5" stroke="rgb(104,228,194)" x1="188.99440663181045" x2="183.83852678157578" y1="41.07342958315512" y2="0.0"></line><line fill="none" stroke-width="1.5" stroke="rgb(104,228,194)" x1="194.83363446409453" x2="192.0591503143521" y1="19.281136776613437" y2="0.0"></line><line fill="none" stroke-width="1.5" stroke="rgb(104,228,194)" x1="167.73826820693355" x2="162.65827071837737" y1="0.0" y2="20.13067013473177"></line><line fill="none" stroke-width="1.5" stroke="rgb(104,228,194)" x1="175.54592333234112" x2="165.2234324739024" y1="0.0" y2="39.55624059514895"></line><line fill="none" stroke-width="1.5" stroke="rgb(104,228,194)" x1="183.8694362077979" x2="167.97555764364554" y1="0.0" y2="60.39765587260059"></line><line fill="none" stroke-width="1.5" stroke="rgb(104,228,194)" x1="192.11830626217406" x2="170.72565069294285" y1="0.0" y2="81.22368221841047"></line><polygon fill="none" points="-160.0,0.0 -129.44272,94.04564 -100.0,0.0" stroke-width="1.5" stroke="rgb(104,228,194)"></polygon><line fill="none" stroke-width="1.5" stroke="rgb(104,228,194)" x1="93.9833983135031" x2="129.44272" y1="170.70167055283073" y2="94.04564"></line><line fill="none" stroke-width="1.5" stroke="rgb(104,228,194)" x1="89.02449175964871" x2="129.44272" y1="168.63835227725667" y2="94.04564"></line><line fill="none" stroke-width="1.5" stroke="rgb(104,228,194)" x1="82.73736753717932" x2="129.44272" y1="166.0223847916539" y2="94.04564"></line><line fill="none" stroke-width="1.5" stroke="rgb(104,228,194)" x1="77.85333486072085" x2="129.44272" y1="163.9902202871615" y2="94.04564"></line><line fill="none" stroke-width="1.5" stroke="rgb(104,228,194)" x1="72.0139501705305" x2="129.44272" y1="161.56054975021374" y2="94.04564"></line><line fill="none" stroke-width="1.5" stroke="rgb(104,228,194)" x1="65.95037480141215" x2="129.44272" y1="159.03759721248176" y2="94.04564"></line><line fill="none" stroke-width="1.5" stroke="rgb(104,228,194)" x1="61.21114826902264" x2="129.44272" y1="157.06568412838374" y2="94.04564"></line><line fill="none" stroke-width="1.5" stroke="rgb(104,228,194)" x1="54.63016570462911" x2="129.44272" y1="154.32744708985894" y2="94.04564"></line><line fill="none" stroke-width="1.5" stroke="rgb(104,228,194)" x1="-117.26246965598264" x2="-92.8116411300311" y1="-102.8951071572741" y2="-170.2141219400597"></line><line fill="none" stroke-width="1.5" stroke="rgb(104,228,194)" x1="-105.84956626255742" x2="-85.35943931839071" y1="-111.18706621100992" y2="-167.11338510942264"></line><line fill="none" stroke-width="1.5" stroke="rgb(104,228,194)" x1="-96.09319575639893" x2="-78.16429827681603" y1="-118.27548376449127" y2="-164.11960697604061"></line><line fill="none" stroke-width="1.5" stroke="rgb(104,228,194)" x1="-83.8568754997547" x2="-71.05929852136299" y1="-127.16569014220786" y2="-161.16333512776774"></line><line fill="none" stroke-width="1.5" stroke="rgb(104,228,194)" x1="-71.75536314520477" x2="-64.09527365357555" y1="-135.95795285337857" y2="-158.265720578026"></line><line fill="none" stroke-width="1.5" stroke="rgb(104,228,194)" x1="-61.50579193414637" x2="-56.90446364225977" y1="-143.404701666604" y2="-155.2737445140696"></line><polygon fill="none" points="49.44272,-152.16904 0.0,-100.0 70.71068,-70.71068" stroke-width="1.5" stroke="rgb(104,228,194)"></polygon><line fill="none" stroke-width="1.5" stroke="rgb(104,228,194)" x1="9.572873857535809" x2="53.54240390341352" y1="110.10073119504625" y2="136.46684209432834"></line><line fill="none" stroke-width="1.5" stroke="rgb(104,228,194)" x1="20.082961936231854" x2="57.8558160866448" y1="121.19035549168309" y2="119.94605289701484"></line><line fill="none" stroke-width="1.5" stroke="rgb(104,228,194)" x1="29.177308862019757" x2="62.00742921279735" y1="130.78617332642523" y2="104.04496986289004"></line><line fill="none" stroke-width="1.5" stroke="rgb(104,228,194)" x1="39.99372953350469" x2="66.59488537033047" y1="142.19902168535413" y2="86.47456552612022"></line><polygon fill="none" points="0.0,100.0 70.71068,70.71068 30.0,51.96152" stroke-width="1.5" stroke="rgb(104,228,194)"></polygon><line fill="none" stroke-width="1.5" stroke="rgb(104,228,194)" x1="-84.2336885229376" x2="-40.61474259481965" y1="177.42964896784804" y2="160.70923455492047"></line><line fill="none" stroke-width="1.5" stroke="rgb(104,228,194)" x1="-66.65630105218881" x2="-32.469994418450675" y1="182.1394962083012" y2="168.58847666657107"></line><line fill="none" stroke-width="1.5" stroke="rgb(104,228,194)" x1="-51.0061875336307" x2="-24.922663350398523" y1="186.33293189894766" y2="175.88977653419653"></line><line fill="none" stroke-width="1.5" stroke="rgb(104,228,194)" x1="-32.64584490323867" x2="-16.63354537880978" y1="191.25257136274354" y2="183.90868221131456"></line><line fill="none" stroke-width="1.5" stroke="rgb(104,228,194)" x1="-15.896832439794139" x2="-7.699939778387882" y1="195.7404561671575" y2="192.551066227551"></line><line fill="none" stroke-width="1.5" stroke="rgb(104,228,194)" x1="-41.09016242926518" x2="-58.10290172853571" y1="160.2493126642541" y2="155.77239460531507"></line><line fill="none" stroke-width="1.5" stroke="rgb(104,228,194)" x1="-32.70669250101965" x2="-66.11089442594587" y1="168.3594945716629" y2="159.10438674991138"></line><line fill="none" stroke-width="1.5" stroke="rgb(104,228,194)" x1="-25.312056951629895" x2="-75.24116190564344" y1="175.51307655595394" y2="162.90333870578095"></line><line fill="none" stroke-width="1.5" stroke="rgb(104,228,194)" x1="-16.249565172601073" x2="-83.29945898329223" y1="184.28014526275402" y2="166.2562616636444"></line><line fill="none" stroke-width="1.5" stroke="rgb(104,228,194)" x1="-8.441330465333001" x2="-91.01563408189043" y1="191.83384371860808" y2="169.466833374477"></line><line fill="none" stroke-width="1.5" stroke="rgb(104,228,194)" x1="170.90223983961673" x2="134.28257118826198" y1="82.56096432308479" y2="79.15010461516853"></line><line fill="none" stroke-width="1.5" stroke="rgb(104,228,194)" x1="168.69038354870253" x2="139.32147995684807" y1="65.81092112018487" y2="63.64193857339681"></line><line fill="none" stroke-width="1.5" stroke="rgb(104,228,194)" x1="166.5199555365243" x2="144.79785918076192" y1="49.374607819855584" y2="46.78737695846281"></line><line fill="none" stroke-width="1.5" stroke="rgb(104,228,194)" x1="164.33523894529307" x2="149.64973685673527" y1="32.83008933574982" y2="31.85483341204054"></line><line fill="none" stroke-width="1.5" stroke="rgb(104,228,194)" x1="162.34324815069567" x2="155.08824885528614" y1="17.7450532932434" y2="15.11681512929222"></line><line fill="none" stroke-width="1.5" stroke="rgb(104,228,194)" x1="134.42607178713092" x2="136.36366499614445" y1="78.70845519928176" y2="94.98731160693036"></line><line fill="none" stroke-width="1.5" stroke="rgb(104,228,194)" x1="139.44482509098606" x2="144.01626042169332" y1="63.26232129741399" y2="96.02853323793401"></line><line fill="none" stroke-width="1.5" stroke="rgb(104,228,194)" x1="144.99655115039317" x2="150.88973473397266" y1="46.17586597508914" y2="96.96374668332271"></line><line fill="none" stroke-width="1.5" stroke="rgb(104,228,194)" x1="149.68021855506836" x2="158.17573596644326" y1="31.761020394045104" y2="97.95508905344722"></line><line fill="none" stroke-width="1.5" stroke="rgb(104,228,194)" x1="154.84908401052127" x2="165.64779806285077" y1="15.85288880998498" y2="98.97174709563349"></line><line fill="none" stroke-width="1.5" stroke="rgb(104,228,194)" x1="33.96016403380335" x2="30.0" y1="-45.10231624219093" y2="51.96152"></line><line fill="none" stroke-width="1.5" stroke="rgb(104,228,194)" x1="38.555605054310575" x2="30.0" y1="-37.14277938303742" y2="51.96152"></line><line fill="none" stroke-width="1.5" stroke="rgb(104,228,194)" x1="43.05063293741444" x2="30.0" y1="-29.357163169310247" y2="51.96152"></line><line fill="none" stroke-width="1.5" stroke="rgb(104,228,194)" x1="46.86932106825906" x2="30.0" y1="-22.74300170027351" y2="51.96152"></line><line fill="none" stroke-width="1.5" stroke="rgb(104,228,194)" x1="51.50585344966822" x2="30.0" y1="-14.712292520502203" y2="51.96152"></line><line fill="none" stroke-width="1.5" stroke="rgb(104,228,194)" x1="55.679798668513186" x2="30.0" y1="-7.482807761753826" y2="51.96152"></line><line fill="none" stroke-width="1.5" stroke="rgb(104,228,194)" x1="-96.88184733444491" x2="-60.0" y1="7.5278864481652805" y2="0.0"></line><line fill="none" stroke-width="1.5" stroke="rgb(104,228,194)" x1="-93.68942901341472" x2="-60.0" y1="15.235066048840661" y2="0.0"></line><line fill="none" stroke-width="1.5" stroke="rgb(104,228,194)" x1="-90.11247143654059" x2="-60.0" y1="23.870605535429412" y2="0.0"></line><line fill="none" stroke-width="1.5" stroke="rgb(104,228,194)" x1="-86.71632211843551" x2="-60.0" y1="32.06963527188966" y2="0.0"></line><line fill="none" stroke-width="1.5" stroke="rgb(104,228,194)" x1="-83.81417115747523" x2="-60.0" y1="39.076047475781415" y2="0.0"></line><line fill="none" stroke-width="1.5" stroke="rgb(104,228,194)" x1="-80.42522147904072" x2="-60.0" y1="47.25769574451996" y2="0.0"></line><line fill="none" stroke-width="1.5" stroke="rgb(104,228,194)" x1="-77.51293207880656" x2="-60.0" y1="54.288584305986674" y2="0.0"></line><line fill="none" stroke-width="1.5" stroke="rgb(104,228,194)" x1="-73.77097538727182" x2="-60.0" y1="63.32246689262105" y2="0.0"></line><line fill="none" stroke-width="1.5" stroke="rgb(104,228,194)" x1="-61.42296334964021" x2="-74.6243188205399" y1="-9.39424212177901" y2="-61.262313604460616"></line><line fill="none" stroke-width="1.5" stroke="rgb(104,228,194)" x1="-63.066198454138934" x2="-78.7896269405194" y1="-20.24269330540998" y2="-51.20637025851654"></line><line fill="none" stroke-width="1.5" stroke="rgb(104,228,194)" x1="-64.674464456241" x2="-83.47611768718305" y1="-30.860282453993737" y2="-39.892180747856074"></line><line fill="none" stroke-width="1.5" stroke="rgb(104,228,194)" x1="-66.18078944092007" x2="-87.47804073273568" y1="-40.80486860495693" y2="-30.230683864138555"></line><line fill="none" stroke-width="1.5" stroke="rgb(104,228,194)" x1="-67.76659818435843" x2="-91.60681862880669" y1="-51.274197487152584" y2="-20.26293228011391"></line><line fill="none" stroke-width="1.5" stroke="rgb(104,228,194)" x1="-69.12282574194201" x2="-95.73026138650124" y1="-60.22785750333685" y2="-10.308060859503655"></line><line fill="none" stroke-width="1.5" stroke="rgb(104,228,194)" x1="-162.4509923644098" x2="-137.43508001394738" y1="-98.53678574484528" y2="-69.44768042728263"></line><line fill="none" stroke-width="1.5" stroke="rgb(104,228,194)" x1="-151.7870880268908" x2="-145.03426652898096" y1="-97.08584168603504" y2="-46.05978997920806"></line><line fill="none" stroke-width="1.5" stroke="rgb(104,228,194)" x1="-140.26206128785046" x2="-152.06772675843612" y1="-95.51773224456097" y2="-24.41302594835308"></line><line fill="none" stroke-width="1.5" stroke="rgb(104,228,194)" x1="177.3486623922897" x2="193.1068461668109" y1="-84.53593450796464" y2="0.0"></line><line fill="none" stroke-width="1.5" stroke="rgb(104,228,194)" x1="181.8638122892636" x2="186.52685993042206" y1="-67.68516734380813" y2="0.0"></line><line fill="none" stroke-width="1.5" stroke="rgb(104,228,194)" x1="186.87384029355914" x2="180.34364790285363" y1="-48.987490120983445" y2="0.0"></line><line fill="none" stroke-width="1.5" stroke="rgb(104,228,194)" x1="190.79210888559382" x2="173.5251879293277" y1="-34.36431409414658" y2="0.0"></line><line fill="none" stroke-width="1.5" stroke="rgb(104,228,194)" x1="195.56110077559924" x2="167.0613308488655" y1="-16.56619580795379" y2="0.0"></line><polygon fill="none" points="99.76702888976546,-5.8062324253913244 125.15324369983337,-89.41115675401188 73.64387151479427,-69.50431667025616" stroke-width="1.5" stroke="rgb(104,228,194)"></polygon><polygon fill="none" points="99.49422259281101,-12.60525898981415 121.79702037183841,-85.78498845640645 76.26399437332235,-68.42671464648822" stroke-width="1.5" stroke="rgb(104,228,194)"></polygon><polygon fill="none" points="99.2156019298367,-19.54919433920933 119.42805336930795,-83.22548266577682 79.38170295689117,-67.14446596557721" stroke-width="1.5" stroke="rgb(104,228,194)"></polygon><polygon fill="none" points="98.98275714722256,-25.35227835909622 115.64770880653853,-79.1410805661916 82.39774599966921,-65.90403020658587" stroke-width="1.5" stroke="rgb(104,228,194)"></polygon><polygon fill="none" points="98.68744954985142,-32.71209454228914 111.28034150663325,-74.42244080380837 85.18962892061158,-64.75578684237173" stroke-width="1.5" stroke="rgb(104,228,194)"></polygon><polygon fill="none" points="98.44156669743857,-38.840120412492205 108.33598352617922,-71.2412646655976 89.0375429514531,-63.17321985188745" stroke-width="1.5" stroke="rgb(104,228,194)"></polygon><polygon fill="none" points="98.16348242698496,-45.77068749642585 104.99055161374642,-67.62675574973574 92.01328480423778,-61.94935913393121" stroke-width="1.5" stroke="rgb(104,228,194)"></polygon><polygon fill="none" points="97.86255274421107,-53.2706203427147 101.7201604541805,-64.09332320230402 94.31338101001539,-61.00337741473835" stroke-width="1.5" stroke="rgb(104,228,194)"></polygon><polygon fill="none" points="-49.53030298565869,145.8245834989067 -5.733550178869015,100.85110655396205 -68.30800807370157,74.98310251335134" stroke-width="1.5" stroke="rgb(104,228,194)"></polygon><polygon fill="none" points="-49.59809556316016,140.91381794401974 -11.35918119622807,101.68619324190851 -65.41152618521387,80.13362247366184" stroke-width="1.5" stroke="rgb(104,228,194)"></polygon><polygon fill="none" points="-49.67522956355205,135.3263774572352 -19.194814714186272,102.84933978000937 -63.35960009189779,83.78235452433053" stroke-width="1.5" stroke="rgb(104,228,194)"></polygon><polygon fill="none" points="-49.74067882682134,130.58535713464016 -24.687902167562203,103.66475127676149 -59.92014351414157,89.8983913021762" stroke-width="1.5" stroke="rgb(104,228,194)"></polygon><polygon fill="none" points="-49.83270839217388,123.91891021344571 -30.88817022631109,104.58513892777944 -57.663194078779945,93.91169556706525" stroke-width="1.5" stroke="rgb(104,228,194)"></polygon><polygon fill="none" points="-49.90125402435118,118.95359480812714 -38.264622831084594,105.68012318030266 -55.28239711678586,98.14522532705953" stroke-width="1.5" stroke="rgb(104,228,194)"></polygon><polygon fill="none" points="-49.97180997239362,113.84265593975735 -42.86192663817333,106.36256168327218 -52.356191056595335,103.34860076707028" stroke-width="1.5" stroke="rgb(104,228,194)"></polygon><line fill="none" stroke-width="1.5" stroke="rgb(104,228,194)" x1="30.0" x2="-19.498325194993626" y1="35.331047957478305" y2="-51.96152114868164"></line><line fill="none" stroke-width="1.5" stroke="rgb(104,228,194)" x1="30.0" x2="-10.659301061241756" y1="16.490736336277884" y2="-51.96152114868164"></line><line fill="none" stroke-width="1.5" stroke="rgb(104,228,194)" x1="30.0" x2="0.6422806344918222" y1="0.1377909023609476" y2="-51.96152114868164"></line><line fill="none" stroke-width="1.5" stroke="rgb(104,228,194)" x1="30.0" x2="9.34496701017996" y1="-16.88345969190297" y2="-51.96152114868164"></line><line fill="none" stroke-width="1.5" stroke="rgb(104,228,194)" x1="30.0" x2="19.604473255649374" y1="-33.47268468279236" y2="-51.96152114868164"></line><line fill="none" stroke-width="1.5" stroke="rgb(104,228,194)" x1="-4.351385452008804" x2="21.35864155085146" y1="-93.03220206632469" y2="-51.96152114868164"></line><line fill="none" stroke-width="1.5" stroke="rgb(104,228,194)" x1="-8.90795918729018" x2="12.576967284615641" y1="-85.73583969909845" y2="-51.96152114868164"></line><line fill="none" stroke-width="1.5" stroke="rgb(104,228,194)" x1="-12.653339984101297" x2="4.54038248304019" y1="-79.73842649250696" y2="-51.96152114868164"></line><line fill="none" stroke-width="1.5" stroke="rgb(104,228,194)" x1="-17.05227931811604" x2="-3.985114497287384" y1="-72.69448135366363" y2="-51.96152114868164"></line><line fill="none" stroke-width="1.5" stroke="rgb(104,228,194)" x1="-21.526551044989667" x2="-12.969727399334943" y1="-65.52990776278129" y2="-51.96152114868164"></line><line fill="none" stroke-width="1.5" stroke="rgb(104,228,194)" x1="-25.803979205315606" x2="-21.782811734698804" y1="-58.680536355519585" y2="-51.96152114868164"></line><line fill="none" stroke-width="1.5" stroke="rgb(104,228,194)" x1="21.38439270078551" x2="25.557126260653643" y1="-51.96152114868164" y2="-59.07581768757056"></line><line fill="none" stroke-width="1.5" stroke="rgb(104,228,194)" x1="12.93747444375947" x2="21.172536895851334" y1="-51.96152114868164" y2="-66.09678446999627"></line><line fill="none" stroke-width="1.5" stroke="rgb(104,228,194)" x1="4.301096827012195" x2="17.35147833112304" y1="-51.96152114868164" y2="-72.2153791717079"></line><line fill="none" stroke-width="1.5" stroke="rgb(104,228,194)" x1="-3.7663234111892123" x2="12.658507245788112" y1="-51.96152114868164" y2="-79.73015224613158"></line><line fill="none" stroke-width="1.5" stroke="rgb(104,228,194)" x1="-12.833131816451719" x2="8.224012719142237" y1="-51.96152114868164" y2="-86.83103129728374"></line><line fill="none" stroke-width="1.5" stroke="rgb(104,228,194)" x1="-21.93881009724426" x2="4.521435809087691" y1="-51.96152114868164" y2="-92.75990338358491"></line><line fill="none" stroke-width="1.5" stroke="rgb(104,228,194)" x1="161.77264300954667" x2="129.44272" y1="-13.423949428899585" y2="-94.04564"></line><line fill="none" stroke-width="1.5" stroke="rgb(104,228,194)" x1="163.23923866625526" x2="129.44272" y1="-24.530249920465717" y2="-94.04564"></line><line fill="none" stroke-width="1.5" stroke="rgb(104,228,194)" x1="164.82161610937823" x2="129.44272" y1="-36.51334784797588" y2="-94.04564"></line><line fill="none" stroke-width="1.5" stroke="rgb(104,228,194)" x1="166.72985241854934" x2="129.44272" y1="-50.964124216791404" y2="-94.04564"></line><line fill="none" stroke-width="1.5" stroke="rgb(104,228,194)" x1="168.13212773525922" x2="129.44272" y1="-61.58333679119548" y2="-94.04564"></line><line fill="none" stroke-width="1.5" stroke="rgb(104,228,194)" x1="169.91480156611908" x2="129.44272" y1="-75.08324806763754" y2="-94.04564"></line><line fill="none" stroke-width="1.5" stroke="rgb(104,228,194)" x1="171.47402977896104" x2="129.44272" y1="-86.89104047963394" y2="-94.04564"></line><line fill="none" stroke-width="1.5" stroke="rgb(104,228,194)" x1="-126.23353076241207" x2="-74.23771241934881" y1="-83.7948834203385" y2="-62.19566402070212"></line><line fill="none" stroke-width="1.5" stroke="rgb(104,228,194)" x1="-122.58042982983972" x2="-77.30706487837543" y1="-72.12618470265645" y2="-54.78559169288165"></line><line fill="none" stroke-width="1.5" stroke="rgb(104,228,194)" x1="-119.34680654336259" x2="-80.55750956779778" y1="-61.79737731604718" y2="-46.93832404678087"></line><line fill="none" stroke-width="1.5" stroke="rgb(104,228,194)" x1="-116.01433590899916" x2="-83.78426388624091" y1="-51.15283271253193" y2="-39.148250015545905"></line><line fill="none" stroke-width="1.5" stroke="rgb(104,228,194)" x1="-112.75334823362496" x2="-86.79587860701822" y1="-40.73661826667987" y2="-31.877568918346075"></line><line fill="none" stroke-width="1.5" stroke="rgb(104,228,194)" x1="-109.99848404838603" x2="-90.23603630794719" y1="-31.93705844640133" y2="-23.572293547306984"></line><line fill="none" stroke-width="1.5" stroke="rgb(104,228,194)" x1="-106.18170059732503" x2="-93.13123942034417" y1="-19.745526653792325" y2="-16.58265493363141"></line><line fill="none" stroke-width="1.5" stroke="rgb(104,228,194)" x1="-103.18547651425497" x2="-96.99757013317554" y1="-10.175017444951777" y2="-7.248506898237759"></line><line fill="none" stroke-width="1.5" stroke="rgb(104,228,194)" x1="-74.2809023186947" x2="-76.8970276231848" y1="-62.09139438003467" y2="-73.16859074008288"></line><line fill="none" stroke-width="1.5" stroke="rgb(104,228,194)" x1="-77.32060632057912" x2="-83.45824337271125" y1="-54.752899759487946" y2="-75.77544233524664"></line><line fill="none" stroke-width="1.5" stroke="rgb(104,228,194)" x1="-80.69640674391323" x2="-90.27399627017289" y1="-46.602996600720196" y2="-78.48342466523971"></line><line fill="none" stroke-width="1.5" stroke="rgb(104,228,194)" x1="-83.95098571019975" x2="-97.48302905362365" y1="-38.74574792735204" y2="-81.34766192378174"></line><line fill="none" stroke-width="1.5" stroke="rgb(104,228,194)" x1="-86.69780533471516" x2="-102.85378319780878" y1="-32.114338742239866" y2="-83.48152850315948"></line><line fill="none" stroke-width="1.5" stroke="rgb(104,228,194)" x1="-90.2045087924569" x2="-109.65894595665031" y1="-23.648407702725137" y2="-86.18530324102197"></line><line fill="none" stroke-width="1.5" stroke="rgb(104,228,194)" x1="-93.24535766160568" x2="-116.80725370327097" y1="-16.307149128104076" y2="-89.02541369667105"></line><line fill="none" stroke-width="1.5" stroke="rgb(104,228,194)" x1="-96.97332539264507" x2="-122.38284569828801" y1="-7.307038879591602" y2="-91.24066486978505"></line><line fill="none" stroke-width="1.5" stroke="rgb(104,228,194)" x1="34.821384863700914" x2="70.71068" y1="-43.610638096644024" y2="-70.71068"></line><line fill="none" stroke-width="1.5" stroke="rgb(104,228,194)" x1="39.75738310230865" x2="70.71068" y1="-35.06123886780164" y2="-70.71068"></line><line fill="none" stroke-width="1.5" stroke="rgb(104,228,194)" x1="45.336390629073634" x2="70.71068" y1="-25.39811494811323" y2="-70.71068"></line><line fill="none" stroke-width="1.5" stroke="rgb(104,228,194)" x1="49.685170653735696" x2="70.71068" y1="-17.865807440698482" y2="-70.71068"></line><line fill="none" stroke-width="1.5" stroke="rgb(104,228,194)" x1="54.71582095557932" x2="70.71068" y1="-9.152466039002846" y2="-70.71068"></line><line fill="none" stroke-width="1.5" stroke="rgb(104,228,194)" x1="-22.996248212984096" x2="-22.64703228410054" y1="51.96152114868164" y2="-39.22580823283886"></line><line fill="none" stroke-width="1.5" stroke="rgb(104,228,194)" x1="-14.985991653190654" x2="-15.324242957300015" y1="51.96152114868164" y2="-26.542365817109342"></line><line fill="none" stroke-width="1.5" stroke="rgb(104,228,194)" x1="-7.3266391495117205" x2="-8.096120994374196" y1="51.96152114868164" y2="-14.022892075715333"></line><line fill="none" stroke-width="1.5" stroke="rgb(104,228,194)" x1="0.26991009878874195" x2="-0.27197771147179495" y1="51.96152114868164" y2="-0.47107918688705297"></line><line fill="none" stroke-width="1.5" stroke="rgb(104,228,194)" x1="7.594560828358702" x2="7.900346562215187" y1="51.96152114868164" y2="13.683800832481957"></line><line fill="none" stroke-width="1.5" stroke="rgb(104,228,194)" x1="14.752138502005444" x2="15.017993883338288" y1="51.96152114868164" y2="26.011926892661798"></line><line fill="none" stroke-width="1.5" stroke="rgb(104,228,194)" x1="22.72818292968509" x2="22.450655054113305" y1="51.96152114868164" y2="38.88567291320216"></line><line fill="none" stroke-width="1.5" stroke="rgb(104,228,194)" x1="-22.74761046808579" x2="-30.0" y1="-39.40001474731372" y2="-39.23037378959609"></line><line fill="none" stroke-width="1.5" stroke="rgb(104,228,194)" x1="-15.144931995967362" x2="-30.0" y1="-26.231790140126776" y2="-27.16274505950303"></line><line fill="none" stroke-width="1.5" stroke="rgb(104,228,194)" x1="-7.161552162626293" x2="-30.0" y1="-12.40417147185643" y2="-11.863538063584592"></line><line fill="none" stroke-width="1.5" stroke="rgb(104,228,194)" x1="0.11524190276780999" x2="-30.0" y1="0.19960481892946547" y2="-0.6884959227335727"></line><line fill="none" stroke-width="1.5" stroke="rgb(104,228,194)" x1="7.523577513411375" x2="-30.0" y1="13.031217735895694" y2="12.424592826785542"></line><line fill="none" stroke-width="1.5" stroke="rgb(104,228,194)" x1="14.792152551600694" x2="-30.0" y1="25.620758254817485" y2="26.878135703115873"></line><line fill="none" stroke-width="1.5" stroke="rgb(104,228,194)" x1="23.12014559770593" x2="-30.0" y1="40.04526448119318" y2="38.433035130741516"></line><line fill="none" stroke-width="1.5" stroke="rgb(104,228,194)" x1="-121.72747313585633" x2="-49.44272" y1="90.98027730214183" y2="152.16904"></line><line fill="none" stroke-width="1.5" stroke="rgb(104,228,194)" x1="-115.32233512123274" x2="-49.44272" y1="88.43543730783578" y2="152.16904"></line><line fill="none" stroke-width="1.5" stroke="rgb(104,228,194)" x1="-107.04569504681109" x2="-49.44272" y1="85.1470265613732" y2="152.16904"></line><line fill="none" stroke-width="1.5" stroke="rgb(104,228,194)" x1="-100.23214241314585" x2="-49.44272" y1="82.43991842320773" y2="152.16904"></line><line fill="none" stroke-width="1.5" stroke="rgb(104,228,194)" x1="-93.28595627844668" x2="-49.44272" y1="79.68011336621782" y2="152.16904"></line><line fill="none" stroke-width="1.5" stroke="rgb(104,228,194)" x1="-85.51018239409952" x2="-49.44272" y1="76.59070290817793" y2="152.16904"></line><line fill="none" stroke-width="1.5" stroke="rgb(104,228,194)" x1="-78.23312726707044" x2="-49.44272" y1="73.69943953715412" y2="152.16904"></line><line fill="none" stroke-width="1.5" stroke="rgb(104,228,194)" x1="82.16664560029078" x2="113.20658186813293" y1="-75.26227467823318" y2="-105.84188190021736"></line><line fill="none" stroke-width="1.5" stroke="rgb(104,228,194)" x1="94.63334785667607" x2="97.89554711263423" y1="-80.21544858747937" y2="-116.96599895320671"></line><line fill="none" stroke-width="1.5" stroke="rgb(104,228,194)" x1="105.5556865365233" x2="80.92443070636938" y1="-84.5550278815353" y2="-129.29623583385893"></line><line fill="none" stroke-width="1.5" stroke="rgb(104,228,194)" x1="117.55829779767663" x2="65.64189308534495" y1="-89.3238127389036" y2="-140.3996485082985"></line><line fill="none" stroke-width="1.5" stroke="rgb(104,228,194)" x1="-5.41539961868482" x2="38.8624033779185" y1="-194.76113394754697" y2="-152.16903686523438"></line><line fill="none" stroke-width="1.5" stroke="rgb(104,228,194)" x1="-11.578121348635781" x2="28.251635253543128" y1="-188.79930731699528" y2="-152.16903686523438"></line><line fill="none" stroke-width="1.5" stroke="rgb(104,228,194)" x1="-16.877095604789325" x2="16.72789223377673" y1="-183.67307134216483" y2="-152.16903686523438"></line><line fill="none" stroke-width="1.5" stroke="rgb(104,228,194)" x1="-21.705556741941038" x2="4.551834080407822" y1="-179.00201049381397" y2="-152.16903686523438"></line><line fill="none" stroke-width="1.5" stroke="rgb(104,228,194)" x1="-26.888571135099365" x2="-4.329525792953248" y1="-173.98795427162756" y2="-152.16903686523438"></line><line fill="none" stroke-width="1.5" stroke="rgb(104,228,194)" x1="-32.82169100888586" x2="-15.643269897618524" y1="-168.24824483547275" y2="-152.16903686523438"></line><line fill="none" stroke-width="1.5" stroke="rgb(104,228,194)" x1="-39.0007513191728" x2="-26.930678421582517" y1="-162.27061223677566" y2="-152.16903686523438"></line><line fill="none" stroke-width="1.5" stroke="rgb(104,228,194)" x1="-44.53586219572493" x2="-38.320884476210566" y1="-156.91593732641792" y2="-152.16903686523438"></line><line fill="none" stroke-width="1.5" stroke="rgb(104,228,194)" x1="38.07644299200864" x2="43.73001539155649" y1="-152.16903686523438" y2="-157.69551478387268"></line><line fill="none" stroke-width="1.5" stroke="rgb(104,228,194)" x1="28.38511282515826" x2="38.03971437777778" y1="-152.16903686523438" y2="-163.20032087546159"></line><line fill="none" stroke-width="1.5" stroke="rgb(104,228,194)" x1="17.205115190654837" x2="33.13717698743076" y1="-152.16903686523438" y2="-167.94304320689466"></line><line fill="none" stroke-width="1.5" stroke="rgb(104,228,194)" x1="6.124029970551874" x2="27.838917320912508" y1="-152.16903686523438" y2="-173.06858788659542"></line><line fill="none" stroke-width="1.5" stroke="rgb(104,228,194)" x1="-6.673916333320157" x2="22.501179633919953" y1="-152.16903686523438" y2="-178.23232366498578"></line><line fill="none" stroke-width="1.5" stroke="rgb(104,228,194)" x1="-16.05698281644395" x2="16.732709401030448" y1="-152.16903686523438" y2="-183.81275078127862"></line><line fill="none" stroke-width="1.5" stroke="rgb(104,228,194)" x1="-27.09587699039637" x2="11.597799539859096" y1="-152.16903686523438" y2="-188.7802706040595"></line><line fill="none" stroke-width="1.5" stroke="rgb(104,228,194)" x1="-39.173981592174336" x2="5.27973657975415" y1="-152.16903686523438" y2="-194.89237458337638"></line><line fill="none" stroke-width="1.5" stroke="rgb(104,228,194)" x1="60.38266293080884" x2="25.729673970792234" y1="-74.98868206003498" y2="-58.79952003675936"></line><line fill="none" stroke-width="1.5" stroke="rgb(104,228,194)" x1="49.63952430898522" x2="21.488260984215216" y1="-79.43863578353083" y2="-65.59122097193892"></line><line fill="none" stroke-width="1.5" stroke="rgb(104,228,194)" x1="40.75479527242098" x2="17.073948501667633" y1="-83.11881105169651" y2="-72.65978286647135"></line><line fill="none" stroke-width="1.5" stroke="rgb(104,228,194)" x1="30.82065205321984" x2="12.653030740872817" y1="-87.23366790723631" y2="-79.73892167831667"></line><line fill="none" stroke-width="1.5" stroke="rgb(104,228,194)" x1="19.81489638573977" x2="8.317968199480116" y1="-91.79240117284833" y2="-86.68058201877786"></line><line fill="none" stroke-width="1.5" stroke="rgb(104,228,194)" x1="10.25121075933933" x2="3.928329149819737" y1="-95.7538094690321" y2="-93.70963477384556"></line><line fill="none" stroke-width="1.5" stroke="rgb(104,228,194)" x1="25.384128614635625" x2="36.199124257634935" y1="-59.35283581288938" y2="-54.81650561697232"></line><line fill="none" stroke-width="1.5" stroke="rgb(104,228,194)" x1="21.629842877847047" x2="41.95630592464101" y1="-65.36450834517352" y2="-57.46795500842251"></line><line fill="none" stroke-width="1.5" stroke="rgb(104,228,194)" x1="17.471747468360668" x2="47.64273993301022" y1="-72.02279429151936" y2="-60.08682181914326"></line><line fill="none" stroke-width="1.5" stroke="rgb(104,228,194)" x1="12.725170923336306" x2="53.43944485604804" y1="-79.62340485732992" y2="-62.75647350456553"></line><line fill="none" stroke-width="1.5" stroke="rgb(104,228,194)" x1="8.529547985523388" x2="59.11111208111811" y1="-86.34178298287098" y2="-65.36853952614034"></line><line fill="none" stroke-width="1.5" stroke="rgb(104,228,194)" x1="3.97937573960621" x2="65.38274974074622" y1="-93.62789475638259" y2="-68.25691978193737"></line><line fill="none" stroke-width="1.5" stroke="rgb(104,228,194)" x1="12.057491771078473" x2="100.0" y1="188.33556362132782" y2="173.20508"></line><line fill="none" stroke-width="1.5" stroke="rgb(104,228,194)" x1="24.316847819962636" x2="100.0" y1="176.47584342490185" y2="173.20508"></line><line fill="none" stroke-width="1.5" stroke="rgb(104,228,194)" x1="37.65918038349592" x2="100.0" y1="163.5684500560984" y2="173.20508"></line><polygon fill="none" points="-10.117360848021052,-195.9972331889033 -89.99691577090753,-174.64610301649137 -49.40574694370767,-157.50018352167973" stroke-width="1.5" stroke="rgb(104,228,194)"></polygon><polygon fill="none" points="-19.99060353271356,-192.0910476994413 -79.30630227321923,-176.1861720394711 -49.36752868392574,-163.01109883046522" stroke-width="1.5" stroke="rgb(104,228,194)"></polygon><polygon fill="none" points="-30.02971397223986,-188.11923937077717 -68.68714374495765,-177.7159473982962 -49.32171299309351,-169.61753233713452" stroke-width="1.5" stroke="rgb(104,228,194)"></polygon><polygon fill="none" points="-38.55468299196332,-184.7464761007539 -59.92822517902746,-178.97774020009453 -49.289360336924226,-174.2826518161627" stroke-width="1.5" stroke="rgb(104,228,194)"></polygon><line fill="none" stroke-width="1.5" stroke="rgb(104,228,194)" x1="-56.553504249031405" x2="-30.0" y1="5.969505395093204" y2="-40.705817512792905"></line><line fill="none" stroke-width="1.5" stroke="rgb(104,228,194)" x1="-53.5293116466751" x2="-30.0" y1="11.207560323927325" y2="-28.561290035862285"></line><line fill="none" stroke-width="1.5" stroke="rgb(104,228,194)" x1="-49.775128935890386" x2="-30.0" y1="17.709995134675825" y2="-17.732130938302348"></line><line fill="none" stroke-width="1.5" stroke="rgb(104,228,194)" x1="-46.87877699349606" x2="-30.0" y1="22.72662355830076" y2="-4.736308394115461"></line><line fill="none" stroke-width="1.5" stroke="rgb(104,228,194)" x1="-43.563145321194824" x2="-30.0" y1="28.46946573368474" y2="4.48912273686738"></line><line fill="none" stroke-width="1.5" stroke="rgb(104,228,194)" x1="-40.12543173721615" x2="-30.0" y1="34.42375997025199" y2="17.412461693775242"></line><line fill="none" stroke-width="1.5" stroke="rgb(104,228,194)" x1="-36.753809249691734" x2="-30.0" y1="40.26358107661435" y2="27.97054965768346"></line><line fill="none" stroke-width="1.5" stroke="rgb(104,228,194)" x1="-33.344362557920405" x2="-30.0" y1="46.168915622606974" y2="41.382965800695594"></line><line fill="none" stroke-width="1.5" stroke="rgb(104,228,194)" x1="-30.0" x2="-33.19251059518338" y1="-41.451136086161114" y2="-46.431930921714596"></line><line fill="none" stroke-width="1.5" stroke="rgb(104,228,194)" x1="-30.0" x2="-36.56401407095221" y1="-29.789611261094436" y2="-40.5923159497474"></line><line fill="none" stroke-width="1.5" stroke="rgb(104,228,194)" x1="-30.0" x2="-40.16304261044935" y1="-18.34654070718544" y2="-34.35861603075442"></line><line fill="none" stroke-width="1.5" stroke="rgb(104,228,194)" x1="-30.0" x2="-43.490604383238995" y1="-4.515214141317401" y2="-28.595110316409297"></line><line fill="none" stroke-width="1.5" stroke="rgb(104,228,194)" x1="-30.0" x2="-46.6857367968752" y1="6.257515965359559" y2="-23.06097896694277"></line><line fill="none" stroke-width="1.5" stroke="rgb(104,228,194)" x1="-30.0" x2="-50.059584421748006" y1="16.752587895190224" y2="-17.217303809867516"></line><line fill="none" stroke-width="1.5" stroke="rgb(104,228,194)" x1="-30.0" x2="-53.0505715107138" y1="27.69334106013233" y2="-12.036762513909856"></line><line fill="none" stroke-width="1.5" stroke="rgb(104,228,194)" x1="-30.0" x2="-56.72244781846295" y1="40.48057844672635" y2="-5.6768865665614925"></line><line fill="none" stroke-width="1.5" stroke="rgb(104,228,194)" x1="-63.37994723146912" x2="-26.38100120276572" y1="73.74716625133038" y2="57.75656105481116"></line><line fill="none" stroke-width="1.5" stroke="rgb(104,228,194)" x1="-55.54886498899471" x2="-23.44008838242177" y1="76.99090672705236" y2="62.46579366559995"></line><line fill="none" stroke-width="1.5" stroke="rgb(104,228,194)" x1="-46.36266094146629" x2="-19.710951160506994" y1="80.79595703358493" y2="68.43719631788719"></line><line fill="none" stroke-width="1.5" stroke="rgb(104,228,194)" x1="-39.81262919049419" x2="-16.804315663539057" y1="83.50906902117899" y2="73.0915412462067"></line><line fill="none" stroke-width="1.5" stroke="rgb(104,228,194)" x1="-30.724689575787586" x2="-13.565654620307832" y1="87.27341686690235" y2="78.2775529139351"></line><line fill="none" stroke-width="1.5" stroke="rgb(104,228,194)" x1="-23.956877432347575" x2="-9.692793040799728" y1="90.07673644675425" y2="84.47909888331122"></line><line fill="none" stroke-width="1.5" stroke="rgb(104,228,194)" x1="-15.29121904110282" x2="-6.356264865105631" y1="93.66616968243162" y2="89.82182349014151"></line><line fill="none" stroke-width="1.5" stroke="rgb(104,228,194)" x1="-7.186656652493589" x2="-3.0362516861474353" y1="97.02318934382124" y2="95.13810291959089"></line><line fill="none" stroke-width="1.5" stroke="rgb(104,228,194)" x1="-26.295605309908343" x2="-34.08578216067058" y1="57.89330401457845" y2="53.84321348533179"></line><line fill="none" stroke-width="1.5" stroke="rgb(104,228,194)" x1="-23.569233214549627" x2="-39.525050375413784" y1="62.258996289368916" y2="56.34824897527752"></line><line fill="none" stroke-width="1.5" stroke="rgb(104,228,194)" x1="-20.262659914192998" x2="-43.43190359373561" y1="67.5537546746861" y2="58.147536228547665"></line><line fill="none" stroke-width="1.5" stroke="rgb(104,228,194)" x1="-16.785945963495994" x2="-48.537423299692605" y1="73.12095632777417" y2="60.49886503843675"></line><line fill="none" stroke-width="1.5" stroke="rgb(104,228,194)" x1="-13.581519834907679" x2="-52.42801482762465" y1="78.25214822140089" y2="62.29066302845591"></line><line fill="none" stroke-width="1.5" stroke="rgb(104,228,194)" x1="-9.84643396537567" x2="-57.09559920247193" y1="84.23307633977994" y2="64.4403022905199"></line><line fill="none" stroke-width="1.5" stroke="rgb(104,228,194)" x1="-6.471048338886111" x2="-62.135089615537034" y1="89.63802270755203" y2="66.76122154611969"></line><line fill="none" stroke-width="1.5" stroke="rgb(104,228,194)" x1="-3.101461058048148" x2="-66.24929155773323" y1="95.03368428515888" y2="68.65600251133665"></line><line fill="none" stroke-width="1.5" stroke="rgb(104,228,194)" x1="-87.57820944312977" x2="-68.7096235306168" y1="168.0365783371945" y2="138.1708120445861"></line><line fill="none" stroke-width="1.5" stroke="rgb(104,228,194)" x1="-74.83347697545341" x2="-89.6209565820732" y1="162.733707808727" y2="122.97784041901363"></line><line fill="none" stroke-width="1.5" stroke="rgb(104,228,194)" x1="-61.778528076613625" x2="-109.75251492155449" y1="157.30176139934667" y2="108.35140824093715"></line><polygon fill="none" points="100.0,-173.20508 49.44272,-152.16904 129.44272,-94.04564" stroke-width="1.5" stroke="rgb(104,228,194)"></polygon><polygon fill="none" points="-173.72826804150552,-92.29786932603768 -196.1232228235424,-8.615532874675353 -162.57155022430513,-8.188655075046968" stroke-width="1.5" stroke="rgb(104,228,194)"></polygon><polygon fill="none" points="-174.08643235258864,-87.02516004842498 -192.70768977662925,-16.20602258064002 -164.29640400126263,-13.68115236360897" stroke-width="1.5" stroke="rgb(104,228,194)"></polygon><polygon fill="none" points="-174.5574020865353,-80.09178782564425 -189.7072854165917,-22.8739534997039 -166.70369243607405,-21.346744298196665" stroke-width="1.5" stroke="rgb(104,228,194)"></polygon><polygon fill="none" points="-174.99803721141674,-73.60498598886066 -187.0786436575787,-28.715699996781314 -169.7639903575809,-31.091731531675393" stroke-width="1.5" stroke="rgb(104,228,194)"></polygon><polygon fill="none" points="-175.537059274814,-65.6697826574125 -182.9523748049936,-37.88568922522587 -171.55298626843006,-36.78847830572363" stroke-width="1.5" stroke="rgb(104,228,194)"></polygon><polygon fill="none" points="-175.95311972361822,-59.54475645973419 -179.6217162845399,-45.287558528301716 -174.0131060378847,-44.62230244999508" stroke-width="1.5" stroke="rgb(104,228,194)"></polygon><polygon fill="none" points="-128.04292320869274,-78.50745075255493 -150.02988343326896,-6.916906124794059 -105.63122313347363,-6.168135847183189" stroke-width="1.5" stroke="rgb(104,228,194)"></polygon><polygon fill="none" points="-126.32026960959857,-59.38542910578086 -141.15630975508859,-13.073070469775388 -111.42841789793249,-12.518068000857973" stroke-width="1.5" stroke="rgb(104,228,194)"></polygon><polygon fill="none" points="-124.91685756914647,-43.80709377999055 -132.33206485314827,-19.19501229466681 -117.07313400644323,-18.700983319754307" stroke-width="1.5" stroke="rgb(104,228,194)"></polygon><polygon fill="none" points="97.78806325203179,-2.584165960565889 71.75792278495807,-64.55820440489214 62.42994166156226,-3.3111483602117184" stroke-width="1.5" stroke="rgb(104,228,194)"></polygon><polygon fill="none" points="94.73321152666125,-6.153094344494513 72.83950189832008,-58.204018851053654 64.17513244925722,-5.68922422365347" stroke-width="1.5" stroke="rgb(104,228,194)"></polygon><polygon fill="none" points="91.79491152960043,-9.585857438335273 73.72026927329841,-53.02958522780895 67.02299178081473,-9.569846094113418" stroke-width="1.5" stroke="rgb(104,228,194)"></polygon><polygon fill="none" points="89.25840342384812,-12.54921428459477 74.74403318899932,-47.01505905647133 69.4383998505328,-12.861190325047424" stroke-width="1.5" stroke="rgb(104,228,194)"></polygon><polygon fill="none" points="86.91998609579153,-15.281145234388875 75.48696700564605,-42.65038589768538 71.62681566327673,-15.843224644821895" stroke-width="1.5" stroke="rgb(104,228,194)"></polygon><polygon fill="none" points="83.60242932528062,-19.156987202507576 76.67238560017682,-35.68615219941692 73.71420964135133,-18.68760204570726" stroke-width="1.5" stroke="rgb(104,228,194)"></polygon><polygon fill="none" points="80.875933753142,-22.34230299222269 77.33282141014779,-31.80614783255144 76.07210264076528,-21.900573641718605" stroke-width="1.5" stroke="rgb(104,228,194)"></polygon><polygon fill="none" points="-129.44272,-94.04564 -49.44272,-152.16904 0.0,-100.0 -70.71068,-70.71068" stroke-width="1.5" stroke="rgb(104,228,194)"></polygon><polygon fill="none" points="70.71068,70.71068 129.44272,94.04564 160.0,0.0 100.0,0.0" stroke-width="1.5" stroke="rgb(104,228,194)"></polygon><polygon fill="none" points="0.0,100.0 -49.44272,152.16904 0.0,200.0 49.44272,152.16904" stroke-width="1.5" stroke="rgb(104,228,194)"></polygon><polygon fill="none" points="-60.0,0.0 -70.71068,-70.71068 0.0,-100.0 -30.0,-51.96152" stroke-width="1.5" stroke="rgb(104,228,194)"></polygon><polygon fill="none" points="-124.71812252914069,-94.69254266698057 -54.55667289338009,-144.6754174049364 -10.429998083148572,-100.01688620581609 -72.63713352336767,-74.69155075105209" stroke-width="1.5" stroke="rgb(104,228,194)"></polygon><polygon fill="none" points="-118.41780848753018,-95.55519759806408 -57.51452435180542,-140.34119547608722 -21.406467798749844,-100.03465715124428 -74.509702865227,-78.56107194056669" stroke-width="1.5" stroke="rgb(104,228,194)"></polygon><polygon fill="none" points="-113.10632575973787,-96.28245924506028 -62.131334310459394,-133.5760555610557 -31.546877415829766,-100.05107451225321 -76.16424297738463,-81.98005241823422" stroke-width="1.5" stroke="rgb(104,228,194)"></polygon><polygon fill="none" points="-107.27361310259771,-97.08108901209154 -66.65753777514655,-126.9436838592245 -44.57907711793066,-100.07217369220048 -77.9441345544287,-85.65806210174851" stroke-width="1.5" stroke="rgb(104,228,194)"></polygon><polygon fill="none" points="-100.56774368491446,-97.99927361085287 -71.12947831293513,-120.39082513192676 -54.262715591387696,-100.08785153902345 -79.85732219213128,-89.6115178900702" stroke-width="1.5" stroke="rgb(104,228,194)"></polygon><polygon fill="none" points="-95.93255244580214,-98.63393571698388 -76.22014288540836,-112.93133288474833 -63.84715239186742,-100.10336877796769 -81.19050142966807,-92.36643072226859" stroke-width="1.5" stroke="rgb(104,228,194)"></polygon><polygon fill="none" points="-91.49618379152713,-99.24137453200784 -80.65571179797996,-106.43177051050245 -72.4611152861826,-100.11731481603653 -83.21169473203344,-96.54307194819083" stroke-width="1.5" stroke="rgb(104,228,194)"></polygon><line fill="none" stroke-width="1.5" stroke="rgb(104,228,194)" x1="78.04974672099529" x2="108.14745170975715" y1="73.62658019411353" y2="0.0"></line><line fill="none" stroke-width="1.5" stroke="rgb(104,228,194)" x1="85.39643717954654" x2="114.90960342311254" y1="76.54551053753822" y2="0.0"></line><line fill="none" stroke-width="1.5" stroke="rgb(104,228,194)" x1="93.10158942157446" x2="122.47255723221527" y1="79.60686214978475" y2="0.0"></line><line fill="none" stroke-width="1.5" stroke="rgb(104,228,194)" x1="100.56813220595866" x2="129.5967432086613" y1="82.57341129416173" y2="0.0"></line><line fill="none" stroke-width="1.5" stroke="rgb(104,228,194)" x1="107.33679595100834" x2="138.0064268594629" y1="85.26268452560262" y2="0.0"></line><line fill="none" stroke-width="1.5" stroke="rgb(104,228,194)" x1="114.07236881440531" x2="144.9442664455731" y1="87.93881034337585" y2="0.0"></line><line fill="none" stroke-width="1.5" stroke="rgb(104,228,194)" x1="122.01086220214883" x2="152.76435581881466" y1="91.09287125846309" y2="0.0"></line><line fill="none" stroke-width="1.5" stroke="rgb(104,228,194)" x1="155.9344158234496" x2="96.37096152652202" y1="12.51258106910224" y2="8.761273893400586"></line><line fill="none" stroke-width="1.5" stroke="rgb(104,228,194)" x1="152.34253100624332" x2="92.56390082057845" y1="23.567265467324546" y2="17.952331474448602"></line><line fill="none" stroke-width="1.5" stroke="rgb(104,228,194)" x1="148.25138866458647" x2="89.19190466738691" y1="36.15850647777461" y2="26.093050312651272"></line><line fill="none" stroke-width="1.5" stroke="rgb(104,228,194)" x1="144.54732567181725" x2="85.47335826614784" y1="47.55843978856673" y2="35.070415459004096"></line><line fill="none" stroke-width="1.5" stroke="rgb(104,228,194)" x1="140.70742389345622" x2="81.34222087167014" y1="59.37644187944947" y2="45.04386337607758"></line><line fill="none" stroke-width="1.5" stroke="rgb(104,228,194)" x1="137.3763402477251" x2="78.16842872317409" y1="69.62846283269334" y2="52.706075418445145"></line><line fill="none" stroke-width="1.5" stroke="rgb(104,228,194)" x1="133.0006686174694" x2="74.48254545972361" y1="83.09539492110991" y2="61.60458477462789"></line><polygon fill="none" points="-0.1122059471986179,110.83625112566604 -41.9094549736861,155.255659172024 -0.09588742068490487,196.42041224302488 41.11810446812879,155.47839739227567" stroke-width="1.5" stroke="rgb(104,228,194)"></polygon><polygon fill="none" points="-0.2071634551784227,120.00674010977646 -34.70581140448947,158.20722549329795 -0.20077122295570937,192.50497920882842 34.00733560751307,158.3052068608683" stroke-width="1.5" stroke="rgb(104,228,194)"></polygon><polygon fill="none" points="-0.3225221251427287,131.14746436250525 -28.33894680471107,160.8159363413991 -0.30158464559253845,188.7414981303728 26.908476739304245,161.1272816404327" stroke-width="1.5" stroke="rgb(104,228,194)"></polygon><polygon fill="none" points="-0.4197589421188157,140.53807683644268 -21.389581098957972,163.66331677801952 -0.43059277245493194,183.92547629801564 21.74209894880883,163.18111940998645" stroke-width="1.5" stroke="rgb(104,228,194)"></polygon><polygon fill="none" points="-0.5354344051045714,151.70939526729654 -15.1074966840999,166.23729043568105 -0.5501296924841382,179.46302551576804 14.653445975107672,165.9991369462632" stroke-width="1.5" stroke="rgb(104,228,194)"></polygon><polygon fill="none" points="-0.6272835511714421,160.57969525858658 -7.5275320200882305,169.34304771029292 -0.6273349648514126,176.58086385404204 5.4159916334601945,169.67138729084834" stroke-width="1.5" stroke="rgb(104,228,194)"></polygon><line fill="none" stroke-width="1.5" stroke="rgb(104,228,194)" x1="-33.11848909611909" x2="-7.759974463308595" y1="-46.560139911350795" y2="-96.78571333082442"></line><line fill="none" stroke-width="1.5" stroke="rgb(104,228,194)" x1="-36.322343357058294" x2="-15.25554720502653" y1="-41.010901880114595" y2="-93.68094544074205"></line><line fill="none" stroke-width="1.5" stroke="rgb(104,228,194)" x1="-40.15147615005749" x2="-23.092246865996067" y1="-34.378649726629995" y2="-90.43487815409183"></line><line fill="none" stroke-width="1.5" stroke="rgb(104,228,194)" x1="-43.38624565040557" x2="-31.14538330044622" y1="-28.775864933181758" y2="-87.09915982039146"></line><line fill="none" stroke-width="1.5" stroke="rgb(104,228,194)" x1="-46.456887361558145" x2="-38.533546468705104" y1="-23.45735779271246" y2="-84.03888243240335"></line><line fill="none" stroke-width="1.5" stroke="rgb(104,228,194)" x1="-49.95313211171725" x2="-46.430847114554226" y1="-17.401684608500474" y2="-80.76771339590094"></line><line fill="none" stroke-width="1.5" stroke="rgb(104,228,194)" x1="-53.309442309337264" x2="-55.28352335395435" y1="-11.588385164661545" y2="-77.10081483104422"></line><line fill="none" stroke-width="1.5" stroke="rgb(104,228,194)" x1="-56.37610876760466" x2="-63.44482999530648" y1="-6.276763363754412" y2="-73.72029093056125"></line></g></svg>