<svg height="550.0" viewBox="-275.0 -275.0 550.0 550.0" width="550.0" xmlns="http://www.w3.org/2000/svg"><g><rect fill="rgb(150,134,169)" height="550.0" transform="rotate(0 0.0 0.0)" width="550.0" x="-275.0" y="-275.0"></rect><polygon fill="none" points="49.44272,152.16904 129.44272,94.04564 70.71068,70.71068" stroke-width="1.5" stroke="rgb(86,67,150)"></polygon><polygon fill="none" points="-49.44272,-152.16904 -129.44272,-94.04564 -70.71068,-70.71068" stroke-width="1.5" stroke="rgb(86,67,150)"></polygon><polygon fill="none" points="-200.0,0.0 -173.20508,100.0 -160.0,0.0" stroke-width="1.5" stroke="rgb(86,67,150)"></polygon><polygon fill="none" points="70.71068,70.71068 100.0,0.0 60.0,0.0" stroke-width="1.5" stroke="rgb(86,67,150)"></polygon><polygon fill="none" points="-70.71068,70.71068 -30.0,51.96152 -60.0,0.0" stroke-width="1.5" stroke="rgb(86,67,150)"></polygon><polygon fill="none" points="-173.20508,100.0 -100.0,173.20508 -129.44272,94.04564" stroke-width="1.5" stroke="rgb(86,67,150)"></polygon><polygon fill="none" points="173.20508,-100.0 100.0,-173.20508 129.44272,-94.04564" stroke-width="1.5" stroke="rgb(86,67,150)"></polygon><polygon fill="none" points="-173.20508,100.0 -129.44272,94.04564 -160.0,0.0" stroke-width="1.5" stroke="rgb(86,67,150)"></polygon><polygon fill="none" points="160.0,0.0 129.44272,-94.04564 100.0,0.0" stroke-width="1.5" stroke="rgb(86,67,150)"></polygon><polygon fill="none" points="70.71068,70.71068 60.0,0.0 30.0,51.96152" stroke-width="1.5" stroke="rgb(86,67,150)"></polygon><polygon fill="none" points="0.0,100.0 30.0,51.96152 -30.0,51.96152" stroke-width="1.5" stroke="rgb(86,67,150)"></polygon><polygon fill="none" points="129.44272,94.04564 100.0,0.0 70.71068,70.71068" stroke-width="1.5" stroke="rgb(86,67,150)"></polygon><polygon fill="none" points="100.0,-173.20508 0.0,-200.0 49.44272,-152.16904" stroke-width="1.5" stroke="rgb(86,67,150)"></polygon><polygon fill="none" points="100.0,173.20508 173.20508,100.0 129.44272,94.04564" stroke-width="1.5" stroke="rgb(86,67,150)"></polygon><polygon fill="none" points="-100.0,-173.20508 -173.20508,-100.0 -129.44272,-94.04564" stroke-width="1.5" stroke="rgb(86,67,150)"></polygon><polygon fill="none" points="173.20508,100.0 200.0,0.0 160.0,0.0" stroke-width="1.5" stroke="rgb(86,67,150)"></polygon><polygon fill="none" points="100.0,173.20508 129.44272,94.04564 49.44272,152.16904" stroke-width="1.5" stroke="rgb(86,67,150)"></polygon><polygon fill="none" points="-100.0,-173.20508 -129.44272,-94.04564 -49.44272,-152.16904" stroke-width="1.5" stroke="rgb(86,67,150)"></polygon><polygon fill="none" points="49.44272,-152.16904 0.0,-100.0 70.71068,-70.71068" stroke-width="1.5" stroke="rgb(86,67,150)"></polygon><polygon fill="none" points="49.44272,152.16904 70.71068,70.71068 0.0,100.0" stroke-width="1.5" stroke="rgb(86,67,150)"></polygon><polygon fill="none" points="0.0,100.0 70.71068,70.71068 30.0,51.96152" stroke-width="1.5" stroke="rgb(86,67,150)"></polygon><polygon fill="none" points="-100.0,173.20508 0.0,200.0 -49.44272,152.16904" stroke-width="1.5" stroke="rgb(86,67,150)"></polygon><polygon fill="none" points="173.20508,100.0 160.0,0.0 129.44272,94.04564" stroke-width="1.5" stroke="rgb(86,67,150)"></polygon><polygon fill="none" points="30.0,51.96152 60.0,0.0 30.0,-51.96152" stroke-width="1.5" stroke="rgb(86,67,150)"></polygon><polygon fill="none" points="-100.0,0.0 -70.71068,70.71068 -60.0,0.0" stroke-width="1.5" stroke="rgb(86,67,150)"></polygon><polygon fill="none" points="-70.71068,-70.71068 -100.0,0.0 -60.0,0.0" stroke-width="1.5" stroke="rgb(86,67,150)"></polygon><polygon fill="none" points="-173.20508,-100.0 -160.0,0.0 -129.44272,-94.04564" stroke-width="1.5" stroke="rgb(86,67,150)"></polygon><polygon fill="none" points="200.0,0.0 173.20508,-100.0 160.0,0.0" stroke-width="1.5" stroke="rgb(86,67,150)"></polygon><polygon fill="none" points="-49.44272,152.16904 0.0,100.0 -70.71068,70.71068" stroke-width="1.5" stroke="rgb(86,67,150)"></polygon><polygon fill="none" points="0.0,-100.0 -30.0,-51.96152 30.0,-51.96152" stroke-width="1.5" stroke="rgb(86,67,150)"></polygon><polygon fill="none" points="0.0,-100.0 -70.71068,-70.71068 -30.0,-51.96152" stroke-width="1.5" stroke="rgb(86,67,150)"></polygon><polygon fill="none" points="160.0,0.0 173.20508,-100.0 129.44272,-94.04564" stroke-width="1.5" stroke="rgb(86,67,150)"></polygon><polygon fill="none" points="-129.44272,-94.04564 -100.0,0.0 -70.71068,-70.71068" stroke-width="1.5" stroke="rgb(86,67,150)"></polygon><polygon fill="none" points="60.0,0.0 70.71068,-70.71068 30.0,-51.96152" stroke-width="1.5" stroke="rgb(86,67,150)"></polygon><polygon fill="none" points="-49.44272,-152.16904 -70.71068,-70.71068 0.0,-100.0" stroke-width="1.5" stroke="rgb(86,67,150)"></polygon><polygon fill="none" points="129.44272,94.04564 160.0,0.0 100.0,0.0" stroke-width="1.5" stroke="rgb(86,67,150)"></polygon><polygon fill="none" points="-129.44272,94.04564 -49.44272,152.16904 -70.71068,70.71068" stroke-width="1.5" stroke="rgb(86,67,150)"></polygon><polygon fill="none" points="-70.71068,-70.71068 -60.0,0.0 -30.0,-51.96152" stroke-width="1.5" stroke="rgb(86,67,150)"></polygon><polygon fill="none" points="0.0,200.0 49.44272,152.16904 -49.44272,152.16904" stroke-width="1.5" stroke="rgb(86,67,150)"></polygon><polygon fill="none" points="70.71068,-70.71068 0.0,-100.0 30.0,-51.96152" stroke-width="1.5" stroke="rgb(86,67,150)"></polygon><polygon fill="none" points="0.0,200.0 100.0,173.20508 49.44272,152.16904" stroke-width="1.5" stroke="rgb(86,67,150)"></polygon><polygon fill="none" points="0.0,-200.0 -100.0,-173.20508 -49.44272,-152.16904" stroke-width="1.5" stroke="rgb(86,67,150)"></polygon><polygon fill="none" points="-60.0,0.0 -30.0,51.96152 -30.0,-51.96152" stroke-width="1.5" stroke="rgb(86,67,150)"></polygon><polygon fill="none" points="-49.44272,152.16904 49.44272,152.16904 0.0,100.0" stroke-width="1.5" stroke="rgb(86,67,150)"></polygon><polygon fill="none" points="-70.71068,70.71068 0.0,100.0 -30.0,51.96152" stroke-width="1.5" stroke="rgb(86,67,150)"></polygon><polygon fill="none" points="-100.0,173.20508 -49.44272,152.16904 -129.44272,94.04564" stroke-width="1.5" stroke="rgb(86,67,150)"></polygon><polygon fill="none" points="100.0,-173.20508 49.44272,-152.16904 129.44272,-94.04564" stroke-width="1.5" stroke="rgb(86,67,150)"></polygon><polygon fill="none" points="-173.20508,-100.0 -200.0,0.0 -160.0,0.0" stroke-width="1.5" stroke="rgb(86,67,150)"></polygon><polygon fill="none" points="-129.44272,-94.04564 -160.0,0.0 -100.0,0.0" stroke-width="1.5" stroke="rgb(86,67,150)"></polygon><polygon fill="none" points="100.0,0.0 70.71068,-70.71068 60.0,0.0" stroke-width="1.5" stroke="rgb(86,67,150)"></polygon><line fill="none" stroke-width="1.5" stroke="rgb(86,67,150)" x1="69.38804983936316" x2="85.75522537466736" y1="137.67790651659027" y2="76.68806149371493"></line><line fill="none" stroke-width="1.5" stroke="rgb(86,67,150)" x1="89.00369148172796" x2="100.0348702196695" y1="123.4263097314159" y2="82.3615397580522"></line><line fill="none" stroke-width="1.5" stroke="rgb(86,67,150)" x1="109.09471013563619" x2="114.79832853409839" y1="108.8293313567438" y2="88.22724305547545"></line><line fill="none" stroke-width="1.5" stroke="rgb(86,67,150)" x1="-77.99594130434987" x2="-118.75299844390561" y1="-73.60520264129939" y2="-101.8121746858583"></line><line fill="none" stroke-width="1.5" stroke="rgb(86,67,150)" x1="-85.93903016764493" x2="-110.10688756841891" y1="-76.76108939525999" y2="-108.09394146177765"></line><line fill="none" stroke-width="1.5" stroke="rgb(86,67,150)" x1="-93.06980819783163" x2="-98.7217829451846" y1="-79.59423507928852" y2="-116.36570352827708"></line><line fill="none" stroke-width="1.5" stroke="rgb(86,67,150)" x1="-100.47999345600432" x2="-88.6520875041773" y1="-82.53839268637843" y2="-123.68176495472571"></line><line fill="none" stroke-width="1.5" stroke="rgb(86,67,150)" x1="-107.31176654930991" x2="-79.90474078379413" y1="-85.25274003692333" y2="-130.03708387173612"></line><line fill="none" stroke-width="1.5" stroke="rgb(86,67,150)" x1="-114.85847927533086" x2="-68.54215569213348" y1="-88.25114168367458" y2="-138.29248454207885"></line><line fill="none" stroke-width="1.5" stroke="rgb(86,67,150)" x1="-122.18099048353292" x2="-60.25960180489621" y1="-91.16046531399168" y2="-144.31011172473742"></line><polygon fill="none" points="-196.50494227617511,4.798456173528583 -173.46477672008783,93.28432159815168 -162.26281437740002,4.765006175856895" stroke-width="1.5" stroke="rgb(86,67,150)"></polygon><polygon fill="none" points="-194.39105569895628,7.700666350902795 -173.80665835041822,84.44343017930484 -164.33566811709736,9.12999561995559" stroke-width="1.5" stroke="rgb(86,67,150)"></polygon><polygon fill="none" points="-191.46705924810493,11.71509756481948 -174.23335136215977,73.40935799957974 -166.11301097062653,12.87270194101607" stroke-width="1.5" stroke="rgb(86,67,150)"></polygon><polygon fill="none" points="-187.55989682617636,17.07934305830005 -174.50336053972077,66.42705298774834 -167.58743243069276,15.977520185588107" stroke-width="1.5" stroke="rgb(86,67,150)"></polygon><polygon fill="none" points="-184.41139961355913,21.401997240585477 -174.77351386502252,59.44102038598199 -169.81694717053557,20.67240440173024" stroke-width="1.5" stroke="rgb(86,67,150)"></polygon><polygon fill="none" points="-181.57431863061572,25.29709993505744 -175.1959593375129,48.51678748975533 -172.19626865732903,25.68274978938267" stroke-width="1.5" stroke="rgb(86,67,150)"></polygon><polygon fill="none" points="-179.1626237510652,28.60817892083792 -175.42168122286748,42.679730151083334 -173.67736626158518,28.801626574776115" stroke-width="1.5" stroke="rgb(86,67,150)"></polygon><line fill="none" stroke-width="1.5" stroke="rgb(86,67,150)" x1="73.68296135644295" x2="64.17622119611127" y1="63.534951559341884" y2="0.0"></line><line fill="none" stroke-width="1.5" stroke="rgb(86,67,150)" x1="77.37385046697372" x2="68.69058829196346" y1="54.624357019257275" y2="0.0"></line><line fill="none" stroke-width="1.5" stroke="rgb(86,67,150)" x1="80.27838352785233" x2="73.0493296435111" y1="47.61219391744079" y2="0.0"></line><line fill="none" stroke-width="1.5" stroke="rgb(86,67,150)" x1="83.58223135895979" x2="78.13610649536068" y1="39.635999682522964" y2="0.0"></line><line fill="none" stroke-width="1.5" stroke="rgb(86,67,150)" x1="87.2985080441913" x2="82.23835372962817" y1="30.664114115333582" y2="0.0"></line><line fill="none" stroke-width="1.5" stroke="rgb(86,67,150)" x1="90.41724742547888" x2="87.1140912432873" y1="23.13481121009086" y2="0.0"></line><line fill="none" stroke-width="1.5" stroke="rgb(86,67,150)" x1="93.3409812886845" x2="91.24946765827134" y1="16.076293270928474" y2="0.0"></line><line fill="none" stroke-width="1.5" stroke="rgb(86,67,150)" x1="96.55449838970362" x2="95.59952102972397" y1="8.318176709498744" y2="0.0"></line><line fill="none" stroke-width="1.5" stroke="rgb(86,67,150)" x1="-62.633518600815066" x2="-53.74098666533209" y1="66.99077122965153" y2="10.84092845864091"></line><line fill="none" stroke-width="1.5" stroke="rgb(86,67,150)" x1="-54.592491195295864" x2="-48.12664552953401" y1="63.28750486528032" y2="20.565251980763744"></line><line fill="none" stroke-width="1.5" stroke="rgb(86,67,150)" x1="-46.570938390514236" x2="-42.18826103336314" y1="59.59320745851041" y2="30.8508350336566"></line><line fill="none" stroke-width="1.5" stroke="rgb(86,67,150)" x1="-37.973758812995555" x2="-36.211057600911495" y1="55.63380720375799" y2="41.203654452500224"></line><line fill="none" stroke-width="1.5" stroke="rgb(86,67,150)" x1="-54.31295667611518" x2="-62.185425912197694" y1="9.850247398250332" y2="14.42793320262672"></line><line fill="none" stroke-width="1.5" stroke="rgb(86,67,150)" x1="-48.023468363574594" x2="-64.23405665949602" y1="20.74396006379911" y2="27.95276029188912"></line><line fill="none" stroke-width="1.5" stroke="rgb(86,67,150)" x1="-41.68356383466532" x2="-66.45755922411811" y1="31.724996172450503" y2="42.63207122125218"></line><line fill="none" stroke-width="1.5" stroke="rgb(86,67,150)" x1="-35.994972962390094" x2="-68.46438122257625" y1="41.57792400298139" y2="55.8808817078996"></line><polygon fill="none" points="-173.20508,100.0 -100.0,173.20508 -129.44272,94.04564" stroke-width="1.5" stroke="rgb(86,67,150)"></polygon><polygon fill="none" points="173.20508,-100.0 100.0,-173.20508 129.44272,-94.04564" stroke-width="1.5" stroke="rgb(86,67,150)"></polygon><line fill="none" stroke-width="1.5" stroke="rgb(86,67,150)" x1="-165.43241521370098" x2="-154.99283021726347" y1="98.94244183787306" y2="15.410483490815338"></line><line fill="none" stroke-width="1.5" stroke="rgb(86,67,150)" x1="-158.40173924636696" x2="-149.70901897422564" y1="97.98583934019945" y2="31.672381821116737"></line><line fill="none" stroke-width="1.5" stroke="rgb(86,67,150)" x1="-151.3587264893241" x2="-144.68130778417927" y1="97.02755828360723" y2="47.14608526091756"></line><line fill="none" stroke-width="1.5" stroke="rgb(86,67,150)" x1="-144.2174521327634" x2="-139.28896212604604" y1="96.05590763183514" y2="63.74201816256097"></line><line fill="none" stroke-width="1.5" stroke="rgb(86,67,150)" x1="-136.36799972687223" x2="-134.45282172480367" y1="94.98790139577288" y2="78.62612735924974"></line><line fill="none" stroke-width="1.5" stroke="rgb(86,67,150)" x1="-154.80610557225498" x2="-162.33832363080637" y1="15.985162837450005" y2="17.70776067109702"></line><line fill="none" stroke-width="1.5" stroke="rgb(86,67,150)" x1="-149.90413442979383" x2="-164.38357724185366" y1="31.07187821582596" y2="33.1961477270977"></line><line fill="none" stroke-width="1.5" stroke="rgb(86,67,150)" x1="-144.342387216287" x2="-166.63412825250347" y1="48.18917547811157" y2="50.23922001600035"></line><line fill="none" stroke-width="1.5" stroke="rgb(86,67,150)" x1="-139.27835926158053" x2="-168.9682414948553" y1="63.77465042287789" y2="67.91509607108297"></line><line fill="none" stroke-width="1.5" stroke="rgb(86,67,150)" x1="-134.81828139289408" x2="-170.9381871078581" y1="77.50135819302656" y2="82.83318738682668"></line><line fill="none" stroke-width="1.5" stroke="rgb(86,67,150)" x1="108.35900205565139" x2="155.8161458000847" y1="0.0" y2="-12.87657876073372"></line><line fill="none" stroke-width="1.5" stroke="rgb(86,67,150)" x1="116.45185957695759" x2="151.14593765608356" y1="0.0" y2="-27.25000099816938"></line><line fill="none" stroke-width="1.5" stroke="rgb(86,67,150)" x1="125.44358656306497" x2="146.58614892320531" y1="0.0" y2="-41.28358724321625"></line><line fill="none" stroke-width="1.5" stroke="rgb(86,67,150)" x1="134.6769011386891" x2="142.66471520203052" y1="0.0" y2="-53.35251884382675"></line><line fill="none" stroke-width="1.5" stroke="rgb(86,67,150)" x1="143.58078208244117" x2="138.3537201765115" y1="0.0" y2="-66.62039681728744"></line><line fill="none" stroke-width="1.5" stroke="rgb(86,67,150)" x1="151.31643912572622" x2="133.78503146754434" y1="0.0" y2="-80.68137437130484"></line><line fill="none" stroke-width="1.5" stroke="rgb(86,67,150)" x1="40.63266668301226" x2="67.95288254514293" y1="56.85835769767077" y2="52.50402564059941"></line><line fill="none" stroke-width="1.5" stroke="rgb(86,67,150)" x1="50.218765825817265" x2="65.29776629013428" y1="61.273201315379495" y2="34.97525023866852"></line><line fill="none" stroke-width="1.5" stroke="rgb(86,67,150)" x1="60.382427223433275" x2="62.62300482725636" y1="65.95403916040598" y2="17.31677940972392"></line><polygon fill="none" points="0.0,100.0 30.0,51.96152 -30.0,51.96152" stroke-width="1.5" stroke="rgb(86,67,150)"></polygon><line fill="none" stroke-width="1.5" stroke="rgb(86,67,150)" x1="85.64020865351374" x2="107.58506021589456" y1="76.6423639378875" y2="24.228124009819396"></line><line fill="none" stroke-width="1.5" stroke="rgb(86,67,150)" x1="100.41016206703983" x2="114.94931351101751" y1="82.51064781794796" y2="47.750948746276364"></line><line fill="none" stroke-width="1.5" stroke="rgb(86,67,150)" x1="115.15747915748113" x2="122.3771282268084" y1="88.36993800885158" y2="71.47680074136417"></line><line fill="none" stroke-width="1.5" stroke="rgb(86,67,150)" x1="12.633485830694339" x2="87.91190269343882" y1="-187.7783460680886" y2="-168.17542253083295"></line><line fill="none" stroke-width="1.5" stroke="rgb(86,67,150)" x1="24.68939888223685" x2="75.12757359419213" y1="-176.1154369451622" y2="-162.85607650465582"></line><line fill="none" stroke-width="1.5" stroke="rgb(86,67,150)" x1="36.69744621566403" x2="62.268951028749534" y1="-164.49883319272877" y2="-157.50581820681293"></line><line fill="none" stroke-width="1.5" stroke="rgb(86,67,150)" x1="121.73324420903614" x2="154.28964227439366" y1="114.77326515284355" y2="118.91543585060634"></line><line fill="none" stroke-width="1.5" stroke="rgb(86,67,150)" x1="114.68753312253568" x2="136.4313502058862" y1="133.71630322403368" y2="136.7737279191138"></line><line fill="none" stroke-width="1.5" stroke="rgb(86,67,150)" x1="107.46068291452833" x2="119.02231852857665" y1="153.1463503753238" y2="154.18275959642335"></line><line fill="none" stroke-width="1.5" stroke="rgb(86,67,150)" x1="-164.20668932911735" x2="-123.62974763345184" y1="-98.7756680528055" y2="-109.6743423997261"></line><line fill="none" stroke-width="1.5" stroke="rgb(86,67,150)" x1="-155.84113129773655" x2="-117.8692445085828" y1="-97.63743984481613" y2="-125.16198142776975"></line><line fill="none" stroke-width="1.5" stroke="rgb(86,67,150)" x1="-146.87056844838082" x2="-111.99457708130956" y1="-96.41689393044003" y2="-140.95656161480537"></line><line fill="none" stroke-width="1.5" stroke="rgb(86,67,150)" x1="-137.6936752330586" x2="-105.61550515912866" y1="-95.16827445040016" y2="-158.1072793773119"></line><polygon fill="none" points="173.20508,100.0 200.0,0.0 160.0,0.0" stroke-width="1.5" stroke="rgb(86,67,150)"></polygon><polygon fill="none" points="100.0,173.20508 129.44272,94.04564 49.44272,152.16904" stroke-width="1.5" stroke="rgb(86,67,150)"></polygon><polygon fill="none" points="-100.0,-173.20508 -129.44272,-94.04564 -49.44272,-152.16904" stroke-width="1.5" stroke="rgb(86,67,150)"></polygon><line fill="none" stroke-width="1.5" stroke="rgb(86,67,150)" x1="16.79732835824023" x2="49.44272" y1="-93.04231877631254" y2="-152.16904"></line><line fill="none" stroke-width="1.5" stroke="rgb(86,67,150)" x1="35.821581681771924" x2="49.44272" y1="-85.16221502880937" y2="-152.16904"></line><line fill="none" stroke-width="1.5" stroke="rgb(86,67,150)" x1="53.635034944792814" x2="49.44272" y1="-77.7836410881295" y2="-152.16904"></line><polygon fill="none" points="48.737009530844425,143.83727450833604 64.24327526671838,82.72599048296189 12.737199527703108,104.37439227262179" stroke-width="1.5" stroke="rgb(86,67,150)"></polygon><polygon fill="none" points="47.85057812790953,133.37186163075557 58.05800139434669,94.21715620375424 23.345535825797732,108.0176597135399" stroke-width="1.5" stroke="rgb(86,67,150)"></polygon><polygon fill="none" points="47.09920843844611,124.50101838456744 52.15721729294704,105.17978928855251 35.12691982875394,112.06379207028215" stroke-width="1.5" stroke="rgb(86,67,150)"></polygon><line fill="none" stroke-width="1.5" stroke="rgb(86,67,150)" x1="62.45636551386604" x2="6.325490947096686" y1="66.9091840101138" y2="89.87110123045633"></line><line fill="none" stroke-width="1.5" stroke="rgb(86,67,150)" x1="54.51462986229587" x2="11.926567880253096" y1="63.25164610730791" y2="80.9021940371883"></line><line fill="none" stroke-width="1.5" stroke="rgb(86,67,150)" x1="45.86838541352836" x2="18.30395452256886" y1="59.26964920187832" y2="70.69019559240276"></line><line fill="none" stroke-width="1.5" stroke="rgb(86,67,150)" x1="38.46328310585446" x2="24.030222539263164" y1="55.85925586309755" y2="61.52082209183776"></line><line fill="none" stroke-width="1.5" stroke="rgb(86,67,150)" x1="-7.68721427076967" x2="-91.54479486430677" y1="192.56337690350392" y2="169.6870083467656"></line><line fill="none" stroke-width="1.5" stroke="rgb(86,67,150)" x1="-16.49402595679139" x2="-82.8528838706315" y1="184.04365351816847" y2="166.07044921056377"></line><line fill="none" stroke-width="1.5" stroke="rgb(86,67,150)" x1="-24.659268583597843" x2="-74.76159926045823" y1="176.1445850431429" y2="162.70380069082802"></line><line fill="none" stroke-width="1.5" stroke="rgb(86,67,150)" x1="-32.37964556179295" x2="-66.71488952993704" y1="168.6758802916681" y2="159.3556990347645"></line><line fill="none" stroke-width="1.5" stroke="rgb(86,67,150)" x1="-41.20442480765247" x2="-57.97857130977348" y1="160.13877506087198" y2="155.7206627925745"></line><line fill="none" stroke-width="1.5" stroke="rgb(86,67,150)" x1="170.97515896666027" x2="134.91626992124372" y1="83.11316951530935" y2="77.19978052261726"></line><line fill="none" stroke-width="1.5" stroke="rgb(86,67,150)" x1="168.87673852983332" x2="139.45014745969814" y1="67.22215836820965" y2="63.245940731399905"></line><line fill="none" stroke-width="1.5" stroke="rgb(86,67,150)" x1="166.56751875250114" x2="144.8098396261027" y1="49.734796646658566" y2="46.750504940307266"></line><line fill="none" stroke-width="1.5" stroke="rgb(86,67,150)" x1="164.56274238289706" x2="149.67797434939348" y1="34.55293743593106" y2="31.767927348672895"></line><line fill="none" stroke-width="1.5" stroke="rgb(86,67,150)" x1="162.26606433261227" x2="155.1549593821566" y1="17.16055225998356" y2="14.91150124587944"></line><line fill="none" stroke-width="1.5" stroke="rgb(86,67,150)" x1="134.58249206750247" x2="137.1262945789651" y1="78.2270430936636" y2="95.09107593444533"></line><line fill="none" stroke-width="1.5" stroke="rgb(86,67,150)" x1="139.28559509162253" x2="143.75691722742005" y1="63.75238082862743" y2="95.99324668105825"></line><line fill="none" stroke-width="1.5" stroke="rgb(86,67,150)" x1="144.96262280607476" x2="151.59112977366593" y1="46.280286678336" y2="97.05917936290342"></line><line fill="none" stroke-width="1.5" stroke="rgb(86,67,150)" x1="149.69964629507382" x2="158.45308931451714" y1="31.70122796047315" y2="97.99282609420096"></line><line fill="none" stroke-width="1.5" stroke="rgb(86,67,150)" x1="155.2442591088761" x2="166.39099234276338" y1="14.636664956307213" y2="99.07286703171422"></line><line fill="none" stroke-width="1.5" stroke="rgb(86,67,150)" x1="37.62966884676902" x2="37.26951796561738" y1="38.746547844054106" y2="-39.37034743164335"></line><line fill="none" stroke-width="1.5" stroke="rgb(86,67,150)" x1="44.80719462923287" x2="44.82493155092197" y1="26.31470925269735" y2="-26.28398800498199"></line><line fill="none" stroke-width="1.5" stroke="rgb(86,67,150)" x1="52.70911438658242" x2="52.72065462526782" y1="12.62818356647388" y2="-12.60819528792347"></line><line fill="none" stroke-width="1.5" stroke="rgb(86,67,150)" x1="37.416132660917484" x2="30.0" y1="-39.116403345291886" y2="-25.10283837804048"></line><line fill="none" stroke-width="1.5" stroke="rgb(86,67,150)" x1="45.29049553102581" x2="30.0" y1="-25.47760758504098" y2="-0.9373835578302163"></line><line fill="none" stroke-width="1.5" stroke="rgb(86,67,150)" x1="52.65416166981609" x2="30.0" y1="-12.723364458288248" y2="25.98563249407087"></line><line fill="none" stroke-width="1.5" stroke="rgb(86,67,150)" x1="-96.74627141069175" x2="-61.11207766174323" y1="7.855195681735882" y2="7.34181018455552"></line><line fill="none" stroke-width="1.5" stroke="rgb(86,67,150)" x1="-93.65083199652922" x2="-62.30615055841278" y1="15.328247490391503" y2="15.224943580228746"></line><line fill="none" stroke-width="1.5" stroke="rgb(86,67,150)" x1="-90.20800571774082" x2="-63.50296170931291" y1="23.639965378285464" y2="23.126154618758733"></line><line fill="none" stroke-width="1.5" stroke="rgb(86,67,150)" x1="-86.89143550982806" x2="-64.87921531620341" y1="31.646874147805466" y2="32.21202433379399"></line><line fill="none" stroke-width="1.5" stroke="rgb(86,67,150)" x1="-83.41134570072003" x2="-65.88239081737558" y1="40.0485541559005" y2="38.83487484574228"></line><line fill="none" stroke-width="1.5" stroke="rgb(86,67,150)" x1="-80.31366386225882" x2="-67.13454104805444" y1="47.527019655705864" y2="47.1014281921885"></line><line fill="none" stroke-width="1.5" stroke="rgb(86,67,150)" x1="-77.08879213834395" x2="-68.21648234710997" y1="55.31254870170226" y2="54.2442815393599"></line><line fill="none" stroke-width="1.5" stroke="rgb(86,67,150)" x1="-74.01817779375533" x2="-69.45898255866922" y1="62.725667490757985" y2="62.44712655761033"></line><line fill="none" stroke-width="1.5" stroke="rgb(86,67,150)" x1="-92.84054751306181" x2="-69.04436964579729" y1="0.0" y2="-59.70989928375275"></line><line fill="none" stroke-width="1.5" stroke="rgb(86,67,150)" x1="-86.8715249280388" x2="-67.17334545023186" y1="0.0" y2="-47.35761043998696"></line><line fill="none" stroke-width="1.5" stroke="rgb(86,67,150)" x1="-80.39728377538496" x2="-65.28663701357068" y1="0.0" y2="-34.90177602114562"></line><line fill="none" stroke-width="1.5" stroke="rgb(86,67,150)" x1="-72.83407451126197" x2="-63.46980142384605" y1="0.0" y2="-22.907234187265015"></line><line fill="none" stroke-width="1.5" stroke="rgb(86,67,150)" x1="-66.33008234772291" x2="-61.74480814452064" y1="0.0" y2="-11.519024836320149"></line><line fill="none" stroke-width="1.5" stroke="rgb(86,67,150)" x1="-162.01192515339815" x2="-166.41388490654384" y1="-15.235995837004223" y2="-99.07598182235346"></line><line fill="none" stroke-width="1.5" stroke="rgb(86,67,150)" x1="-163.6877739890463" x2="-160.19906339067435" y1="-27.92693806229412" y2="-98.23038549387826"></line><line fill="none" stroke-width="1.5" stroke="rgb(86,67,150)" x1="-165.56360048990226" x2="-154.2520661512278" y1="-42.13228000044303" y2="-97.42122966884172"></line><line fill="none" stroke-width="1.5" stroke="rgb(86,67,150)" x1="-167.4072412335952" x2="-148.38089836402588" y1="-56.09388421240556" y2="-96.62239129318722"></line><line fill="none" stroke-width="1.5" stroke="rgb(86,67,150)" x1="-169.30724113967605" x2="-141.42674943776242" y1="-70.48228758340692" y2="-95.67620115969704"></line><line fill="none" stroke-width="1.5" stroke="rgb(86,67,150)" x1="-171.217127668452" x2="-135.95765021643888" y1="-84.94556080827431" y2="-94.93206873211102"></line><line fill="none" stroke-width="1.5" stroke="rgb(86,67,150)" x1="164.3476643081608" x2="173.20508" y1="0.0" y2="-100.0"></line><line fill="none" stroke-width="1.5" stroke="rgb(86,67,150)" x1="168.88300222293952" x2="173.20508" y1="0.0" y2="-100.0"></line><line fill="none" stroke-width="1.5" stroke="rgb(86,67,150)" x1="173.25360544518136" x2="173.20508" y1="0.0" y2="-100.0"></line><line fill="none" stroke-width="1.5" stroke="rgb(86,67,150)" x1="177.32490050267137" x2="173.20508" y1="0.0" y2="-100.0"></line><line fill="none" stroke-width="1.5" stroke="rgb(86,67,150)" x1="182.4182033283171" x2="173.20508" y1="0.0" y2="-100.0"></line><line fill="none" stroke-width="1.5" stroke="rgb(86,67,150)" x1="186.78918722228167" x2="173.20508" y1="0.0" y2="-100.0"></line><line fill="none" stroke-width="1.5" stroke="rgb(86,67,150)" x1="191.58025299889107" x2="173.20508" y1="0.0" y2="-100.0"></line><line fill="none" stroke-width="1.5" stroke="rgb(86,67,150)" x1="196.02946989579988" x2="173.20508" y1="0.0" y2="-100.0"></line><line fill="none" stroke-width="1.5" stroke="rgb(86,67,150)" x1="-43.36768820675026" x2="-70.71068" y1="145.7590236376227" y2="70.71068"></line><line fill="none" stroke-width="1.5" stroke="rgb(86,67,150)" x1="-38.50575060680658" x2="-70.71068" y1="140.62899419035693" y2="70.71068"></line><line fill="none" stroke-width="1.5" stroke="rgb(86,67,150)" x1="-32.531055840481145" x2="-70.71068" y1="134.3248490919029" y2="70.71068"></line><line fill="none" stroke-width="1.5" stroke="rgb(86,67,150)" x1="-27.175782287896027" x2="-70.71068" y1="128.67428067999168" y2="70.71068"></line><line fill="none" stroke-width="1.5" stroke="rgb(86,67,150)" x1="-21.907348456715894" x2="-70.71068" y1="123.11534041402892" y2="70.71068"></line><line fill="none" stroke-width="1.5" stroke="rgb(86,67,150)" x1="-16.59043999855902" x2="-70.71068" y1="117.50525258421449" y2="70.71068"></line><line fill="none" stroke-width="1.5" stroke="rgb(86,67,150)" x1="-11.23803586853279" x2="-70.71068" y1="111.85771181754163" y2="70.71068"></line><line fill="none" stroke-width="1.5" stroke="rgb(86,67,150)" x1="-5.320926611727593" x2="-70.71068" y1="105.61432754818138" y2="70.71068"></line><line fill="none" stroke-width="1.5" stroke="rgb(86,67,150)" x1="26.330483868574824" x2="-3.6622556546338103" y1="-57.83745358448297" y2="-94.13569363955843"></line><line fill="none" stroke-width="1.5" stroke="rgb(86,67,150)" x1="22.194007882273567" x2="-7.172701835469594" y1="-64.46112072404695" y2="-88.51447715233272"></line><line fill="none" stroke-width="1.5" stroke="rgb(86,67,150)" x1="18.625326798344865" x2="-11.533411409689334" y1="-70.17558774996057" y2="-81.53174866373617"></line><line fill="none" stroke-width="1.5" stroke="rgb(86,67,150)" x1="14.99789984502052" x2="-15.092179565046749" y1="-75.98412351602636" y2="-75.83315503814009"></line><line fill="none" stroke-width="1.5" stroke="rgb(86,67,150)" x1="11.341714257126917" x2="-19.102954879353927" y1="-81.83870998404376" y2="-69.41077020101558"></line><line fill="none" stroke-width="1.5" stroke="rgb(86,67,150)" x1="7.368239814461777" x2="-22.19106978893267" y1="-88.20136558338453" y2="-64.46582544187427"></line><line fill="none" stroke-width="1.5" stroke="rgb(86,67,150)" x1="4.111258222353403" x2="-25.895296716271176" y1="-93.41671362777225" y2="-58.53431121155978"></line><polygon fill="none" points="0.0,-100.0 -70.71068,-70.71068 -30.0,-51.96152" stroke-width="1.5" stroke="rgb(86,67,150)"></polygon><line fill="none" stroke-width="1.5" stroke="rgb(86,67,150)" x1="161.40916502622352" x2="134.3902649426705" y1="-10.671387271504772" y2="-94.7188083465279"></line><line fill="none" stroke-width="1.5" stroke="rgb(86,67,150)" x1="163.08964951175633" x2="138.90241931808734" y1="-23.397434551386475" y2="-95.3327376707447"></line><line fill="none" stroke-width="1.5" stroke="rgb(86,67,150)" x1="164.3740569056467" x2="144.30473850727333" y1="-33.124051703758546" y2="-96.06778392427941"></line><line fill="none" stroke-width="1.5" stroke="rgb(86,67,150)" x1="165.99111783512964" x2="149.0805180057445" y1="-45.36980227165185" y2="-96.71758240991612"></line><line fill="none" stroke-width="1.5" stroke="rgb(86,67,150)" x1="167.4041093839797" x2="154.0061680849696" y1="-56.07016720304093" y2="-97.38777247277001"></line><line fill="none" stroke-width="1.5" stroke="rgb(86,67,150)" x1="168.89104606331867" x2="158.91434729293286" y1="-67.3305070909504" y2="-98.05558542719747"></line><line fill="none" stroke-width="1.5" stroke="rgb(86,67,150)" x1="170.13792915875172" x2="163.21908563290475" y1="-76.77295857537175" y2="-98.64129346821389"></line><line fill="none" stroke-width="1.5" stroke="rgb(86,67,150)" x1="171.74475941488936" x2="168.19308024223102" y1="-88.9412338474095" y2="-99.31806134783228"></line><polygon fill="none" points="-129.44272,-94.04564 -100.0,0.0 -70.71068,-70.71068" stroke-width="1.5" stroke="rgb(86,67,150)"></polygon><polygon fill="none" points="60.11968134159183,-8.499135055359616 69.18221599290419,-66.89546773734561 35.27063796048361,-50.86344555585837" stroke-width="1.5" stroke="rgb(86,67,150)"></polygon><polygon fill="none" points="60.20458478904902,-14.528528250710906 67.49946235120882,-62.695128651207575 40.57418157456105,-49.75851445610251" stroke-width="1.5" stroke="rgb(86,67,150)"></polygon><polygon fill="none" points="60.307804940529905,-21.858676761768205 65.51252280021863,-57.73550791349266 45.18456409410849,-48.797995339394" stroke-width="1.5" stroke="rgb(86,67,150)"></polygon><polygon fill="none" points="60.439707022911996,-31.225664107815227 64.05317752641135,-54.09282080715669 50.680319297558725,-47.653019209694804" stroke-width="1.5" stroke="rgb(86,67,150)"></polygon><polygon fill="none" points="60.53755324489204,-38.174184605698734 62.22875920055577,-49.5388710110136 54.8869432985675,-46.77661844410921" stroke-width="1.5" stroke="rgb(86,67,150)"></polygon><polygon fill="none" points="-47.797738040476716,-141.41313495853743 -63.32515220077958,-79.5603225220795 -10.413780447768245,-101.20002367112686" stroke-width="1.5" stroke="rgb(86,67,150)"></polygon><polygon fill="none" points="-45.69368625690738,-127.65554022295606 -56.17833404223154,-88.12393739612412 -20.321924308294516,-102.34178071403723" stroke-width="1.5" stroke="rgb(86,67,150)"></polygon><polygon fill="none" points="-44.130594404597396,-117.43507682633305 -49.093577756781464,-96.61318715162477 -31.560300760383775,-103.63682604701542" stroke-width="1.5" stroke="rgb(86,67,150)"></polygon><line fill="none" stroke-width="1.5" stroke="rgb(86,67,150)" x1="114.93592265379688" x2="152.17441280651022" y1="0.0" y2="24.084680065572208"></line><line fill="none" stroke-width="1.5" stroke="rgb(86,67,150)" x1="130.0599606995898" x2="144.52169026078977" y1="0.0" y2="47.63733746840607"></line><line fill="none" stroke-width="1.5" stroke="rgb(86,67,150)" x1="145.33396822395025" x2="136.7869477064135" y1="0.0" y2="71.44242649312423"></line><polygon fill="none" points="-125.10238931037904,95.32452305936273 -56.52138128909511,144.61906508751358 -73.78948134367585,75.12982176117025" stroke-width="1.5" stroke="rgb(86,67,150)"></polygon><polygon fill="none" points="-119.34313071651383,97.02149659716837 -61.35943622606864,139.45888450655423 -77.77838956868136,80.85527970810115" stroke-width="1.5" stroke="rgb(86,67,150)"></polygon><polygon fill="none" points="-114.07516803969604,98.5737091111593 -67.72357341350242,132.67101261237923 -80.8501594814207,85.26432811582991" stroke-width="1.5" stroke="rgb(86,67,150)"></polygon><polygon fill="none" points="-108.88782753429705,100.10216619044832 -75.04468141628185,124.86245321419243 -83.54857778304743,89.13748829844383" stroke-width="1.5" stroke="rgb(86,67,150)"></polygon><polygon fill="none" points="-103.41516063651434,101.71469508725016 -80.38610123534191,119.16539289054359 -87.27162957831604,94.48135065015953" stroke-width="1.5" stroke="rgb(86,67,150)"></polygon><polygon fill="none" points="-98.95396607781923,103.02919225554406 -87.36326464645832,111.72367847984589 -90.3841771594268,98.94892906466328" stroke-width="1.5" stroke="rgb(86,67,150)"></polygon><line fill="none" stroke-width="1.5" stroke="rgb(86,67,150)" x1="-39.706157232480365" x2="-62.60946272797446" y1="-56.431657089478364" y2="-17.227376011158853"></line><line fill="none" stroke-width="1.5" stroke="rgb(86,67,150)" x1="-50.70057638128637" x2="-65.28228354420051" y1="-61.4950974405989" y2="-34.87303491172529"></line><line fill="none" stroke-width="1.5" stroke="rgb(86,67,150)" x1="-60.16619484276086" x2="-68.0051009872502" y1="-65.8544541121468" y2="-52.848765853691894"></line><line fill="none" stroke-width="1.5" stroke="rgb(86,67,150)" x1="11.925292557391836" x2="24.58841322033583" y1="188.46345334720405" y2="152.16903686523438"></line><line fill="none" stroke-width="1.5" stroke="rgb(86,67,150)" x1="24.317556438088218" x2="-1.2111237293608852" y1="176.47515790661998" y2="152.16903686523438"></line><line fill="none" stroke-width="1.5" stroke="rgb(86,67,150)" x1="36.81884045811542" x2="-25.758613535028672" y1="164.38139621290782" y2="152.16903686523438"></line><line fill="none" stroke-width="1.5" stroke="rgb(86,67,150)" x1="58.25479955975613" x2="25.203750175609475" y1="-75.8700719279709" y2="-59.641672673835764"></line><line fill="none" stroke-width="1.5" stroke="rgb(86,67,150)" x1="47.18984028782206" x2="19.677226243008676" y1="-80.45332812951054" y2="-68.49119944242071"></line><line fill="none" stroke-width="1.5" stroke="rgb(86,67,150)" x1="35.096901414761106" x2="15.092456535586912" y1="-85.46238742405129" y2="-75.83271153002555"></line><line fill="none" stroke-width="1.5" stroke="rgb(86,67,150)" x1="24.31182621681431" x2="9.96301673342787" y1="-89.92971184615202" y2="-84.04639437852981"></line><line fill="none" stroke-width="1.5" stroke="rgb(86,67,150)" x1="11.349295751582503" x2="5.111383889233712" y1="-95.2989677722098" y2="-91.81522977120257"></line><line fill="none" stroke-width="1.5" stroke="rgb(86,67,150)" x1="25.19455589567711" x2="36.80029632109888" y1="-59.656395314571895" y2="-55.09337325708229"></line><line fill="none" stroke-width="1.5" stroke="rgb(86,67,150)" x1="19.722580757846366" x2="44.039036372523874" y1="-68.41857404569262" y2="-58.4271490547458"></line><line fill="none" stroke-width="1.5" stroke="rgb(86,67,150)" x1="15.044674692409833" x2="50.17454279618628" y1="-75.90922376545686" y2="-61.25283455751338"></line><line fill="none" stroke-width="1.5" stroke="rgb(86,67,150)" x1="10.31689905977628" x2="56.65069898089889" y1="-83.47972875685836" y2="-64.23540508734385"></line><line fill="none" stroke-width="1.5" stroke="rgb(86,67,150)" x1="4.730378784722113" x2="63.591032028371906" y1="-92.42532662638006" y2="-67.43175060839"></line><polygon fill="none" points="5.041506501476602,197.54578522309043 91.90219726973336,174.14436397200402 48.42149922120429,155.5335148701725" stroke-width="1.5" stroke="rgb(86,67,150)"></polygon><polygon fill="none" points="9.70699910439688,195.2746147139786 85.35896357776915,174.9033311888183 47.19425300021363,159.5767629552898" stroke-width="1.5" stroke="rgb(86,67,150)"></polygon><polygon fill="none" points="16.03036805368688,192.19638690436386 76.80395251705818,175.89564985573944 46.46813583907506,161.96900647670347" stroke-width="1.5" stroke="rgb(86,67,150)"></polygon><polygon fill="none" points="19.888564980050237,190.3182094377406 70.85296173358422,176.58592122993286 45.10264633626854,166.46770667478884" stroke-width="1.5" stroke="rgb(86,67,150)"></polygon><polygon fill="none" points="25.669263580774444,187.5041545669192 63.1296450153085,177.48176944049638 44.18576438651397,169.48843806855206" stroke-width="1.5" stroke="rgb(86,67,150)"></polygon><polygon fill="none" points="30.049101681576325,185.37204120272713 55.50859062609814,178.36575596937016 43.07354207917663,173.1527318650621" stroke-width="1.5" stroke="rgb(86,67,150)"></polygon><polygon fill="none" points="34.98558478103652,182.96895201398738 47.138889055162196,179.33658009180076 41.89587179172347,177.03264858690852" stroke-width="1.5" stroke="rgb(86,67,150)"></polygon><polygon fill="none" points="-10.493728830541926,-195.8276237939206 -96.1232748103151,-173.2089799370847 -52.21045581603017,-155.43313534570817" stroke-width="1.5" stroke="rgb(86,67,150)"></polygon><polygon fill="none" points="-17.701465945258235,-192.96177969572076 -90.42114850901989,-173.2147189627371 -54.82193028044105,-158.51294707486161" stroke-width="1.5" stroke="rgb(86,67,150)"></polygon><polygon fill="none" points="-30.16368105456374,-188.0067202848303 -85.90885248277525,-173.21926045853667 -57.14017074924429,-161.24693673630333" stroke-width="1.5" stroke="rgb(86,67,150)"></polygon><polygon fill="none" points="-38.80733534281884,-184.56994599150892 -80.74885657879418,-173.22445384558114 -59.9753757668685,-164.59060246492976" stroke-width="1.5" stroke="rgb(86,67,150)"></polygon><polygon fill="none" points="-47.630070271961074,-181.06196804721915 -76.37856483646837,-173.22885241816485 -62.085728084475036,-167.07942167759512" stroke-width="1.5" stroke="rgb(86,67,150)"></polygon><polygon fill="none" points="-58.89530955342181,-176.582834167091 -71.7032444071414,-173.2335579933239 -64.97813612164214,-170.4905491152798" stroke-width="1.5" stroke="rgb(86,67,150)"></polygon><line fill="none" stroke-width="1.5" stroke="rgb(86,67,150)" x1="-33.660220821688064" x2="-56.23322747777194" y1="-45.62183309418201" y2="6.524241002534206"></line><line fill="none" stroke-width="1.5" stroke="rgb(86,67,150)" x1="-37.38364022608235" x2="-52.187347928067375" y1="-39.17268188995382" y2="13.531909528767288"></line><line fill="none" stroke-width="1.5" stroke="rgb(86,67,150)" x1="-40.98070970599" x2="-48.8961784152851" y1="-32.94237516150386" y2="19.232382003511695"></line><line fill="none" stroke-width="1.5" stroke="rgb(86,67,150)" x1="-45.34283892956354" x2="-45.33841416059265" y1="-25.38694616470391" y2="25.394610088919205"></line><line fill="none" stroke-width="1.5" stroke="rgb(86,67,150)" x1="-48.40818390898849" x2="-41.22359055074946" y1="-20.077613232157415" y2="32.52169322311792"></line><line fill="none" stroke-width="1.5" stroke="rgb(86,67,150)" x1="-52.35169748487179" x2="-37.15930090351024" y1="-13.247247763044975" y2="39.56124897176421"></line><line fill="none" stroke-width="1.5" stroke="rgb(86,67,150)" x1="-56.50486893008373" x2="-33.7517227573553" y1="-6.053744233562284" y2="45.46334710200471"></line><line fill="none" stroke-width="1.5" stroke="rgb(86,67,150)" x1="-6.678054517307654" x2="34.85233318589164" y1="107.04628877273771" y2="152.16903686523438"></line><line fill="none" stroke-width="1.5" stroke="rgb(86,67,150)" x1="-14.262031152728577" x2="21.663547874573737" y1="115.04845306779893" y2="152.16903686523438"></line><line fill="none" stroke-width="1.5" stroke="rgb(86,67,150)" x1="-21.1702865422559" x2="7.306162083193172" y1="122.33763620703095" y2="152.16903686523438"></line><line fill="none" stroke-width="1.5" stroke="rgb(86,67,150)" x1="-28.562146342467972" x2="-7.9570853803683335" y1="130.13709016250485" y2="152.16903686523438"></line><line fill="none" stroke-width="1.5" stroke="rgb(86,67,150)" x1="-35.230750815877364" x2="-22.00666230018967" y1="137.17340780696716" y2="152.16903686523438"></line><line fill="none" stroke-width="1.5" stroke="rgb(86,67,150)" x1="-42.22882685398972" x2="-35.98582764579975" y1="144.55736439047766" y2="152.16903686523438"></line><line fill="none" stroke-width="1.5" stroke="rgb(86,67,150)" x1="-4.040267522519644" x2="-65.84382769192709" y1="93.53038980219239" y2="68.46926758052705"></line><line fill="none" stroke-width="1.5" stroke="rgb(86,67,150)" x1="-7.150530624662306" x2="-60.632569769738765" y1="88.54997952704852" y2="66.06924141396321"></line><line fill="none" stroke-width="1.5" stroke="rgb(86,67,150)" x1="-11.364716962458225" x2="-55.09356440658332" y1="81.80187615159105" y2="63.51827233762778"></line><line fill="none" stroke-width="1.5" stroke="rgb(86,67,150)" x1="-14.84225476001984" x2="-50.03675769185435" y1="76.23335528683026" y2="61.1893781213329"></line><line fill="none" stroke-width="1.5" stroke="rgb(86,67,150)" x1="-18.573411507429057" x2="-45.40747694682068" y1="70.2587188034512" y2="59.057379458755584"></line><line fill="none" stroke-width="1.5" stroke="rgb(86,67,150)" x1="-22.789540694251354" x2="-40.02214540392142" y1="63.50750437759824" y2="56.5771843097977"></line><line fill="none" stroke-width="1.5" stroke="rgb(86,67,150)" x1="-26.388891475901662" x2="-34.97413309948126" y1="57.74392649750542" y2="54.252340327655084"></line><polygon fill="none" points="-100.0,173.20508 -49.44272,152.16904 -129.44272,94.04564" stroke-width="1.5" stroke="rgb(86,67,150)"></polygon><polygon fill="none" points="100.0,-173.20508 49.44272,-152.16904 129.44272,-94.04564" stroke-width="1.5" stroke="rgb(86,67,150)"></polygon><line fill="none" stroke-width="1.5" stroke="rgb(86,67,150)" x1="-165.53797726159436" x2="-173.20508" y1="0.0" y2="-100.0"></line><line fill="none" stroke-width="1.5" stroke="rgb(86,67,150)" x1="-171.78325591132577" x2="-173.20508" y1="0.0" y2="-100.0"></line><line fill="none" stroke-width="1.5" stroke="rgb(86,67,150)" x1="-176.7771423124402" x2="-173.20508" y1="0.0" y2="-100.0"></line><line fill="none" stroke-width="1.5" stroke="rgb(86,67,150)" x1="-182.41474375210402" x2="-173.20508" y1="0.0" y2="-100.0"></line><line fill="none" stroke-width="1.5" stroke="rgb(86,67,150)" x1="-188.47843307539097" x2="-173.20508" y1="0.0" y2="-100.0"></line><line fill="none" stroke-width="1.5" stroke="rgb(86,67,150)" x1="-194.0402083771715" x2="-173.20508" y1="0.0" y2="-100.0"></line><line fill="none" stroke-width="1.5" stroke="rgb(86,67,150)" x1="-106.17330102208277" x2="-153.9343103500572" y1="-19.71869681397467" y2="-18.668272550519873"></line><line fill="none" stroke-width="1.5" stroke="rgb(86,67,150)" x1="-111.48637700526552" x2="-148.0752732247654" y1="-36.68967135210678" y2="-36.70053404935756"></line><line fill="none" stroke-width="1.5" stroke="rgb(86,67,150)" x1="-117.48488794898022" x2="-141.64059632195946" y1="-55.850055433703446" y2="-56.504432555317074"></line><line fill="none" stroke-width="1.5" stroke="rgb(86,67,150)" x1="-123.35707473270818" x2="-135.28005521788026" y1="-74.60693613807166" y2="-76.08016454167986"></line><line fill="none" stroke-width="1.5" stroke="rgb(86,67,150)" x1="68.67171315930612" x2="92.19261864393215" y1="-57.24966356282948" y2="0.0"></line><line fill="none" stroke-width="1.5" stroke="rgb(86,67,150)" x1="66.32586193652327" x2="84.13763470138387" y1="-41.762620713788" y2="0.0"></line><line fill="none" stroke-width="1.5" stroke="rgb(86,67,150)" x1="64.33896255036696" x2="75.64187895858294" y1="-28.64533704665355" y2="0.0"></line><line fill="none" stroke-width="1.5" stroke="rgb(86,67,150)" x1="62.222793803120396" x2="68.20500742257602" y1="-14.674631766575573" y2="0.0"></line><polygon fill="none" points="0.0,-200.0 -49.44272,-152.16904 0.0,-100.0 49.44272,-152.16904" stroke-width="1.5" stroke="rgb(86,67,150)"></polygon><polygon fill="none" points="-160.0,0.0 -129.44272,94.04564 -70.71068,70.71068 -100.0,0.0" stroke-width="1.5" stroke="rgb(86,67,150)"></polygon><polygon fill="none" points="30.0,-51.96152 -30.0,-51.96152 -30.0,51.96152 30.0,51.96152" stroke-width="1.5" stroke="rgb(86,67,150)"></polygon><polygon fill="none" points="49.44272,-152.16904 129.44272,-94.04564 100.0,0.0 70.71068,-70.71068" stroke-width="1.5" stroke="rgb(86,67,150)"></polygon><polygon fill="none" points="0.0,-200.0 -49.44272,-152.16904 0.0,-100.0 49.44272,-152.16904" stroke-width="1.5" stroke="rgb(86,67,150)"></polygon><line fill="none" stroke-width="1.5" stroke="rgb(86,67,150)" x1="-107.17798016892067" x2="-77.20090598271156" y1="0.0" y2="73.28932534423382"></line><line fill="none" stroke-width="1.5" stroke="rgb(86,67,150)" x1="-112.94408188492737" x2="-83.50237688379106" y1="0.0" y2="75.79297712119951"></line><line fill="none" stroke-width="1.5" stroke="rgb(86,67,150)" x1="-120.27029046152175" x2="-90.10197597364535" y1="0.0" y2="78.4150788888589"></line><line fill="none" stroke-width="1.5" stroke="rgb(86,67,150)" x1="-126.79707074330466" x2="-96.36217685488535" y1="0.0" y2="80.90233358010784"></line><line fill="none" stroke-width="1.5" stroke="rgb(86,67,150)" x1="-133.36064026363283" x2="-103.62860649998862" y1="0.0" y2="83.78937531667165"></line><line fill="none" stroke-width="1.5" stroke="rgb(86,67,150)" x1="-139.77758581023852" x2="-110.4205242094709" y1="0.0" y2="86.48788763376209"></line><line fill="none" stroke-width="1.5" stroke="rgb(86,67,150)" x1="-147.13100376940034" x2="-116.5704627171639" y1="0.0" y2="88.93133372987555"></line><line fill="none" stroke-width="1.5" stroke="rgb(86,67,150)" x1="-153.6650894362356" x2="-122.91757649870596" y1="0.0" y2="91.45311998378634"></line><line fill="none" stroke-width="1.5" stroke="rgb(86,67,150)" x1="30.0" x2="-30.0" y1="34.53682467172405" y2="34.560054040601656"></line><line fill="none" stroke-width="1.5" stroke="rgb(86,67,150)" x1="30.0" x2="-30.0" y1="17.48877897342677" y2="16.535532450142156"></line><line fill="none" stroke-width="1.5" stroke="rgb(86,67,150)" x1="30.0" x2="-30.0" y1="0.8930634717814669" y2="0.01820962351201416"></line><line fill="none" stroke-width="1.5" stroke="rgb(86,67,150)" x1="30.0" x2="-30.0" y1="-18.530304899733977" y2="-17.571109506931982"></line><line fill="none" stroke-width="1.5" stroke="rgb(86,67,150)" x1="30.0" x2="-30.0" y1="-34.36304503954271" y2="-34.719224004413334"></line><line fill="none" stroke-width="1.5" stroke="rgb(86,67,150)" x1="63.42733163403766" x2="75.77347692381774" y1="-142.008621461386" y2="-58.48800052863672"></line><line fill="none" stroke-width="1.5" stroke="rgb(86,67,150)" x1="76.98785939299972" x2="80.431841355865" y1="-132.156322090383" y2="-47.24171394812348"></line><line fill="none" stroke-width="1.5" stroke="rgb(86,67,150)" x1="89.24181488401372" x2="85.66572433301538" y1="-123.25330296587828" y2="-34.60600269183727"></line><line fill="none" stroke-width="1.5" stroke="rgb(86,67,150)" x1="103.47385195924305" x2="90.07881420019442" y1="-112.91312355569977" y2="-23.951861291817472"></line><line fill="none" stroke-width="1.5" stroke="rgb(86,67,150)" x1="116.94204440820896" x2="95.17592218265894" y1="-103.12790970915175" y2="-11.646354082407237"></line><line fill="none" stroke-width="1.5" stroke="rgb(86,67,150)" x1="104.80223369507566" x2="66.93584612699217" y1="-15.339247174942088" y2="-85.16865258618303"></line><line fill="none" stroke-width="1.5" stroke="rgb(86,67,150)" x1="109.96677142398298" x2="63.70037336971274" y1="-31.835762296490202" y2="-97.56082868854236"></line><line fill="none" stroke-width="1.5" stroke="rgb(86,67,150)" x1="114.57086502149672" x2="60.02788901618938" y1="-46.542112339648426" y2="-111.62680181090246"></line><line fill="none" stroke-width="1.5" stroke="rgb(86,67,150)" x1="119.76532038975839" x2="56.603330976539496" y1="-63.13419008769214" y2="-124.74319297958465"></line><line fill="none" stroke-width="1.5" stroke="rgb(86,67,150)" x1="124.61218839977766" x2="53.00989516542643" y1="-78.61600774813698" y2="-138.50640247768635"></line></g></svg>