<svg height="421.0" viewBox="-227.33333333333334 -185.5 435.0 421.0" width="435.0" xmlns="http://www.w3.org/2000/svg"><g><rect fill="rgb(137,217,232)" height="421" transform="rotate(0 -9.833333333333332 25.0)" width="435" x="-227.33333333333334" y="-185.5"></rect><polygon fill="none" points="-101.94889,-25.12814 -101.94889,25.12814 -54.05813,-26.03302" stroke-width="1.5" stroke="rgb(72,155,210)"></polygon><polygon fill="none" points="-78.59363,-69.62788 -37.23351,-98.17671 -76.0,-128.0" stroke-width="1.5" stroke="rgb(72,155,210)"></polygon><polygon fill="none" points="-78.59363,69.62788 -118.0,121.0 -80.0,94.0" stroke-width="1.5" stroke="rgb(72,155,210)"></polygon><polygon fill="none" points="-118.0,121.0 -37.23351,98.17671 -80.0,94.0" stroke-width="1.5" stroke="rgb(72,155,210)"></polygon><polygon fill="none" points="-101.94889,-25.12814 -54.05813,-26.03302 -62.0,-44.0" stroke-width="1.5" stroke="rgb(72,155,210)"></polygon><polygon fill="none" points="75.0,-89.0 92.97288,-48.79593 114.0,-134.0" stroke-width="1.5" stroke="rgb(72,155,210)"></polygon><polygon fill="none" points="92.97288,-48.79593 75.0,-89.0 67.0,-54.0" stroke-width="1.5" stroke="rgb(72,155,210)"></polygon><polygon fill="none" points="-13.35126,-58.49567 -37.23351,-98.17671 -62.0,-44.0" stroke-width="1.5" stroke="rgb(72,155,210)"></polygon><polygon fill="none" points="37.40939,46.90989 60.0,0.0 24.0,41.0" stroke-width="1.5" stroke="rgb(72,155,210)"></polygon><polygon fill="none" points="72.0,-101.0 75.0,-89.0 114.0,-134.0" stroke-width="1.5" stroke="rgb(72,155,210)"></polygon><polygon fill="none" points="92.97288,48.79593 59.6468,86.41331 92.0,125.0" stroke-width="1.5" stroke="rgb(72,155,210)"></polygon><polygon fill="none" points="-54.05813,-26.03302 -54.05813,26.03302 24.0,41.0" stroke-width="1.5" stroke="rgb(72,155,210)"></polygon><polygon fill="none" points="-37.23351,98.17671 -78.59363,69.62788 -80.0,94.0" stroke-width="1.5" stroke="rgb(72,155,210)"></polygon><polygon fill="none" points="59.6468,-86.41331 37.40939,-46.90989 67.0,-54.0" stroke-width="1.5" stroke="rgb(72,155,210)"></polygon><polygon fill="none" points="-37.23351,-98.17671 -78.59363,-69.62788 -62.0,-44.0" stroke-width="1.5" stroke="rgb(72,155,210)"></polygon><polygon fill="none" points="-78.59363,69.62788 -101.94889,25.12814 -147.0,36.0" stroke-width="1.5" stroke="rgb(72,155,210)"></polygon><polygon fill="none" points="37.40939,-46.90989 60.0,0.0 67.0,-54.0" stroke-width="1.5" stroke="rgb(72,155,210)"></polygon><polygon fill="none" points="-78.59363,69.62788 -13.35126,58.49567 -54.05813,26.03302" stroke-width="1.5" stroke="rgb(72,155,210)"></polygon><polygon fill="none" points="-78.59363,69.62788 -37.23351,98.17671 -13.35126,58.49567" stroke-width="1.5" stroke="rgb(72,155,210)"></polygon><polygon fill="none" points="92.97288,-48.79593 105.0,0.0 114.0,-134.0" stroke-width="1.5" stroke="rgb(72,155,210)"></polygon><polygon fill="none" points="-54.05813,-26.03302 -13.35126,-58.49567 -62.0,-44.0" stroke-width="1.5" stroke="rgb(72,155,210)"></polygon><polygon fill="none" points="-78.59363,-69.62788 -101.94889,-25.12814 -62.0,-44.0" stroke-width="1.5" stroke="rgb(72,155,210)"></polygon><polygon fill="none" points="105.0,0.0 92.97288,-48.79593 60.0,0.0" stroke-width="1.5" stroke="rgb(72,155,210)"></polygon><polygon fill="none" points="-101.94889,-25.12814 -78.59363,-69.62788 -76.0,-128.0" stroke-width="1.5" stroke="rgb(72,155,210)"></polygon><polygon fill="none" points="59.6468,86.41331 92.97288,48.79593 63.0,38.0" stroke-width="1.5" stroke="rgb(72,155,210)"></polygon><polygon fill="none" points="-13.35126,-58.49567 -54.05813,-26.03302 24.0,41.0" stroke-width="1.5" stroke="rgb(72,155,210)"></polygon><polygon fill="none" points="-13.35126,58.49567 12.65635,104.23443 24.0,41.0" stroke-width="1.5" stroke="rgb(72,155,210)"></polygon><polygon fill="none" points="60.0,0.0 37.40939,46.90989 63.0,38.0" stroke-width="1.5" stroke="rgb(72,155,210)"></polygon><polygon fill="none" points="-37.23351,98.17671 12.65635,104.23443 -13.35126,58.49567" stroke-width="1.5" stroke="rgb(72,155,210)"></polygon><polygon fill="none" points="12.65635,104.23443 37.40939,46.90989 24.0,41.0" stroke-width="1.5" stroke="rgb(72,155,210)"></polygon><polygon fill="none" points="-37.23351,-98.17671 12.65635,-104.23443 -76.0,-128.0" stroke-width="1.5" stroke="rgb(72,155,210)"></polygon><polygon fill="none" points="-78.59363,69.62788 -147.0,36.0 -118.0,121.0" stroke-width="1.5" stroke="rgb(72,155,210)"></polygon><polygon fill="none" points="-101.94889,25.12814 -54.05813,26.03302 -54.05813,-26.03302" stroke-width="1.5" stroke="rgb(72,155,210)"></polygon><polygon fill="none" points="37.40939,46.90989 59.6468,86.41331 63.0,38.0" stroke-width="1.5" stroke="rgb(72,155,210)"></polygon><polygon fill="none" points="37.40939,-46.90989 59.6468,-86.41331 25.0,-67.0" stroke-width="1.5" stroke="rgb(72,155,210)"></polygon><polygon fill="none" points="105.0,0.0 60.0,0.0 63.0,38.0" stroke-width="1.5" stroke="rgb(72,155,210)"></polygon><polygon fill="none" points="60.0,0.0 92.97288,-48.79593 67.0,-54.0" stroke-width="1.5" stroke="rgb(72,155,210)"></polygon><polygon fill="none" points="12.65635,-104.23443 -37.23351,-98.17671 -13.35126,-58.49567" stroke-width="1.5" stroke="rgb(72,155,210)"></polygon><polygon fill="none" points="12.65635,-104.23443 -13.35126,-58.49567 25.0,-67.0" stroke-width="1.5" stroke="rgb(72,155,210)"></polygon><polygon fill="none" points="37.40939,-46.90989 -13.35126,-58.49567 24.0,41.0" stroke-width="1.5" stroke="rgb(72,155,210)"></polygon><polygon fill="none" points="12.65635,104.23443 -37.23351,98.17671 30.0,137.0" stroke-width="1.5" stroke="rgb(72,155,210)"></polygon><polygon fill="none" points="59.6468,86.41331 12.65635,104.23443 30.0,137.0" stroke-width="1.5" stroke="rgb(72,155,210)"></polygon><polygon fill="none" points="92.97288,48.79593 92.0,125.0 138.0,118.0" stroke-width="1.5" stroke="rgb(72,155,210)"></polygon><polygon fill="none" points="-54.05813,26.03302 -13.35126,58.49567 24.0,41.0" stroke-width="1.5" stroke="rgb(72,155,210)"></polygon><polygon fill="none" points="60.0,0.0 37.40939,-46.90989 24.0,41.0" stroke-width="1.5" stroke="rgb(72,155,210)"></polygon><polygon fill="none" points="-101.94889,25.12814 -78.59363,69.62788 -54.05813,26.03302" stroke-width="1.5" stroke="rgb(72,155,210)"></polygon><polygon fill="none" points="30.0,137.0 -37.23351,98.17671 -118.0,121.0" stroke-width="1.5" stroke="rgb(72,155,210)"></polygon><polygon fill="none" points="12.65635,104.23443 59.6468,86.41331 37.40939,46.90989" stroke-width="1.5" stroke="rgb(72,155,210)"></polygon><polygon fill="none" points="112.0,26.0 105.0,0.0 63.0,38.0" stroke-width="1.5" stroke="rgb(72,155,210)"></polygon><polygon fill="none" points="-13.35126,-58.49567 37.40939,-46.90989 25.0,-67.0" stroke-width="1.5" stroke="rgb(72,155,210)"></polygon><polygon fill="none" points="-101.94889,25.12814 -101.94889,-25.12814 -147.0,36.0" stroke-width="1.5" stroke="rgb(72,155,210)"></polygon><polygon fill="none" points="92.0,125.0 59.6468,86.41331 30.0,137.0" stroke-width="1.5" stroke="rgb(72,155,210)"></polygon><polygon fill="none" points="-96.45512869686777,-21.66145602045492 -96.76948098978008,16.78760270451886 -60.14943202368672,-22.43257159673322" stroke-width="1.5" stroke="rgb(72,155,210)"></polygon><polygon fill="none" points="-90.23534540234236,-17.736637287829943 -90.96819301599139,7.4456393109927745 -66.48630179224486,-18.68697393621745" stroke-width="1.5" stroke="rgb(72,155,210)"></polygon><polygon fill="none" points="-85.26427720120256,-14.599784977531149 -84.9345317623199,-2.2705207581865423 -73.52897308899699,-14.524191032932604" stroke-width="1.5" stroke="rgb(72,155,210)"></polygon><line fill="none" stroke-width="1.5" stroke="rgb(72,155,210)" x1="-71.59439905306849" x2="-69.78000590509922" y1="-74.45909633343967" y2="-123.21492220354203"></line><line fill="none" stroke-width="1.5" stroke="rgb(72,155,210)" x1="-64.40710261315509" x2="-63.213632043675155" y1="-79.42013008303249" y2="-118.16337242903319"></line><line fill="none" stroke-width="1.5" stroke="rgb(72,155,210)" x1="-58.006874061737854" x2="-56.405206285524415" y1="-83.8378899617486" y2="-112.92561071622575"></line><line fill="none" stroke-width="1.5" stroke="rgb(72,155,210)" x1="-51.114824430715224" x2="-49.84902081932882" y1="-88.59512950365679" y2="-107.88189893369014"></line><line fill="none" stroke-width="1.5" stroke="rgb(72,155,210)" x1="-44.559818521284896" x2="-43.29752457038726" y1="-93.1197245050362" y2="-102.841794593384"></line><line fill="none" stroke-width="1.5" stroke="rgb(72,155,210)" x1="-69.98156767780802" x2="-76.41047972228839" y1="-123.36998485287705" y2="-118.7617538896019"></line><line fill="none" stroke-width="1.5" stroke="rgb(72,155,210)" x1="-63.25003990966378" x2="-76.8947560331028" y1="-118.19138121304496" y2="-107.86264364903337"></line><line fill="none" stroke-width="1.5" stroke="rgb(72,155,210)" x1="-56.725324552883215" x2="-77.31985798996418" y1="-113.17187956954106" y2="-98.29530990206135"></line><line fill="none" stroke-width="1.5" stroke="rgb(72,155,210)" x1="-49.88374230131457" x2="-77.7589933739245" y1="-107.90861037263609" y2="-88.41214020443755"></line><line fill="none" stroke-width="1.5" stroke="rgb(72,155,210)" x1="-44.066397303593604" x2="-78.1917593001337" y1="-103.43329287904697" y2="-78.67232135972972"></line><line fill="none" stroke-width="1.5" stroke="rgb(72,155,210)" x1="-112.13177054639337" x2="-78.59363" y1="116.8304685461216" y2="69.62788"></line><line fill="none" stroke-width="1.5" stroke="rgb(72,155,210)" x1="-107.17151597475157" x2="-78.59363" y1="113.30607713995506" y2="69.62788"></line><line fill="none" stroke-width="1.5" stroke="rgb(72,155,210)" x1="-101.76320487026985" x2="-78.59363" y1="109.46332977624436" y2="69.62788"></line><line fill="none" stroke-width="1.5" stroke="rgb(72,155,210)" x1="-96.34995854140456" x2="-78.59363" y1="105.61707580573483" y2="69.62788"></line><line fill="none" stroke-width="1.5" stroke="rgb(72,155,210)" x1="-90.71413816981406" x2="-78.59363" y1="101.61267712065737" y2="69.62788"></line><line fill="none" stroke-width="1.5" stroke="rgb(72,155,210)" x1="-85.4478828053682" x2="-78.59363" y1="97.87086409855108" y2="69.62788"></line><line fill="none" stroke-width="1.5" stroke="rgb(72,155,210)" x1="-108.4858470536217" x2="-74.57234328554662" y1="118.3114561508091" y2="94.53008228243537"></line><line fill="none" stroke-width="1.5" stroke="rgb(72,155,210)" x1="-98.36822124652889" x2="-69.15422611265126" y1="115.4523807517291" y2="95.05923290278736"></line><line fill="none" stroke-width="1.5" stroke="rgb(72,155,210)" x1="-87.00296079624131" x2="-63.45419236960424" y1="112.24074422977209" y2="95.61591639539422"></line><line fill="none" stroke-width="1.5" stroke="rgb(72,155,210)" x1="-78.09689323698117" x2="-58.95458993071586" y1="109.72403535491189" y2="96.0553619344804"></line><line fill="none" stroke-width="1.5" stroke="rgb(72,155,210)" x1="-66.55142461531996" x2="-53.006710864322656" y1="106.46147495423955" y2="96.63625079260724"></line><line fill="none" stroke-width="1.5" stroke="rgb(72,155,210)" x1="-57.27534221769648" x2="-48.34891981001516" y1="103.84020594424194" y2="97.09114553688973"></line><line fill="none" stroke-width="1.5" stroke="rgb(72,155,210)" x1="-47.165609357247774" x2="-42.8693497785418" y1="100.98336096265383" y2="97.62629783959764"></line><line fill="none" stroke-width="1.5" stroke="rgb(72,155,210)" x1="-74.8921177882585" x2="-85.00724855022091" y1="94.49885208362586" y2="97.55778186463064"></line><line fill="none" stroke-width="1.5" stroke="rgb(72,155,210)" x1="-69.0240413988322" x2="-89.23069147017367" y1="95.07194715755142" y2="100.55864920249182"></line><line fill="none" stroke-width="1.5" stroke="rgb(72,155,210)" x1="-63.48997140370778" x2="-94.08155199963021" y1="95.61242210069972" y2="104.00531326289514"></line><line fill="none" stroke-width="1.5" stroke="rgb(72,155,210)" x1="-59.06820919930283" x2="-99.25179478637901" y1="96.04426551398262" y2="107.67890682190088"></line><line fill="none" stroke-width="1.5" stroke="rgb(72,155,210)" x1="-52.9055799240881" x2="-104.04270974181091" y1="96.64612756308935" y2="111.08297797444459"></line><line fill="none" stroke-width="1.5" stroke="rgb(72,155,210)" x1="-47.729214042743465" x2="-108.85912595971284" y1="97.15166798052161" y2="114.50516844505913"></line><line fill="none" stroke-width="1.5" stroke="rgb(72,155,210)" x1="-42.828721194766274" x2="-113.20544874538437" y1="97.63026575679523" y2="117.59334516119416"></line><line fill="none" stroke-width="1.5" stroke="rgb(72,155,210)" x1="-96.6953393499885" x2="-61.15907074298985" y1="-25.227403655636465" y2="-42.09755687264442"></line><line fill="none" stroke-width="1.5" stroke="rgb(72,155,210)" x1="-91.30956323854579" x2="-60.146593828544844" y1="-25.329166159951267" y2="-39.80701967057294"></line><line fill="none" stroke-width="1.5" stroke="rgb(72,155,210)" x1="-85.65784687285347" x2="-59.26429038265575" y1="-25.435953519683483" y2="-37.81097527934588"></line><line fill="none" stroke-width="1.5" stroke="rgb(72,155,210)" x1="-80.68766175659802" x2="-58.5342365356533" y1="-25.529863566048707" y2="-36.159366761445845"></line><line fill="none" stroke-width="1.5" stroke="rgb(72,155,210)" x1="-75.45575789326585" x2="-57.551257324264235" y1="-25.628718703813494" y2="-33.93556252410801"></line><line fill="none" stroke-width="1.5" stroke="rgb(72,155,210)" x1="-70.06284207252219" x2="-56.7160953541479" y1="-25.730616110635104" y2="-32.04616679071949"></line><line fill="none" stroke-width="1.5" stroke="rgb(72,155,210)" x1="-64.51105752858618" x2="-55.88996361854784" y1="-25.835515290793523" y2="-30.177200252118357"></line><line fill="none" stroke-width="1.5" stroke="rgb(72,155,210)" x1="-58.938625177651865" x2="-54.89472474801732" y1="-25.9408046046124" y2="-27.925660858603038"></line><line fill="none" stroke-width="1.5" stroke="rgb(72,155,210)" x1="-61.10289739409748" x2="-66.89420666998807" y1="-41.970475312988874" y2="-41.6879762123962"></line><line fill="none" stroke-width="1.5" stroke="rgb(72,155,210)" x1="-60.25627901471553" x2="-70.66434290578339" y1="-40.05516162408881" y2="-39.906963425764715"></line><line fill="none" stroke-width="1.5" stroke="rgb(72,155,210)" x1="-59.38327397377076" x2="-75.1954381117522" y1="-38.0801531124369" y2="-37.76647353506646"></line><line fill="none" stroke-width="1.5" stroke="rgb(72,155,210)" x1="-58.56185805949964" x2="-79.71595029119428" y1="-36.22185522616569" y2="-35.63098306730323"></line><line fill="none" stroke-width="1.5" stroke="rgb(72,155,210)" x1="-57.533405068719105" x2="-84.27193137871774" y1="-33.89517517810178" y2="-33.47873708332786"></line><line fill="none" stroke-width="1.5" stroke="rgb(72,155,210)" x1="-56.622937428757254" x2="-88.47469789753218" y1="-31.835414633578143" y2="-31.49334970178773"></line><line fill="none" stroke-width="1.5" stroke="rgb(72,155,210)" x1="-55.90159896671504" x2="-92.62414603766328" y1="-30.20352302299422" y2="-29.533149928402427"></line><line fill="none" stroke-width="1.5" stroke="rgb(72,155,210)" x1="-54.84608185270461" x2="-97.57916480366164" y1="-27.81561552350391" y2="-27.192398499726167"></line><line fill="none" stroke-width="1.5" stroke="rgb(72,155,210)" x1="77.56663040616976" x2="110.80220957440208" y1="-83.2586271351547" y2="-121.04222307921347"></line><line fill="none" stroke-width="1.5" stroke="rgb(72,155,210)" x1="80.19131187487879" x2="108.04596501133994" y1="-77.38739809996353" y2="-109.87363557535538"></line><line fill="none" stroke-width="1.5" stroke="rgb(72,155,210)" x1="82.72697424920463" x2="104.9882191143423" y1="-71.71529855833569" y2="-97.48333354161988"></line><line fill="none" stroke-width="1.5" stroke="rgb(72,155,210)" x1="85.44666706556268" x2="101.77461144154152" y1="-65.6315357777587" y2="-84.46146350231163"></line><line fill="none" stroke-width="1.5" stroke="rgb(72,155,210)" x1="87.94922074812496" x2="99.04595859935826" y1="-60.033498066001215" y2="-73.40468049982019"></line><line fill="none" stroke-width="1.5" stroke="rgb(72,155,210)" x1="90.31849434366617" x2="95.71444625506193" y1="-54.73359859542076" y2="-59.90504856000453"></line><line fill="none" stroke-width="1.5" stroke="rgb(72,155,210)" x1="111.04676169963031" x2="107.974998706416" y1="-122.03317353639333" y2="-127.04807543048001"></line><line fill="none" stroke-width="1.5" stroke="rgb(72,155,210)" x1="107.80086947367407" x2="102.45921180641501" y1="-108.88048315488032" y2="-120.68370593047887"></line><line fill="none" stroke-width="1.5" stroke="rgb(72,155,210)" x1="104.82044265261929" x2="97.33494931426469" y1="-96.80348599871562" y2="-114.77109536261311"></line><line fill="none" stroke-width="1.5" stroke="rgb(72,155,210)" x1="101.97253515723881" x2="91.82408582104213" y1="-85.26347083049949" y2="-108.41240671658707"></line><line fill="none" stroke-width="1.5" stroke="rgb(72,155,210)" x1="98.99539275624723" x2="85.84412315785139" y1="-73.19978248349015" y2="-101.51244979752084"></line><line fill="none" stroke-width="1.5" stroke="rgb(72,155,210)" x1="95.99957135929016" x2="80.86684122789043" y1="-61.060404916547036" y2="-95.76943218602743"></line><line fill="none" stroke-width="1.5" stroke="rgb(72,155,210)" x1="89.84336311789941" x2="68.32317275373235" y1="-55.79643394573084" y2="-59.78888079757903"></line><line fill="none" stroke-width="1.5" stroke="rgb(72,155,210)" x1="86.79981498617833" x2="69.57340652955716" y1="-62.60463843606536" y2="-65.25865356681255"></line><line fill="none" stroke-width="1.5" stroke="rgb(72,155,210)" x1="83.79740681701105" x2="70.97803708427303" y1="-69.3208157049895" y2="-71.40391224369448"></line><line fill="none" stroke-width="1.5" stroke="rgb(72,155,210)" x1="80.84212698032424" x2="72.27969921023322" y1="-75.93157018743909" y2="-77.09868404477035"></line><line fill="none" stroke-width="1.5" stroke="rgb(72,155,210)" x1="77.85397251466692" x2="73.62060943755016" y1="-82.61586291764704" y2="-82.96516628928192"></line><line fill="none" stroke-width="1.5" stroke="rgb(72,155,210)" x1="68.38331640877512" x2="71.33918339030842" y1="-60.05200928839112" y2="-53.1305769398101"></line><line fill="none" stroke-width="1.5" stroke="rgb(72,155,210)" x1="69.73688457277223" x2="75.65201268854356" y1="-65.9738700058785" y2="-52.26643433294929"></line><line fill="none" stroke-width="1.5" stroke="rgb(72,155,210)" x1="70.90799485442948" x2="79.74698185450023" y1="-71.09747748812899" y2="-51.445943401037724"></line><line fill="none" stroke-width="1.5" stroke="rgb(72,155,210)" x1="72.30057362869206" x2="84.07756587442972" y1="-77.19000962552776" y2="-50.578243358807214"></line><line fill="none" stroke-width="1.5" stroke="rgb(72,155,210)" x1="73.71841049765928" x2="88.80598871918781" y1="-83.39304592725935" y2="-49.63083010387465"></line><line fill="none" stroke-width="1.5" stroke="rgb(72,155,210)" x1="-19.42635833928097" x2="-55.94866422842355" y1="-68.58962020226582" y2="-57.237300204301725"></line><line fill="none" stroke-width="1.5" stroke="rgb(72,155,210)" x1="-25.28616089139519" x2="-49.52296235298345" y1="-78.32585026628055" y2="-71.29352645901943"></line><line fill="none" stroke-width="1.5" stroke="rgb(72,155,210)" x1="-30.983489902837377" x2="-43.21435993895045" y1="-87.79212588093804" y2="-85.09359757990886"></line><line fill="none" stroke-width="1.5" stroke="rgb(72,155,210)" x1="-56.099125920262956" x2="-49.44735242796331" y1="-56.90816517373863" y2="-47.74026216347464"></line><line fill="none" stroke-width="1.5" stroke="rgb(72,155,210)" x1="-49.35474516213502" x2="-38.084241574983395" y1="-71.66150165306571" y2="-51.12608283109599"></line><line fill="none" stroke-width="1.5" stroke="rgb(72,155,210)" x1="-43.242411921000866" x2="-25.212729677082493" y1="-85.032233854321" y2="-54.96135572170748"></line><line fill="none" stroke-width="1.5" stroke="rgb(72,155,210)" x1="26.067596765950142" x2="41.4048890080984" y1="41.91124714101571" y2="38.61314843729448"></line><line fill="none" stroke-width="1.5" stroke="rgb(72,155,210)" x1="28.51852053955218" x2="45.18461877752091" y1="42.991437107610054" y2="30.764458171173764"></line><line fill="none" stroke-width="1.5" stroke="rgb(72,155,210)" x1="30.670326747877787" x2="48.53062288139732" y1="43.939797681416366" y2="23.816408590235838"></line><line fill="none" stroke-width="1.5" stroke="rgb(72,155,210)" x1="32.93818238803616" x2="52.37765822105989" y1="44.939304452931836" y2="15.827956858025033"></line><line fill="none" stroke-width="1.5" stroke="rgb(72,155,210)" x1="35.13810522065674" x2="56.12693526387861" y1="45.908871355286436" y2="8.042502334524244"></line><line fill="none" stroke-width="1.5" stroke="rgb(72,155,210)" x1="72.32904888302389" x2="109.94646757356557" y1="-99.68380446790444" y2="-129.32284720026797"></line><line fill="none" stroke-width="1.5" stroke="rgb(72,155,210)" x1="72.6914906316113" x2="105.23486606000124" y1="-98.23403747355482" y2="-123.88638391538603"></line><line fill="none" stroke-width="1.5" stroke="rgb(72,155,210)" x1="72.98919110742497" x2="101.34010449407052" y1="-97.04323557030014" y2="-119.39242826238905"></line><line fill="none" stroke-width="1.5" stroke="rgb(72,155,210)" x1="73.34844785228223" x2="96.44071072264454" y1="-95.60620859087108" y2="-113.73928160305138"></line><line fill="none" stroke-width="1.5" stroke="rgb(72,155,210)" x1="73.69208670774505" x2="92.45078825716192" y1="-94.23165316901982" y2="-109.1355249121099"></line><line fill="none" stroke-width="1.5" stroke="rgb(72,155,210)" x1="73.99720094762779" x2="87.69701893237621" y1="-93.01119620948882" y2="-103.65040646043408"></line><line fill="none" stroke-width="1.5" stroke="rgb(72,155,210)" x1="74.31257544277521" x2="83.3790083064772" y1="-91.74969822889915" y2="-98.66808650747369"></line><line fill="none" stroke-width="1.5" stroke="rgb(72,155,210)" x1="74.65122554453147" x2="79.26897314168009" y1="-90.3950978218741" y2="-93.92573824040011"></line><line fill="none" stroke-width="1.5" stroke="rgb(72,155,210)" x1="109.39243768218006" x2="109.28697698173445" y1="-128.683581940977" y2="-130.2969104856485"></line><line fill="none" stroke-width="1.5" stroke="rgb(72,155,210)" x1="105.63652016767492" x2="105.15528719376368" y1="-124.34983096270183" y2="-127.05058279510004"></line><line fill="none" stroke-width="1.5" stroke="rgb(72,155,210)" x1="100.83603351734203" x2="100.10509620132804" y1="-118.81080790462542" y2="-123.08257558675774"></line><line fill="none" stroke-width="1.5" stroke="rgb(72,155,210)" x1="96.26455235947464" x2="95.80745889337146" y1="-113.53602195323995" y2="-119.70586055907758"></line><line fill="none" stroke-width="1.5" stroke="rgb(72,155,210)" x1="92.63548581829146" x2="90.5342911321943" y1="-109.348637482644" y2="-115.56265731815267"></line><line fill="none" stroke-width="1.5" stroke="rgb(72,155,210)" x1="88.29066969632422" x2="86.39095692029827" y1="-104.33538811114333" y2="-112.30718043737721"></line><line fill="none" stroke-width="1.5" stroke="rgb(72,155,210)" x1="83.3006293923345" x2="81.33655595017323" y1="-98.57764929884749" y2="-108.33586538942183"></line><line fill="none" stroke-width="1.5" stroke="rgb(72,155,210)" x1="79.59627785349167" x2="76.91407789280127" y1="-94.30339752325962" y2="-104.8610612014867"></line><polygon fill="none" points="92.37921023155711,53.86412570380239 62.26226402636065,87.19685020513533 91.55972766605782,121.98599061209828" stroke-width="1.5" stroke="rgb(72,155,210)"></polygon><polygon fill="none" points="91.78214032158742,58.961371122034784 65.87174156166341,88.27818107360389 90.91119677109977,117.54628805744134" stroke-width="1.5" stroke="rgb(72,155,210)"></polygon><polygon fill="none" points="91.11717667181877,64.63823217377734 69.58007159108874,89.38912627053809 90.63374768375468,115.64693147867283" stroke-width="1.5" stroke="rgb(72,155,210)"></polygon><polygon fill="none" points="90.59875092424708,69.06408452771294 71.4969241531098,89.96337886675006 90.14860931790803,112.32577891839146" stroke-width="1.5" stroke="rgb(72,155,210)"></polygon><polygon fill="none" points="89.96916167691676,74.43895077492641 74.96108882671835,91.00117676364624 89.57116656554415,108.37273044719436" stroke-width="1.5" stroke="rgb(72,155,210)"></polygon><polygon fill="none" points="89.45023365612171,78.86909108550444 78.43661394042658,92.04237803248171 89.08745602846932,105.06135249456116" stroke-width="1.5" stroke="rgb(72,155,210)"></polygon><polygon fill="none" points="88.82721592532657,84.18785564011789 81.48307221113289,92.95503902992431 88.63036863505447,101.93223083818017" stroke-width="1.5" stroke="rgb(72,155,210)"></polygon><polygon fill="none" points="88.20120328069248,89.53218807311329 83.9814144386704,93.7034948782326 87.97342165317943,97.43491356867145" stroke-width="1.5" stroke="rgb(72,155,210)"></polygon><line fill="none" stroke-width="1.5" stroke="rgb(72,155,210)" x1="-44.58469308314627" x2="-44.43450517581873" y1="27.849470388936588" y2="-17.76865935730438"></line><line fill="none" stroke-width="1.5" stroke="rgb(72,155,210)" x1="-34.865246212177496" x2="-34.62354034188748" y1="29.713091382689225" y2="-9.343417605201651"></line><line fill="none" stroke-width="1.5" stroke="rgb(72,155,210)" x1="-24.41481009288674" x2="-24.733239379154924" y1="31.716873326696067" y2="-0.8500453403368056"></line><line fill="none" stroke-width="1.5" stroke="rgb(72,155,210)" x1="-14.439735171211787" x2="-14.291118954436726" y1="33.629508817694536" y2="8.11720614532242"></line><line fill="none" stroke-width="1.5" stroke="rgb(72,155,210)" x1="-5.3602481382176705" x2="-5.265817776095293" y1="35.370422973800835" y2="15.86775317104189"></line><line fill="none" stroke-width="1.5" stroke="rgb(72,155,210)" x1="4.603954761300116" x2="4.509442299810683" y1="37.28097384733026" y2="24.262333186694104"></line><line fill="none" stroke-width="1.5" stroke="rgb(72,155,210)" x1="13.363669549536255" x2="14.194313805628347" y1="38.960574404374626" y2="32.57929132034882"></line><line fill="none" stroke-width="1.5" stroke="rgb(72,155,210)" x1="-45.41530936530218" x2="-79.73240735523713" y1="97.3776512984219" y2="89.36267735834059"></line><line fill="none" stroke-width="1.5" stroke="rgb(72,155,210)" x1="-54.783650959455386" x2="-79.43366789432157" y1="96.4627091500655" y2="84.18558713118409"></line><line fill="none" stroke-width="1.5" stroke="rgb(72,155,210)" x1="-62.66779290917595" x2="-79.16291857146088" y1="95.69271867726657" y2="79.49355994101788"></line><line fill="none" stroke-width="1.5" stroke="rgb(72,155,210)" x1="-71.56738461459801" x2="-78.88818653479163" y1="94.82355613951972" y2="74.73251318218601"></line><polygon fill="none" points="58.77757324354726,-83.46721675055878 41.24071759206723,-52.17324491212423 64.88594034182873,-57.11051449707192" stroke-width="1.5" stroke="rgb(72,155,210)"></polygon><polygon fill="none" points="57.796606934352724,-80.14240865456037 44.19642777659251,-56.23370479177471 62.32505564538092,-60.878463496449285" stroke-width="1.5" stroke="rgb(72,155,210)"></polygon><polygon fill="none" points="56.904014448432406,-77.11712766804821 47.921145820843584,-61.35060301165913 60.20173670053198,-64.00260161352269" stroke-width="1.5" stroke="rgb(72,155,210)"></polygon><polygon fill="none" points="56.10340144961535,-74.40359453721707 51.64898612179154,-66.47179048768173 57.34927988130434,-68.19955426534818" stroke-width="1.5" stroke="rgb(72,155,210)"></polygon><line fill="none" stroke-width="1.5" stroke="rgb(72,155,210)" x1="-75.35242546090664" x2="-42.19138274996993" y1="-64.62203089181186" y2="-87.33136072243568"></line><line fill="none" stroke-width="1.5" stroke="rgb(72,155,210)" x1="-72.04057845656602" x2="-46.9423516936368" y1="-59.50707919764757" y2="-76.93861364268653"></line><line fill="none" stroke-width="1.5" stroke="rgb(72,155,210)" x1="-68.5309845355915" x2="-52.15947666636175" y1="-54.086719093938186" y2="-65.52615000255898"></line><line fill="none" stroke-width="1.5" stroke="rgb(72,155,210)" x1="-65.2727864560222" x2="-57.34383158181458" y1="-49.054624988995116" y2="-54.18537088006479"></line><polygon fill="none" points="-78.59363,69.62788 -101.94889,25.12814 -147.0,36.0" stroke-width="1.5" stroke="rgb(72,155,210)"></polygon><polygon fill="none" points="37.40939,-46.90989 60.0,0.0 67.0,-54.0" stroke-width="1.5" stroke="rgb(72,155,210)"></polygon><line fill="none" stroke-width="1.5" stroke="rgb(72,155,210)" x1="-19.602235844203108" x2="-74.85429366834308" y1="53.510682625888" y2="62.98379963857583"></line><line fill="none" stroke-width="1.5" stroke="rgb(72,155,210)" x1="-24.744759054698573" x2="-71.56020291238414" y1="49.4096564321493" y2="57.13083493350152"></line><line fill="none" stroke-width="1.5" stroke="rgb(72,155,210)" x1="-30.68277365288594" x2="-67.80125036966541" y1="44.67424690472727" y2="50.45190038357063"></line><line fill="none" stroke-width="1.5" stroke="rgb(72,155,210)" x1="-36.2578267748094" x2="-64.63038662221928" y1="40.228289550984954" y2="44.817886334373846"></line><line fill="none" stroke-width="1.5" stroke="rgb(72,155,210)" x1="-42.393872662294804" x2="-60.85890392470805" y1="35.3349553100811" y2="38.11668811316525"></line><line fill="none" stroke-width="1.5" stroke="rgb(72,155,210)" x1="-47.98686233165503" x2="-57.52765180399174" y1="30.874694034343204" y2="32.19769482162169"></line><line fill="none" stroke-width="1.5" stroke="rgb(72,155,210)" x1="-16.372769846204186" x2="-78.59363" y1="63.515995310468604" y2="69.62788"></line><line fill="none" stroke-width="1.5" stroke="rgb(72,155,210)" x1="-19.536140520803436" x2="-78.59363" y1="68.7720264466275" y2="69.62788"></line><line fill="none" stroke-width="1.5" stroke="rgb(72,155,210)" x1="-22.25438044700696" x2="-78.59363" y1="73.28846007307439" y2="69.62788"></line><line fill="none" stroke-width="1.5" stroke="rgb(72,155,210)" x1="-25.21678975273044" x2="-78.59363" y1="78.21058812906075" y2="69.62788"></line><line fill="none" stroke-width="1.5" stroke="rgb(72,155,210)" x1="-28.212541329100247" x2="-78.59363" y1="83.18811532434955" y2="69.62788"></line><line fill="none" stroke-width="1.5" stroke="rgb(72,155,210)" x1="-31.481107337064863" x2="-78.59363" y1="88.61893152505579" y2="69.62788"></line><line fill="none" stroke-width="1.5" stroke="rgb(72,155,210)" x1="-34.11813741502009" x2="-78.59363" y1="93.00043265864521" y2="69.62788"></line><polygon fill="none" points="94.01352299102129,-49.325432720518094 104.75023056143874,-6.8236703078123115 112.39836880432043,-122.31056311175257" stroke-width="1.5" stroke="rgb(72,155,210)"></polygon><polygon fill="none" points="95.53423271200786,-50.09920393486545 104.52356855571146,-13.016048395778878 111.20365449130128,-113.5909917152942" stroke-width="1.5" stroke="rgb(72,155,210)"></polygon><polygon fill="none" points="96.67981470638803,-50.68210174809896 104.2346681427568,-20.908772105889206 110.0862450124868,-105.43562635018012" stroke-width="1.5" stroke="rgb(72,155,210)"></polygon><polygon fill="none" points="98.1937743272004,-51.452438360078304 104.05059891892559,-25.93752063683123 108.25849731421643,-92.09588782348047" stroke-width="1.5" stroke="rgb(72,155,210)"></polygon><polygon fill="none" points="99.04862516004144,-51.88740563745201 103.72226019148748,-34.90769424265766 106.9657955710079,-82.66115935207858" stroke-width="1.5" stroke="rgb(72,155,210)"></polygon><polygon fill="none" points="100.43803244332805,-52.5943672264884 103.49514200820882,-41.11253504515946 105.7711866073111,-73.94235684315058" stroke-width="1.5" stroke="rgb(72,155,210)"></polygon><polygon fill="none" points="101.8346509913864,-53.304998068783576 103.26553246353286,-47.38543953427834 104.18031996614943,-62.33148459638029" stroke-width="1.5" stroke="rgb(72,155,210)"></polygon><polygon fill="none" points="-52.31654337377943,-28.302871997293757 -17.82284130253913,-55.77925385390965 -59.210907832576126,-43.49047488036333" stroke-width="1.5" stroke="rgb(72,155,210)"></polygon><polygon fill="none" points="-50.14824721406428,-31.128867498007512 -22.86514453382096,-52.71613251983636 -55.81461454161566,-42.870023263306805" stroke-width="1.5" stroke="rgb(72,155,210)"></polygon><polygon fill="none" points="-48.36911857160381,-33.44765108126337 -28.449996723191973,-49.32342107345248 -52.34435403362305,-42.23605895005913" stroke-width="1.5" stroke="rgb(72,155,210)"></polygon><polygon fill="none" points="-46.80557555956491,-35.485456432435896 -33.48694046746857,-46.263555544957 -49.761074765760924,-41.76413274647723" stroke-width="1.5" stroke="rgb(72,155,210)"></polygon><polygon fill="none" points="-44.85252303776899,-38.030919428587666 -38.165969984013586,-43.42111738178366 -46.15362341313083,-41.105105732776906" stroke-width="1.5" stroke="rgb(72,155,210)"></polygon><line fill="none" stroke-width="1.5" stroke="rgb(72,155,210)" x1="-69.5772376775225" x2="-97.41077338319691" y1="-40.42051205925014" y2="-33.774799890406854"></line><line fill="none" stroke-width="1.5" stroke="rgb(72,155,210)" x1="-78.38976570605698" x2="-92.80423152803878" y1="-36.25747281617163" y2="-42.55183238138159"></line><line fill="none" stroke-width="1.5" stroke="rgb(72,155,210)" x1="-85.68922017362786" x2="-88.03206014708017" y1="-32.809209695399936" y2="-51.644445578040774"></line><line fill="none" stroke-width="1.5" stroke="rgb(72,155,210)" x1="-93.52330292652816" x2="-83.17865598715701" y1="-29.108388111826237" y2="-60.89183490888521"></line><polygon fill="none" points="100.67096283246505,-4.616985409311518 91.82293120595817,-41.414474359504126 66.55881176365727,-4.180067665344166" stroke-width="1.5" stroke="rgb(72,155,210)"></polygon><polygon fill="none" points="96.3663731846907,-9.207897158901407 90.65793774496737,-33.936432678129364 74.08044357316001,-8.97376064670741" stroke-width="1.5" stroke="rgb(72,155,210)"></polygon><polygon fill="none" points="92.74669890541776,-13.068336024890517 89.33039736944514,-25.415009516303076 81.58008196003735,-13.75343676067462" stroke-width="1.5" stroke="rgb(72,155,210)"></polygon><line fill="none" stroke-width="1.5" stroke="rgb(72,155,210)" x1="-99.05068175472505" x2="-78.59363" y1="-36.617807724868236" y2="-69.62788"></line><line fill="none" stroke-width="1.5" stroke="rgb(72,155,210)" x1="-96.17050693700557" x2="-78.59363" y1="-48.03598145957278" y2="-69.62788"></line><line fill="none" stroke-width="1.5" stroke="rgb(72,155,210)" x1="-93.57309420982435" x2="-78.59363" y1="-58.33317230966529" y2="-69.62788"></line><line fill="none" stroke-width="1.5" stroke="rgb(72,155,210)" x1="-90.4902790502096" x2="-78.59363" y1="-70.55469402699404" y2="-69.62788"></line><line fill="none" stroke-width="1.5" stroke="rgb(72,155,210)" x1="-87.53261437066429" x2="-78.59363" y1="-82.2800688036499" y2="-69.62788"></line><line fill="none" stroke-width="1.5" stroke="rgb(72,155,210)" x1="-84.77205446770606" x2="-78.59363" y1="-93.22404080948604" y2="-69.62788"></line><line fill="none" stroke-width="1.5" stroke="rgb(72,155,210)" x1="-81.71042552897248" x2="-78.59363" y1="-105.36157180885048" y2="-69.62788"></line><line fill="none" stroke-width="1.5" stroke="rgb(72,155,210)" x1="-78.91723127061078" x2="-78.59363" y1="-116.43491955168152" y2="-69.62788"></line><line fill="none" stroke-width="1.5" stroke="rgb(72,155,210)" x1="62.29447189283272" x2="86.29862991400014" y1="48.18637692877833" y2="56.32959995023717"></line><line fill="none" stroke-width="1.5" stroke="rgb(72,155,210)" x1="61.64662421674322" x2="79.53273982932721" y1="57.53996689073854" y2="63.96671397873232"></line><line fill="none" stroke-width="1.5" stroke="rgb(72,155,210)" x1="60.98420547656381" x2="72.56173685388636" y1="67.10393309365281" y2="71.83535268704121"></line><line fill="none" stroke-width="1.5" stroke="rgb(72,155,210)" x1="60.328411165439014" x2="66.35390088126952" y1="76.57225614556735" y2="78.84255360218299"></line><polygon fill="none" points="-12.89603731316081,-51.360295700877934 -48.19692672660981,-23.33565532552309 20.729391764532078,36.501012582539985" stroke-width="1.5" stroke="rgb(72,155,210)"></polygon><polygon fill="none" points="-12.533157900876406,-45.6723553391089 -45.22425823255473,-21.96761314772624 17.233743291306702,31.69246402990227" stroke-width="1.5" stroke="rgb(72,155,210)"></polygon><polygon fill="none" points="-12.227802321602272,-40.88607023929875 -39.24870256576907,-19.217621951504988 12.37336163239378,25.00661407380864" stroke-width="1.5" stroke="rgb(72,155,210)"></polygon><polygon fill="none" points="-11.923666339877858,-36.11890167763687 -33.685772337037584,-16.6575237769977 9.407838704456108,20.92729628994941" stroke-width="1.5" stroke="rgb(72,155,210)"></polygon><polygon fill="none" points="-11.419297990017636,-28.213198027190074 -29.61623157440151,-14.784693550995868 5.721465549121948,15.856390437620092" stroke-width="1.5" stroke="rgb(72,155,210)"></polygon><polygon fill="none" points="-11.036191025843511,-22.208201627193226 -23.61264403268379,-12.021801896043186 0.6266603913822344,8.848071908206862" stroke-width="1.5" stroke="rgb(72,155,210)"></polygon><polygon fill="none" points="-10.799971968079607,-18.50559445966035 -20.511578509256807,-10.594670535568936 -2.2492842125516823,4.891976388695774" stroke-width="1.5" stroke="rgb(72,155,210)"></polygon><polygon fill="none" points="-10.404472819750001,-12.306357212587876 -14.664363760600303,-7.9037426992510795 -5.422107108886625,0.5275006518462604" stroke-width="1.5" stroke="rgb(72,155,210)"></polygon><line fill="none" stroke-width="1.5" stroke="rgb(72,155,210)" x1="17.339766913950427" x2="-9.091453896582756" y1="44.11971381261777" y2="65.98725631708592"></line><line fill="none" stroke-width="1.5" stroke="rgb(72,155,210)" x1="11.994821709138964" x2="-4.498627814631016" y1="46.62333480721359" y2="74.06451364698354"></line><line fill="none" stroke-width="1.5" stroke="rgb(72,155,210)" x1="5.1199844575427385" x2="-0.3223010884080324" y1="49.843571164741014" y2="81.40928679090736"></line><line fill="none" stroke-width="1.5" stroke="rgb(72,155,210)" x1="-1.1598699357066415" x2="3.8161810672479852" y1="52.78511213466355" y2="88.68750389078454"></line><line fill="none" stroke-width="1.5" stroke="rgb(72,155,210)" x1="-6.761971651533816" x2="8.461354152575055" y1="55.40918758018553" y2="96.85682223260969"></line><line fill="none" stroke-width="1.5" stroke="rgb(72,155,210)" x1="40.50982452426263" x2="60.343953041970195" y1="40.47176911400636" y2="4.3567385316224865"></line><line fill="none" stroke-width="1.5" stroke="rgb(72,155,210)" x1="43.09198795459776" x2="60.77762912673018" y1="35.10985114167983" y2="9.849968938582336"></line><line fill="none" stroke-width="1.5" stroke="rgb(72,155,210)" x1="46.150718672994174" x2="61.14880400407073" y1="28.758330932384485" y2="14.551517384895986"></line><line fill="none" stroke-width="1.5" stroke="rgb(72,155,210)" x1="48.52202166577594" x2="61.48130010810615" y1="23.834269199708626" y2="18.7631347026779"></line><line fill="none" stroke-width="1.5" stroke="rgb(72,155,210)" x1="51.697397998721144" x2="61.85553219069825" y1="17.240531859733423" y2="23.503407748844495"></line><line fill="none" stroke-width="1.5" stroke="rgb(72,155,210)" x1="54.26682494089199" x2="62.23223497360334" y1="11.905061479371852" y2="28.27497633230893"></line><line fill="none" stroke-width="1.5" stroke="rgb(72,155,210)" x1="57.447577472845836" x2="62.62732063624932" y1="5.300160346373879" y2="33.27939472582478"></line><line fill="none" stroke-width="1.5" stroke="rgb(72,155,210)" x1="-18.396257609744602" x2="12.65635" y1="66.87807828550672" y2="104.23443"></line><line fill="none" stroke-width="1.5" stroke="rgb(72,155,210)" x1="-22.609174343361943" x2="12.65635" y1="73.87796031126483" y2="104.23443"></line><line fill="none" stroke-width="1.5" stroke="rgb(72,155,210)" x1="-27.392300816737425" x2="12.65635" y1="81.8252621795267" y2="104.23443"></line><line fill="none" stroke-width="1.5" stroke="rgb(72,155,210)" x1="-32.676387956663966" x2="12.65635" y1="90.60492456833265" y2="104.23443"></line><line fill="none" stroke-width="1.5" stroke="rgb(72,155,210)" x1="34.21355957167125" x2="12.65635" y1="45.501398489565744" y2="104.23443"></line><line fill="none" stroke-width="1.5" stroke="rgb(72,155,210)" x1="30.802841583310837" x2="12.65635" y1="43.99820063837545" y2="104.23443"></line><line fill="none" stroke-width="1.5" stroke="rgb(72,155,210)" x1="27.349488184662185" x2="12.65635" y1="42.47621218140989" y2="104.23443"></line><line fill="none" stroke-width="1.5" stroke="rgb(72,155,210)" x1="-26.813304835166353" x2="-58.16352624921261" y1="-99.4419519615001" y2="-123.2186843552236"></line><line fill="none" stroke-width="1.5" stroke="rgb(72,155,210)" x1="-17.59308350002832" x2="-39.713069075484135" y1="-100.5614878072537" y2="-118.27278188758308"></line><line fill="none" stroke-width="1.5" stroke="rgb(72,155,210)" x1="-7.801855161965115" x2="-23.058695041776012" y1="-101.75035634955711" y2="-113.80834456471757"></line><line fill="none" stroke-width="1.5" stroke="rgb(72,155,210)" x1="2.7332618625414966" x2="-5.2786248681301124" y1="-103.02954919313841" y2="-109.04214868574107"></line><line fill="none" stroke-width="1.5" stroke="rgb(72,155,210)" x1="-58.310903197270164" x2="-68.53696578201567" y1="-123.25819080236515" y2="-122.25864417460471"></line><line fill="none" stroke-width="1.5" stroke="rgb(72,155,210)" x1="-40.18105463740085" x2="-60.85473757609212" y1="-118.39823194682604" y2="-116.34866113368442"></line><line fill="none" stroke-width="1.5" stroke="rgb(72,155,210)" x1="-21.81792251337093" x2="-52.44504724185755" y1="-113.47573817712316" y2="-109.87903722738149"></line><line fill="none" stroke-width="1.5" stroke="rgb(72,155,210)" x1="-5.958159064889532" x2="-45.328688279843234" y1="-109.22430730809674" y2="-104.40438070179478"></line><polygon fill="none" points="-83.67873244967228,71.78951751040127 -142.72755403718995,42.536850495025206 -117.55059795806163,115.74694260326416" stroke-width="1.5" stroke="rgb(72,155,210)"></polygon><polygon fill="none" points="-87.97886023758593,73.61747079599101 -138.34170735837105,49.247204302445944 -117.1660751240055,111.25225782404046" stroke-width="1.5" stroke="rgb(72,155,210)"></polygon><polygon fill="none" points="-93.07774343781509,75.78496924217544 -135.00640315150335,54.35022611840428 -116.86787562178085,107.76660588060986" stroke-width="1.5" stroke="rgb(72,155,210)"></polygon><polygon fill="none" points="-97.06921166076475,77.48171357451258 -130.57234918030161,61.1343371753771 -116.4233453848527,102.57049497934152" stroke-width="1.5" stroke="rgb(72,155,210)"></polygon><polygon fill="none" points="-101.91128549557685,79.54004421303236 -126.81644527082392,66.88087734081155 -116.0568706506639,98.28677431611561" stroke-width="1.5" stroke="rgb(72,155,210)"></polygon><polygon fill="none" points="-105.60047556417837,81.10829228371054 -122.74007198989352,73.11773625753182 -115.75928585599402,94.80830768509155" stroke-width="1.5" stroke="rgb(72,155,210)"></polygon><polygon fill="none" points="-110.71100987782054,83.28074353411255 -119.36033812389272,78.28873553694456 -115.28498821331985,89.26424578150609" stroke-width="1.5" stroke="rgb(72,155,210)"></polygon><line fill="none" stroke-width="1.5" stroke="rgb(72,155,210)" x1="-54.058128356933594" x2="-90.08842064984475" y1="12.50612766985454" y2="12.457733556618955"></line><line fill="none" stroke-width="1.5" stroke="rgb(72,155,210)" x1="-54.058128356933594" x2="-78.14751155900709" y1="-0.02710609447584389" y2="-0.29860451452881165"></line><line fill="none" stroke-width="1.5" stroke="rgb(72,155,210)" x1="-54.058128356933594" x2="-66.2424050943711" y1="-13.213187218376433" y2="-13.016695045209662"></line><line fill="none" stroke-width="1.5" stroke="rgb(72,155,210)" x1="39.928504508380044" x2="62.595983852172054" y1="51.384944838870325" y2="43.83316344916745"></line><line fill="none" stroke-width="1.5" stroke="rgb(72,155,210)" x1="42.95218751993761" x2="62.140586860039" y1="56.75633502139282" y2="50.408160769577925"></line><line fill="none" stroke-width="1.5" stroke="rgb(72,155,210)" x1="45.550823883917744" x2="61.721963247909876" y1="61.37265551533197" y2="56.45222600399509"></line><line fill="none" stroke-width="1.5" stroke="rgb(72,155,210)" x1="48.566942668129" x2="61.31142722855426" y1="66.7306083049958" y2="62.37952300820224"></line><line fill="none" stroke-width="1.5" stroke="rgb(72,155,210)" x1="51.499525756659544" x2="60.86683174155173" y1="71.94016497841517" y2="68.79856877751236"></line><line fill="none" stroke-width="1.5" stroke="rgb(72,155,210)" x1="53.89048590229248" x2="60.469443382260685" y1="76.18756121802288" y2="74.53604057165528"></line><line fill="none" stroke-width="1.5" stroke="rgb(72,155,210)" x1="56.99605239293295" x2="60.053294295764694" y1="81.7044124538289" y2="80.54437873784804"></line><line fill="none" stroke-width="1.5" stroke="rgb(72,155,210)" x1="62.60823595270779" x2="59.760800664103535" y1="43.65626827949461" y2="39.12779283806119"></line><line fill="none" stroke-width="1.5" stroke="rgb(72,155,210)" x1="62.131802328504826" x2="56.611249095646826" y1="50.53499136419322" y2="40.22437299064597"></line><line fill="none" stroke-width="1.5" stroke="rgb(72,155,210)" x1="61.73327043362785" x2="53.62298389990427" y1="56.28897346372504" y2="41.26479802674621"></line><line fill="none" stroke-width="1.5" stroke="rgb(72,155,210)" x1="61.36342845983867" x2="50.48338314050532" y1="61.62873202306287" y2="42.357913603667534"></line><line fill="none" stroke-width="1.5" stroke="rgb(72,155,210)" x1="60.9036617049847" x2="47.263304990005935" y1="68.26681974300874" y2="43.479049013855395"></line><line fill="none" stroke-width="1.5" stroke="rgb(72,155,210)" x1="60.46408279139631" x2="43.514357711625095" y1="74.61343649472457" y2="44.784320919777414"></line><line fill="none" stroke-width="1.5" stroke="rgb(72,155,210)" x1="60.036159540676685" x2="40.910533977357176" y1="80.79176941177823" y2="45.690894876661844"></line><polygon fill="none" points="37.40242785766927,-52.15596558809742 54.078398019985556,-81.82841684657686 28.18046263444899,-67.27753457409888" stroke-width="1.5" stroke="rgb(72,155,210)"></polygon><polygon fill="none" points="37.39520514069678,-57.59878290101421 48.51011041048973,-77.24362149232724 30.95170053401518,-67.51935924509239" stroke-width="1.5" stroke="rgb(72,155,210)"></polygon><polygon fill="none" points="37.388459219225794,-62.68230179199969 43.16341484938203,-72.84127975133137 34.42548356630684,-67.82248964000301" stroke-width="1.5" stroke="rgb(72,155,210)"></polygon><polygon fill="none" points="99.41469590820279,3.115157173594295 62.22404698040781,3.4149109167247693 64.69494839960609,34.306906243905466" stroke-width="1.5" stroke="rgb(72,155,210)"></polygon><polygon fill="none" points="93.726882828891,6.287487887351417 63.89972094085003,5.98782297784332 66.0485111995589,31.35765166709987" stroke-width="1.5" stroke="rgb(72,155,210)"></polygon><polygon fill="none" points="88.40601667879365,9.255156985539635 65.86117546768779,8.999536550157009 67.45789660729935,28.286766175561205" stroke-width="1.5" stroke="rgb(72,155,210)"></polygon><polygon fill="none" points="83.28011909007557,12.114083980769138 68.11029997630007,12.452952734793962 68.81165006295667,25.337096182338186" stroke-width="1.5" stroke="rgb(72,155,210)"></polygon><polygon fill="none" points="76.82567785075804,15.713995211696059 70.08613119271155,15.486740982060175 70.56946545364316,21.507022626576905" stroke-width="1.5" stroke="rgb(72,155,210)"></polygon><line fill="none" stroke-width="1.5" stroke="rgb(72,155,210)" x1="65.53849155611769" x2="86.17351606417081" y1="-42.725506290050745" y2="-38.733684382787345"></line><line fill="none" stroke-width="1.5" stroke="rgb(72,155,210)" x1="64.21557047144512" x2="79.65521907684959" y1="-32.52011506543378" y2="-29.087381700290944"></line><line fill="none" stroke-width="1.5" stroke="rgb(72,155,210)" x1="62.81596058725892" x2="72.78685829476935" y1="-21.723124530283116" y2="-18.92302632258946"></line><line fill="none" stroke-width="1.5" stroke="rgb(72,155,210)" x1="61.344379432329134" x2="66.58768970870274" y1="-10.370927049396172" y2="-9.748995639830248"></line><line fill="none" stroke-width="1.5" stroke="rgb(72,155,210)" x1="6.513727281641918" x2="-16.181393820819103" y1="-103.48858009884839" y2="-63.19801855351908"></line><line fill="none" stroke-width="1.5" stroke="rgb(72,155,210)" x1="0.4393215873251588" x2="-19.141822419710596" y1="-102.75101484208814" y2="-68.11685560827561"></line><line fill="none" stroke-width="1.5" stroke="rgb(72,155,210)" x1="-6.116112093278883" x2="-22.04281179096884" y1="-101.95504230269498" y2="-72.93693268094779"></line><line fill="none" stroke-width="1.5" stroke="rgb(72,155,210)" x1="-12.052730749316556" x2="-25.5752667644334" y1="-101.23420739576329" y2="-78.80620796907418"></line><line fill="none" stroke-width="1.5" stroke="rgb(72,155,210)" x1="-18.06031196164426" x2="-28.440790219005432" y1="-100.50475608770789" y2="-83.5673574036191"></line><line fill="none" stroke-width="1.5" stroke="rgb(72,155,210)" x1="-24.586687884309747" x2="-31.18851557784278" y1="-99.71231179350832" y2="-88.13278192235404"></line><line fill="none" stroke-width="1.5" stroke="rgb(72,155,210)" x1="-30.71795427355063" x2="-34.25450937870121" y1="-98.96784240897628" y2="-93.22701858895131"></line><line fill="none" stroke-width="1.5" stroke="rgb(72,155,210)" x1="-16.50640454077744" x2="-10.027877008616272" y1="-63.73803318961696" y2="-64.34039873733101"></line><line fill="none" stroke-width="1.5" stroke="rgb(72,155,210)" x1="-19.028238234531898" x2="-7.113944084126084" y1="-67.92813222575575" y2="-69.46504000464554"></line><line fill="none" stroke-width="1.5" stroke="rgb(72,155,210)" x1="-22.092604917026158" x2="-3.4259493646602017" y1="-73.01966538850729" y2="-75.95099916114177"></line><line fill="none" stroke-width="1.5" stroke="rgb(72,155,210)" x1="-25.275102126349317" x2="-0.21376359771691256" y1="-78.30747581086965" y2="-81.60016822787242"></line><line fill="none" stroke-width="1.5" stroke="rgb(72,155,210)" x1="-28.037643192654706" x2="3.103321802357417" y1="-82.8975170526404" y2="-87.43382094704114"></line><line fill="none" stroke-width="1.5" stroke="rgb(72,155,210)" x1="-31.400451615374344" x2="6.011384053155403" y1="-88.48491972937254" y2="-92.54813764702703"></line><line fill="none" stroke-width="1.5" stroke="rgb(72,155,210)" x1="-34.17975997038377" x2="9.344358162596418" y1="-93.10282030239557" y2="-98.40973333462188"></line><line fill="none" stroke-width="1.5" stroke="rgb(72,155,210)" x1="-3.7054801112500186" x2="15.819443341021616" y1="-60.6346063897326" y2="-94.69300680143792"></line><line fill="none" stroke-width="1.5" stroke="rgb(72,155,210)" x1="5.483369471688857" x2="18.70074580634161" y1="-62.67221886631418" y2="-86.00160259436603"></line><line fill="none" stroke-width="1.5" stroke="rgb(72,155,210)" x1="15.459913635866751" x2="21.919044735045745" y1="-64.8845013374344" y2="-76.2936537812075"></line><polygon fill="none" points="37.40939,-46.90989 -13.35126,-58.49567 24.0,41.0" stroke-width="1.5" stroke="rgb(72,155,210)"></polygon><line fill="none" stroke-width="1.5" stroke="rgb(72,155,210)" x1="-29.417662750836342" x2="14.770892298428091" y1="102.68989090054187" y2="108.22921515255524"></line><line fill="none" stroke-width="1.5" stroke="rgb(72,155,210)" x1="-20.494767443928747" x2="17.071695024788788" y1="107.84232365015778" y2="112.57588480081739"></line><line fill="none" stroke-width="1.5" stroke="rgb(72,155,210)" x1="-11.592602681232869" x2="19.02465586925345" y1="112.98278576342305" y2="116.2654126032754"></line><line fill="none" stroke-width="1.5" stroke="rgb(72,155,210)" x1="-4.1644069918806395" x2="21.502792685077104" y1="117.27211982192591" y2="120.94710128443397"></line><line fill="none" stroke-width="1.5" stroke="rgb(72,155,210)" x1="4.09030289997996" x2="23.645492326854693" y1="122.0387158787546" y2="124.99508305686027"></line><line fill="none" stroke-width="1.5" stroke="rgb(72,155,210)" x1="13.688124980722492" x2="25.85019760440569" y1="127.58087804841736" y2="129.16020569145155"></line><line fill="none" stroke-width="1.5" stroke="rgb(72,155,210)" x1="22.387577024385187" x2="27.981891247409987" y1="132.60428581817803" y2="133.18739496382184"></line><polygon fill="none" points="55.639745790631764,90.50324040950382 14.991909133900002,105.90353267160677 30.00342195825494,134.268590363135" stroke-width="1.5" stroke="rgb(72,155,210)"></polygon><polygon fill="none" points="50.97066218422835,95.26889477995798 17.52122241208531,107.71110318715266 30.006840302323337,131.54006557266965" stroke-width="1.5" stroke="rgb(72,155,210)"></polygon><polygon fill="none" points="47.36781680616537,98.94625789217312 20.09847426859954,109.55293294669647 30.01062949365982,128.51553021562157" stroke-width="1.5" stroke="rgb(72,155,210)"></polygon><polygon fill="none" points="42.47255326170881,103.94277028556219 22.71217252609863,111.4208090803238 30.014830702672924,125.16212204113285" stroke-width="1.5" stroke="rgb(72,155,210)"></polygon><polygon fill="none" points="38.967781561750584,107.5200312595236 25.39471330754855,113.33788343608617 30.017795044423956,122.7959822397363" stroke-width="1.5" stroke="rgb(72,155,210)"></polygon><polygon fill="none" points="34.51266155400734,112.06729661726561 27.243373282242818,114.65902593446606 30.022153365730905,119.31716691486264" stroke-width="1.5" stroke="rgb(72,155,210)"></polygon><polygon fill="none" points="95.14903928543774,56.31990305799757 94.43696776023954,115.95272436206739 131.70201273266835,111.82895532202558" stroke-width="1.5" stroke="rgb(72,155,210)"></polygon><polygon fill="none" points="97.05640508046534,62.91452803428144 96.34676055429638,108.86259288758646 124.29362833352305,104.56989473994469" stroke-width="1.5" stroke="rgb(72,155,210)"></polygon><polygon fill="none" points="99.11115648541953,70.01873162778729 98.8673784633317,99.50476494541032 117.67686164535556,98.0864959772612" stroke-width="1.5" stroke="rgb(72,155,210)"></polygon><polygon fill="none" points="100.8615791239598,76.07073323191761 100.97636775377728,91.67511379473878 109.403891005888,89.98027580426373" stroke-width="1.5" stroke="rgb(72,155,210)"></polygon><polygon fill="none" points="-54.05813,26.03302 -13.35126,58.49567 24.0,41.0" stroke-width="1.5" stroke="rgb(72,155,210)"></polygon><line fill="none" stroke-width="1.5" stroke="rgb(72,155,210)" x1="40.30787371205141" x2="55.49350572356645" y1="-40.89112432475719" y2="5.13239625927154"></line><line fill="none" stroke-width="1.5" stroke="rgb(72,155,210)" x1="43.14578256265271" x2="51.36863885807951" y1="-34.99814547953797" y2="9.830161300520556"></line><line fill="none" stroke-width="1.5" stroke="rgb(72,155,210)" x1="45.65547028837752" x2="46.46863684511801" y1="-29.786724868664912" y2="15.410719148615598"></line><line fill="none" stroke-width="1.5" stroke="rgb(72,155,210)" x1="48.47889481926527" x2="41.998155343241464" y1="-23.92382302526385" y2="20.502100859086113"></line><line fill="none" stroke-width="1.5" stroke="rgb(72,155,210)" x1="51.55916308980128" x2="37.164190366550315" y1="-17.527579625119873" y2="26.007449860317696"></line><line fill="none" stroke-width="1.5" stroke="rgb(72,155,210)" x1="54.22419186259054" x2="32.57838481637401" y1="-11.993589984606906" y2="31.230172848018483"></line><line fill="none" stroke-width="1.5" stroke="rgb(72,155,210)" x1="57.41467644301103" x2="28.169488955930625" y1="-5.368480043379435" y2="36.25141535574568"></line><polygon fill="none" points="-101.94889,25.12814 -78.59363,69.62788 -54.05813,26.03302" stroke-width="1.5" stroke="rgb(72,155,210)"></polygon><polygon fill="none" points="30.0,137.0 -37.23351,98.17671 -118.0,121.0" stroke-width="1.5" stroke="rgb(72,155,210)"></polygon><line fill="none" stroke-width="1.5" stroke="rgb(72,155,210)" x1="18.361522938147758" x2="56.816138748828635" y1="102.0707425034342" y2="81.38480673525657"></line><line fill="none" stroke-width="1.5" stroke="rgb(72,155,210)" x1="24.533438171059736" x2="54.05538823932103" y1="99.73004460654943" y2="76.48050025654129"></line><line fill="none" stroke-width="1.5" stroke="rgb(72,155,210)" x1="30.043437951254013" x2="51.03918710639125" y1="97.64037804266643" y2="71.12240117935441"></line><line fill="none" stroke-width="1.5" stroke="rgb(72,155,210)" x1="36.55152174998942" x2="48.67792618542632" y1="95.17218826922027" y2="66.92776381797584"></line><line fill="none" stroke-width="1.5" stroke="rgb(72,155,210)" x1="42.08987415088171" x2="45.576442999023634" y1="93.07176897832555" y2="61.4181663254396"></line><line fill="none" stroke-width="1.5" stroke="rgb(72,155,210)" x1="47.50019539621013" x2="42.770515517040366" y1="91.01990548336366" y2="56.43360568466291"></line><line fill="none" stroke-width="1.5" stroke="rgb(72,155,210)" x1="54.10468401650382" x2="39.996484141687674" y1="88.51515419626163" y2="51.505706550188734"></line><polygon fill="none" points="112.0,26.0 105.0,0.0 63.0,38.0" stroke-width="1.5" stroke="rgb(72,155,210)"></polygon><polygon fill="none" points="-10.103858583347433,-58.422807900924326 34.16408225093742,-48.27010731051954 23.360395696331878,-65.9341418561671" stroke-width="1.5" stroke="rgb(72,155,210)"></polygon><polygon fill="none" points="-7.186000970370796,-58.35733950921044 30.31127878370499,-49.88494762462901 21.397491800640623,-64.65811623333649" stroke-width="1.5" stroke="rgb(72,155,210)"></polygon><polygon fill="none" points="-3.703319809149674,-58.279198090155795 26.932999641429788,-51.30089873598426 19.959482009918037,-63.723308705127316" stroke-width="1.5" stroke="rgb(72,155,210)"></polygon><polygon fill="none" points="-1.3530051754040588,-58.22646374204758 24.35487778431288,-52.38147685136623 17.94418970869729,-62.41322693316908" stroke-width="1.5" stroke="rgb(72,155,210)"></polygon><polygon fill="none" points="1.8810488720986154,-58.153900805369595 21.10596223385475,-53.743207303655716 16.295931469853222,-61.34174312266596" stroke-width="1.5" stroke="rgb(72,155,210)"></polygon><polygon fill="none" points="4.580835900325926,-58.093325294788826 17.61751219904468,-55.20533476431605 14.847616941444572,-60.400236790020756" stroke-width="1.5" stroke="rgb(72,155,210)"></polygon><polygon fill="none" points="7.516986534840925,-58.027446459914735 13.933482914978349,-56.74943610684924 13.03212519149742,-59.22003943239397" stroke-width="1.5" stroke="rgb(72,155,210)"></polygon><polygon fill="none" points="-103.85076035099097,23.7076802686199 -103.87330077951081,-20.766323058366318 -143.85262775954985,33.41236081816198" stroke-width="1.5" stroke="rgb(72,155,210)"></polygon><polygon fill="none" points="-105.28478977244744,22.636639302269526 -105.30125900734195,-17.529751138841515 -140.2116434785641,30.418894247907318" stroke-width="1.5" stroke="rgb(72,155,210)"></polygon><polygon fill="none" points="-107.73733745759847,20.804892335699883 -107.56582867356907,-12.39693811345584 -137.82027997531367,28.452814157506825" stroke-width="1.5" stroke="rgb(72,155,210)"></polygon><polygon fill="none" points="-109.22551638947148,19.693408444611595 -109.10642885499809,-8.905054955219946 -135.08514614228716,26.204100331112418" stroke-width="1.5" stroke="rgb(72,155,210)"></polygon><polygon fill="none" points="-110.81949902556349,18.502902394065043 -110.8977408286873,-4.84491515550258 -131.58592625985773,23.32718658151858" stroke-width="1.5" stroke="rgb(72,155,210)"></polygon><polygon fill="none" points="-112.9078646203499,16.943153987744918 -112.70413088847039,-0.7505997692026583 -127.99742015757295,20.37686539764463" stroke-width="1.5" stroke="rgb(72,155,210)"></polygon><polygon fill="none" points="-115.11216066294008,15.296820008641301 -114.82484652349638,4.056157557338686 -125.39553519966636,18.23770328101139" stroke-width="1.5" stroke="rgb(72,155,210)"></polygon><polygon fill="none" points="-116.88196956295509,13.974993687531132 -117.10256055725779,9.218763254549238 -122.4677526930509,15.830601689197614" stroke-width="1.5" stroke="rgb(72,155,210)"></polygon><polygon fill="none" points="88.19662694925674,122.6551204305109 59.97829521560282,89.38529627527554 34.3828664501236,132.79714250080727" stroke-width="1.5" stroke="rgb(72,155,210)"></polygon><polygon fill="none" points="82.9594368203452,119.42625490220973 60.29117411085123,92.19039091512361 38.71104698656333,128.64672490710603" stroke-width="1.5" stroke="rgb(72,155,210)"></polygon><polygon fill="none" points="78.77676400624279,116.84752704754149 60.61018342305161,95.05044739481812 43.666137966891206,123.89514474310948" stroke-width="1.5" stroke="rgb(72,155,210)"></polygon><polygon fill="none" points="75.27780071798568,114.69032410700346 60.90577091097564,97.70051708815281 48.75871660799493,119.01172368167423" stroke-width="1.5" stroke="rgb(72,155,210)"></polygon><polygon fill="none" points="71.19589484051293,112.17372172039487 61.1937654040363,100.28251229798887 52.093145718236116,115.81424309425898" stroke-width="1.5" stroke="rgb(72,155,210)"></polygon><polygon fill="none" points="66.81442007923955,109.47242723392995 61.50830357047879,103.10248302185296 57.29206838698392,110.82884566663404" stroke-width="1.5" stroke="rgb(72,155,210)"></polygon><polygon fill="none" points="-76.0,-128.0 12.65635,-104.23443 72.0,-101.0 114.0,-134.0" stroke-width="1.5" stroke="rgb(72,155,210)"></polygon><polygon fill="none" points="72.0,-101.0 12.65635,-104.23443 25.0,-67.0 59.6468,-86.41331" stroke-width="1.5" stroke="rgb(72,155,210)"></polygon><polygon fill="none" points="67.0,-54.0 75.0,-89.0 72.0,-101.0 59.6468,-86.41331" stroke-width="1.5" stroke="rgb(72,155,210)"></polygon><polygon fill="none" points="138.0,118.0 112.0,26.0 63.0,38.0 92.97288,48.79593" stroke-width="1.5" stroke="rgb(72,155,210)"></polygon><polygon fill="none" points="-58.09280015002151,-126.09596312378838 11.620615500207592,-107.09883415277443 58.22236153362829,-104.86213795466018 93.92241170223187,-131.2060070645949" stroke-width="1.5" stroke="rgb(72,155,210)"></polygon><polygon fill="none" points="-44.5141668203035,-124.65217410010301 10.387997195077004,-110.50773720163181 47.3944955577159,-107.89739775303676 69.6451364745422,-127.82758658544851" stroke-width="1.5" stroke="rgb(72,155,210)"></polygon><polygon fill="none" points="-27.069742627392962,-122.79734323733027 9.392713208888786,-113.26027349033838 33.602939294520766,-111.76343713474398 48.672934576422634,-124.90909941088339" stroke-width="1.5" stroke="rgb(72,155,210)"></polygon><polygon fill="none" points="-10.563288519733533,-121.04224486462093 8.212853477268695,-116.52326854696109 19.5676802024107,-115.69779112257964 29.09638220128234,-122.1848305283598" stroke-width="1.5" stroke="rgb(72,155,210)"></polygon><line fill="none" stroke-width="1.5" stroke="rgb(72,155,210)" x1="60.643946637986126" x2="52.624665141334305" y1="-101.61894308246119" y2="-82.47866166597451"></line><line fill="none" stroke-width="1.5" stroke="rgb(72,155,210)" x1="47.60640122289858" x2="45.45404186725159" y1="-102.32953313427748" y2="-78.46081562057164"></line><line fill="none" stroke-width="1.5" stroke="rgb(72,155,210)" x1="36.86231622608997" x2="38.9103471733998" y1="-102.9151218836571" y2="-74.79425040816623"></line><line fill="none" stroke-width="1.5" stroke="rgb(72,155,210)" x1="25.058628736885048" x2="32.27947906137983" y1="-103.55846253080612" y2="-71.0788401567644"></line><line fill="none" stroke-width="1.5" stroke="rgb(72,155,210)" x1="22.556756612068842" x2="62.234846619882404" y1="-74.37000579299024" y2="-89.46927888559367"></line><line fill="none" stroke-width="1.5" stroke="rgb(72,155,210)" x1="20.03964859855756" x2="64.66200198399301" y1="-81.96282308364447" y2="-92.33527089979772"></line><line fill="none" stroke-width="1.5" stroke="rgb(72,155,210)" x1="17.500563682374647" x2="67.09245342490198" y1="-89.62193336041787" y2="-95.20515493093731"></line><line fill="none" stroke-width="1.5" stroke="rgb(72,155,210)" x1="15.014862385781889" x2="69.45009746715026" y1="-97.12001277650269" y2="-97.98906777695133"></line><line fill="none" stroke-width="1.5" stroke="rgb(72,155,210)" x1="60.70834548151645" x2="72.41374608391024" y1="-81.73396048419191" y2="-99.34501566435904"></line><line fill="none" stroke-width="1.5" stroke="rgb(72,155,210)" x1="61.678074097782364" x2="72.85299223135173" y1="-77.45934320428584" y2="-97.58803107459308"></line><line fill="none" stroke-width="1.5" stroke="rgb(72,155,210)" x1="62.80779896660926" x2="73.28342524601875" y1="-72.47945360958416" y2="-95.86629901592502"></line><line fill="none" stroke-width="1.5" stroke="rgb(72,155,210)" x1="63.79823469389134" x2="73.74574368216729" y1="-68.11355824106451" y2="-94.01702527133085"></line><line fill="none" stroke-width="1.5" stroke="rgb(72,155,210)" x1="64.89637408670319" x2="74.11971257024904" y1="-63.27289916849375" y2="-92.52114971900384"></line><line fill="none" stroke-width="1.5" stroke="rgb(72,155,210)" x1="65.92935223285488" x2="74.59963323559174" y1="-58.719474468799646" y2="-90.60146705763307"></line><line fill="none" stroke-width="1.5" stroke="rgb(72,155,210)" x1="67.26599057686356" x2="115.56497819437179" y1="39.53656689075316" y2="38.614538226238636"></line><line fill="none" stroke-width="1.5" stroke="rgb(72,155,210)" x1="71.66651225360005" x2="119.30596951667899" y1="41.12159053032393" y2="51.851892135941014"></line><line fill="none" stroke-width="1.5" stroke="rgb(72,155,210)" x1="75.57685856671074" x2="123.05637515614023" y1="42.53005793498522" y2="65.1225582448039"></line><line fill="none" stroke-width="1.5" stroke="rgb(72,155,210)" x1="80.47890472572526" x2="126.98270519314407" y1="44.295725647834075" y2="79.01572606804827"></line><line fill="none" stroke-width="1.5" stroke="rgb(72,155,210)" x1="84.76059510694081" x2="130.26234566586226" y1="45.83794745017785" y2="90.62060774074335"></line><line fill="none" stroke-width="1.5" stroke="rgb(72,155,210)" x1="88.49842783475212" x2="134.46542074635178" y1="47.18427719686733" y2="105.49302725632167"></line></g></svg>