<svg height="544.5496992637527" viewBox="-268.61783391818153 -271.1474038322822 518.6178339181815 544.5496992637527" width="518.6178339181815" xmlns="http://www.w3.org/2000/svg"><g><rect fill="rgb(97,175,200)" height="544.5496992637527" transform="rotate(0 -9.308916959090737 1.1274457995941418)" width="518.6178339181815" x="-268.61783391818153" y="-271.1474038322822"></rect><polygon fill="none" points="-141.28035,28.283075 -208.12604,68.7015 -128.89069,64.99636" stroke-width="1.5" stroke="rgb(95,65,124)"></polygon><polygon fill="none" points="36.243935,146.65292 62.634144,214.89699 76.510956,136.80368" stroke-width="1.5" stroke="rgb(95,65,124)"></polygon><polygon fill="none" points="-42.75888,140.41335 -50.24378,216.36365 -3.9111288,148.08997" stroke-width="1.5" stroke="rgb(95,65,124)"></polygon><polygon fill="none" points="-197.76247,-95.325676 -215.09544,-42.074768 -136.02063,-48.329494" stroke-width="1.5" stroke="rgb(95,65,124)"></polygon><polygon fill="none" points="-136.02063,-48.329494 -215.09544,-42.074768 -143.71109,-10.352855" stroke-width="1.5" stroke="rgb(95,65,124)"></polygon><polygon fill="none" points="-22.440886,-146.43207 -76.96519,-208.36028 -60.020195,-133.94698" stroke-width="1.5" stroke="rgb(95,65,124)"></polygon><polygon fill="none" points="139.02249,-106.67245 131.10924,-164.61699 99.92129,-131.22073" stroke-width="1.5" stroke="rgb(95,65,124)"></polygon><polygon fill="none" points="-118.687386,-83.102036 -197.76247,-95.325676 -136.02063,-48.329494" stroke-width="1.5" stroke="rgb(95,65,124)"></polygon><polygon fill="none" points="-21.709131,-221.1474 -76.96519,-208.36028 -22.440886,-146.43207" stroke-width="1.5" stroke="rgb(95,65,124)"></polygon><polygon fill="none" points="198.42293,-25.06665 182.76881,-73.34677 173.08559,-71.10565" stroke-width="1.5" stroke="rgb(95,65,124)"></polygon><polygon fill="none" points="-76.96519,-208.36028 -126.56031,-181.18423 -60.020195,-133.94698" stroke-width="1.5" stroke="rgb(95,65,124)"></polygon><polygon fill="none" points="34.73129,-217.33655 -21.709131,-221.1474 17.577633,-150.03911" stroke-width="1.5" stroke="rgb(95,65,124)"></polygon><polygon fill="none" points="131.10924,-164.61699 87.149956,-197.67654 99.92129,-131.22073" stroke-width="1.5" stroke="rgb(95,65,124)"></polygon><polygon fill="none" points="151.29591,88.40716 185.11165,105.179726 180.6327,48.85157" stroke-width="1.5" stroke="rgb(95,65,124)"></polygon><polygon fill="none" points="17.577633,-150.03911 -21.709131,-221.1474 -22.440886,-146.43207" stroke-width="1.5" stroke="rgb(95,65,124)"></polygon><polygon fill="none" points="6.1810637,223.4023 62.634144,214.89699 36.243935,146.65292" stroke-width="1.5" stroke="rgb(95,65,124)"></polygon><polygon fill="none" points="-107.33606,97.3222 -148.4447,162.57338 -77.99626,123.0613" stroke-width="1.5" stroke="rgb(95,65,124)"></polygon><polygon fill="none" points="198.42294,-25.06665 182.76881,-73.34677 198.42293,-25.06665" stroke-width="1.5" stroke="rgb(95,65,124)"></polygon><polygon fill="none" points="-143.71109,-10.352855 -218.61783,13.754246 -141.28035,28.283075" stroke-width="1.5" stroke="rgb(95,65,124)"></polygon><polygon fill="none" points="-148.4447,162.57338 -102.85394,195.6178 -77.99626,123.0613" stroke-width="1.5" stroke="rgb(95,65,124)"></polygon><polygon fill="none" points="-126.56031,-181.18423 -167.65005,-142.68645 -92.8049,-112.31544" stroke-width="1.5" stroke="rgb(95,65,124)"></polygon><polygon fill="none" points="87.149956,-197.67654 34.73129,-217.33655 58.761513,-145.31435" stroke-width="1.5" stroke="rgb(95,65,124)"></polygon><polygon fill="none" points="-215.09544,-42.074768 -218.61783,13.754246 -143.71109,-10.352855" stroke-width="1.5" stroke="rgb(95,65,124)"></polygon><polygon fill="none" points="-50.24378,216.36365 6.1810637,223.4023 -3.9111288,148.08997" stroke-width="1.5" stroke="rgb(95,65,124)"></polygon><polygon fill="none" points="-102.85394,195.6178 -50.24378,216.36365 -42.75888,140.41335" stroke-width="1.5" stroke="rgb(95,65,124)"></polygon><polygon fill="none" points="99.92129,-131.22073 87.149956,-197.67654 58.761513,-145.31435" stroke-width="1.5" stroke="rgb(95,65,124)"></polygon><polygon fill="none" points="182.76881,-73.34677 163.49492,-121.79303 173.08559,-71.10565" stroke-width="1.5" stroke="rgb(95,65,124)"></polygon><polygon fill="none" points="156.03136,152.54117 185.11165,105.179726 151.29591,88.40716" stroke-width="1.5" stroke="rgb(95,65,124)"></polygon><polygon fill="none" points="58.761513,-145.31435 34.73129,-217.33655 17.577633,-150.03911" stroke-width="1.5" stroke="rgb(95,65,124)"></polygon><polygon fill="none" points="62.634144,214.89699 114.116806,190.41309 76.510956,136.80368" stroke-width="1.5" stroke="rgb(95,65,124)"></polygon><polygon fill="none" points="-208.12604,68.7015 -184.25555,119.36018 -128.89069,64.99636" stroke-width="1.5" stroke="rgb(95,65,124)"></polygon><polygon fill="none" points="-92.8049,-112.31544 -167.65005,-142.68645 -118.687386,-83.102036" stroke-width="1.5" stroke="rgb(95,65,124)"></polygon><polygon fill="none" points="-218.61783,13.754246 -208.12604,68.7015 -141.28035,28.283075" stroke-width="1.5" stroke="rgb(95,65,124)"></polygon><polygon fill="none" points="-3.9111288,148.08997 6.1810637,223.4023 36.243935,146.65292" stroke-width="1.5" stroke="rgb(95,65,124)"></polygon><polygon fill="none" points="-167.65005,-142.68645 -197.76247,-95.325676 -118.687386,-83.102036" stroke-width="1.5" stroke="rgb(95,65,124)"></polygon><polygon fill="none" points="-60.020195,-133.94698 -126.56031,-181.18423 -92.8049,-112.31544" stroke-width="1.5" stroke="rgb(95,65,124)"></polygon><polygon fill="none" points="115.579704,117.66254 156.03136,152.54117 151.29591,88.40716" stroke-width="1.5" stroke="rgb(95,65,124)"></polygon><polygon fill="none" points="-77.99626,123.0613 -102.85394,195.6178 -42.75888,140.41335" stroke-width="1.5" stroke="rgb(95,65,124)"></polygon><line fill="none" stroke-width="1.5" stroke="rgb(95,65,124)" x1="-151.77898662419273" x2="-142.06733010664607" y1="34.63110431198238" y2="65.61251630769785"></line><line fill="none" stroke-width="1.5" stroke="rgb(95,65,124)" x1="-163.14717659088447" x2="-156.2360851274602" y1="41.50491089167875" y2="66.27506412307378"></line><line fill="none" stroke-width="1.5" stroke="rgb(95,65,124)" x1="-175.01620277327498" x2="-167.60967260353988" y1="48.68154943362303" y2="66.80690658376943"></line><line fill="none" stroke-width="1.5" stroke="rgb(95,65,124)" x1="-186.31232134975963" x2="-180.9072805027666" y1="55.511777853765" y2="67.42871852493265"></line><line fill="none" stroke-width="1.5" stroke="rgb(95,65,124)" x1="-196.333493264411" x2="-194.05865503654394" y1="61.571106352411185" y2="68.0436924202216"></line><line fill="none" stroke-width="1.5" stroke="rgb(95,65,124)" x1="-142.83794856155686" x2="-130.81262757256536" y1="65.64855134204204" y2="59.301227318900374"></line><line fill="none" stroke-width="1.5" stroke="rgb(95,65,124)" x1="-155.0701116820934" x2="-133.1022008450304" y1="66.22054181974654" y2="52.51672055887424"></line><line fill="none" stroke-width="1.5" stroke="rgb(95,65,124)" x1="-169.46799941210048" x2="-135.0555506948757" y1="66.89380415278363" y2="46.7285173944027"></line><line fill="none" stroke-width="1.5" stroke="rgb(95,65,124)" x1="-182.0651582578535" x2="-137.27904786098512" y1="67.4828622641658" y2="40.1398086005903"></line><line fill="none" stroke-width="1.5" stroke="rgb(95,65,124)" x1="-194.63086528029345" x2="-139.35365899228773" y1="68.07044965092925" y2="33.99228171686046"></line><line fill="none" stroke-width="1.5" stroke="rgb(95,65,124)" x1="46.74015654884506" x2="62.634144" y1="144.08556600594736" y2="214.89699"></line><line fill="none" stroke-width="1.5" stroke="rgb(95,65,124)" x1="56.5468991342363" x2="62.634144" y1="141.68685387025104" y2="214.89699"></line><line fill="none" stroke-width="1.5" stroke="rgb(95,65,124)" x1="66.82418090783806" x2="62.634144" y1="139.17304866962994" y2="214.89699"></line><polygon fill="none" points="-42.75888,140.41335 -50.24378,216.36365 -3.9111288,148.08997" stroke-width="1.5" stroke="rgb(95,65,124)"></polygon><line fill="none" stroke-width="1.5" stroke="rgb(95,65,124)" x1="-201.91855910629894" x2="-155.74009829095655" y1="-82.55719975164999" y2="-46.76970730960955"></line><line fill="none" stroke-width="1.5" stroke="rgb(95,65,124)" x1="-206.6117641831861" x2="-175.3867873081491" y1="-68.13859023966934" y2="-45.215676908633846"></line><line fill="none" stroke-width="1.5" stroke="rgb(95,65,124)" x1="-210.8113406691866" x2="-196.06156308604753" y1="-55.236521722454775" y2="-43.5803260327639"></line><line fill="none" stroke-width="1.5" stroke="rgb(95,65,124)" x1="-155.8875127652806" x2="-151.38489322302763" y1="-46.758046995016954" y2="-60.02434757332867"></line><line fill="none" stroke-width="1.5" stroke="rgb(95,65,124)" x1="-175.05674029925706" x2="-166.9569816316615" y1="-45.241783245692496" y2="-71.8773913750421"></line><line fill="none" stroke-width="1.5" stroke="rgb(95,65,124)" x1="-195.24840997185902" x2="-182.86149063398426" y1="-43.64464550455842" y2="-83.98346455561529"></line><polygon fill="none" points="-136.02063,-48.329494 -215.09544,-42.074768 -143.71109,-10.352855" stroke-width="1.5" stroke="rgb(95,65,124)"></polygon><line fill="none" stroke-width="1.5" stroke="rgb(95,65,124)" x1="-31.73279167564065" x2="-76.96519" y1="-143.34498867558167" y2="-208.36028"></line><line fill="none" stroke-width="1.5" stroke="rgb(95,65,124)" x1="-40.9973856971592" x2="-76.96519" y1="-140.26698346836577" y2="-208.36028"></line><line fill="none" stroke-width="1.5" stroke="rgb(95,65,124)" x1="-51.045722659091254" x2="-76.96519" y1="-136.92859287932868" y2="-208.36028"></line><polygon fill="none" points="137.06078237192818,-111.13166303349131 129.79945028409966,-161.1952786206677 103.76151608298396,-133.22859650572437" stroke-width="1.5" stroke="rgb(95,65,124)"></polygon><polygon fill="none" points="134.79853953864375,-116.27403054233861 128.76678588144122,-158.49752883262332 106.50434346853177,-134.66268335263297" stroke-width="1.5" stroke="rgb(95,65,124)"></polygon><polygon fill="none" points="132.45810086163968,-121.59414721239638 127.57864835192592,-155.39361844298864 110.0985651257798,-136.5419215543122" stroke-width="1.5" stroke="rgb(95,65,124)"></polygon><polygon fill="none" points="130.0221753868187,-127.13131759543012 126.4794779421955,-152.52212724774537 113.12405000531527,-138.12379582541078" stroke-width="1.5" stroke="rgb(95,65,124)"></polygon><polygon fill="none" points="127.50664590423267,-132.84943807678314 125.11809321340037,-148.96562297191375 115.94963559529539,-139.60115278588012" stroke-width="1.5" stroke="rgb(95,65,124)"></polygon><polygon fill="none" points="124.83129240440063,-138.93085900551836 124.0197135093202,-146.09619742935965 119.73102856827359,-141.57825347916986" stroke-width="1.5" stroke="rgb(95,65,124)"></polygon><line fill="none" stroke-width="1.5" stroke="rgb(95,65,124)" x1="-145.05931270743756" x2="-118.687386" y1="-55.20949031365735" y2="-83.102036"></line><line fill="none" stroke-width="1.5" stroke="rgb(95,65,124)" x1="-153.89785505328723" x2="-118.687386" y1="-61.93714474378308" y2="-83.102036"></line><line fill="none" stroke-width="1.5" stroke="rgb(95,65,124)" x1="-162.08050884391204" x2="-118.687386" y1="-68.1655549126309" y2="-83.102036"></line><line fill="none" stroke-width="1.5" stroke="rgb(95,65,124)" x1="-170.84005544753697" x2="-118.687386" y1="-74.83307996459182" y2="-83.102036"></line><line fill="none" stroke-width="1.5" stroke="rgb(95,65,124)" x1="-180.36085776982586" x2="-118.687386" y1="-82.08005185379429" y2="-83.102036"></line><line fill="none" stroke-width="1.5" stroke="rgb(95,65,124)" x1="-188.80546925114317" x2="-118.687386" y1="-88.50785698499361" y2="-83.102036"></line><polygon fill="none" points="-24.519849562156697,-217.01489669080334 -67.72474502471282,-206.72930797748825 -25.189636716276453,-158.01447781901044" stroke-width="1.5" stroke="rgb(95,65,124)"></polygon><polygon fill="none" points="-27.491708388524035,-212.6454740947763 -59.41880091010802,-205.26328253174478 -27.898673374031087,-169.4295427577712" stroke-width="1.5" stroke="rgb(95,65,124)"></polygon><polygon fill="none" points="-30.19169894010898,-208.67577014367194 -51.01806447417319,-203.78052594102687 -30.106895065028652,-178.73432419354916" stroke-width="1.5" stroke="rgb(95,65,124)"></polygon><polygon fill="none" points="-32.51437046586176,-205.26082547748194 -42.732171345951,-202.31803955789246 -33.093197239858824,-191.31770255237257" stroke-width="1.5" stroke="rgb(95,65,124)"></polygon><polygon fill="none" points="194.40360681977134,-33.329902630618385 182.56596458419827,-70.01885792975757 175.4573646465034,-67.85848923260471" stroke-width="1.5" stroke="rgb(95,65,124)"></polygon><polygon fill="none" points="190.40509298804383,-41.55037769971325 182.3363016883097,-66.25104880073533 177.30954614817568,-65.32269781670072" stroke-width="1.5" stroke="rgb(95,65,124)"></polygon><polygon fill="none" points="186.05365307813452,-50.49642735702296 182.13463560936725,-62.94255053281257 179.6468543925554,-62.122727307834" stroke-width="1.5" stroke="rgb(95,65,124)"></polygon><polygon fill="none" points="-76.96519,-208.36028 -126.56031,-181.18423 -60.020195,-133.94698" stroke-width="1.5" stroke="rgb(95,65,124)"></polygon><line fill="none" stroke-width="1.5" stroke="rgb(95,65,124)" x1="27.36629282769112" x2="12.592800435682761" y1="-217.83383171920485" y2="-159.06155969436023"></line><line fill="none" stroke-width="1.5" stroke="rgb(95,65,124)" x1="20.74732739608296" x2="7.712805483868394" y1="-218.28074366496497" y2="-167.89425721271715"></line><line fill="none" stroke-width="1.5" stroke="rgb(95,65,124)" x1="14.066651248037846" x2="2.3872725050845425" y1="-218.73182231270326" y2="-177.5333700376481"></line><line fill="none" stroke-width="1.5" stroke="rgb(95,65,124)" x1="7.1571234531440915" x2="-2.173255721991435" y1="-219.19835300288537" y2="-185.7878388949804"></line><line fill="none" stroke-width="1.5" stroke="rgb(95,65,124)" x1="-0.14785978987752202" x2="-6.75657274171499" y1="-219.6915848090667" y2="-194.08355503110138"></line><line fill="none" stroke-width="1.5" stroke="rgb(95,65,124)" x1="-7.101793474639123" x2="-11.795110031174888" y1="-220.16111378090613" y2="-203.20321114800265"></line><line fill="none" stroke-width="1.5" stroke="rgb(95,65,124)" x1="-14.612685101959634" x2="-16.676438259278264" y1="-220.66824850252436" y2="-212.0383218709398"></line><line fill="none" stroke-width="1.5" stroke="rgb(95,65,124)" x1="12.394159530144215" x2="19.73907589138104" y1="-159.4210959337865" y2="-158.5189086632509"></line><line fill="none" stroke-width="1.5" stroke="rgb(95,65,124)" x1="7.908426074877244" x2="21.742688691473724" y1="-167.54018768481714" y2="-166.37950766909938"></line><line fill="none" stroke-width="1.5" stroke="rgb(95,65,124)" x1="3.168154921205627" x2="23.848272931678327" y1="-176.11998780116915" y2="-174.64016231480585"></line><line fill="none" stroke-width="1.5" stroke="rgb(95,65,124)" x1="-2.2701372691521087" x2="26.103569603728307" y1="-185.96319264219332" y2="-183.4881706612236"></line><line fill="none" stroke-width="1.5" stroke="rgb(95,65,124)" x1="-6.515308717211999" x2="28.40263131653987" y1="-193.64687176164347" y2="-192.50787856749918"></line><line fill="none" stroke-width="1.5" stroke="rgb(95,65,124)" x1="-11.464577911964987" x2="30.42071688638167" y1="-202.60495433464322" y2="-200.42525732615044"></line><line fill="none" stroke-width="1.5" stroke="rgb(95,65,124)" x1="-16.53355406535536" x2="32.52368010170156" y1="-211.77970421302481" y2="-208.67562913397418"></line><line fill="none" stroke-width="1.5" stroke="rgb(95,65,124)" x1="125.93118981993861" x2="99.92129" y1="-168.51113732282332" y2="-131.22073"></line><line fill="none" stroke-width="1.5" stroke="rgb(95,65,124)" x1="121.56485269133995" x2="99.92129" y1="-171.79483888428447" y2="-131.22073"></line><line fill="none" stroke-width="1.5" stroke="rgb(95,65,124)" x1="116.14671562208164" x2="99.92129" y1="-175.86954604283233" y2="-131.22073"></line><line fill="none" stroke-width="1.5" stroke="rgb(95,65,124)" x1="112.00259343795094" x2="99.92129" y1="-178.98613097114347" y2="-131.22073"></line><line fill="none" stroke-width="1.5" stroke="rgb(95,65,124)" x1="106.73858824780261" x2="99.92129" y1="-182.9449233303531" y2="-131.22073"></line><line fill="none" stroke-width="1.5" stroke="rgb(95,65,124)" x1="101.70590610375933" x2="99.92129" y1="-186.72974931332445" y2="-131.22073"></line><line fill="none" stroke-width="1.5" stroke="rgb(95,65,124)" x1="96.41774311840366" x2="99.92129" y1="-190.7067095298267" y2="-131.22073"></line><line fill="none" stroke-width="1.5" stroke="rgb(95,65,124)" x1="91.83568142090797" x2="99.92129" y1="-194.15264664087314" y2="-131.22073"></line><line fill="none" stroke-width="1.5" stroke="rgb(95,65,124)" x1="181.2797632515182" x2="180.04395079080172" y1="56.98910617055723" y2="102.66615306007195"></line><line fill="none" stroke-width="1.5" stroke="rgb(95,65,124)" x1="181.89760731125057" x2="175.86297873314678" y1="64.7592468675559" y2="100.59239546239404"></line><line fill="none" stroke-width="1.5" stroke="rgb(95,65,124)" x1="182.50856466496262" x2="170.23021235177976" y1="72.44277885824113" y2="97.79854945763114"></line><line fill="none" stroke-width="1.5" stroke="rgb(95,65,124)" x1="183.18693399533498" x2="166.20772463571132" y1="80.97409846630721" y2="95.80339992117578"></line><line fill="none" stroke-width="1.5" stroke="rgb(95,65,124)" x1="183.77992909652488" x2="161.18866723380006" y1="88.43173327932499" y2="93.31395290338516"></line><line fill="none" stroke-width="1.5" stroke="rgb(95,65,124)" x1="184.4419758346448" x2="156.39470951124053" y1="96.75777643236425" y2="90.93615508196642"></line><line fill="none" stroke-width="1.5" stroke="rgb(95,65,124)" x1="-21.815805030593477" x2="12.143569911454378" y1="-210.25553689905408" y2="-149.54931291313721"></line><line fill="none" stroke-width="1.5" stroke="rgb(95,65,124)" x1="-21.917464833094765" x2="5.722765712132357" y1="-199.8756240414209" y2="-148.97057834025514"></line><line fill="none" stroke-width="1.5" stroke="rgb(95,65,124)" x1="-22.028784184138708" x2="0.04820285435410199" y1="-188.50942880225796" y2="-148.45910569448665"></line><line fill="none" stroke-width="1.5" stroke="rgb(95,65,124)" x1="-22.12282659668921" x2="-5.223661649918828" y1="-178.90728495406935" y2="-147.9839299754553"></line><line fill="none" stroke-width="1.5" stroke="rgb(95,65,124)" x1="-22.23016659068003" x2="-11.061773001468358" y1="-167.94739956820666" y2="-147.45771600371737"></line><line fill="none" stroke-width="1.5" stroke="rgb(95,65,124)" x1="-22.329793291428572" x2="-16.611065404293324" y1="-157.77507533955924" y2="-146.9575345203939"></line><line fill="none" stroke-width="1.5" stroke="rgb(95,65,124)" x1="53.43705109239298" x2="36.243935" y1="216.28263640613534" y2="146.65292"></line><line fill="none" stroke-width="1.5" stroke="rgb(95,65,124)" x1="44.52082228405222" x2="36.243935" y1="217.625969494961" y2="146.65292"></line><line fill="none" stroke-width="1.5" stroke="rgb(95,65,124)" x1="33.88554638602229" x2="36.243935" y1="219.22829692842132" y2="146.65292"></line><line fill="none" stroke-width="1.5" stroke="rgb(95,65,124)" x1="24.83919340578317" x2="36.243935" y1="220.59123473012778" y2="146.65292"></line><line fill="none" stroke-width="1.5" stroke="rgb(95,65,124)" x1="14.968408594634141" x2="36.243935" y1="222.07838273120757" y2="146.65292"></line><polygon fill="none" points="-107.33606,97.3222 -148.4447,162.57338 -77.99626,123.0613" stroke-width="1.5" stroke="rgb(95,65,124)"></polygon><line fill="none" stroke-width="1.5" stroke="rgb(95,65,124)" x1="196.27960724670746" x2="196.30643031580132" y1="-31.677079790214904" y2="-31.594311971766857"></line><line fill="none" stroke-width="1.5" stroke="rgb(95,65,124)" x1="194.6524323712705" x2="194.69179696069784" y1="-36.69557679425892" y2="-36.57413354837597"></line><line fill="none" stroke-width="1.5" stroke="rgb(95,65,124)" x1="192.48630179974856" x2="192.57181027208966" y1="-43.376309116057996" y2="-43.11255629350668"></line><line fill="none" stroke-width="1.5" stroke="rgb(95,65,124)" x1="190.62387443627412" x2="190.73936787630333" y1="-49.120366675535855" y2="-48.76414038322422"></line><line fill="none" stroke-width="1.5" stroke="rgb(95,65,124)" x1="188.7135626197732" x2="188.51704578946402" y1="-55.01210841308287" y2="-55.61818402306238"></line><line fill="none" stroke-width="1.5" stroke="rgb(95,65,124)" x1="186.640022265979" x2="186.85382408232323" y1="-61.4072760194449" y2="-60.74786087367694"></line><line fill="none" stroke-width="1.5" stroke="rgb(95,65,124)" x1="184.53270598670943" x2="184.64554573487712" y1="-67.90661459314784" y2="-67.55859107878052"></line><line fill="none" stroke-width="1.5" stroke="rgb(95,65,124)" x1="196.6608516226093" x2="198.4229297384666" y1="-30.501212497961426" y2="-25.066650390625"></line><line fill="none" stroke-width="1.5" stroke="rgb(95,65,124)" x1="194.3522473111673" x2="198.42293163348504" y1="-37.621366138807616" y2="-25.066650390625"></line><line fill="none" stroke-width="1.5" stroke="rgb(95,65,124)" x1="192.58089148833128" x2="198.42293372188482" y1="-43.08454817857529" y2="-25.066650390625"></line><line fill="none" stroke-width="1.5" stroke="rgb(95,65,124)" x1="190.4645154437118" x2="198.42293529770384" y1="-49.61183504398215" y2="-25.066650390625"></line><line fill="none" stroke-width="1.5" stroke="rgb(95,65,124)" x1="188.71711491306897" x2="198.42293757296275" y1="-55.00113462581555" y2="-25.066650390625"></line><line fill="none" stroke-width="1.5" stroke="rgb(95,65,124)" x1="186.80067487900362" x2="198.42293915393222" y1="-60.911782638722826" y2="-25.066650390625"></line><line fill="none" stroke-width="1.5" stroke="rgb(95,65,124)" x1="184.67631895984067" x2="198.42294108833002" y1="-67.4636808818798" y2="-25.066650390625"></line><line fill="none" stroke-width="1.5" stroke="rgb(95,65,124)" x1="-158.42857695686732" x2="-157.59518502970175" y1="-5.616352472642902" y2="25.218125895949512"></line><line fill="none" stroke-width="1.5" stroke="rgb(95,65,124)" x1="-174.24633861157398" x2="-172.4746923545614" y1="-0.5257507666411332" y2="22.422821085335936"></line><line fill="none" stroke-width="1.5" stroke="rgb(95,65,124)" x1="-188.91106524739573" x2="-187.82255078431828" y1="4.193771758731511" y2="19.539530559335926"></line><line fill="none" stroke-width="1.5" stroke="rgb(95,65,124)" x1="-203.01100758480487" x2="-202.90018771854602" y1="8.731530771934494" y2="16.70700458016482"></line><line fill="none" stroke-width="1.5" stroke="rgb(95,65,124)" x1="-157.6068118806162" x2="-141.7649338731049" y1="25.215941644039564" y2="20.580747539238914"></line><line fill="none" stroke-width="1.5" stroke="rgb(95,65,124)" x1="-171.38246169572645" x2="-142.22722296585624" y1="22.62801051454775" y2="13.232793238689514"></line><line fill="none" stroke-width="1.5" stroke="rgb(95,65,124)" x1="-187.79162785594184" x2="-142.7292028908155" y1="19.545339824962923" y2="5.253964392780041"></line><line fill="none" stroke-width="1.5" stroke="rgb(95,65,124)" x1="-203.14364634705453" x2="-143.22019406118764" y1="16.66126777849544" y2="-2.550201308807029"></line><line fill="none" stroke-width="1.5" stroke="rgb(95,65,124)" x1="-95.2832892832374" x2="-114.31828939869158" y1="132.75699409014717" y2="187.30838014061072"></line><line fill="none" stroke-width="1.5" stroke="rgb(95,65,124)" x1="-112.37139591160104" x2="-126.2024145267687" y1="142.34111810001085" y2="178.69470472695392"></line><line fill="none" stroke-width="1.5" stroke="rgb(95,65,124)" x1="-130.04076920705717" x2="-136.54976163002192" y1="152.2512543440777" y2="171.19489398116394"></line><polygon fill="none" points="-127.11466278644484,-174.70486742937982 -159.34607581575304,-143.32439290371263 -100.95495114462521,-119.68917279154772" stroke-width="1.5" stroke="rgb(95,65,124)"></polygon><polygon fill="none" points="-127.7063153805454,-167.78952937159443 -153.1072533981838,-143.80368484967286 -106.66126270655084,-124.85194257605099" stroke-width="1.5" stroke="rgb(95,65,124)"></polygon><polygon fill="none" points="-128.45804096492915,-159.0032304615008 -143.88988342056686,-144.5118010449289 -115.05168837034954,-132.4431572558121" stroke-width="1.5" stroke="rgb(95,65,124)"></polygon><polygon fill="none" points="-128.96382514959748,-153.09153725481406 -136.36075994715588,-145.0902192141628 -121.56393130447763,-138.33509124588602" stroke-width="1.5" stroke="rgb(95,65,124)"></polygon><polygon fill="none" points="87.149956,-197.67654 34.73129,-217.33655 58.761513,-145.31435" stroke-width="1.5" stroke="rgb(95,65,124)"></polygon><line fill="none" stroke-width="1.5" stroke="rgb(95,65,124)" x1="-202.76821721163466" x2="-215.09544" y1="8.653393984009547" y2="-42.074768"></line><line fill="none" stroke-width="1.5" stroke="rgb(95,65,124)" x1="-188.71577108280002" x2="-215.09544" y1="4.130920589952689" y2="-42.074768"></line><line fill="none" stroke-width="1.5" stroke="rgb(95,65,124)" x1="-173.6586492529392" x2="-215.09544" y1="-0.7148857730328295" y2="-42.074768"></line><line fill="none" stroke-width="1.5" stroke="rgb(95,65,124)" x1="-159.02963445790397" x2="-215.09544" y1="-5.422915221091458" y2="-42.074768"></line><line fill="none" stroke-width="1.5" stroke="rgb(95,65,124)" x1="-40.17591852189203" x2="-2.244782508923329" y1="217.61955077453817" y2="160.52496677759746"></line><line fill="none" stroke-width="1.5" stroke="rgb(95,65,124)" x1="-31.634859745371603" x2="-0.6596416715687301" y1="218.68499510246946" y2="172.35397759961887"></line><line fill="none" stroke-width="1.5" stroke="rgb(95,65,124)" x1="-22.236082528420095" x2="1.0693101167072765" y1="219.85743450808732" y2="185.25616832760593"></line><line fill="none" stroke-width="1.5" stroke="rgb(95,65,124)" x1="-13.246893150455485" x2="2.919514515616061" y1="220.97878036063915" y2="199.06319880836043"></line><line fill="none" stroke-width="1.5" stroke="rgb(95,65,124)" x1="-3.527188082430655" x2="4.607758893326158" y1="222.19125353344535" y2="211.66161312180236"></line><polygon fill="none" points="-102.85394,195.6178 -50.24378,216.36365 -42.75888,140.41335" stroke-width="1.5" stroke="rgb(95,65,124)"></polygon><line fill="none" stroke-width="1.5" stroke="rgb(95,65,124)" x1="80.36459383289647" x2="99.92129" y1="-185.16101230827604" y2="-131.22073"></line><line fill="none" stroke-width="1.5" stroke="rgb(95,65,124)" x1="73.11235817713514" x2="99.92129" y1="-171.78433650602688" y2="-131.22073"></line><line fill="none" stroke-width="1.5" stroke="rgb(95,65,124)" x1="65.72846686686128" x2="99.92129" y1="-158.1648231718026" y2="-131.22073"></line><polygon fill="none" points="181.38549236216983,-75.71991306196261 164.41280013231722,-118.65892032282527 173.03405649598255,-73.00174803611156" stroke-width="1.5" stroke="rgb(95,65,124)"></polygon><polygon fill="none" points="180.65325529210259,-76.97609402356623 165.359503411782,-115.42639812539608 172.95314591262786,-75.97892819619466" stroke-width="1.5" stroke="rgb(95,65,124)"></polygon><polygon fill="none" points="179.2902189913124,-79.31443541738551 166.65566723224757,-111.00064148966509 172.90821691008117,-77.6321326281528" stroke-width="1.5" stroke="rgb(95,65,124)"></polygon><polygon fill="none" points="178.12981044937496,-81.30516106847845 167.5136167636649,-108.07116932585421 172.8435217268579,-80.01265206033735" stroke-width="1.5" stroke="rgb(95,65,124)"></polygon><polygon fill="none" points="176.84999882039017,-83.50072732493953 168.549870916188,-104.53287530821562 172.79062522453032,-81.95902805638097" stroke-width="1.5" stroke="rgb(95,65,124)"></polygon><polygon fill="none" points="175.99737644394273,-84.96343392709521 169.30511541576675,-101.95408989325995 172.72023934625176,-84.54894190537998" stroke-width="1.5" stroke="rgb(95,65,124)"></polygon><polygon fill="none" points="174.6251388404262,-87.3175605109565 170.59623377443103,-97.54556100736637 172.65882151712145,-86.80886804582606" stroke-width="1.5" stroke="rgb(95,65,124)"></polygon><polygon fill="none" points="173.89804175045882,-88.56492363827057 171.5696567831844,-94.22180418562762 172.6171723154749,-88.34138915350135" stroke-width="1.5" stroke="rgb(95,65,124)"></polygon><line fill="none" stroke-width="1.5" stroke="rgb(95,65,124)" x1="179.39307302876918" x2="155.29363013452272" y1="102.34331839732808" y2="142.5498391733419"></line><line fill="none" stroke-width="1.5" stroke="rgb(95,65,124)" x1="173.87378912867297" x2="154.45986497803656" y1="99.60575957996883" y2="131.2578223873532"></line><line fill="none" stroke-width="1.5" stroke="rgb(95,65,124)" x1="168.54953565195706" x2="153.62185062207828" y1="96.96493564069202" y2="119.90825698423515"></line><line fill="none" stroke-width="1.5" stroke="rgb(95,65,124)" x1="162.2720537972649" x2="152.85234781399905" y1="93.85131146168834" y2="109.48657102374675"></line><line fill="none" stroke-width="1.5" stroke="rgb(95,65,124)" x1="156.55836282033857" x2="152.0876863786384" y1="91.01732694545828" y2="99.13045372078771"></line><line fill="none" stroke-width="1.5" stroke="rgb(95,65,124)" x1="31.811923599727773" x2="58.761513" y1="-205.883257049127" y2="-145.31435"></line><line fill="none" stroke-width="1.5" stroke="rgb(95,65,124)" x1="29.045406863289614" x2="58.761513" y1="-195.02962369885938" y2="-145.31435"></line><line fill="none" stroke-width="1.5" stroke="rgb(95,65,124)" x1="26.222153292528354" x2="58.761513" y1="-183.9533996846399" y2="-145.31435"></line><line fill="none" stroke-width="1.5" stroke="rgb(95,65,124)" x1="23.481341427945825" x2="58.761513" y1="-173.20061201181278" y2="-145.31435"></line><line fill="none" stroke-width="1.5" stroke="rgb(95,65,124)" x1="20.58304450962217" x2="58.761513" y1="-161.82997699002874" y2="-145.31435"></line><polygon fill="none" points="62.634144,214.89699 114.116806,190.41309 76.510956,136.80368" stroke-width="1.5" stroke="rgb(95,65,124)"></polygon><line fill="none" stroke-width="1.5" stroke="rgb(95,65,124)" x1="-205.09885749584166" x2="-136.4079936175438" y1="75.12587589121107" y2="72.37774886702664"></line><line fill="none" stroke-width="1.5" stroke="rgb(95,65,124)" x1="-202.29512918209943" x2="-143.00837788064428" y1="81.07603549507485" y2="78.85879241132147"></line><line fill="none" stroke-width="1.5" stroke="rgb(95,65,124)" x1="-199.17201736269027" x2="-149.88912282642556" y1="87.70400072805228" y2="85.61512747200888"></line><line fill="none" stroke-width="1.5" stroke="rgb(95,65,124)" x1="-195.98867333730047" x2="-157.05623218864457" y1="94.45979262566082" y2="92.65264923008984"></line><line fill="none" stroke-width="1.5" stroke="rgb(95,65,124)" x1="-193.22352070554192" x2="-163.9471884650226" y1="100.32808571503185" y2="99.41901099158811"></line><line fill="none" stroke-width="1.5" stroke="rgb(95,65,124)" x1="-190.37625140757336" x2="-170.93914159722846" y1="106.37064935254827" y2="106.28454349744987"></line><line fill="none" stroke-width="1.5" stroke="rgb(95,65,124)" x1="-187.34163197500786" x2="-177.72912707176604" y1="112.81081328435621" y2="112.95176009749312"></line><line fill="none" stroke-width="1.5" stroke="rgb(95,65,124)" x1="-136.38160640885013" x2="-139.17443492250922" y1="72.35183876213893" y2="65.47724109251162"></line><line fill="none" stroke-width="1.5" stroke="rgb(95,65,124)" x1="-142.41110666045344" x2="-148.32805689254218" y1="78.27232037704135" y2="65.9052753291198"></line><line fill="none" stroke-width="1.5" stroke="rgb(95,65,124)" x1="-149.9185668020051" x2="-158.90915062522825" y1="85.64403907476435" y2="66.40005984099687"></line><line fill="none" stroke-width="1.5" stroke="rgb(95,65,124)" x1="-155.9584320914478" x2="-167.68397808580173" y1="91.57469831855894" y2="66.81038119638507"></line><line fill="none" stroke-width="1.5" stroke="rgb(95,65,124)" x1="-163.9868026165704" x2="-178.18683163394596" y1="99.4579088846376" y2="67.30150710429399"></line><line fill="none" stroke-width="1.5" stroke="rgb(95,65,124)" x1="-171.09865556501993" x2="-188.6896879521293" y1="106.4411733132258" y2="67.79263314173322"></line><line fill="none" stroke-width="1.5" stroke="rgb(95,65,124)" x1="-176.80193580494506" x2="-197.2421538782154" y1="112.04133325950568" y2="68.19255660763277"></line><line fill="none" stroke-width="1.5" stroke="rgb(95,65,124)" x1="-161.95137219895278" x2="-116.05585263607529" y1="-135.7515176964115" y2="-86.07223062892626"></line><line fill="none" stroke-width="1.5" stroke="rgb(95,65,124)" x1="-156.3648422331441" x2="-112.86313866827986" y1="-128.95307093519634" y2="-89.67582734648293"></line><line fill="none" stroke-width="1.5" stroke="rgb(95,65,124)" x1="-151.09263249689428" x2="-109.8892482798308" y1="-122.53713162667678" y2="-93.03243922912782"></line><line fill="none" stroke-width="1.5" stroke="rgb(95,65,124)" x1="-145.44929827520042" x2="-106.98911799537186" y1="-115.66955774866292" y2="-96.30579853377587"></line><line fill="none" stroke-width="1.5" stroke="rgb(95,65,124)" x1="-140.58783340551926" x2="-104.55690994892751" y1="-109.75346845883112" y2="-99.05101687183881"></line><line fill="none" stroke-width="1.5" stroke="rgb(95,65,124)" x1="-135.34282732664565" x2="-101.21996798467161" y1="-103.37063424730636" y2="-102.81740284639356"></line><line fill="none" stroke-width="1.5" stroke="rgb(95,65,124)" x1="-129.46576764964612" x2="-98.7438552566251" y1="-96.21863156028915" y2="-105.6121761299051"></line><line fill="none" stroke-width="1.5" stroke="rgb(95,65,124)" x1="-124.55452721205936" x2="-95.59637184777965" y1="-90.24196861373547" y2="-109.16472139236448"></line><polygon fill="none" points="-218.61783,13.754246 -208.12604,68.7015 -141.28035,28.283075" stroke-width="1.5" stroke="rgb(95,65,124)"></polygon><line fill="none" stroke-width="1.5" stroke="rgb(95,65,124)" x1="-2.5780521257077433" x2="32.56066534803692" y1="158.0379638497233" y2="156.05617097832902"></line><line fill="none" stroke-width="1.5" stroke="rgb(95,65,124)" x1="-1.3231549911251275" x2="28.885331537198834" y1="167.40255243118622" y2="165.43915941110674"></line><line fill="none" stroke-width="1.5" stroke="rgb(95,65,124)" x1="-0.21051245893097859" x2="25.030629006740117" y1="175.7055752567988" y2="175.2800694118355"></line><line fill="none" stroke-width="1.5" stroke="rgb(95,65,124)" x1="1.0589999021901235" x2="21.069773990112814" y1="185.1792290196109" y2="185.39198270127054"></line><line fill="none" stroke-width="1.5" stroke="rgb(95,65,124)" x1="2.4863275372412277" x2="17.819875610761027" y1="195.83056904171693" y2="193.68885054256393"></line><line fill="none" stroke-width="1.5" stroke="rgb(95,65,124)" x1="3.7354736180495216" x2="14.057485322645839" y1="205.15224075691071" y2="203.29409087444276"></line><line fill="none" stroke-width="1.5" stroke="rgb(95,65,124)" x1="4.832389026926315" x2="10.201469080448618" y1="213.33790094348439" y2="213.13835473163215"></line><line fill="none" stroke-width="1.5" stroke="rgb(95,65,124)" x1="32.63142467823532" x2="31.15341737791151" y1="155.87552508031433" y2="146.83509957077743"></line><line fill="none" stroke-width="1.5" stroke="rgb(95,65,124)" x1="28.691686663547163" x2="25.910756416444713" y1="165.9335274612094" y2="147.02272037364025"></line><line fill="none" stroke-width="1.5" stroke="rgb(95,65,124)" x1="25.26230258211729" x2="21.004498463294244" y1="174.68861552225027" y2="147.19830221328007"></line><line fill="none" stroke-width="1.5" stroke="rgb(95,65,124)" x1="21.336232788713367" x2="16.16417088249796" y1="184.71172345033986" y2="147.3715245813681"></line><line fill="none" stroke-width="1.5" stroke="rgb(95,65,124)" x1="17.681526673897153" x2="11.607435101867914" y1="194.04205015410744" y2="147.53459795801393"></line><line fill="none" stroke-width="1.5" stroke="rgb(95,65,124)" x1="13.400021443976584" x2="5.961437445530834" y1="204.97257132983196" y2="147.73665310158117"></line><line fill="none" stroke-width="1.5" stroke="rgb(95,65,124)" x1="10.25250903931061" x2="1.0039075570947418" y1="213.00805164400532" y2="147.91406982654607"></line><polygon fill="none" points="-167.65005,-142.68645 -197.76247,-95.325676 -118.687386,-83.102036" stroke-width="1.5" stroke="rgb(95,65,124)"></polygon><line fill="none" stroke-width="1.5" stroke="rgb(95,65,124)" x1="-117.88804735738789" x2="-60.020195" y1="-163.49082379780944" y2="-133.94698"></line><line fill="none" stroke-width="1.5" stroke="rgb(95,65,124)" x1="-109.26500030165572" x2="-60.020195" y1="-145.8978248335867" y2="-133.94698"></line><line fill="none" stroke-width="1.5" stroke="rgb(95,65,124)" x1="-100.83435013780905" x2="-60.020195" y1="-128.69735977272603" y2="-133.94698"></line><polygon fill="none" points="115.579704,117.66254 156.03136,152.54117 151.29591,88.40716" stroke-width="1.5" stroke="rgb(95,65,124)"></polygon><polygon fill="none" points="-78.2710719618575,125.92440455726978 -99.89505560872331,189.90919686681423 -46.101843188802206,141.5386327439717" stroke-width="1.5" stroke="rgb(95,65,124)"></polygon><polygon fill="none" points="-78.6176315754912,129.53502401576526 -98.05970518924333,186.36824302742798 -52.13796578977353,143.57047503979487" stroke-width="1.5" stroke="rgb(95,65,124)"></polygon><polygon fill="none" points="-79.00506403017829,133.57147576811633 -95.56170147900414,181.54882776226097 -55.31626875617774,144.64033574723663" stroke-width="1.5" stroke="rgb(95,65,124)"></polygon><polygon fill="none" points="-79.28003856557405,136.4362885421173 -93.20111938956776,176.99454094920407 -59.319039395769835,145.9877236688626" stroke-width="1.5" stroke="rgb(95,65,124)"></polygon><polygon fill="none" points="-79.53872856657367,139.13144145256192 -90.2806898422188,171.36013669125737 -63.71104270915862,147.46613268827232" stroke-width="1.5" stroke="rgb(95,65,124)"></polygon><polygon fill="none" points="-79.96515037200999,143.57410241957948 -88.258481159845,167.45867595553557 -68.90866363222818,149.21572372995342" stroke-width="1.5" stroke="rgb(95,65,124)"></polygon><polygon fill="none" points="-80.28050177060453,146.85958015915455 -85.47529486182898,162.0890560164292 -73.16464874610651,150.64834714343084" stroke-width="1.5" stroke="rgb(95,65,124)"></polygon><polygon fill="none" points="-80.59320804254156,150.11749973729323 -83.73751089453498,158.73633778578363 -76.2000593070899,151.67010829221897" stroke-width="1.5" stroke="rgb(95,65,124)"></polygon><polygon fill="none" points="-128.89069,64.99636 -184.25555,119.36018 -148.4447,162.57338 -107.33606,97.3222" stroke-width="1.5" stroke="rgb(95,65,124)"></polygon><polygon fill="none" points="76.510956,136.80368 114.116806,190.41309 156.03136,152.54117 115.579704,117.66254" stroke-width="1.5" stroke="rgb(95,65,124)"></polygon><polygon fill="none" points="173.08559,-71.10565 163.49492,-121.79303 131.10924,-164.61699 139.02249,-106.67245" stroke-width="1.5" stroke="rgb(95,65,124)"></polygon><polygon fill="none" points="200.0,2.2281267E-5 180.6327,48.85157 185.11165,105.179726 199.75291,52.855244" stroke-width="1.5" stroke="rgb(95,65,124)"></polygon><polygon fill="none" points="-128.89069,64.99636 -184.25555,119.36018 -148.4447,162.57338 -107.33606,97.3222" stroke-width="1.5" stroke="rgb(95,65,124)"></polygon><line fill="none" stroke-width="1.5" stroke="rgb(95,65,124)" x1="83.21499073113145" x2="122.36282898461101" y1="146.36068616667924" y2="123.51115077334535"></line><line fill="none" stroke-width="1.5" stroke="rgb(95,65,124)" x1="89.45748979484463" x2="128.66815818425394" y1="155.25974473853287" y2="128.94779527317985"></line><line fill="none" stroke-width="1.5" stroke="rgb(95,65,124)" x1="95.5842561621552" x2="135.6250490336627" y1="163.99381937791753" y2="134.94623582637556"></line><line fill="none" stroke-width="1.5" stroke="rgb(95,65,124)" x1="101.81710252533082" x2="142.77990218411776" y1="172.8791174435086" y2="141.1153654302268"></line><line fill="none" stroke-width="1.5" stroke="rgb(95,65,124)" x1="107.91484200806173" x2="148.86074189469514" y1="181.5718125098414" y2="146.3584483399594"></line><line fill="none" stroke-width="1.5" stroke="rgb(95,65,124)" x1="148.540159280501" x2="109.367480233729" y1="159.30984427563376" y2="120.70612205737477"></line><line fill="none" stroke-width="1.5" stroke="rgb(95,65,124)" x1="141.8637206978636" x2="102.35935383691456" y1="165.3423443974807" y2="124.13964783848968"></line><line fill="none" stroke-width="1.5" stroke="rgb(95,65,124)" x1="135.2090749172654" x2="95.75817181376296" y1="171.3551536198564" y2="127.37379736419257"></line><line fill="none" stroke-width="1.5" stroke="rgb(95,65,124)" x1="127.88144175150568" x2="89.08986204866682" y1="177.97604100137912" y2="130.6408351141574"></line><line fill="none" stroke-width="1.5" stroke="rgb(95,65,124)" x1="120.6532491482759" x2="83.21660227100344" y1="184.5070788024476" y2="133.51835011944598"></line><line fill="none" stroke-width="1.5" stroke="rgb(95,65,124)" x1="171.77566907433118" x2="137.86276885966313" y1="-78.02866117489896" y2="-115.16447796605425"></line><line fill="none" stroke-width="1.5" stroke="rgb(95,65,124)" x1="170.27100597167305" x2="136.84254199751422" y1="-85.98091533814019" y2="-122.63505578465818"></line><line fill="none" stroke-width="1.5" stroke="rgb(95,65,124)" x1="169.08323616661073" x2="135.69493158095128" y1="-92.25836532717284" y2="-131.03839551276113"></line><line fill="none" stroke-width="1.5" stroke="rgb(95,65,124)" x1="167.69750884835054" x2="134.44220805769547" y1="-99.58203520136908" y2="-140.21142252556308"></line><line fill="none" stroke-width="1.5" stroke="rgb(95,65,124)" x1="166.33956730830303" x2="133.44416955890483" y1="-106.75885521257557" y2="-147.51952677942828"></line><line fill="none" stroke-width="1.5" stroke="rgb(95,65,124)" x1="164.89080244738327" x2="132.3143253783908" y1="-114.41568309414858" y2="-155.7927738253335"></line><line fill="none" stroke-width="1.5" stroke="rgb(95,65,124)" x1="136.0497361955567" x2="143.76664118166886" y1="-158.08411100987067" y2="-101.71886908810686"></line><line fill="none" stroke-width="1.5" stroke="rgb(95,65,124)" x1="140.50211943127374" x2="148.33241317918095" y1="-152.19667335485696" y2="-96.95154310660168"></line><line fill="none" stroke-width="1.5" stroke="rgb(95,65,124)" x1="145.24043957057694" x2="153.75323538373144" y1="-145.9311380375336" y2="-91.29142110511857"></line><line fill="none" stroke-width="1.5" stroke="rgb(95,65,124)" x1="149.35092158746536" x2="158.31217725799348" y1="-140.4958003037214" y2="-86.53122675963125"></line><line fill="none" stroke-width="1.5" stroke="rgb(95,65,124)" x1="154.18657501548836" x2="163.51008200779273" y1="-134.10156005720458" y2="-81.1038628052748"></line><line fill="none" stroke-width="1.5" stroke="rgb(95,65,124)" x1="158.82167867291938" x2="168.50724350339902" y1="-127.97250908316902" y2="-75.88610382721754"></line><polygon fill="none" points="197.39167212934737,14.777574620180012 182.16606638393057,53.06040917189358 185.6756411992928,97.72659863704973 197.18826282047195,56.279231263000824" stroke-width="1.5" stroke="rgb(95,65,124)"></polygon><polygon fill="none" points="194.8528283590115,29.161462903010843 183.54298007168364,56.839825263846144 186.20502614392214,90.7308101256878 194.72160158335717,59.572394908760835" stroke-width="1.5" stroke="rgb(95,65,124)"></polygon><polygon fill="none" points="192.63350080161683,41.735123410033665 184.84820990273528,60.42248020514681 186.80999248597107,82.73621823484758 192.66902217009124,62.312730631435606" stroke-width="1.5" stroke="rgb(95,65,124)"></polygon><polygon fill="none" points="190.21048927642988,55.46276096438788 186.51788538003356,65.0054823376461 187.2756027209847,76.58320847148599 190.16916495872024,65.6502132026975" stroke-width="1.5" stroke="rgb(95,65,124)"></polygon></g></svg>