<svg height="410.5451427927503" viewBox="-195.4928653696385 -205.59659755308093 395.4929077291013 410.5451427927503" width="395.4929077291013" xmlns="http://www.w3.org/2000/svg"><g><rect fill="rgb(137,165,218)" height="410.5451427927503" transform="rotate(0 2.253588494912151 -0.32402615670577006)" width="395.4929077291013" x="-195.4928653696385" y="-205.59659755308093"></rect><polygon fill="none" points="-54.931427,-59.506474 -128.16579,-76.35767 -71.74982,-31.852116" stroke-width="1.5" stroke="rgb(98,129,174)"></polygon><polygon fill="none" points="-54.098934,56.884956 -89.18892,119.59223 -27.977884,75.9981" stroke-width="1.5" stroke="rgb(98,129,174)"></polygon><polygon fill="none" points="-28.321663,-79.91823 -93.974625,-119.23227 -54.931427,-59.506474" stroke-width="1.5" stroke="rgb(98,129,174)"></polygon><polygon fill="none" points="-93.974625,-119.23227 -128.16579,-76.35767 -54.931427,-59.506474" stroke-width="1.5" stroke="rgb(98,129,174)"></polygon><polygon fill="none" points="9.995683,-155.5966 -46.34284,-148.51927 5.4634275,-89.84803" stroke-width="1.5" stroke="rgb(98,129,174)"></polygon><polygon fill="none" points="89.35149,-83.73653 63.3025,-135.52628 43.991352,-91.36638" stroke-width="1.5" stroke="rgb(98,129,174)"></polygon><polygon fill="none" points="43.991352,-91.36638 9.995683,-155.5966 5.4634275,-89.84803" stroke-width="1.5" stroke="rgb(98,129,174)"></polygon><polygon fill="none" points="-124.82363,78.840294 -89.18892,119.59223 -54.098934,56.884956" stroke-width="1.5" stroke="rgb(98,129,174)"></polygon><polygon fill="none" points="146.31487,58.348835 149.99995,1.9125448E-5 114.59458,43.16917" stroke-width="1.5" stroke="rgb(98,129,174)"></polygon><polygon fill="none" points="118.5892,110.793015 146.31487,58.348835 114.59458,43.16917" stroke-width="1.5" stroke="rgb(98,129,174)"></polygon><polygon fill="none" points="75.607155,67.57675 118.5892,110.793015 114.59458,43.16917" stroke-width="1.5" stroke="rgb(98,129,174)"></polygon><polygon fill="none" points="39.43086,80.918015 70.41834,144.32062 75.607155,67.57675" stroke-width="1.5" stroke="rgb(98,129,174)"></polygon><polygon fill="none" points="4.4175334,84.67299 14.020698,154.94855 39.43086,80.918015" stroke-width="1.5" stroke="rgb(98,129,174)"></polygon><polygon fill="none" points="5.4634275,-89.84803 -46.34284,-148.51927 -28.321663,-79.91823" stroke-width="1.5" stroke="rgb(98,129,174)"></polygon><polygon fill="none" points="-41.19299,146.11882 14.020698,154.94855 4.4175334,84.67299" stroke-width="1.5" stroke="rgb(98,129,174)"></polygon><polygon fill="none" points="14.020698,154.94855 70.41834,144.32062 39.43086,80.918015" stroke-width="1.5" stroke="rgb(98,129,174)"></polygon><polygon fill="none" points="-128.16579,-76.35767 -145.49286,-25.071003 -71.74982,-31.852116" stroke-width="1.5" stroke="rgb(98,129,174)"></polygon><polygon fill="none" points="-46.34284,-148.51927 -93.974625,-119.23227 -28.321663,-79.91823" stroke-width="1.5" stroke="rgb(98,129,174)"></polygon><polygon fill="none" points="-71.74982,-31.852116 -145.49286,-25.071003 -77.274055,-0.66124326" stroke-width="1.5" stroke="rgb(98,129,174)"></polygon><polygon fill="none" points="63.3025,-135.52628 9.995683,-155.5966 43.991352,-91.36638" stroke-width="1.5" stroke="rgb(98,129,174)"></polygon><polygon fill="none" points="70.41834,144.32062 118.5892,110.793015 75.607155,67.57675" stroke-width="1.5" stroke="rgb(98,129,174)"></polygon><line fill="none" stroke-width="1.5" stroke="rgb(98,129,174)" x1="-121.02121155378082" x2="-69.68951998383606" y1="-70.72144499506419" y2="-35.23984706874233"></line><line fill="none" stroke-width="1.5" stroke="rgb(98,129,174)" x1="-114.68409292058666" x2="-67.56189894036878" y1="-65.72220450115064" y2="-38.73827909517486"></line><line fill="none" stroke-width="1.5" stroke="rgb(98,129,174)" x1="-106.78153642852078" x2="-65.47407029116435" y1="-59.48801784514636" y2="-42.17128077303801"></line><line fill="none" stroke-width="1.5" stroke="rgb(98,129,174)" x1="-100.20751893301741" x2="-63.305507673332485" y1="-54.301892040420626" y2="-45.737032736641396"></line><line fill="none" stroke-width="1.5" stroke="rgb(98,129,174)" x1="-92.28415557054322" x2="-61.17350743458613" y1="-48.05129121338409" y2="-49.24266544247186"></line><line fill="none" stroke-width="1.5" stroke="rgb(98,129,174)" x1="-86.38780897458247" x2="-59.14732424543695" y1="-43.399767962064026" y2="-52.57430393237274"></line><line fill="none" stroke-width="1.5" stroke="rgb(98,129,174)" x1="-79.06602648546422" x2="-57.1495961102071" y1="-37.623743616315345" y2="-55.859153981140786"></line><polygon fill="none" points="-54.68055301414998,59.50168837770151 -85.14823372755885,114.33001218864162 -31.304845086914725,76.50870020198516" stroke-width="1.5" stroke="rgb(98,129,174)"></polygon><polygon fill="none" points="-55.486366843990176,63.12708477460593 -82.23443855665262,110.53535146699656 -36.36437533335303,77.28520341466972" stroke-width="1.5" stroke="rgb(98,129,174)"></polygon><polygon fill="none" points="-56.11762932535323,65.96716599521294 -78.27655742271155,105.38096854061016 -39.9314326951644,77.83265176784965" stroke-width="1.5" stroke="rgb(98,129,174)"></polygon><polygon fill="none" points="-56.88763708941838,69.43146912585519 -74.19712913878178,100.06829370664721 -44.10722536207996,78.47352478637686" stroke-width="1.5" stroke="rgb(98,129,174)"></polygon><polygon fill="none" points="-57.41326404275084,71.79629086527021 -69.98443039974748,94.5820596031823 -47.324654431059535,78.96731450339774" stroke-width="1.5" stroke="rgb(98,129,174)"></polygon><polygon fill="none" points="-58.14006894300952,75.06622216835152 -66.31286343830247,89.8005461067645 -51.04648903111094,79.53851704261666" stroke-width="1.5" stroke="rgb(98,129,174)"></polygon><polygon fill="none" points="-58.78163212608274,77.95264675697076 -63.197819704633446,85.74379763645796 -55.37111450882874,80.20223193580648" stroke-width="1.5" stroke="rgb(98,129,174)"></polygon><line fill="none" stroke-width="1.5" stroke="rgb(98,129,174)" x1="-89.83700842269916" x2="-31.277917750719592" y1="-112.90280767311577" y2="-77.65055120611336"></line><line fill="none" stroke-width="1.5" stroke="rgb(98,129,174)" x1="-85.49799066980144" x2="-34.118911199791036" y1="-106.26525481458985" y2="-75.47128870270262"></line><line fill="none" stroke-width="1.5" stroke="rgb(98,129,174)" x1="-80.64520587453546" x2="-37.22280911310119" y1="-98.8417738739743" y2="-73.09035806764518"></line><line fill="none" stroke-width="1.5" stroke="rgb(98,129,174)" x1="-77.0319392157639" x2="-39.966347642523495" y1="-93.3144287914314" y2="-70.98585105240132"></line><line fill="none" stroke-width="1.5" stroke="rgb(98,129,174)" x1="-72.32886508110755" x2="-42.86754532746506" y1="-86.11996567924434" y2="-68.76040722681218"></line><line fill="none" stroke-width="1.5" stroke="rgb(98,129,174)" x1="-67.69533592246114" x2="-46.350207357344" y1="-79.03188803966856" y2="-66.08893511333436"></line><line fill="none" stroke-width="1.5" stroke="rgb(98,129,174)" x1="-63.50293003475245" x2="-48.710772879419466" y1="-72.61861266980455" y2="-64.27819812244665"></line><line fill="none" stroke-width="1.5" stroke="rgb(98,129,174)" x1="-58.86361051539243" x2="-51.8103131776089" y1="-65.52167730539443" y2="-61.900610116440326"></line><line fill="none" stroke-width="1.5" stroke="rgb(98,129,174)" x1="-98.04812215849469" x2="-63.8779609641885" y1="-114.1242370224523" y2="-61.56506782085001"></line><line fill="none" stroke-width="1.5" stroke="rgb(98,129,174)" x1="-101.44532554359664" x2="-70.6355031678929" y1="-109.86425542298957" y2="-63.11997587612103"></line><line fill="none" stroke-width="1.5" stroke="rgb(98,129,174)" x1="-104.96083259922416" x2="-79.14246655140595" y1="-105.45592490164657" y2="-65.07742512204196"></line><line fill="none" stroke-width="1.5" stroke="rgb(98,129,174)" x1="-109.55773976240836" x2="-87.2882214699335" y1="-99.6915541208211" y2="-66.95176042876616"></line><line fill="none" stroke-width="1.5" stroke="rgb(98,129,174)" x1="-112.96835912573154" x2="-95.52049653729459" y1="-95.41474932478089" y2="-68.8460039909343"></line><line fill="none" stroke-width="1.5" stroke="rgb(98,129,174)" x1="-116.78365331459189" x2="-103.26083415771714" y1="-90.63049557289831" y2="-70.62705292170008"></line><line fill="none" stroke-width="1.5" stroke="rgb(98,129,174)" x1="-120.40148124651768" x2="-112.03732695174571" y1="-86.0938580293196" y2="-72.64652078902353"></line><line fill="none" stroke-width="1.5" stroke="rgb(98,129,174)" x1="-124.57898831109844" x2="-119.17034775795835" y1="-80.85540121369814" y2="-74.28782633705484"></line><line fill="none" stroke-width="1.5" stroke="rgb(98,129,174)" x1="-63.128716350521344" x2="-58.82769646751015" y1="-61.39266690198918" y2="-65.4667382835333"></line><line fill="none" stroke-width="1.5" stroke="rgb(98,129,174)" x1="-72.07581464031401" x2="-63.36813605611951" y1="-63.45139103314945" y2="-72.41241343091237"></line><line fill="none" stroke-width="1.5" stroke="rgb(98,129,174)" x1="-80.14050996845563" x2="-67.89104366539141" y1="-65.30707455698446" y2="-79.33126927351"></line><line fill="none" stroke-width="1.5" stroke="rgb(98,129,174)" x1="-88.19718140882046" x2="-72.71507404358944" y1="-67.16091178709867" y2="-86.7107635392434"></line><line fill="none" stroke-width="1.5" stroke="rgb(98,129,174)" x1="-95.06059188687651" x2="-76.7344916454315" y1="-68.74018009460707" y2="-92.85941245290576"></line><line fill="none" stroke-width="1.5" stroke="rgb(98,129,174)" x1="-104.50984924216695" x2="-81.01691283614427" y1="-70.9144508479611" y2="-99.41038749716422"></line><line fill="none" stroke-width="1.5" stroke="rgb(98,129,174)" x1="-111.1633356798004" x2="-84.84217279831141" y1="-72.44541570850484" y2="-105.26202642616624"></line><line fill="none" stroke-width="1.5" stroke="rgb(98,129,174)" x1="-120.2041597118722" x2="-89.77251586133764" y1="-74.52570609959557" y2="-112.80415106247321"></line><line fill="none" stroke-width="1.5" stroke="rgb(98,129,174)" x1="-4.639315621118362" x2="-7.935638240552919" y1="-153.75813242342832" y2="-105.02263909516827"></line><line fill="none" stroke-width="1.5" stroke="rgb(98,129,174)" x1="-18.7871931260556" x2="-20.864969664716035" y1="-151.98085432049174" y2="-119.6652680825618"></line><line fill="none" stroke-width="1.5" stroke="rgb(98,129,174)" x1="-31.55985253901931" x2="-33.0757543496688" y1="-150.37633322656754" y2="-133.4941339319252"></line><line fill="none" stroke-width="1.5" stroke="rgb(98,129,174)" x1="-7.149116147323717" x2="6.633711981169302" y1="-104.1318930214757" y2="-106.82512630271678"></line><line fill="none" stroke-width="1.5" stroke="rgb(98,129,174)" x1="-20.52193908541683" x2="7.737481922544706" y1="-119.2767816760163" y2="-122.83730923034074"></line><line fill="none" stroke-width="1.5" stroke="rgb(98,129,174)" x1="-33.673969338239786" x2="8.864644444091285" y1="-134.17161986255672" y2="-139.1888439185165"></line><polygon fill="none" points="85.57821662176805,-86.10190962491146 64.21777546398424,-129.48636103203637 48.72764498088304,-92.30009447041472" stroke-width="1.5" stroke="rgb(98,129,174)"></polygon><polygon fill="none" points="82.17582191104049,-88.23479912294972 65.35605902884402,-121.974799317684 52.51272051929901,-93.04628658283954" stroke-width="1.5" stroke="rgb(98,129,174)"></polygon><polygon fill="none" points="79.2494078466753,-90.06930639076207 66.24272621402616,-116.12366038605283 56.38679781126832,-93.81002455553043" stroke-width="1.5" stroke="rgb(98,129,174)"></polygon><polygon fill="none" points="76.33892905062976,-91.89382417489097 67.21576101063162,-109.70257942648135 60.406339590352836,-94.60243948640131" stroke-width="1.5" stroke="rgb(98,129,174)"></polygon><polygon fill="none" points="72.4536604638972,-94.32941712346094 68.32972732109613,-102.35148788208716 64.64639489149728,-95.43832658821675" stroke-width="1.5" stroke="rgb(98,129,174)"></polygon><polygon fill="none" points="39.38058534488134,-96.34228887664993 11.298241332472509,-149.55862906059994 7.75716447327761,-95.42465497122983" stroke-width="1.5" stroke="rgb(98,129,174)"></polygon><polygon fill="none" points="35.057524277991604,-101.00770884318152 12.722525800046823,-142.95639791973235 9.716679413506306,-100.18870599599029" stroke-width="1.5" stroke="rgb(98,129,174)"></polygon><polygon fill="none" points="30.807662423100503,-105.59413268638549 13.99686755670109,-137.0492220560373 11.403515718675887,-104.28980982697632" stroke-width="1.5" stroke="rgb(98,129,174)"></polygon><polygon fill="none" points="26.229351191850803,-110.5350170044124 15.025250995679706,-132.2821791512302 13.839739539631895,-110.21285453181369" stroke-width="1.5" stroke="rgb(98,129,174)"></polygon><polygon fill="none" points="22.658446540004356,-114.38871455888413 16.347385865168746,-126.15345963873436 15.97299688240971,-115.39931502838552" stroke-width="1.5" stroke="rgb(98,129,174)"></polygon><line fill="none" stroke-width="1.5" stroke="rgb(98,129,174)" x1="-117.34507226111576" x2="-82.11400191325457" y1="87.39279097927701" y2="106.94905793059363"></line><line fill="none" stroke-width="1.5" stroke="rgb(98,129,174)" x1="-110.96770520444718" x2="-75.47022492032752" y1="94.68596243649087" y2="95.07634966952511"></line><line fill="none" stroke-width="1.5" stroke="rgb(98,129,174)" x1="-103.82112764166568" x2="-68.51700951194417" y1="102.85880477636242" y2="82.65066197591523"></line><line fill="none" stroke-width="1.5" stroke="rgb(98,129,174)" x1="-96.21053658279345" x2="-60.78818168691202" y1="111.56229400473512" y2="68.83892234884388"></line><line fill="none" stroke-width="1.5" stroke="rgb(98,129,174)" x1="146.73956630416583" x2="119.13095051886732" y1="51.62421832864423" y2="37.63805514652346"></line><line fill="none" stroke-width="1.5" stroke="rgb(98,129,174)" x1="147.2572698428168" x2="123.63886581772176" y1="43.427024845027404" y2="32.14163290948024"></line><line fill="none" stroke-width="1.5" stroke="rgb(98,129,174)" x1="147.67053626668707" x2="128.10168851541056" y1="36.883463552063496" y2="26.70019129193446"></line><line fill="none" stroke-width="1.5" stroke="rgb(98,129,174)" x1="148.18659594564087" x2="132.02059225922966" y1="28.712298548052427" y2="21.921940536461545"></line><line fill="none" stroke-width="1.5" stroke="rgb(98,129,174)" x1="148.58426909079193" x2="137.11976433411647" y1="22.415637484973743" y2="15.704609259176875"></line><line fill="none" stroke-width="1.5" stroke="rgb(98,129,174)" x1="149.093259551961" x2="141.23912900037894" y1="14.356404777408592" y2="10.68194000896075"></line><line fill="none" stroke-width="1.5" stroke="rgb(98,129,174)" x1="149.55250735943062" x2="145.5122534707451" y1="7.0847853008160016" y2="5.471794120340635"></line><line fill="none" stroke-width="1.5" stroke="rgb(98,129,174)" x1="119.15160786463704" x2="118.88599931074063" y1="37.61286800632235" y2="45.22281789765114"></line><line fill="none" stroke-width="1.5" stroke="rgb(98,129,174)" x1="123.41691630882227" x2="122.64627625146471" y1="32.41225206164712" y2="47.02228929243869"></line><line fill="none" stroke-width="1.5" stroke="rgb(98,129,174)" x1="127.66573654493784" x2="126.23637825017244" y1="27.231739900533643" y2="48.74032388214638"></line><line fill="none" stroke-width="1.5" stroke="rgb(98,129,174)" x1="132.67402116486628" x2="130.1918656197097" y1="21.125226106582915" y2="50.633212753399334"></line><line fill="none" stroke-width="1.5" stroke="rgb(98,129,174)" x1="137.10744770504851" x2="134.4975755570968" y1="15.719626709462982" y2="52.693699783668094"></line><line fill="none" stroke-width="1.5" stroke="rgb(98,129,174)" x1="141.25123307873878" x2="138.75985587372992" y1="10.667181718033488" y2="54.73340367443269"></line><line fill="none" stroke-width="1.5" stroke="rgb(98,129,174)" x1="145.1348638037052" x2="142.23553517642267" y1="5.931938737182845" y2="56.39668156094028"></line><line fill="none" stroke-width="1.5" stroke="rgb(98,129,174)" x1="118.05375335750257" x2="146.31487" y1="101.72853691851145" y2="58.348835"></line><line fill="none" stroke-width="1.5" stroke="rgb(98,129,174)" x1="117.6081755489609" x2="146.31487" y1="94.18547283515417" y2="58.348835"></line><line fill="none" stroke-width="1.5" stroke="rgb(98,129,174)" x1="117.11491124063305" x2="146.31487" y1="85.83513712178622" y2="58.348835"></line><line fill="none" stroke-width="1.5" stroke="rgb(98,129,174)" x1="116.59031340469484" x2="146.31487" y1="76.95436474350387" y2="58.348835"></line><line fill="none" stroke-width="1.5" stroke="rgb(98,129,174)" x1="116.0760580301114" x2="146.31487" y1="68.24867704691616" y2="58.348835"></line><line fill="none" stroke-width="1.5" stroke="rgb(98,129,174)" x1="115.56266971914208" x2="146.31487" y1="59.55766763160799" y2="58.348835"></line><line fill="none" stroke-width="1.5" stroke="rgb(98,129,174)" x1="115.05113748287698" x2="146.31487" y1="50.898079194115596" y2="58.348835"></line><line fill="none" stroke-width="1.5" stroke="rgb(98,129,174)" x1="84.89723535872722" x2="115.58567646629322" y1="61.76081527710764" y2="59.947142521927674"></line><line fill="none" stroke-width="1.5" stroke="rgb(98,129,174)" x1="94.63389414090335" x2="116.62128041712857" y1="55.665304214571805" y2="77.47859677386978"></line><line fill="none" stroke-width="1.5" stroke="rgb(98,129,174)" x1="104.76554652483127" x2="117.61325607161467" y1="49.32251244486808" y2="94.27147960483568"></line><line fill="none" stroke-width="1.5" stroke="rgb(98,129,174)" x1="65.92672170955623" x2="75.607155" y1="135.1304408804939" y2="67.57675"></line><line fill="none" stroke-width="1.5" stroke="rgb(98,129,174)" x1="61.26100309811171" x2="75.607155" y1="125.58404770653755" y2="67.57675"></line><line fill="none" stroke-width="1.5" stroke="rgb(98,129,174)" x1="57.4001330119577" x2="75.607155" y1="117.6844320405637" y2="67.57675"></line><line fill="none" stroke-width="1.5" stroke="rgb(98,129,174)" x1="52.99646299893581" x2="75.607155" y1="108.6742089959183" y2="67.57675"></line><line fill="none" stroke-width="1.5" stroke="rgb(98,129,174)" x1="48.461590247413575" x2="75.607155" y1="99.3955357871006" y2="67.57675"></line><line fill="none" stroke-width="1.5" stroke="rgb(98,129,174)" x1="43.66995918341779" x2="75.607155" y1="89.59151675148104" y2="67.57675"></line><line fill="none" stroke-width="1.5" stroke="rgb(98,129,174)" x1="34.93599286221724" x2="12.313845807770123" y1="94.01345718218946" y2="142.457876576499"></line><line fill="none" stroke-width="1.5" stroke="rgb(98,129,174)" x1="31.24943534325627" x2="10.930149377322094" y1="104.75395651492853" y2="132.33204331777344"></line><line fill="none" stroke-width="1.5" stroke="rgb(98,129,174)" x1="26.707702819620923" x2="9.179233876306764" y1="117.98594188032524" y2="119.51891608605945"></line><line fill="none" stroke-width="1.5" stroke="rgb(98,129,174)" x1="22.567347483163783" x2="7.641488534224417" y1="130.04854594924373" y2="108.26575926230008"></line><line fill="none" stroke-width="1.5" stroke="rgb(98,129,174)" x1="18.100930953996976" x2="5.902433055845195" y1="143.06110400768176" y2="95.53942318579564"></line><line fill="none" stroke-width="1.5" stroke="rgb(98,129,174)" x1="-43.96564064348874" x2="1.1129571245287337" y1="-139.47001529692298" y2="-88.56937998045466"></line><line fill="none" stroke-width="1.5" stroke="rgb(98,129,174)" x1="-41.76925287740808" x2="-3.2396616875230926" y1="-131.10904605320573" y2="-87.29009843475433"></line><line fill="none" stroke-width="1.5" stroke="rgb(98,129,174)" x1="-39.52617759054549" x2="-7.524344749497285" y1="-122.57035185064858" y2="-86.03078393765632"></line><line fill="none" stroke-width="1.5" stroke="rgb(98,129,174)" x1="-37.32593489446769" x2="-11.204086846994606" y1="-114.19470808012849" y2="-84.94926810511186"></line><line fill="none" stroke-width="1.5" stroke="rgb(98,129,174)" x1="-35.03563637626761" x2="-15.711640161562638" y1="-105.47624963425369" y2="-83.62444964050826"></line><line fill="none" stroke-width="1.5" stroke="rgb(98,129,174)" x1="-32.829543000049924" x2="-20.27897073359835" y1="-97.07833413309483" y2="-82.28206199614576"></line><line fill="none" stroke-width="1.5" stroke="rgb(98,129,174)" x1="-30.58566787975461" x2="-24.37380436639544" y1="-88.5365952119163" y2="-81.07854629092347"></line><line fill="none" stroke-width="1.5" stroke="rgb(98,129,174)" x1="12.932101299014818" x2="-0.2293838861560742" y1="146.9822446950235" y2="90.93324810997234"></line><line fill="none" stroke-width="1.5" stroke="rgb(98,129,174)" x1="11.96734767254263" x2="-5.983064376409784" y1="139.92221755146494" y2="98.68452258477396"></line><line fill="none" stroke-width="1.5" stroke="rgb(98,129,174)" x1="10.729831089037248" x2="-10.251900562126472" y1="130.866122367765" y2="104.43543645972849"></line><line fill="none" stroke-width="1.5" stroke="rgb(98,129,174)" x1="9.707919105401587" x2="-16.368887855309527" y1="123.38781273012458" y2="112.67615256286493"></line><line fill="none" stroke-width="1.5" stroke="rgb(98,129,174)" x1="8.733799467288595" x2="-20.68540158185988" y1="116.25924550068655" y2="118.49129692574998"></line><line fill="none" stroke-width="1.5" stroke="rgb(98,129,174)" x1="7.651730050102244" x2="-26.024352662528905" y1="108.34070625198183" y2="125.68385398620981"></line><line fill="none" stroke-width="1.5" stroke="rgb(98,129,174)" x1="6.494165218940726" x2="-31.616595492454543" y1="99.86969468573022" y2="133.2176419985823"></line><line fill="none" stroke-width="1.5" stroke="rgb(98,129,174)" x1="5.553664520536378" x2="-35.57577759580207" y1="92.98714946685317" y2="138.55139440814926"></line><line fill="none" stroke-width="1.5" stroke="rgb(98,129,174)" x1="21.282294128544756" x2="39.43086" y1="153.58012608618654" y2="80.918015"></line><line fill="none" stroke-width="1.5" stroke="rgb(98,129,174)" x1="28.028733057760295" x2="39.43086" y1="152.30878437351424" y2="80.918015"></line><line fill="none" stroke-width="1.5" stroke="rgb(98,129,174)" x1="34.96906065373012" x2="39.43086" y1="151.0009050515572" y2="80.918015"></line><line fill="none" stroke-width="1.5" stroke="rgb(98,129,174)" x1="41.57168285554749" x2="39.43086" y1="149.75666507454721" y2="80.918015"></line><line fill="none" stroke-width="1.5" stroke="rgb(98,129,174)" x1="49.57842097514717" x2="39.43086" y1="148.2478245943038" y2="80.918015"></line><line fill="none" stroke-width="1.5" stroke="rgb(98,129,174)" x1="56.8937483385305" x2="39.43086" y1="146.86927793932009" y2="80.918015"></line><line fill="none" stroke-width="1.5" stroke="rgb(98,129,174)" x1="63.64022044187606" x2="39.43086" y1="145.59792997510448" y2="80.918015"></line><line fill="none" stroke-width="1.5" stroke="rgb(98,129,174)" x1="-132.5322493146595" x2="-89.49862111963708" y1="-63.43331307755015" y2="-30.22000719113827"></line><line fill="none" stroke-width="1.5" stroke="rgb(98,129,174)" x1="-136.7145253128656" x2="-108.4205405208771" y1="-51.054129216831534" y2="-28.48002381178349"></line><line fill="none" stroke-width="1.5" stroke="rgb(98,129,174)" x1="-141.09455298416358" x2="-127.26683056007477" y1="-38.08961709919744" y2="-26.746995003482233"></line><line fill="none" stroke-width="1.5" stroke="rgb(98,129,174)" x1="-89.46172449309115" x2="-86.37360173292163" y1="-30.22340005607881" y2="-43.388560121098955"></line><line fill="none" stroke-width="1.5" stroke="rgb(98,129,174)" x1="-109.14831585920244" x2="-99.74189684577502" y1="-28.413100527430668" y2="-53.93457103411819"></line><line fill="none" stroke-width="1.5" stroke="rgb(98,129,174)" x1="-127.22729815925527" x2="-114.29656404734504" y1="-26.750630243592568" y2="-65.41648984630385"></line><line fill="none" stroke-width="1.5" stroke="rgb(98,129,174)" x1="-88.70941483322143" x2="-44.239733591393986" y1="-122.46964971632364" y2="-140.51340241769765"></line><line fill="none" stroke-width="1.5" stroke="rgb(98,129,174)" x1="-83.52255868175854" x2="-42.40479681968997" y1="-125.65885341948574" y2="-133.5283653721855"></line><line fill="none" stroke-width="1.5" stroke="rgb(98,129,174)" x1="-77.63870839904456" x2="-40.2873707557674" y1="-129.2766127254172" y2="-125.46797891870723"></line><line fill="none" stroke-width="1.5" stroke="rgb(98,129,174)" x1="-72.2324712867289" x2="-38.1379603386396" y1="-132.60070556996365" y2="-117.28583792008038"></line><line fill="none" stroke-width="1.5" stroke="rgb(98,129,174)" x1="-67.26810357768872" x2="-36.47034775342368" y1="-135.65310945763727" y2="-110.93775232665787"></line><line fill="none" stroke-width="1.5" stroke="rgb(98,129,174)" x1="-62.80730082009665" x2="-34.336788658939376" y1="-138.39589010513527" y2="-102.81595241312593"></line><line fill="none" stroke-width="1.5" stroke="rgb(98,129,174)" x1="-57.141908991794836" x2="-32.272461227863126" y1="-141.87932748436324" y2="-94.95769604021342"></line><line fill="none" stroke-width="1.5" stroke="rgb(98,129,174)" x1="-51.24537813460197" x2="-30.27371823996758" y1="-145.50488360090702" y2="-87.34909936800064"></line><polygon fill="none" points="-71.74982,-31.852116 -145.49286,-25.071003 -77.274055,-0.66124326" stroke-width="1.5" stroke="rgb(98,129,174)"></polygon><polygon fill="none" points="63.3025,-135.52628 9.995683,-155.5966 43.991352,-91.36638" stroke-width="1.5" stroke="rgb(98,129,174)"></polygon><line fill="none" stroke-width="1.5" stroke="rgb(98,129,174)" x1="112.05413653682453" x2="75.607155" y1="115.3415135487311" y2="67.57675"></line><line fill="none" stroke-width="1.5" stroke="rgb(98,129,174)" x1="104.5211803504454" x2="75.607155" y1="120.58455807888056" y2="67.57675"></line><line fill="none" stroke-width="1.5" stroke="rgb(98,129,174)" x1="97.94292339648607" x2="75.607155" y1="125.16311837938225" y2="67.57675"></line><line fill="none" stroke-width="1.5" stroke="rgb(98,129,174)" x1="91.3786988885627" x2="75.607155" y1="129.73191189807702" y2="67.57675"></line><line fill="none" stroke-width="1.5" stroke="rgb(98,129,174)" x1="84.14706259814892" x2="75.607155" y1="134.765233499634" y2="67.57675"></line><line fill="none" stroke-width="1.5" stroke="rgb(98,129,174)" x1="76.75648157201735" x2="75.607155" y1="139.90918289545692" y2="67.57675"></line><polygon fill="none" points="4.4175334,84.67299 -27.977884,75.9981 -89.18892,119.59223 -41.19299,146.11882" stroke-width="1.5" stroke="rgb(98,129,174)"></polygon><polygon fill="none" points="-145.49286,-25.071003 -144.29745,28.702578 -71.13886,30.182436 -77.274055,-0.66124326" stroke-width="1.5" stroke="rgb(98,129,174)"></polygon><polygon fill="none" points="-144.29745,28.702578 -124.82363,78.840294 -54.098934,56.884956 -71.13886,30.182436" stroke-width="1.5" stroke="rgb(98,129,174)"></polygon><polygon fill="none" points="138.58192,-57.40251 102.32214,-95.919106 63.3025,-135.52628 89.35149,-83.73653" stroke-width="1.5" stroke="rgb(98,129,174)"></polygon><polygon fill="none" points="4.4175334,84.67299 -27.977884,75.9981 -89.18892,119.59223 -41.19299,146.11882" stroke-width="1.5" stroke="rgb(98,129,174)"></polygon><line fill="none" stroke-width="1.5" stroke="rgb(98,129,174)" x1="-145.33360854647532" x2="-76.39049381594052" y1="-17.907348981209473" y2="3.780718576555696"></line><line fill="none" stroke-width="1.5" stroke="rgb(98,129,174)" x1="-145.1550457891462" x2="-75.509601606853" y1="-9.874952911688592" y2="8.209260159706826"></line><line fill="none" stroke-width="1.5" stroke="rgb(98,129,174)" x1="-144.97514242375792" x2="-74.65510018074956" y1="-1.7822514623328054" y2="12.505126395464433"></line><line fill="none" stroke-width="1.5" stroke="rgb(98,129,174)" x1="-144.79963259840824" x2="-73.6958555774584" y1="6.1128127290335925" y2="17.32757183233412"></line><line fill="none" stroke-width="1.5" stroke="rgb(98,129,174)" x1="-144.63472117509747" x2="-72.85220351176326" y1="13.531122617578838" y2="21.568894682166587"></line><line fill="none" stroke-width="1.5" stroke="rgb(98,129,174)" x1="-144.4778816237898" x2="-72.08187591141987" y1="20.58633062574706" y2="25.441590768675812"></line><line fill="none" stroke-width="1.5" stroke="rgb(98,129,174)" x1="-81.29341846045975" x2="-87.28899616767411" y1="29.97702874600549" y2="-4.244746390582577"></line><line fill="none" stroke-width="1.5" stroke="rgb(98,129,174)" x1="-91.28568997358893" x2="-96.4808996325592" y1="29.774904204394964" y2="-7.533753871872317"></line><line fill="none" stroke-width="1.5" stroke="rgb(98,129,174)" x1="-102.77027439722569" x2="-106.96897135025985" y1="29.542593026784854" y2="-11.286550719184728"></line><line fill="none" stroke-width="1.5" stroke="rgb(98,129,174)" x1="-112.93670947848375" x2="-116.84152374150031" y1="29.336945489294255" y2="-14.819105080559405"></line><line fill="none" stroke-width="1.5" stroke="rgb(98,129,174)" x1="-123.40788072505632" x2="-126.36157656891534" y1="29.125133722014123" y2="-18.225529559586832"></line><line fill="none" stroke-width="1.5" stroke="rgb(98,129,174)" x1="-134.44326591021266" x2="-135.35516815049118" y1="28.901908985865333" y2="-21.44357793318745"></line><line fill="none" stroke-width="1.5" stroke="rgb(98,129,174)" x1="-142.02179357832847" x2="-69.304449707232" y1="34.56154299330985" y2="33.05706354920578"></line><line fill="none" stroke-width="1.5" stroke="rgb(98,129,174)" x1="-140.07782399617645" x2="-67.45724768242596" y1="39.56652802646258" y2="35.951732378375546"></line><line fill="none" stroke-width="1.5" stroke="rgb(98,129,174)" x1="-137.88797859545937" x2="-65.47604739905279" y1="45.20455012111607" y2="39.05638396905625"></line><line fill="none" stroke-width="1.5" stroke="rgb(98,129,174)" x1="-135.7515556999272" x2="-63.66984475701197" y1="50.7050295086517" y2="41.88680447361835"></line><line fill="none" stroke-width="1.5" stroke="rgb(98,129,174)" x1="-133.6161066820892" x2="-61.515088410172375" y1="56.20300153016254" y2="45.26342811731929"></line><line fill="none" stroke-width="1.5" stroke="rgb(98,129,174)" x1="-131.1472101126066" x2="-59.94481963275635" y1="62.55947464173427" y2="47.72412706760438"></line><line fill="none" stroke-width="1.5" stroke="rgb(98,129,174)" x1="-128.97634179298583" x2="-57.933609443194285" y1="68.14863794367199" y2="50.87580585879954"></line><line fill="none" stroke-width="1.5" stroke="rgb(98,129,174)" x1="-127.0530274292577" x2="-55.86559286799793" y1="73.10044361639794" y2="54.11650343169003"></line><line fill="none" stroke-width="1.5" stroke="rgb(98,129,174)" x1="-62.02080340309139" x2="-78.96484069819726" y1="59.34417244501841" y2="30.02413142052583"></line><line fill="none" stroke-width="1.5" stroke="rgb(98,129,174)" x1="-70.41367094797657" x2="-87.50565788083361" y1="61.94960233397423" y2="29.85136702398682"></line><line fill="none" stroke-width="1.5" stroke="rgb(98,129,174)" x1="-77.36297474660459" x2="-95.11587934768993" y1="64.10690122229207" y2="29.697426798931705"></line><line fill="none" stroke-width="1.5" stroke="rgb(98,129,174)" x1="-85.5713908989846" x2="-103.4948935899453" y1="66.65507116182985" y2="29.52793536641422"></line><line fill="none" stroke-width="1.5" stroke="rgb(98,129,174)" x1="-92.74291162251535" x2="-111.1464011559388" y1="68.88135369785535" y2="29.37316000253686"></line><line fill="none" stroke-width="1.5" stroke="rgb(98,129,174)" x1="-101.37150195203589" x2="-119.41708284373273" y1="71.55995991007761" y2="29.205859930400567"></line><line fill="none" stroke-width="1.5" stroke="rgb(98,129,174)" x1="-109.5463570130944" x2="-128.5161912926013" y1="74.09771135200805" y2="29.02180236932694"></line><line fill="none" stroke-width="1.5" stroke="rgb(98,129,174)" x1="-116.20936192490804" x2="-135.36546097786652" y1="76.166133384723" y2="28.883254743426054"></line><line fill="none" stroke-width="1.5" stroke="rgb(98,129,174)" x1="70.13929134941374" x2="110.95561045661802" y1="-121.93359137316043" y2="-86.7482906271162"></line><line fill="none" stroke-width="1.5" stroke="rgb(98,129,174)" x1="76.49189639849475" x2="120.07293714443033" y1="-109.30354732810542" y2="-77.06350044828389"></line><line fill="none" stroke-width="1.5" stroke="rgb(98,129,174)" x1="83.10587984910272" x2="129.71133574098147" y1="-96.15383919277468" y2="-66.82520678350483"></line></g></svg>