<svg height="400.00002545341476" viewBox="-87.89539858633407 -200.00002545341476 177.30083655192993 400.00002545341476" width="177.30083655192993" xmlns="http://www.w3.org/2000/svg"><g><rect fill="rgb(141,128,145)" height="400.00002545341476" transform="rotate(0 0.7550196896308989 -1.2726707396382153E-5)" width="177.30083655192993" x="-87.89539858633407" y="-200.00002545341476"></rect><polygon fill="none" points="-37.895397,-54.931725 18.307938,-71.10841 -36.74905,-75.87627" stroke-width="1.5" stroke="rgb(75,74,62)"></polygon><polygon fill="none" points="-36.642735,-34.375637 24.631832,-56.244488 -37.895397,-54.931725" stroke-width="1.5" stroke="rgb(75,74,62)"></polygon><polygon fill="none" points="0.55070966,99.68586 29.062902,83.90445 -3.562039,78.34199" stroke-width="1.5" stroke="rgb(75,74,62)"></polygon><polygon fill="none" points="29.062902,83.90445 35.189068,61.652443 -3.562039,78.34199" stroke-width="1.5" stroke="rgb(75,74,62)"></polygon><polygon fill="none" points="8.249896,126.84395 20.06658,105.71765 2.110437,123.48004" stroke-width="1.5" stroke="rgb(75,74,62)"></polygon><polygon fill="none" points="2.110437,123.48004 20.06658,105.71765 0.55070966,99.68586" stroke-width="1.5" stroke="rgb(75,74,62)"></polygon><polygon fill="none" points="-14.120301,-134.29166 -0.7950759,-131.08174 7.0361175E-6,-149.99997" stroke-width="1.5" stroke="rgb(75,74,62)"></polygon><polygon fill="none" points="38.545372,39.41447 39.405437,17.703396 -15.68454,40.490772" stroke-width="1.5" stroke="rgb(75,74,62)"></polygon><polygon fill="none" points="-33.599472,-14.520613 30.653454,-40.163574 -36.642735,-34.375637" stroke-width="1.5" stroke="rgb(75,74,62)"></polygon><polygon fill="none" points="-9.2343445,58.85731 38.545372,39.41447 -15.68454,40.490772" stroke-width="1.5" stroke="rgb(75,74,62)"></polygon><polygon fill="none" points="24.631832,-56.244488 18.307938,-71.10841 -37.895397,-54.931725" stroke-width="1.5" stroke="rgb(75,74,62)"></polygon><polygon fill="none" points="35.189068,61.652443 38.545372,39.41447 -9.2343445,58.85731" stroke-width="1.5" stroke="rgb(75,74,62)"></polygon><polygon fill="none" points="39.405437,17.703396 38.17302,-3.02457 -22.322016,22.527077" stroke-width="1.5" stroke="rgb(75,74,62)"></polygon><polygon fill="none" points="20.06658,105.71765 29.062902,83.90445 0.55070966,99.68586" stroke-width="1.5" stroke="rgb(75,74,62)"></polygon><polygon fill="none" points="6.32076,-99.34513 1.7172548,-114.34289 -25.086899,-116.37397" stroke-width="1.5" stroke="rgb(75,74,62)"></polygon><polygon fill="none" points="18.307938,-71.10841 12.060546,-85.235054 -36.74905,-75.87627" stroke-width="1.5" stroke="rgb(75,74,62)"></polygon><polygon fill="none" points="-15.68454,40.490772 39.405437,17.703396 -22.322016,22.527077" stroke-width="1.5" stroke="rgb(75,74,62)"></polygon><polygon fill="none" points="-25.086899,-116.37397 1.7172548,-114.34289 -14.120301,-134.29166" stroke-width="1.5" stroke="rgb(75,74,62)"></polygon><polygon fill="none" points="1.7172548,-114.34289 -0.7950759,-131.08174 -14.120301,-134.29166" stroke-width="1.5" stroke="rgb(75,74,62)"></polygon><polygon fill="none" points="30.653454,-40.163574 24.631832,-56.244488 -36.642735,-34.375637" stroke-width="1.5" stroke="rgb(75,74,62)"></polygon><polygon fill="none" points="-32.615055,-96.629395 6.32076,-99.34513 -25.086899,-116.37397" stroke-width="1.5" stroke="rgb(75,74,62)"></polygon><polygon fill="none" points="-3.562039,78.34199 35.189068,61.652443 -9.2343445,58.85731" stroke-width="1.5" stroke="rgb(75,74,62)"></polygon><line fill="none" stroke-width="1.5" stroke="rgb(75,74,62)" x1="-37.759465674732375" x2="18.307938" y1="-57.41528592143877" y2="-71.10841"></line><line fill="none" stroke-width="1.5" stroke="rgb(75,74,62)" x1="-37.61887782329154" x2="18.307938" y1="-59.9839217983737" y2="-71.10841"></line><line fill="none" stroke-width="1.5" stroke="rgb(75,74,62)" x1="-37.45816149064093" x2="18.307938" y1="-62.92031874750493" y2="-71.10841"></line><line fill="none" stroke-width="1.5" stroke="rgb(75,74,62)" x1="-37.32827921093963" x2="18.307938" y1="-65.29335653135135" y2="-71.10841"></line><line fill="none" stroke-width="1.5" stroke="rgb(75,74,62)" x1="-37.165970288092524" x2="18.307938" y1="-68.25885118895474" y2="-71.10841"></line><line fill="none" stroke-width="1.5" stroke="rgb(75,74,62)" x1="-37.02362049231151" x2="18.307938" y1="-70.85967899000666" y2="-71.10841"></line><line fill="none" stroke-width="1.5" stroke="rgb(75,74,62)" x1="-36.90112413193546" x2="18.307938" y1="-73.09777099320014" y2="-71.10841"></line><line fill="none" stroke-width="1.5" stroke="rgb(75,74,62)" x1="-37.68479028325812" x2="13.899023083442543" y1="-51.47568321487785" y2="-52.413955595679354"></line><line fill="none" stroke-width="1.5" stroke="rgb(75,74,62)" x1="-37.4692195915832" x2="4.191729442692363" y1="-47.93818653255584" y2="-48.9494291695752"></line><line fill="none" stroke-width="1.5" stroke="rgb(75,74,62)" x1="-37.2686088794225" x2="-6.259957968010305" y1="-44.646181839372076" y2="-45.21922911878521"></line><line fill="none" stroke-width="1.5" stroke="rgb(75,74,62)" x1="-37.05128099074652" x2="-15.575019231248639" y1="-41.079849703987634" y2="-41.894690158534445"></line><line fill="none" stroke-width="1.5" stroke="rgb(75,74,62)" x1="-36.84893299134206" x2="-25.976471360106906" y1="-37.75933627516228" y2="-38.182419045295305"></line><line fill="none" stroke-width="1.5" stroke="rgb(75,74,62)" x1="6.190144887575668" x2="2.604902927941559" y1="96.56444978677045" y2="79.39343405668616"></line><line fill="none" stroke-width="1.5" stroke="rgb(75,74,62)" x1="12.161153069816569" x2="9.75662113000934" y1="93.25951528934947" y2="80.6127821394004"></line><line fill="none" stroke-width="1.5" stroke="rgb(75,74,62)" x1="17.47618984677104" x2="15.906828404269854" y1="90.31765892890051" y2="81.66137539157809"></line><line fill="none" stroke-width="1.5" stroke="rgb(75,74,62)" x1="23.71642048393434" x2="22.497046832255734" y1="86.86371063823104" y2="82.78498932291407"></line><line fill="none" stroke-width="1.5" stroke="rgb(75,74,62)" x1="2.9363464306478626" x2="-2.748385157613429" y1="79.44994425299622" y2="82.56459472699778"></line><line fill="none" stroke-width="1.5" stroke="rgb(75,74,62)" x1="9.885034748554432" x2="-1.9233274048305355" y1="80.63467630457068" y2="86.84638508082676"></line><line fill="none" stroke-width="1.5" stroke="rgb(75,74,62)" x1="15.696026281512664" x2="-1.0456386466494783" y1="81.62543421535253" y2="91.40131380644374"></line><line fill="none" stroke-width="1.5" stroke="rgb(75,74,62)" x1="22.84532908661991" x2="-0.2861024705048374" y1="82.84437047959605" y2="95.34306777630923"></line><polygon fill="none" points="29.062902,83.90445 35.189068,61.652443 -3.562039,78.34199" stroke-width="1.5" stroke="rgb(75,74,62)"></polygon><line fill="none" stroke-width="1.5" stroke="rgb(75,74,62)" x1="17.78784132048507" x2="2.8265908759009926" y1="107.9718015176609" y2="123.87243359665429"></line><line fill="none" stroke-width="1.5" stroke="rgb(75,74,62)" x1="15.431991519467587" x2="3.6331770888677264" y1="110.30223091425756" y2="124.31437495279334"></line><line fill="none" stroke-width="1.5" stroke="rgb(75,74,62)" x1="13.4015847698672" x2="4.395775506422893" y1="112.31072889841319" y2="124.73221469940171"></line><line fill="none" stroke-width="1.5" stroke="rgb(75,74,62)" x1="10.947224553843672" x2="5.207438294108215" y1="114.7386057498102" y2="125.17693759120255"></line><line fill="none" stroke-width="1.5" stroke="rgb(75,74,62)" x1="8.748418326889633" x2="5.989754026033592" y1="116.91368612484108" y2="125.60558076652332"></line><line fill="none" stroke-width="1.5" stroke="rgb(75,74,62)" x1="6.669316684765311" x2="6.6911776832115315" y1="118.97035356740312" y2="125.9899018933884"></line><line fill="none" stroke-width="1.5" stroke="rgb(75,74,62)" x1="4.409742335009758" x2="7.510621557417942" y1="121.20554635694" y2="126.43888816568607"></line><line fill="none" stroke-width="1.5" stroke="rgb(75,74,62)" x1="0.8047908990866479" x2="17.006154245618802" y1="103.5619572992759" y2="108.74505392849848"></line><line fill="none" stroke-width="1.5" stroke="rgb(75,74,62)" x1="1.0615709096820338" x2="14.095735064665467" y1="107.47922569015246" y2="111.62406871661575"></line><line fill="none" stroke-width="1.5" stroke="rgb(75,74,62)" x1="1.3176301907155255" x2="11.295651076454535" y1="111.38549910083321" y2="114.39393886548862"></line><line fill="none" stroke-width="1.5" stroke="rgb(75,74,62)" x1="1.5901089703662825" x2="7.95170386421928" y1="115.54225767497476" y2="117.70180377296059"></line><line fill="none" stroke-width="1.5" stroke="rgb(75,74,62)" x1="1.8507152819605357" x2="4.99261651391495" y1="119.51789761869179" y2="120.62896158466329"></line><line fill="none" stroke-width="1.5" stroke="rgb(75,74,62)" x1="-2.9708750111776205" x2="-11.678512488299287" y1="-131.60586984795472" y2="-137.0080548403552"></line><line fill="none" stroke-width="1.5" stroke="rgb(75,74,62)" x1="-5.1843284146664645" x2="-9.535601531882513" y1="-132.13906890838126" y2="-139.39196284968025"></line><line fill="none" stroke-width="1.5" stroke="rgb(75,74,62)" x1="-7.524373386940418" x2="-7.096019172441097" y1="-132.70276262725767" y2="-142.10590665992854"></line><line fill="none" stroke-width="1.5" stroke="rgb(75,74,62)" x1="-9.668663339031374" x2="-4.664864303051736" y1="-133.21930089543844" y2="-144.81047520380213"></line><line fill="none" stroke-width="1.5" stroke="rgb(75,74,62)" x1="-12.050475084456584" x2="-2.2840825198156516" y1="-133.79305581739516" y2="-147.45900557997882"></line><line fill="none" stroke-width="1.5" stroke="rgb(75,74,62)" x1="31.980297920403594" x2="-8.357416708734934" y1="20.77472493379741" y2="40.34535076582267"></line><line fill="none" stroke-width="1.5" stroke="rgb(75,74,62)" x1="25.254583184493843" x2="-2.6702155275278763" y1="23.55674447496076" y2="40.23247682995662"></line><line fill="none" stroke-width="1.5" stroke="rgb(75,74,62)" x1="18.60400230776727" x2="4.982039043444026" y1="26.307685703608925" y2="40.08060246079789"></line><line fill="none" stroke-width="1.5" stroke="rgb(75,74,62)" x1="11.904188069149772" x2="11.377644337902936" y1="29.0789917827207" y2="39.95366882176701"></line><line fill="none" stroke-width="1.5" stroke="rgb(75,74,62)" x1="5.094278702731508" x2="18.197630235247175" y1="31.89583752697666" y2="39.81831249687948"></line><line fill="none" stroke-width="1.5" stroke="rgb(75,74,62)" x1="-1.6126645217565425" x2="24.909114681793966" y1="34.67009243439581" y2="39.68510960131658"></line><line fill="none" stroke-width="1.5" stroke="rgb(75,74,62)" x1="-8.4857427255577" x2="31.535575680310956" y1="37.513067288626274" y2="39.55359416693437"></line><polygon fill="none" points="-32.438893037499426,-15.450886596640519 23.445097278677174,-37.895900339481805 -34.99408481524734,-33.10745279350318" stroke-width="1.5" stroke="rgb(75,74,62)"></polygon><polygon fill="none" points="-30.54730053274881,-16.96711176181551 16.397749388224256,-35.67887810669195 -33.002082633173806,-31.57515287790878" stroke-width="1.5" stroke="rgb(75,74,62)"></polygon><polygon fill="none" points="-29.574269159734737,-17.747054931691423 11.02470251281656,-33.98857353172717 -31.07726115281209,-30.094530106289916" stroke-width="1.5" stroke="rgb(75,74,62)"></polygon><polygon fill="none" points="-27.78393688431465,-19.182113932612353 3.8547550746802273,-31.732982758378622 -29.486008665450168,-28.870497284430265" stroke-width="1.5" stroke="rgb(75,74,62)"></polygon><polygon fill="none" points="-26.8294644644815,-19.94718098525818 -2.7468059658378934,-29.65620042473291 -27.81449065976581,-27.584722137156803" stroke-width="1.5" stroke="rgb(75,74,62)"></polygon><polygon fill="none" points="-25.447470006977614,-21.05493266503976 -8.457397867391698,-27.8597077008125 -25.836120964187955,-26.06290868492809" stroke-width="1.5" stroke="rgb(75,74,62)"></polygon><polygon fill="none" points="-24.079953874091405,-22.15107909682012 -16.43456930709597,-25.350172665574718 -23.976329455420842,-24.632308659710933" stroke-width="1.5" stroke="rgb(75,74,62)"></polygon><line fill="none" stroke-width="1.5" stroke="rgb(75,74,62)" x1="-10.298006243702453" x2="-6.2467110385099325" y1="55.8285990507056" y2="40.30345957033616"></line><line fill="none" stroke-width="1.5" stroke="rgb(75,74,62)" x1="-11.451616618580331" x2="2.954269378765215" y1="52.543763643996506" y2="40.120847624594525"></line><line fill="none" stroke-width="1.5" stroke="rgb(75,74,62)" x1="-12.49060096032323" x2="11.799009759909204" y1="49.58531889774957" y2="39.94530597823391"></line><line fill="none" stroke-width="1.5" stroke="rgb(75,74,62)" x1="-13.49175238116999" x2="20.08480702608908" y1="46.73460109363596" y2="39.78085768118538"></line><line fill="none" stroke-width="1.5" stroke="rgb(75,74,62)" x1="-14.547195319863023" x2="29.955463861752627" y1="43.72929149320263" y2="39.58495466120675"></line><line fill="none" stroke-width="1.5" stroke="rgb(75,74,62)" x1="23.895343162880586" x2="-31.295402831121315" y1="-57.9755598652676" y2="-56.83136373212986"></line><line fill="none" stroke-width="1.5" stroke="rgb(75,74,62)" x1="23.242150556282734" x2="-25.217519489562648" y1="-59.510849001396686" y2="-58.58072664500966"></line><line fill="none" stroke-width="1.5" stroke="rgb(75,74,62)" x1="22.52924018085997" x2="-18.90949550346808" y1="-61.186501088337934" y2="-60.39632964274673"></line><line fill="none" stroke-width="1.5" stroke="rgb(75,74,62)" x1="21.77398680751018" x2="-12.87624943589178" y1="-62.96167779336555" y2="-62.132844860590524"></line><line fill="none" stroke-width="1.5" stroke="rgb(75,74,62)" x1="21.117802628336772" x2="-6.939842377837774" y1="-64.50399843724412" y2="-63.84148745201848"></line><line fill="none" stroke-width="1.5" stroke="rgb(75,74,62)" x1="20.40872075641788" x2="-0.07435629799314825" y1="-66.17065186165038" y2="-65.8175416228596"></line><line fill="none" stroke-width="1.5" stroke="rgb(75,74,62)" x1="19.711964452522274" x2="5.581059500960825" y1="-67.80833479482382" y2="-67.44530808358726"></line><line fill="none" stroke-width="1.5" stroke="rgb(75,74,62)" x1="19.047876895464857" x2="12.695000632270673" y1="-69.36923184339754" y2="-69.49287367182906"></line><line fill="none" stroke-width="1.5" stroke="rgb(75,74,62)" x1="-32.14515061384364" x2="-31.051078967062637" y1="-56.58678561622034" y2="-55.07542145100357"></line><line fill="none" stroke-width="1.5" stroke="rgb(75,74,62)" x1="-25.55989003368891" x2="-24.758493411661874" y1="-58.482184060577076" y2="-55.20753469078819"></line><line fill="none" stroke-width="1.5" stroke="rgb(75,74,62)" x1="-19.176113607338593" x2="-16.549581449402552" y1="-60.319590456322366" y2="-55.37988132714182"></line><line fill="none" stroke-width="1.5" stroke="rgb(75,74,62)" x1="-12.867709283523386" x2="-10.868219566363386" y1="-62.13530292452233" y2="-55.49916188648406"></line><line fill="none" stroke-width="1.5" stroke="rgb(75,74,62)" x1="-6.147249411882438" x2="-2.862923291654319" y1="-64.06961501908957" y2="-55.667233598338626"></line><line fill="none" stroke-width="1.5" stroke="rgb(75,74,62)" x1="0.24445541356842782" x2="3.9799260806606043" y1="-65.90930340127085" y2="-55.810899662466866"></line><line fill="none" stroke-width="1.5" stroke="rgb(75,74,62)" x1="6.027575372025735" x2="10.846804546726808" y1="-67.57382623060599" y2="-55.95507021896897"></line><line fill="none" stroke-width="1.5" stroke="rgb(75,74,62)" x1="11.82866598539691" x2="18.24407839667552" y1="-69.24352145227904" y2="-56.110376460781126"></line><line fill="none" stroke-width="1.5" stroke="rgb(75,74,62)" x1="31.0657305755536" x2="27.623601831084947" y1="42.45813619933957" y2="61.17642200900217"></line><line fill="none" stroke-width="1.5" stroke="rgb(75,74,62)" x1="22.28313142970394" x2="19.83644856524575" y1="46.03200995949142" y2="60.686452470908435"></line><line fill="none" stroke-width="1.5" stroke="rgb(75,74,62)" x1="14.206891288282804" x2="13.008013953030943" y1="49.31844740731116" y2="60.256805738831495"></line><line fill="none" stroke-width="1.5" stroke="rgb(75,74,62)" x1="7.081877602050909" x2="5.523838576548444" y1="52.217805448259696" y2="59.78589964169403"></line><line fill="none" stroke-width="1.5" stroke="rgb(75,74,62)" x1="-1.1812247138632586" x2="-1.6681968810091057" y1="55.58028209712862" y2="59.33337505783207"></line><polygon fill="none" points="39.405437,17.703396 38.17302,-3.02457 -22.322016,22.527077" stroke-width="1.5" stroke="rgb(75,74,62)"></polygon><line fill="none" stroke-width="1.5" stroke="rgb(75,74,62)" x1="22.372095430398495" x2="21.604255505114022" y1="100.1275141979221" y2="88.03278739875357"></line><line fill="none" stroke-width="1.5" stroke="rgb(75,74,62)" x1="24.61400501680588" x2="14.799210669465074" y1="94.69160127429865" y2="91.79935859534375"></line><line fill="none" stroke-width="1.5" stroke="rgb(75,74,62)" x1="26.736200400516513" x2="8.017471617116534" y1="89.54595696165136" y2="95.5530301132083"></line><line fill="none" stroke-width="1.5" stroke="rgb(75,74,62)" x1="-18.05208610321689" x2="6.32076" y1="-115.84090777722268" y2="-99.34513"></line><line fill="none" stroke-width="1.5" stroke="rgb(75,74,62)" x1="-11.680181096298426" x2="6.32076" y1="-115.35807728931096" y2="-99.34513"></line><line fill="none" stroke-width="1.5" stroke="rgb(75,74,62)" x1="-4.690134419230645" x2="6.32076" y1="-114.82840717590689" y2="-99.34513"></line><polygon fill="none" points="15.77381452457338,-71.88941827964314 10.530352255403548,-84.18696568829034 -30.760409868076728,-76.031035970867" stroke-width="1.5" stroke="rgb(75,74,62)"></polygon><polygon fill="none" points="12.75847429176586,-72.81873167587109 8.462371306131391,-82.77052622486713 -26.29889804759009,-76.1463385911317" stroke-width="1.5" stroke="rgb(75,74,62)"></polygon><polygon fill="none" points="10.745078820402897,-73.43925050259739 7.0156489959576325,-81.77961062989216 -21.36744791443602,-76.27378622434122" stroke-width="1.5" stroke="rgb(75,74,62)"></polygon><polygon fill="none" points="7.758118447131293,-74.35981736224456 4.832463763253363,-80.2842633344282 -16.185757942106743,-76.40770101718464" stroke-width="1.5" stroke="rgb(75,74,62)"></polygon><polygon fill="none" points="4.958715706253193,-75.22257985923584 3.244705408628663,-79.19674674359023 -10.567203157236978,-76.55290607655968" stroke-width="1.5" stroke="rgb(75,74,62)"></polygon><polygon fill="none" points="2.639320229353684,-75.93740641989442 1.287219158598642,-77.85598933737393 -5.681894886123164,-76.67916122663543" stroke-width="1.5" stroke="rgb(75,74,62)"></polygon><polygon fill="none" points="-13.348225135239952,38.57746246729648 33.377925999984384,19.192614085749707 -19.371214005232762,23.15447033031913" stroke-width="1.5" stroke="rgb(75,74,62)"></polygon><polygon fill="none" points="-11.284411983304457,36.88731603459571 27.715569199573057,20.59161350432208 -16.021481195271726,23.866683867606373" stroke-width="1.5" stroke="rgb(75,74,62)"></polygon><polygon fill="none" points="-8.66054996404249,34.7385212042131 21.973966903281205,22.01019212049169 -12.209780560336496,24.67712008634432" stroke-width="1.5" stroke="rgb(75,74,62)"></polygon><polygon fill="none" points="-6.311781488438562,32.81501245219306 16.605922933999604,23.33647561985548 -9.79733626402097,25.190049201370453" stroke-width="1.5" stroke="rgb(75,74,62)"></polygon><polygon fill="none" points="-4.309499511857117,31.175256577584726 11.755481521265864,24.534874971118708 -6.5865920120015,25.872711267507626" stroke-width="1.5" stroke="rgb(75,74,62)"></polygon><polygon fill="none" points="-2.0003085965065726,29.284159612559318 5.024543742823781,26.197888866287457 -3.307313373865057,26.56994497870766" stroke-width="1.5" stroke="rgb(75,74,62)"></polygon><line fill="none" stroke-width="1.5" stroke="rgb(75,74,62)" x1="-23.978660294558292" x2="-12.316868302836564" y1="-118.18465653037428" y2="-132.02007705980807"></line><line fill="none" stroke-width="1.5" stroke="rgb(75,74,62)" x1="-22.72385707312151" x2="-10.592454808565039" y1="-120.23480659530728" y2="-129.8480294417775"></line><line fill="none" stroke-width="1.5" stroke="rgb(75,74,62)" x1="-21.34172241841523" x2="-8.649405165612013" y1="-122.49299608963108" y2="-127.40059072553494"></line><line fill="none" stroke-width="1.5" stroke="rgb(75,74,62)" x1="-20.26727488382805" x2="-6.9206121675592485" y1="-124.2484734785708" y2="-125.22302674452776"></line><line fill="none" stroke-width="1.5" stroke="rgb(75,74,62)" x1="-19.094903517956485" x2="-5.41808965956548" y1="-126.1639429249395" y2="-123.33046997356381"></line><line fill="none" stroke-width="1.5" stroke="rgb(75,74,62)" x1="-17.66633562018434" x2="-3.690249327632669" y1="-128.49799699680045" y2="-121.15410595775262"></line><line fill="none" stroke-width="1.5" stroke="rgb(75,74,62)" x1="-16.47084737911888" x2="-1.829619389346412" y1="-130.45123576219078" y2="-118.81048197260264"></line><line fill="none" stroke-width="1.5" stroke="rgb(75,74,62)" x1="-15.276559364537203" x2="-0.1993898754424066" y1="-132.40251354727627" y2="-116.75706720620164"></line><line fill="none" stroke-width="1.5" stroke="rgb(75,74,62)" x1="-1.0604584186420056" x2="-11.822536447658564" y1="-117.84165734912895" y2="-133.73814765136643"></line><line fill="none" stroke-width="1.5" stroke="rgb(75,74,62)" x1="-3.6986675904684025" x2="-9.82663940183308" y1="-121.16470948631525" y2="-133.25735576848115"></line><line fill="none" stroke-width="1.5" stroke="rgb(75,74,62)" x1="-6.0341145144857675" x2="-7.461417503572113" y1="-124.10640644310674" y2="-132.68759717683193"></line><line fill="none" stroke-width="1.5" stroke="rgb(75,74,62)" x1="-8.728318194248178" x2="-5.250848187744468" y1="-127.49998849553046" y2="-132.15509286463399"></line><line fill="none" stroke-width="1.5" stroke="rgb(75,74,62)" x1="-11.566356518927261" x2="-3.0367992158957158" y1="-131.0747426965829" y2="-131.62175033767258"></line><line fill="none" stroke-width="1.5" stroke="rgb(75,74,62)" x1="-25.642222903523475" x2="29.673569786559018" y1="-35.32175705933751" y2="-42.780382665038154"></line><line fill="none" stroke-width="1.5" stroke="rgb(75,74,62)" x1="-13.694384723866683" x2="28.64726790418651" y1="-36.34935369332341" y2="-45.5211512903619"></line><line fill="none" stroke-width="1.5" stroke="rgb(75,74,62)" x1="-3.430005315618992" x2="27.59429935776431" y1="-37.23216124153984" y2="-48.33313400719689"></line><line fill="none" stroke-width="1.5" stroke="rgb(75,74,62)" x1="7.911951112387669" x2="26.596317848265013" y1="-38.207647858698664" y2="-50.99827226414507"></line><line fill="none" stroke-width="1.5" stroke="rgb(75,74,62)" x1="19.3234590197614" x2="25.650221782069963" y1="-39.18911638363123" y2="-53.52484895596142"></line><line fill="none" stroke-width="1.5" stroke="rgb(75,74,62)" x1="-26.109591930029712" x2="1.5830996580679866" y1="-113.69168755857964" y2="-99.01468359263805"></line><line fill="none" stroke-width="1.5" stroke="rgb(75,74,62)" x1="-27.05511438208213" x2="-3.5490852513268614" y1="-111.21180553351198" y2="-98.65671853231099"></line><line fill="none" stroke-width="1.5" stroke="rgb(75,74,62)" x1="-27.95424451173654" x2="-8.591756814183803" y1="-108.85359961054664" y2="-98.30499694353828"></line><line fill="none" stroke-width="1.5" stroke="rgb(75,74,62)" x1="-28.79842595631118" x2="-13.380062759360541" y1="-106.63951110767493" y2="-97.97101711685825"></line><line fill="none" stroke-width="1.5" stroke="rgb(75,74,62)" x1="-29.845728502379366" x2="-18.141023373634724" y1="-103.8926839401503" y2="-97.63894460123558"></line><line fill="none" stroke-width="1.5" stroke="rgb(75,74,62)" x1="-30.691230602713052" x2="-22.75564553326091" y1="-101.67513166920939" y2="-97.31707905490008"></line><line fill="none" stroke-width="1.5" stroke="rgb(75,74,62)" x1="-31.665996042413227" x2="-27.37596679082884" y1="-99.11855219579502" y2="-96.99481600185456"></line><polygon fill="none" points="-2.59658845225907,75.64512210330174 30.19766057204544,61.95755180134296 -7.3089265929802245,59.71180643822234" stroke-width="1.5" stroke="rgb(75,74,62)"></polygon><polygon fill="none" points="-1.8331137013652996,73.5124505312898 24.386883122675535,62.31274616666944 -5.376175354133057,60.569556148060094" stroke-width="1.5" stroke="rgb(75,74,62)"></polygon><polygon fill="none" points="-0.88514023222492,70.86440478217959 19.244110430090505,62.62710752338587 -3.6941997559048607,61.31601231496699" stroke-width="1.5" stroke="rgb(75,74,62)"></polygon><polygon fill="none" points="-0.14144762888371298,68.7869921740945 12.587866022567805,63.03398259791558 -1.766809804186388,62.17138270025093" stroke-width="1.5" stroke="rgb(75,74,62)"></polygon><polygon fill="none" points="0.831746932294835,66.06849444744091 7.614747162451113,63.3379735548234 -0.12418186406867804,62.90037648418339" stroke-width="1.5" stroke="rgb(75,74,62)"></polygon><polygon fill="none" points="6.32076,-99.34513 12.060546,-85.235054 -36.74905,-75.87627 -32.615055,-96.629395" stroke-width="1.5" stroke="rgb(75,74,62)"></polygon><polygon fill="none" points="35.315586,-22.433277 38.17302,-3.02457 -22.322016,22.527077 -28.664131,4.3838763" stroke-width="1.5" stroke="rgb(75,74,62)"></polygon><polygon fill="none" points="-28.664131,4.3838763 35.315586,-22.433277 30.653454,-40.163574 -33.599472,-14.520613" stroke-width="1.5" stroke="rgb(75,74,62)"></polygon><polygon fill="none" points="0.0,150.0 8.249896,126.84395 2.110437,123.48004 -3.586109E-5,149.99998" stroke-width="1.5" stroke="rgb(75,74,62)"></polygon><polygon fill="none" points="6.32076,-99.34513 12.060546,-85.235054 -36.74905,-75.87627 -32.615055,-96.629395" stroke-width="1.5" stroke="rgb(75,74,62)"></polygon><polygon fill="none" points="35.315586,-22.433277 38.17302,-3.02457 -22.322016,22.527077 -28.664131,4.3838763" stroke-width="1.5" stroke="rgb(75,74,62)"></polygon><polygon fill="none" points="-28.664131,4.3838763 35.315586,-22.433277 30.653454,-40.163574 -33.599472,-14.520613" stroke-width="1.5" stroke="rgb(75,74,62)"></polygon><line fill="none" stroke-width="1.5" stroke="rgb(75,74,62)" x1="1.0560750032021577" x2="0.28385736669410844" y1="147.03577752269385" y2="146.43261710362052"></line><line fill="none" stroke-width="1.5" stroke="rgb(75,74,62)" x1="2.104532375285511" x2="0.520498416994444" y1="144.09293643716168" y2="143.45901455888955"></line><line fill="none" stroke-width="1.5" stroke="rgb(75,74,62)" x1="2.990950987998578" x2="0.8020638042190562" y1="141.6049105222034" y2="139.9208982815292"></line><line fill="none" stroke-width="1.5" stroke="rgb(75,74,62)" x1="4.098304682834273" x2="1.0767343538858762" y1="138.49675750029945" y2="136.46942169107578"></line><line fill="none" stroke-width="1.5" stroke="rgb(75,74,62)" x1="5.0876961043551345" x2="1.3379000437982147" y1="135.71970446748125" y2="133.18764551938403"></line><line fill="none" stroke-width="1.5" stroke="rgb(75,74,62)" x1="6.155422432779342" x2="1.5701607580721166" y1="132.72277870678246" y2="130.26908574233198"></line><line fill="none" stroke-width="1.5" stroke="rgb(75,74,62)" x1="7.247437431367299" x2="1.8322845323483805" y1="129.65767879005784" y2="126.97527039950312"></line></g></svg>