<svg height="400.000065969768" viewBox="-78.2175248384645 -200.00002493019747 189.3383686577306 400.000065969768" width="189.3383686577306" xmlns="http://www.w3.org/2000/svg"><g><rect fill="rgb(208,89,195)" height="400.000065969768" transform="rotate(0 16.451659490400793 8.054686531977495E-6)" width="189.3383686577306" x="-78.2175248384645" y="-200.00002493019747"></rect><polygon fill="none" points="0.0,150.0 18.70269,134.71088 11.713886,126.2626" stroke-width="1.5" stroke="rgb(142,64,133)"></polygon><polygon fill="none" points="-24.477709,-4.7260184 36.74556,-32.95743 -28.217525,-39.645332" stroke-width="1.5" stroke="rgb(142,64,133)"></polygon><polygon fill="none" points="18.70269,134.71088 39.586063,121.4794 11.713886,126.2626" stroke-width="1.5" stroke="rgb(142,64,133)"></polygon><polygon fill="none" points="36.74556,-32.95743 25.727524,-58.755554 -28.217525,-39.645332" stroke-width="1.5" stroke="rgb(142,64,133)"></polygon><polygon fill="none" points="61.120842,73.345474 60.59857,45.934406 -0.96870035,75.2534" stroke-width="1.5" stroke="rgb(142,64,133)"></polygon><polygon fill="none" points="46.198505,-7.015232 36.74556,-32.95743 -24.477709,-4.7260184" stroke-width="1.5" stroke="rgb(142,64,133)"></polygon><polygon fill="none" points="-16.641926,26.325346 46.198505,-7.015232 -24.477709,-4.7260184" stroke-width="1.5" stroke="rgb(142,64,133)"></polygon><polygon fill="none" points="54.56935,19.210674 46.198505,-7.015232 -16.641926,26.325346" stroke-width="1.5" stroke="rgb(142,64,133)"></polygon><polygon fill="none" points="11.279814,107.55975 54.413334,99.77706 5.8143787,92.42662" stroke-width="1.5" stroke="rgb(142,64,133)"></polygon><polygon fill="none" points="5.0213137,-115.62965 4.2040465E-5,-149.99997 -16.775301,-114.32396" stroke-width="1.5" stroke="rgb(142,64,133)"></polygon><polygon fill="none" points="-8.251961,53.162304 54.56935,19.210674 -16.641926,26.325346" stroke-width="1.5" stroke="rgb(142,64,133)"></polygon><polygon fill="none" points="-28.217525,-39.645332 25.727524,-58.755554 -26.070944,-76.87893" stroke-width="1.5" stroke="rgb(142,64,133)"></polygon><polygon fill="none" points="14.511822,-85.729416 5.0213137,-115.62965 -16.775301,-114.32396" stroke-width="1.5" stroke="rgb(142,64,133)"></polygon><polygon fill="none" points="54.413334,99.77706 61.120842,73.345474 5.8143787,92.42662" stroke-width="1.5" stroke="rgb(142,64,133)"></polygon><polygon fill="none" points="5.8143787,92.42662 61.120842,73.345474 -0.96870035,75.2534" stroke-width="1.5" stroke="rgb(142,64,133)"></polygon><line fill="none" stroke-width="1.5" stroke="rgb(142,64,133)" x1="15.59663063932884" x2="11.713886" y1="137.25002601286872" y2="126.2626"></line><line fill="none" stroke-width="1.5" stroke="rgb(142,64,133)" x1="12.414967242806494" x2="11.713886" y1="139.8509804420372" y2="126.2626"></line><line fill="none" stroke-width="1.5" stroke="rgb(142,64,133)" x1="9.504503196633936" x2="11.713886" y1="142.23023412427855" y2="126.2626"></line><line fill="none" stroke-width="1.5" stroke="rgb(142,64,133)" x1="6.234405888979163" x2="11.713886" y1="144.903481736032" y2="126.2626"></line><line fill="none" stroke-width="1.5" stroke="rgb(142,64,133)" x1="3.325526311541127" x2="11.713886" y1="147.2814401426708" y2="126.2626"></line><polygon fill="none" points="-22.080490260105393,-8.463803787330724 29.614904668577324,-31.709232341989313 -25.462893950180096,-37.09289880102811" stroke-width="1.5" stroke="rgb(142,64,133)"></polygon><polygon fill="none" points="-20.07274459720937,-11.594316156473814 21.58017087296899,-30.30277665440879 -22.535448425506207,-34.380336324547365" stroke-width="1.5" stroke="rgb(142,64,133)"></polygon><polygon fill="none" points="-18.12983320567978,-14.623737788773148 12.835115787913857,-28.771981387824667 -20.018218628873406,-32.04787854404399" stroke-width="1.5" stroke="rgb(142,64,133)"></polygon><polygon fill="none" points="-16.31004752532514,-17.4611796454884 4.515315477731342,-27.31562567480948 -17.288924603144224,-29.518922667981776" stroke-width="1.5" stroke="rgb(142,64,133)"></polygon><polygon fill="none" points="-13.877917525069538,-21.253399541599038 -3.8691004587356232,-25.84795919314829 -14.25738087886097,-26.709903103657858" stroke-width="1.5" stroke="rgb(142,64,133)"></polygon><line fill="none" stroke-width="1.5" stroke="rgb(142,64,133)" x1="36.20415921657377" x2="18.70269" y1="122.05977634474097" y2="134.71088"></line><line fill="none" stroke-width="1.5" stroke="rgb(142,64,133)" x1="32.84608856398741" x2="18.70269" y1="122.63606193477396" y2="134.71088"></line><line fill="none" stroke-width="1.5" stroke="rgb(142,64,133)" x1="29.14982253712887" x2="18.70269" y1="123.27038594655926" y2="134.71088"></line><line fill="none" stroke-width="1.5" stroke="rgb(142,64,133)" x1="25.66613055234766" x2="18.70269" y1="123.86822967846425" y2="134.71088"></line><line fill="none" stroke-width="1.5" stroke="rgb(142,64,133)" x1="22.47924710443313" x2="18.70269" y1="124.41513747110801" y2="134.71088"></line><line fill="none" stroke-width="1.5" stroke="rgb(142,64,133)" x1="18.738289708577593" x2="18.70269" y1="125.05713106302319" y2="134.71088"></line><line fill="none" stroke-width="1.5" stroke="rgb(142,64,133)" x1="14.903429211239526" x2="18.70269" y1="125.71523956431412" y2="134.71088"></line><line fill="none" stroke-width="1.5" stroke="rgb(142,64,133)" x1="33.93552617375921" x2="12.43120783378668" y1="-39.536970053109556" y2="-54.045287891064355"></line><line fill="none" stroke-width="1.5" stroke="rgb(142,64,133)" x1="31.278094664909787" x2="-0.8001773066470541" y1="-45.75919913673056" y2="-49.3580235557272"></line><line fill="none" stroke-width="1.5" stroke="rgb(142,64,133)" x1="28.611658767231113" x2="-14.94339306239732" y1="-52.00251149940017" y2="-44.347740044568404"></line><line fill="none" stroke-width="1.5" stroke="rgb(142,64,133)" x1="61.04837117446277" x2="7.575059410891399" y1="69.54188337138086" y2="71.18477252299103"></line><line fill="none" stroke-width="1.5" stroke="rgb(142,64,133)" x1="60.969475100629836" x2="15.889025404751685" y1="65.40106578136249" y2="67.22557259633238"></line><line fill="none" stroke-width="1.5" stroke="rgb(142,64,133)" x1="60.89709291869222" x2="24.922384293483084" y1="61.60212627005244" y2="62.92379004440009"></line><line fill="none" stroke-width="1.5" stroke="rgb(142,64,133)" x1="60.82338924931474" x2="33.52037433820013" y1="57.73382920810423" y2="58.829334813335365"></line><line fill="none" stroke-width="1.5" stroke="rgb(142,64,133)" x1="60.745407392295476" x2="42.37111400023912" y1="53.64099379107957" y2="54.61451749910803"></line><line fill="none" stroke-width="1.5" stroke="rgb(142,64,133)" x1="60.67404927993882" x2="52.06213194854841" y1="49.895802015597305" y2="49.99955063750091"></line><line fill="none" stroke-width="1.5" stroke="rgb(142,64,133)" x1="8.042937111809515" x2="8.318772272666477" y1="70.96196413520977" y2="74.96801111686266"></line><line fill="none" stroke-width="1.5" stroke="rgb(142,64,133)" x1="16.36737675665193" x2="17.176641445899616" y1="66.99777654343066" y2="74.6958206622908"></line><line fill="none" stroke-width="1.5" stroke="rgb(142,64,133)" x1="25.51661530823487" x2="26.206016058602646" y1="62.64081085110522" y2="74.41836007529568"></line><line fill="none" stroke-width="1.5" stroke="rgb(142,64,133)" x1="34.145900498268816" x2="34.63546327518411" y1="58.53145253562387" y2="74.15933445358023"></line><line fill="none" stroke-width="1.5" stroke="rgb(142,64,133)" x1="42.73716440736985" x2="43.72331085284028" y1="54.440200362601146" y2="73.88007707069667"></line><line fill="none" stroke-width="1.5" stroke="rgb(142,64,133)" x1="51.98904551634608" x2="51.494310053215344" y1="50.03435518171349" y2="73.6412846745277"></line><polygon fill="none" points="42.26670591034776,-9.026649529746384 33.92305402891525,-30.45485218692865 -17.857513290581146,-6.85687317927119" stroke-width="1.5" stroke="rgb(142,64,133)"></polygon><polygon fill="none" points="37.92858877608467,-11.245929657197557 31.851135791497633,-28.617782240900777 -8.959966954582132,-9.720743106264969" stroke-width="1.5" stroke="rgb(142,64,133)"></polygon><polygon fill="none" points="34.469995198308325,-13.015265928794832 29.152911193115457,-26.225396659363987 -2.260743864511767,-11.877034607018441" stroke-width="1.5" stroke="rgb(142,64,133)"></polygon><polygon fill="none" points="29.72380188480179,-15.443308366495387 26.782332722604522,-24.123519092851417 5.707109829703803,-14.441662619712925" stroke-width="1.5" stroke="rgb(142,64,133)"></polygon><polygon fill="none" points="25.358159033450924,-17.676670012503145 23.931831810511486,-21.596117450179513 14.243214083362801,-17.189194505759893" stroke-width="1.5" stroke="rgb(142,64,133)"></polygon><line fill="none" stroke-width="1.5" stroke="rgb(142,64,133)" x1="-8.315495396253535" x2="-14.394612622941814" y1="21.90768051829323" y2="-5.052611495089021"></line><line fill="none" stroke-width="1.5" stroke="rgb(142,64,133)" x1="1.5272222530296986" x2="-4.591871112944837" y1="16.685534680633644" y2="-5.370123829227075"></line><line fill="none" stroke-width="1.5" stroke="rgb(142,64,133)" x1="10.707671293893572" x2="6.534239955645376" y1="11.814761642652167" y2="-5.730500310812826"></line><line fill="none" stroke-width="1.5" stroke="rgb(142,64,133)" x1="19.281107789237915" x2="15.595492360859637" y1="7.266044783760904" y2="-6.023995696614805"></line><line fill="none" stroke-width="1.5" stroke="rgb(142,64,133)" x1="29.021017031803176" x2="25.575645075592583" y1="2.0984449071202995" y2="-6.347254407484359"></line><line fill="none" stroke-width="1.5" stroke="rgb(142,64,133)" x1="36.99680635805341" x2="35.39852275433218" y1="-2.133184660670917" y2="-6.665418955284432"></line><line fill="none" stroke-width="1.5" stroke="rgb(142,64,133)" x1="-13.660073797573105" x2="-23.3463765225042" y1="-5.076403322785385" y2="-0.24281473076734983"></line><line fill="none" stroke-width="1.5" stroke="rgb(142,64,133)" x1="-4.155610905997207" x2="-22.199610133640075" y1="-5.3842543657160995" y2="4.301550653739602"></line><line fill="none" stroke-width="1.5" stroke="rgb(142,64,133)" x1="6.169731247995088" x2="-21.057064768470408" y1="-5.718693816633452" y2="8.82918911448026"></line><line fill="none" stroke-width="1.5" stroke="rgb(142,64,133)" x1="16.0199360940484" x2="-19.90920213862315" y1="-6.037743495666488" y2="13.377898644076556"></line><line fill="none" stroke-width="1.5" stroke="rgb(142,64,133)" x1="26.754257889134056" x2="-18.9111237234376" y1="-6.385429861268479" y2="17.333048572638145"></line><line fill="none" stroke-width="1.5" stroke="rgb(142,64,133)" x1="36.56039036638212" x2="-17.761334236057117" y1="-6.703052029367347" y2="21.889393785281936"></line><line fill="none" stroke-width="1.5" stroke="rgb(142,64,133)" x1="33.200590873010526" x2="39.55869857189319" y1="-0.11906705611693535" y2="20.71037868692916"></line><line fill="none" stroke-width="1.5" stroke="rgb(142,64,133)" x1="21.7098420489639" x2="25.651348005954695" y1="5.9774571236106695" y2="22.099852907167495"></line><line fill="none" stroke-width="1.5" stroke="rgb(142,64,133)" x1="8.664067461374884" x2="11.523494812266406" y1="12.899014755265814" y2="23.511357399476736"></line><line fill="none" stroke-width="1.5" stroke="rgb(142,64,133)" x1="-3.7201826697477642" x2="-1.8128970105280064" y1="19.469594404016267" y2="24.843787508354172"></line><polygon fill="none" points="15.094814177722242,106.03003948591753 49.485297110176504,99.80394456218345 10.182363406535266,93.75789308965302" stroke-width="1.5" stroke="rgb(142,64,133)"></polygon><polygon fill="none" points="19.23898779351632,104.36833583360934 44.24945496217845,99.83250678140193 15.489169825742897,95.37529941072616" stroke-width="1.5" stroke="rgb(142,64,133)"></polygon><polygon fill="none" points="22.550897457116765,103.04034794160953 40.404128335272446,99.85348355246948 20.864365304407265,97.01354932177033" stroke-width="1.5" stroke="rgb(142,64,133)"></polygon><polygon fill="none" points="26.14034873606525,101.60107322655439 35.371139175106954,99.88093918150747 25.864861927531425,98.53759866667812" stroke-width="1.5" stroke="rgb(142,64,133)"></polygon><line fill="none" stroke-width="1.5" stroke="rgb(142,64,133)" x1="-14.16869176499739" x2="4.2040465E-5" y1="-114.48010358179751" y2="-149.99997"></line><line fill="none" stroke-width="1.5" stroke="rgb(142,64,133)" x1="-11.827910717308267" x2="4.2040465E-5" y1="-114.62032385535308" y2="-149.99997"></line><line fill="none" stroke-width="1.5" stroke="rgb(142,64,133)" x1="-9.749811202596634" x2="4.2040465E-5" y1="-114.7448086646932" y2="-149.99997"></line><line fill="none" stroke-width="1.5" stroke="rgb(142,64,133)" x1="-7.297134430955378" x2="4.2040465E-5" y1="-114.89173185009852" y2="-149.99997"></line><line fill="none" stroke-width="1.5" stroke="rgb(142,64,133)" x1="-4.7756439279922365" x2="4.2040465E-5" y1="-115.04277719816399" y2="-149.99997"></line><line fill="none" stroke-width="1.5" stroke="rgb(142,64,133)" x1="-2.3795474947076833" x2="4.2040465E-5" y1="-115.18631104028577" y2="-149.99997"></line><line fill="none" stroke-width="1.5" stroke="rgb(142,64,133)" x1="0.32540234165716697" x2="4.2040465E-5" y1="-115.3483461893586" y2="-149.99997"></line><line fill="none" stroke-width="1.5" stroke="rgb(142,64,133)" x1="2.866872192281498" x2="4.2040465E-5" y1="-115.50058836426837" y2="-149.99997"></line><line fill="none" stroke-width="1.5" stroke="rgb(142,64,133)" x1="42.79131006184366" x2="-9.569781835181375" y1="20.38741060555116" y2="48.946993292811825"></line><line fill="none" stroke-width="1.5" stroke="rgb(142,64,133)" x1="30.04200204192257" x2="-11.081538797605358" y1="21.661185558988006" y2="44.11134049499722"></line><line fill="none" stroke-width="1.5" stroke="rgb(142,64,133)" x1="18.630834560871286" x2="-12.530215838733982" y1="22.801267773969748" y2="39.47746126626792"></line><line fill="none" stroke-width="1.5" stroke="rgb(142,64,133)" x1="7.590657836228871" x2="-13.793238249298994" y1="23.904284547224627" y2="35.437434988791225"></line><line fill="none" stroke-width="1.5" stroke="rgb(142,64,133)" x1="-4.605538800573697" x2="-15.302515216045112" y1="25.122798507266666" y2="30.609714946264884"></line><polygon fill="none" points="-20.748052451999644,-43.95238506924121 20.731073920124114,-58.595911970188595 -18.374575679519022,-72.01240285024512" stroke-width="1.5" stroke="rgb(142,64,133)"></polygon><polygon fill="none" points="-12.190414026245666,-48.886896489146714 14.787326486052857,-58.40600251221836 -11.13846941061462,-67.43690689157411" stroke-width="1.5" stroke="rgb(142,64,133)"></polygon><polygon fill="none" points="-3.712092688542743,-53.77567203458436 9.659098878783041,-58.24214983576344 -3.1834760922372176,-62.40684812420866" stroke-width="1.5" stroke="rgb(142,64,133)"></polygon><line fill="none" stroke-width="1.5" stroke="rgb(142,64,133)" x1="12.253869063203323" x2="-16.775301" y1="-92.84318735070866" y2="-114.32396"></line><line fill="none" stroke-width="1.5" stroke="rgb(142,64,133)" x1="9.727998531669314" x2="-16.775301" y1="-100.80104484790957" y2="-114.32396"></line><line fill="none" stroke-width="1.5" stroke="rgb(142,64,133)" x1="7.278169872901831" x2="-16.775301" y1="-108.51932934255882" y2="-114.32396"></line><line fill="none" stroke-width="1.5" stroke="rgb(142,64,133)" x1="55.714537079227" x2="16.663427279999617" y1="94.6495439008128" y2="88.68361705023048"></line><line fill="none" stroke-width="1.5" stroke="rgb(142,64,133)" x1="57.17189028447687" x2="28.491343295789022" y1="88.90670202074905" y2="84.60289696822707"></line><line fill="none" stroke-width="1.5" stroke="rgb(142,64,133)" x1="58.39402764377947" x2="39.55345582549526" y1="84.0907510317161" y2="80.78638485492718"></line><line fill="none" stroke-width="1.5" stroke="rgb(142,64,133)" x1="59.78543138853928" x2="50.34777506960858" y1="78.6077894073828" y2="77.06226344146707"></line><line fill="none" stroke-width="1.5" stroke="rgb(142,64,133)" x1="0.2153229198937372" x2="52.383533273040584" y1="78.25108107817884" y2="76.35991153334069"></line><line fill="none" stroke-width="1.5" stroke="rgb(142,64,133)" x1="1.339772045292536" x2="42.660953180079126" y1="81.09793122629871" y2="79.71427487015092"></line><line fill="none" stroke-width="1.5" stroke="rgb(142,64,133)" x1="2.4569413034598684" x2="33.77623911341156" y1="83.9263504017422" y2="82.77956811930059"></line><line fill="none" stroke-width="1.5" stroke="rgb(142,64,133)" x1="3.4731212044077306" x2="24.065206012256287" y1="86.49908743019944" y2="86.12994765699632"></line><line fill="none" stroke-width="1.5" stroke="rgb(142,64,133)" x1="4.6909102368526705" x2="14.485461904251995" y1="89.58225305244585" y2="89.43503150353376"></line><polygon fill="none" points="4.2040465E-5,-149.99997 0.0,-150.0 -4.2040465E-5,-150.00003 -16.775301,-114.32396" stroke-width="1.5" stroke="rgb(142,64,133)"></polygon><polygon fill="none" points="-16.775301,-114.32396 -26.070944,-76.87893 25.727524,-58.755554 14.511822,-85.729416" stroke-width="1.5" stroke="rgb(142,64,133)"></polygon><polygon fill="none" points="11.713886,126.2626 39.586063,121.4794 54.413334,99.77706 11.279814,107.55975" stroke-width="1.5" stroke="rgb(142,64,133)"></polygon><polygon fill="none" points="54.56935,19.210674 60.59857,45.934406 -0.96870035,75.2534 -8.251961,53.162304" stroke-width="1.5" stroke="rgb(142,64,133)"></polygon><line fill="none" stroke-width="1.5" stroke="rgb(142,64,133)" x1="-2.6517223203776883" x2="6.702363279536998E-6" y1="-144.36068183619943" y2="-149.99999513468998"></line><line fill="none" stroke-width="1.5" stroke="rgb(142,64,133)" x1="-5.772438724510044" x2="1.3599699979964789E-5" y1="-137.7238304510922" y2="-149.99999012784687"></line><line fill="none" stroke-width="1.5" stroke="rgb(142,64,133)" x1="-8.332522432653736" x2="2.058271633710787E-5" y1="-132.27928089769955" y2="-149.9999850588081"></line><line fill="none" stroke-width="1.5" stroke="rgb(142,64,133)" x1="-11.091847536004627" x2="2.817427357731568E-5" y1="-126.41100314907564" y2="-149.99997954802362"></line><line fill="none" stroke-width="1.5" stroke="rgb(142,64,133)" x1="-13.790150224114738" x2="3.458285385945291E-5" y1="-120.67250223649394" y2="-149.9999748959735"></line><line fill="none" stroke-width="1.5" stroke="rgb(142,64,133)" x1="-19.002438030250868" x2="17.21617857499986" y1="-105.35252881382868" y2="-79.22541403211869"></line><line fill="none" stroke-width="1.5" stroke="rgb(142,64,133)" x1="-21.538999533599384" x2="20.21770981065169" y1="-95.13466398912067" y2="-72.00670511750351"></line><line fill="none" stroke-width="1.5" stroke="rgb(142,64,133)" x1="-23.820484480057573" x2="22.872767578502" y1="-85.94430737772296" y2="-65.62126792799613"></line><polygon fill="none" points="13.981971494847443,125.23022044476926 38.71950449330683,121.0456197236286 51.51226703843801,101.98303914350791 13.85952739458699,108.8189341196187" stroke-width="1.5" stroke="rgb(142,64,133)"></polygon><polygon fill="none" points="16.0029693311072,124.31030596596176 37.67635167158104,120.52343965508862 49.27552861479666,103.68386000999956 16.1534105301715,109.93859846712509" stroke-width="1.5" stroke="rgb(142,64,133)"></polygon><polygon fill="none" points="18.64860473692103,123.10606998322662 36.70317227092905,120.03628678970748 46.5135889334008,105.78404507967878 17.7119816471596,110.69935061080398" stroke-width="1.5" stroke="rgb(142,64,133)"></polygon><polygon fill="none" points="20.57211376994504,122.23053029790437 35.852603849424625,119.610510367127 43.63890530566582,107.96996089662704 20.375341641034996,111.99935983248442" stroke-width="1.5" stroke="rgb(142,64,133)"></polygon><polygon fill="none" points="22.32756852758922,121.43148528188544 35.1153591183659,119.24146136857463 41.651096391099315,109.48149521139453 22.340025544186894,112.95833916597968" stroke-width="1.5" stroke="rgb(142,64,133)"></polygon><polygon fill="none" points="24.884360857340894,120.26768874472765 34.18908447275731,118.77778802382872 38.6796134780509,111.74101741994517 24.290154034087564,113.91021387543033" stroke-width="1.5" stroke="rgb(142,64,133)"></polygon><polygon fill="none" points="27.399130095684775,119.1230202093602 33.09034228636119,118.22778110418017 36.09077978397012,113.70957231229644 26.95090712828516,115.20895064666135" stroke-width="1.5" stroke="rgb(142,64,133)"></polygon><polygon fill="none" points="29.324098484423455,118.24681625689844 32.03677355331046,117.70038705243822 34.212577965363835,115.13776114779184 28.61910051140915,116.02321037369582" stroke-width="1.5" stroke="rgb(142,64,133)"></polygon><polygon fill="none" points="54.56935,19.210674 60.59857,45.934406 -0.96870035,75.2534 -8.251961,53.162304" stroke-width="1.5" stroke="rgb(142,64,133)"></polygon></g></svg>